%TF.GenerationSoftware,KiCad,Pcbnew,7.0.6-0*%
%TF.CreationDate,2023-11-16T12:12:08-05:00*%
%TF.ProjectId,TADPOL PCB,54414450-4f4c-4205-9043-422e6b696361,rev?*%
%TF.SameCoordinates,Original*%
%TF.FileFunction,Copper,L2,Bot*%
%TF.FilePolarity,Positive*%
%FSLAX46Y46*%
G04 Gerber Fmt 4.6, Leading zero omitted, Abs format (unit mm)*
G04 Created by KiCad (PCBNEW 7.0.6-0) date 2023-11-16 12:12:08*
%MOMM*%
%LPD*%
G01*
G04 APERTURE LIST*
%TA.AperFunction,ComponentPad*%
%ADD10R,1.905000X2.000000*%
%TD*%
%TA.AperFunction,ComponentPad*%
%ADD11O,1.905000X2.000000*%
%TD*%
%TA.AperFunction,ComponentPad*%
%ADD12C,2.000000*%
%TD*%
%TA.AperFunction,ComponentPad*%
%ADD13R,2.000000X2.000000*%
%TD*%
%TA.AperFunction,ComponentPad*%
%ADD14C,1.700000*%
%TD*%
%TA.AperFunction,ComponentPad*%
%ADD15O,1.950000X1.700000*%
%TD*%
%TA.AperFunction,ComponentPad*%
%ADD16O,1.700000X1.950000*%
%TD*%
%TA.AperFunction,ComponentPad*%
%ADD17O,1.700000X2.000000*%
%TD*%
%TA.AperFunction,ComponentPad*%
%ADD18O,2.000000X1.700000*%
%TD*%
%TA.AperFunction,ViaPad*%
%ADD19C,0.800000*%
%TD*%
%TA.AperFunction,Conductor*%
%ADD20C,0.127000*%
%TD*%
%TA.AperFunction,Conductor*%
%ADD21C,0.250000*%
%TD*%
%TA.AperFunction,Conductor*%
%ADD22C,0.500000*%
%TD*%
G04 APERTURE END LIST*
D10*
%TO.P,Q2,1,B*%
%TO.N,SERVO_ON*%
X189992000Y-110998000D03*
D11*
%TO.P,Q2,2,C*%
%TO.N,Net-(Q2-C)*%
X192532000Y-110998000D03*
%TO.P,Q2,3,E*%
%TO.N,GND*%
X195072000Y-110998000D03*
%TD*%
D12*
%TO.P,BMP1,0,VIN*%
%TO.N,+3V3*%
X167132000Y-123190000D03*
%TO.P,BMP1,1,3V0*%
%TO.N,unconnected-(BMP1-3V0-Pad1)*%
X169672000Y-123190000D03*
%TO.P,BMP1,2,GND*%
%TO.N,GND*%
X172212000Y-123190000D03*
%TO.P,BMP1,3,SCK*%
%TO.N,SCL*%
X174752000Y-123190000D03*
%TO.P,BMP1,4,SDO*%
%TO.N,unconnected-(BMP1-SDO-Pad4)*%
X177292000Y-123190000D03*
%TO.P,BMP1,5,SDI*%
%TO.N,SDA*%
X179832000Y-123190000D03*
%TO.P,BMP1,6,CS*%
%TO.N,unconnected-(BMP1-CS-Pad6)*%
X182372000Y-123190000D03*
%TD*%
D13*
%TO.P,BZ1,1,-*%
%TO.N,BUZZER*%
X215412000Y-115062000D03*
D12*
%TO.P,BZ1,2,+*%
%TO.N,GND*%
X223012000Y-115062000D03*
%TD*%
%TO.P,Teensy4.1,0,GND*%
%TO.N,GND*%
X160020000Y-105410000D03*
%TO.P,Teensy4.1,1,RX1*%
%TO.N,unconnected-(Teensy4.1-RX1-Pad1)*%
X162560000Y-105410000D03*
%TO.P,Teensy4.1,2,TX1*%
%TO.N,unconnected-(Teensy4.1-TX1-Pad2)*%
X165100000Y-105410000D03*
%TO.P,Teensy4.1,3,PWM*%
%TO.N,PWM1*%
X167640000Y-105410000D03*
%TO.P,Teensy4.1,4,PWM*%
%TO.N,PWM2*%
X170180000Y-105410000D03*
%TO.P,Teensy4.1,5,PWM*%
%TO.N,SERVO_ON*%
X172720000Y-105410000D03*
%TO.P,Teensy4.1,6,PWM*%
%TO.N,unconnected-(Teensy4.1-PWM-Pad6)*%
X175260000Y-105410000D03*
%TO.P,Teensy4.1,7,PWM*%
%TO.N,STR_GLIDER*%
X177800000Y-105410000D03*
%TO.P,Teensy4.1,8,RX2*%
%TO.N,unconnected-(Teensy4.1-RX2-Pad8)*%
X180340000Y-105410000D03*
%TO.P,Teensy4.1,9,TX2*%
%TO.N,unconnected-(Teensy4.1-TX2-Pad9)*%
X182880000Y-105410000D03*
%TO.P,Teensy4.1,10,PWM*%
%TO.N,BUZZER*%
X185420000Y-105410000D03*
%TO.P,Teensy4.1,11,CS*%
%TO.N,unconnected-(Teensy4.1-CS-Pad11)*%
X187960000Y-105410000D03*
%TO.P,Teensy4.1,12,MOSI*%
%TO.N,unconnected-(Teensy4.1-MOSI-Pad12)*%
X190500000Y-105410000D03*
%TO.P,Teensy4.1,13,MISO*%
%TO.N,unconnected-(Teensy4.1-MISO-Pad13)*%
X193040000Y-105410000D03*
%TO.P,Teensy4.1,14,3.3V*%
%TO.N,unconnected-(Teensy4.1-3.3V-Pad14)*%
X195580000Y-105410000D03*
%TO.P,Teensy4.1,15,SCL2*%
%TO.N,SCL_COM*%
X198120000Y-105410000D03*
%TO.P,Teensy4.1,16,SDA2*%
%TO.N,SDA_COM*%
X200660000Y-105410000D03*
%TO.P,Teensy4.1,17,MOSI1*%
%TO.N,unconnected-(Teensy4.1-MOSI1-Pad17)*%
X203200000Y-105410000D03*
%TO.P,Teensy4.1,18,SCK1*%
%TO.N,unconnected-(Teensy4.1-SCK1-Pad18)*%
X205740000Y-105410000D03*
%TO.P,Teensy4.1,19,RX7*%
%TO.N,unconnected-(Teensy4.1-RX7-Pad19)*%
X208280000Y-105410000D03*
%TO.P,Teensy4.1,20,TX7*%
%TO.N,unconnected-(Teensy4.1-TX7-Pad20)*%
X210820000Y-105410000D03*
%TO.P,Teensy4.1,21,GPIO*%
%TO.N,unconnected-(Teensy4.1-GPIO-Pad21)*%
X213360000Y-105410000D03*
%TO.P,Teensy4.1,22,GPIO*%
%TO.N,unconnected-(Teensy4.1-GPIO-Pad22)*%
X215900000Y-105410000D03*
%TO.P,Teensy4.1,23,GPIO*%
%TO.N,unconnected-(Teensy4.1-GPIO-Pad23)*%
X218440000Y-105410000D03*
%TO.P,Teensy4.1,24,PWM*%
%TO.N,unconnected-(Teensy4.1-PWM-Pad24)*%
X218440000Y-90170000D03*
%TO.P,Teensy4.1,25,RX8*%
%TO.N,unconnected-(Teensy4.1-RX8-Pad25)*%
X215900000Y-90170000D03*
%TO.P,Teensy4.1,26,TX8*%
%TO.N,unconnected-(Teensy4.1-TX8-Pad26)*%
X213360000Y-90170000D03*
%TO.P,Teensy4.1,27,PWM*%
%TO.N,unconnected-(Teensy4.1-PWM-Pad27)*%
X210820000Y-90170000D03*
%TO.P,Teensy4.1,28,PWM*%
%TO.N,unconnected-(Teensy4.1-PWM-Pad28)*%
X208280000Y-90170000D03*
%TO.P,Teensy4.1,29,CS1*%
%TO.N,unconnected-(Teensy4.1-CS1-Pad29)*%
X205740000Y-90170000D03*
%TO.P,Teensy4.1,30,MISO*%
%TO.N,unconnected-(Teensy4.1-MISO-Pad30)*%
X203200000Y-90170000D03*
%TO.P,Teensy4.1,31,A16*%
%TO.N,unconnected-(Teensy4.1-A16-Pad31)*%
X200660000Y-90170000D03*
%TO.P,Teensy4.1,32,A17*%
%TO.N,unconnected-(Teensy4.1-A17-Pad32)*%
X198120000Y-90170000D03*
%TO.P,Teensy4.1,33,GND*%
%TO.N,unconnected-(Teensy4.1-GND-Pad33)*%
X195580000Y-90170000D03*
%TO.P,Teensy4.1,34,SCK*%
%TO.N,unconnected-(Teensy4.1-SCK-Pad34)*%
X193040000Y-90170000D03*
%TO.P,Teensy4.1,35,A0*%
%TO.N,unconnected-(Teensy4.1-A0-Pad35)*%
X190500000Y-90170000D03*
%TO.P,Teensy4.1,36,A1*%
%TO.N,unconnected-(Teensy4.1-A1-Pad36)*%
X187960000Y-90170000D03*
%TO.P,Teensy4.1,37,A2*%
%TO.N,unconnected-(Teensy4.1-A2-Pad37)*%
X185420000Y-90170000D03*
%TO.P,Teensy4.1,38,A3*%
%TO.N,unconnected-(Teensy4.1-A3-Pad38)*%
X182880000Y-90170000D03*
%TO.P,Teensy4.1,39,SDA*%
%TO.N,SDA*%
X180340000Y-90170000D03*
%TO.P,Teensy4.1,40,SCL*%
%TO.N,SCL*%
X177800000Y-90170000D03*
%TO.P,Teensy4.1,41,TX5*%
%TO.N,unconnected-(Teensy4.1-TX5-Pad41)*%
X175260000Y-90170000D03*
%TO.P,Teensy4.1,42,RX5*%
%TO.N,unconnected-(Teensy4.1-RX5-Pad42)*%
X172720000Y-90170000D03*
%TO.P,Teensy4.1,43,PWM*%
%TO.N,NICHROME_SIGNAL2*%
X170180000Y-90170000D03*
%TO.P,Teensy4.1,44,PWM*%
%TO.N,NICHROME_SIGNAL1*%
X167640000Y-90170000D03*
%TO.P,Teensy4.1,45,3.3V*%
%TO.N,+3V3*%
X165100000Y-90170000D03*
%TO.P,Teensy4.1,46,GND*%
%TO.N,GND*%
X162560000Y-90170000D03*
%TO.P,Teensy4.1,47,Vin*%
%TO.N,+5V*%
X160020000Y-90170000D03*
%TD*%
%TO.P,BNO1,0,Vin*%
%TO.N,+3V3*%
X207264000Y-116332000D03*
%TO.P,BNO1,1,3vo*%
%TO.N,unconnected-(BNO1-3vo-Pad1)*%
X204724000Y-116332000D03*
%TO.P,BNO1,2,GND*%
%TO.N,GND*%
X202184000Y-116332000D03*
%TO.P,BNO1,3,SCL*%
%TO.N,SCL*%
X199644000Y-116332000D03*
%TO.P,BNO1,4,SDA*%
%TO.N,SDA*%
X197104000Y-116332000D03*
%TO.P,BNO1,5,RST*%
%TO.N,unconnected-(BNO1-RST-Pad5)*%
X194564000Y-116332000D03*
%TO.P,BNO1,6,INT*%
%TO.N,unconnected-(BNO1-INT-Pad6)*%
X204724000Y-131572000D03*
%TO.P,BNO1,7,ADR*%
%TO.N,unconnected-(BNO1-ADR-Pad7)*%
X202184000Y-131572000D03*
%TO.P,BNO1,8,PS0*%
%TO.N,unconnected-(BNO1-PS0-Pad8)*%
X199644000Y-131572000D03*
%TO.P,BNO1,9,PS1*%
%TO.N,unconnected-(BNO1-PS1-Pad9)*%
X197104000Y-131572000D03*
%TD*%
D14*
%TO.P,Nichrome_Connector1,1,Pin_1*%
%TO.N,VIN*%
X160765000Y-95544000D03*
D15*
%TO.P,Nichrome_Connector1,2,Pin_2*%
%TO.N,NICHROME_SIGNAL1*%
X160765000Y-98044000D03*
%TO.P,Nichrome_Connector1,3,Pin_3*%
%TO.N,GND*%
X160765000Y-100544000D03*
%TD*%
D14*
%TO.P,Nichrome_Connector2,1,Pin_1*%
%TO.N,VIN*%
X170637200Y-94934400D03*
D15*
%TO.P,Nichrome_Connector2,2,Pin_2*%
%TO.N,NICHROME_SIGNAL2*%
X170637200Y-97434400D03*
%TO.P,Nichrome_Connector2,3,Pin_3*%
%TO.N,GND*%
X170637200Y-99934400D03*
%TD*%
D12*
%TO.P,Sparkfun_NEO-M9N1,0,GND*%
%TO.N,unconnected-(Sparkfun_NEO-M9N1-GND-Pad0)*%
X204724000Y-93218000D03*
%TO.P,Sparkfun_NEO-M9N1,1,5V*%
%TO.N,unconnected-(Sparkfun_NEO-M9N1-5V-Pad1)*%
X202184000Y-93218000D03*
%TO.P,Sparkfun_NEO-M9N1,2,3V3*%
%TO.N,unconnected-(Sparkfun_NEO-M9N1-3V3-Pad2)*%
X199644000Y-93218000D03*
%TO.P,Sparkfun_NEO-M9N1,3,CS*%
%TO.N,unconnected-(Sparkfun_NEO-M9N1-CS-Pad3)*%
X197104000Y-93218000D03*
%TO.P,Sparkfun_NEO-M9N1,4,RX/SDI*%
%TO.N,unconnected-(Sparkfun_NEO-M9N1-RX{slash}SDI-Pad4)*%
X194564000Y-93218000D03*
%TO.P,Sparkfun_NEO-M9N1,5,TX/SDO*%
%TO.N,unconnected-(Sparkfun_NEO-M9N1-TX{slash}SDO-Pad5)*%
X192024000Y-93218000D03*
%TO.P,Sparkfun_NEO-M9N1,6,SCK*%
%TO.N,unconnected-(Sparkfun_NEO-M9N1-SCK-Pad6)*%
X189484000Y-93218000D03*
%TO.P,Sparkfun_NEO-M9N1,7,PPS*%
%TO.N,unconnected-(Sparkfun_NEO-M9N1-PPS-Pad7)*%
X209804000Y-127508000D03*
%TO.P,Sparkfun_NEO-M9N1,8,RST*%
%TO.N,unconnected-(Sparkfun_NEO-M9N1-RST-Pad8)*%
X207264000Y-127508000D03*
%TO.P,Sparkfun_NEO-M9N1,9,SAFE*%
%TO.N,unconnected-(Sparkfun_NEO-M9N1-SAFE-Pad9)*%
X204724000Y-127508000D03*
%TO.P,Sparkfun_NEO-M9N1,10,INT*%
%TO.N,unconnected-(Sparkfun_NEO-M9N1-INT-Pad10)*%
X202184000Y-127508000D03*
%TO.P,Sparkfun_NEO-M9N1,11,GND*%
%TO.N,GND*%
X199644000Y-127508000D03*
%TO.P,Sparkfun_NEO-M9N1,12,3V3*%
%TO.N,+3V3*%
X197104000Y-127508000D03*
%TO.P,Sparkfun_NEO-M9N1,13,SDA*%
%TO.N,SDA*%
X194564000Y-127508000D03*
%TO.P,Sparkfun_NEO-M9N1,14,SCL*%
%TO.N,SCL*%
X192024000Y-127508000D03*
%TD*%
D14*
%TO.P,Glider_Connection1,1,Pin_1*%
%TO.N,STR_FRAME*%
X197438000Y-84582000D03*
D16*
%TO.P,Glider_Connection1,2,Pin_2*%
%TO.N,STR_GLIDER*%
X199938000Y-84582000D03*
%TO.P,Glider_Connection1,3,Pin_3*%
%TO.N,GND*%
X202438000Y-84582000D03*
%TO.P,Glider_Connection1,4,Pin_4*%
%TO.N,SDA_COM*%
X204938000Y-84582000D03*
%TO.P,Glider_Connection1,5,Pin_5*%
%TO.N,SCL_COM*%
X207438000Y-84582000D03*
%TD*%
D14*
%TO.P,Servo1,1,Pin_1*%
%TO.N,PWM1*%
X170434000Y-84582000D03*
D16*
%TO.P,Servo1,2,Pin_2*%
%TO.N,+6V*%
X167934000Y-84582000D03*
%TO.P,Servo1,3,Pin_3*%
%TO.N,Net-(Q2-C)*%
X165434000Y-84582000D03*
%TD*%
D10*
%TO.P,Voltage_Regulator_5V2,1,B*%
%TO.N,VIN*%
X164846000Y-117856000D03*
D11*
%TO.P,Voltage_Regulator_5V2,2,C*%
%TO.N,GND*%
X162306000Y-117856000D03*
%TO.P,Voltage_Regulator_5V2,3,E*%
%TO.N,+6V*%
X159766000Y-117856000D03*
%TD*%
D10*
%TO.P,D1,1,K*%
%TO.N,VIN*%
X175742600Y-112776000D03*
D11*
%TO.P,D1,2,A*%
%TO.N,Net-(Bypass_Switch1-Pin_1)*%
X173202600Y-112776000D03*
%TO.P,D1,3,G*%
%TO.N,STR_FRAME*%
X170662600Y-112776000D03*
%TD*%
D14*
%TO.P,Bypass_Switch1,1,Pin_1*%
%TO.N,Net-(Bypass_Switch1-Pin_1)*%
X174574200Y-118618000D03*
D17*
%TO.P,Bypass_Switch1,2,Pin_2*%
%TO.N,VIN*%
X172074200Y-118618000D03*
%TD*%
D14*
%TO.P,Servo2,1,Pin_1*%
%TO.N,PWM2*%
X182332000Y-84565000D03*
D16*
%TO.P,Servo2,2,Pin_2*%
%TO.N,+6V*%
X179832000Y-84565000D03*
%TO.P,Servo2,3,Pin_3*%
%TO.N,Net-(Q2-C)*%
X177332000Y-84565000D03*
%TD*%
D10*
%TO.P,Voltage_Regulator_5V1,1,B*%
%TO.N,VIN*%
X164846000Y-112776000D03*
D11*
%TO.P,Voltage_Regulator_5V1,2,C*%
%TO.N,GND*%
X162306000Y-112776000D03*
%TO.P,Voltage_Regulator_5V1,3,E*%
%TO.N,+5V*%
X159766000Y-112776000D03*
%TD*%
D14*
%TO.P,Power1,1,Pin_1*%
%TO.N,Net-(Bypass_Switch1-Pin_1)*%
X169342000Y-130588000D03*
D17*
%TO.P,Power1,2,Pin_2*%
%TO.N,GND*%
X166842000Y-130588000D03*
%TD*%
D14*
%TO.P,PWR_OUT1,1,Pin_1*%
%TO.N,VIN*%
X160528000Y-125182000D03*
D18*
%TO.P,PWR_OUT1,2,Pin_2*%
%TO.N,GND*%
X160528000Y-122682000D03*
%TD*%
D19*
%TO.N,STR_GLIDER*%
X194208400Y-83464400D03*
%TO.N,STR_FRAME*%
X207060800Y-100050600D03*
%TO.N,SCL*%
X184912000Y-95758000D03*
%TO.N,Net-(Q2-C)*%
X179832000Y-107696000D03*
%TO.N,NICHROME_SIGNAL1*%
X163576000Y-96012000D03*
%TO.N,BUZZER*%
X195072000Y-108458000D03*
%TO.N,VIN*%
X162306000Y-108712000D03*
X167640000Y-101854000D03*
%TO.N,+6V*%
X157519800Y-109688200D03*
X157500500Y-93218000D03*
%TD*%
D20*
%TO.N,SCL_COM*%
X197416400Y-87325200D02*
X202234800Y-87325200D01*
X205914000Y-83058000D02*
X207438000Y-84582000D01*
X203708000Y-85852000D02*
X203708000Y-83566000D01*
X204216000Y-83058000D02*
X205914000Y-83058000D01*
X202234800Y-87325200D02*
X203708000Y-85852000D01*
X203708000Y-83566000D02*
X204216000Y-83058000D01*
%TO.N,SDA_COM*%
X200660000Y-105410000D02*
X200907500Y-105162500D01*
X202456400Y-87865600D02*
X204938000Y-85384000D01*
X200907500Y-105162500D02*
X200907500Y-92694641D01*
X199916400Y-87865600D02*
X202456400Y-87865600D01*
X200907500Y-92694641D02*
X199396500Y-91183641D01*
X204938000Y-85384000D02*
X204938000Y-84582000D01*
X199396500Y-88385500D02*
X199916400Y-87865600D01*
X199396500Y-91183641D02*
X199396500Y-88385500D01*
%TO.N,STR_GLIDER*%
X192765200Y-83459800D02*
X194203800Y-83459800D01*
%TO.N,SDA_COM*%
X204916400Y-84759800D02*
X204203101Y-84759800D01*
%TO.N,STR_GLIDER*%
X192765200Y-83459800D02*
X186696500Y-89528500D01*
X194203800Y-83459800D02*
X194208400Y-83464400D01*
X186696500Y-96513500D02*
X177800000Y-105410000D01*
X186696500Y-89528500D02*
X186696500Y-96513500D01*
%TO.N,STR_FRAME*%
X181711600Y-109804200D02*
X173634400Y-109804200D01*
X184302400Y-107213400D02*
X181711600Y-109804200D01*
X204463500Y-105933359D02*
X203183459Y-107213400D01*
X207003500Y-101454101D02*
X204463500Y-103994101D01*
X173634400Y-109804200D02*
X170662600Y-112776000D01*
X204463500Y-103994101D02*
X204463500Y-105933359D01*
X203183459Y-107213400D02*
X184302400Y-107213400D01*
X207003500Y-101454101D02*
X207003500Y-100107900D01*
X207003500Y-100107900D02*
X207060800Y-100050600D01*
D21*
%TO.N,SDA*%
X179832000Y-123190000D02*
X182825000Y-126183000D01*
X194564000Y-127508000D02*
X194564000Y-118872000D01*
X194564000Y-118872000D02*
X197104000Y-116332000D01*
X182825000Y-126183000D02*
X193239000Y-126183000D01*
X193239000Y-126183000D02*
X194564000Y-127508000D01*
D20*
%TO.N,SCL_COM*%
X196856500Y-91183641D02*
X198380500Y-92707641D01*
X196856500Y-87885100D02*
X196856500Y-91183641D01*
X197416400Y-87325200D02*
X196856500Y-87885100D01*
X198380500Y-92707641D02*
X198380500Y-105149500D01*
X197416400Y-87325200D02*
X197416400Y-87383600D01*
X198380500Y-105149500D02*
X198120000Y-105410000D01*
D21*
%TO.N,SCL*%
X174752000Y-123190000D02*
X175289000Y-123190000D01*
D20*
X184912000Y-95758000D02*
X184658000Y-95758000D01*
D21*
X182118000Y-95758000D02*
X182118000Y-94488000D01*
X179607000Y-127508000D02*
X192024000Y-127508000D01*
X182118000Y-95758000D02*
X184912000Y-95758000D01*
X175289000Y-123190000D02*
X179607000Y-127508000D01*
X182118000Y-94488000D02*
X177800000Y-90170000D01*
%TO.N,Net-(Q2-C)*%
X179578000Y-107950000D02*
X179832000Y-107696000D01*
X164301000Y-95467000D02*
X164301000Y-101891000D01*
X164301000Y-101891000D02*
X163322000Y-102870000D01*
X162718166Y-86868000D02*
X175029000Y-86868000D01*
X161877083Y-87709083D02*
X165004167Y-84582000D01*
X157099000Y-102870000D02*
X156464000Y-103505000D01*
X163322000Y-102870000D02*
X157099000Y-102870000D01*
X175029000Y-86868000D02*
X177332000Y-84565000D01*
X165004167Y-84582000D02*
X165434000Y-84582000D01*
X157226000Y-107950000D02*
X179578000Y-107950000D01*
X156464000Y-107188000D02*
X157226000Y-107950000D01*
X163068000Y-94234000D02*
X164301000Y-95467000D01*
X158496000Y-89662000D02*
X158496000Y-91948000D01*
X159512000Y-88646000D02*
X158496000Y-89662000D01*
X160940166Y-88646000D02*
X159512000Y-88646000D01*
X156464000Y-103505000D02*
X156464000Y-107188000D01*
X161877083Y-87709083D02*
X160940166Y-88646000D01*
X160782000Y-94234000D02*
X163068000Y-94234000D01*
X161877083Y-87709083D02*
X162718166Y-86868000D01*
X158496000Y-91948000D02*
X160782000Y-94234000D01*
%TO.N,NICHROME_SIGNAL2*%
X171937200Y-91927200D02*
X171937200Y-96134400D01*
X171937200Y-96134400D02*
X170637200Y-97434400D01*
X170180000Y-90170000D02*
X171937200Y-91927200D01*
%TO.N,NICHROME_SIGNAL1*%
X160765000Y-98044000D02*
X161544000Y-98044000D01*
X161544000Y-98044000D02*
X163576000Y-96012000D01*
X160765000Y-98281000D02*
X160765000Y-98044000D01*
%TO.N,BUZZER*%
X208808000Y-108458000D02*
X215412000Y-115062000D01*
X195072000Y-108458000D02*
X208808000Y-108458000D01*
D22*
%TO.N,VIN*%
X164846000Y-117856000D02*
X171312200Y-117856000D01*
X172074200Y-118618000D02*
X172074200Y-116444400D01*
X171312200Y-117856000D02*
X172074200Y-118618000D01*
X167640000Y-101854000D02*
X167640000Y-97931600D01*
X162306000Y-108712000D02*
X164846000Y-111252000D01*
X167640000Y-97931600D02*
X170637200Y-94934400D01*
X172074200Y-116444400D02*
X175742600Y-112776000D01*
X164846000Y-112776000D02*
X164846000Y-117856000D01*
X164846000Y-111252000D02*
X164846000Y-112776000D01*
%TO.N,+6V*%
X157500500Y-93218000D02*
X157500500Y-89844328D01*
X177817000Y-82550000D02*
X179832000Y-84565000D01*
X169926000Y-82550000D02*
X177817000Y-82550000D01*
X167934000Y-84542000D02*
X169926000Y-82550000D01*
X157519800Y-109688200D02*
X156972000Y-110236000D01*
X156972000Y-115062000D02*
X159766000Y-117856000D01*
X164286828Y-83058000D02*
X166410000Y-83058000D01*
X156972000Y-110236000D02*
X156972000Y-115062000D01*
X157500500Y-89844328D02*
X164286828Y-83058000D01*
X167934000Y-84582000D02*
X167934000Y-84542000D01*
X166410000Y-83058000D02*
X167934000Y-84582000D01*
%TD*%
%TA.AperFunction,Conductor*%
%TO.N,GND*%
G36*
X224732539Y-81300185D02*
G01*
X224778294Y-81352989D01*
X224789500Y-81404500D01*
X224789500Y-135003500D01*
X224769815Y-135070539D01*
X224717011Y-135116294D01*
X224665500Y-135127500D01*
X156080500Y-135127500D01*
X156013461Y-135107815D01*
X155967706Y-135055011D01*
X155956500Y-135003500D01*
X155956500Y-132147763D01*
X157149787Y-132147763D01*
X157179413Y-132417013D01*
X157179415Y-132417024D01*
X157247926Y-132679082D01*
X157247928Y-132679088D01*
X157353870Y-132928390D01*
X157494979Y-133159605D01*
X157494986Y-133159615D01*
X157668253Y-133367819D01*
X157668259Y-133367824D01*
X157869998Y-133548582D01*
X158095910Y-133698044D01*
X158341176Y-133813020D01*
X158341183Y-133813022D01*
X158341185Y-133813023D01*
X158600557Y-133891057D01*
X158600564Y-133891058D01*
X158600569Y-133891060D01*
X158868561Y-133930500D01*
X158868566Y-133930500D01*
X159071636Y-133930500D01*
X159123133Y-133926730D01*
X159274156Y-133915677D01*
X159386758Y-133890593D01*
X159538546Y-133856782D01*
X159538548Y-133856781D01*
X159538553Y-133856780D01*
X159791558Y-133760014D01*
X160027777Y-133627441D01*
X160242177Y-133461888D01*
X160430186Y-133266881D01*
X160587799Y-133046579D01*
X160661787Y-132902669D01*
X160711649Y-132805690D01*
X160711651Y-132805684D01*
X160711656Y-132805675D01*
X160799118Y-132549305D01*
X160848319Y-132282933D01*
X160858212Y-132012235D01*
X160828586Y-131742982D01*
X160760072Y-131480912D01*
X160654130Y-131231610D01*
X160513018Y-131000390D01*
X160423747Y-130893119D01*
X160377877Y-130838000D01*
X165495592Y-130838000D01*
X165507430Y-130973315D01*
X165507432Y-130973326D01*
X165568566Y-131201483D01*
X165568570Y-131201492D01*
X165668399Y-131415577D01*
X165668400Y-131415579D01*
X165803886Y-131609073D01*
X165803891Y-131609079D01*
X165970917Y-131776105D01*
X166164421Y-131911600D01*
X166378507Y-132011429D01*
X166378516Y-132011433D01*
X166592000Y-132068634D01*
X166592000Y-131023501D01*
X166699685Y-131072680D01*
X166806237Y-131088000D01*
X166877763Y-131088000D01*
X166984315Y-131072680D01*
X167092000Y-131023501D01*
X167092000Y-132068633D01*
X167305483Y-132011433D01*
X167305492Y-132011429D01*
X167519577Y-131911600D01*
X167519579Y-131911599D01*
X167713073Y-131776113D01*
X167713079Y-131776108D01*
X167880108Y-131609079D01*
X167880113Y-131609073D01*
X168015598Y-131415579D01*
X168027652Y-131389730D01*
X168073823Y-131337289D01*
X168141016Y-131318135D01*
X168207898Y-131338349D01*
X168241610Y-131371006D01*
X168303505Y-131459401D01*
X168470599Y-131626495D01*
X168567384Y-131694264D01*
X168664165Y-131762032D01*
X168664167Y-131762033D01*
X168664170Y-131762035D01*
X168878337Y-131861903D01*
X169106592Y-131923063D01*
X169294918Y-131939539D01*
X169341999Y-131943659D01*
X169342000Y-131943659D01*
X169342001Y-131943659D01*
X169381234Y-131940226D01*
X169577408Y-131923063D01*
X169805663Y-131861903D01*
X170019830Y-131762035D01*
X170213401Y-131626495D01*
X170267891Y-131572005D01*
X195598357Y-131572005D01*
X195618890Y-131819812D01*
X195618892Y-131819824D01*
X195679936Y-132060881D01*
X195779826Y-132288606D01*
X195915833Y-132496782D01*
X195915836Y-132496785D01*
X196084256Y-132679738D01*
X196280491Y-132832474D01*
X196499190Y-132950828D01*
X196734386Y-133031571D01*
X196979665Y-133072500D01*
X197228335Y-133072500D01*
X197473614Y-133031571D01*
X197708810Y-132950828D01*
X197927509Y-132832474D01*
X198123744Y-132679738D01*
X198282771Y-132506988D01*
X198342657Y-132470999D01*
X198412495Y-132473099D01*
X198465228Y-132506988D01*
X198624256Y-132679738D01*
X198820491Y-132832474D01*
X199039190Y-132950828D01*
X199274386Y-133031571D01*
X199519665Y-133072500D01*
X199768335Y-133072500D01*
X200013614Y-133031571D01*
X200248810Y-132950828D01*
X200467509Y-132832474D01*
X200663744Y-132679738D01*
X200822771Y-132506988D01*
X200882657Y-132470999D01*
X200952495Y-132473099D01*
X201005228Y-132506988D01*
X201164256Y-132679738D01*
X201360491Y-132832474D01*
X201579190Y-132950828D01*
X201814386Y-133031571D01*
X202059665Y-133072500D01*
X202308335Y-133072500D01*
X202553614Y-133031571D01*
X202788810Y-132950828D01*
X203007509Y-132832474D01*
X203203744Y-132679738D01*
X203362771Y-132506988D01*
X203422657Y-132470999D01*
X203492495Y-132473099D01*
X203545228Y-132506988D01*
X203704256Y-132679738D01*
X203900491Y-132832474D01*
X204119190Y-132950828D01*
X204354386Y-133031571D01*
X204599665Y-133072500D01*
X204848335Y-133072500D01*
X205093614Y-133031571D01*
X205328810Y-132950828D01*
X205547509Y-132832474D01*
X205743744Y-132679738D01*
X205912164Y-132496785D01*
X206048173Y-132288607D01*
X206109953Y-132147763D01*
X219887787Y-132147763D01*
X219917413Y-132417013D01*
X219917415Y-132417024D01*
X219985926Y-132679082D01*
X219985928Y-132679088D01*
X220091870Y-132928390D01*
X220232979Y-133159605D01*
X220232986Y-133159615D01*
X220406253Y-133367819D01*
X220406259Y-133367824D01*
X220607998Y-133548582D01*
X220833910Y-133698044D01*
X221079176Y-133813020D01*
X221079183Y-133813022D01*
X221079185Y-133813023D01*
X221338557Y-133891057D01*
X221338564Y-133891058D01*
X221338569Y-133891060D01*
X221606561Y-133930500D01*
X221606566Y-133930500D01*
X221809636Y-133930500D01*
X221861133Y-133926730D01*
X222012156Y-133915677D01*
X222124758Y-133890593D01*
X222276546Y-133856782D01*
X222276548Y-133856781D01*
X222276553Y-133856780D01*
X222529558Y-133760014D01*
X222765777Y-133627441D01*
X222980177Y-133461888D01*
X223168186Y-133266881D01*
X223325799Y-133046579D01*
X223399787Y-132902669D01*
X223449649Y-132805690D01*
X223449651Y-132805684D01*
X223449656Y-132805675D01*
X223537118Y-132549305D01*
X223586319Y-132282933D01*
X223596212Y-132012235D01*
X223566586Y-131742982D01*
X223498072Y-131480912D01*
X223392130Y-131231610D01*
X223251018Y-131000390D01*
X223161747Y-130893119D01*
X223077746Y-130792180D01*
X223077740Y-130792175D01*
X222876002Y-130611418D01*
X222650092Y-130461957D01*
X222650090Y-130461956D01*
X222404824Y-130346980D01*
X222404819Y-130346978D01*
X222404814Y-130346976D01*
X222145442Y-130268942D01*
X222145428Y-130268939D01*
X222029791Y-130251921D01*
X221877439Y-130229500D01*
X221674369Y-130229500D01*
X221674364Y-130229500D01*
X221471844Y-130244323D01*
X221471831Y-130244325D01*
X221207453Y-130303217D01*
X221207446Y-130303220D01*
X220954439Y-130399987D01*
X220718226Y-130532557D01*
X220503822Y-130698112D01*
X220315822Y-130893109D01*
X220315816Y-130893116D01*
X220158202Y-131113419D01*
X220158199Y-131113424D01*
X220034350Y-131354309D01*
X220034343Y-131354327D01*
X219946884Y-131610685D01*
X219946881Y-131610699D01*
X219943963Y-131626498D01*
X219908257Y-131819812D01*
X219897681Y-131877068D01*
X219897680Y-131877075D01*
X219887787Y-132147763D01*
X206109953Y-132147763D01*
X206148063Y-132060881D01*
X206209108Y-131819821D01*
X206212731Y-131776105D01*
X206225127Y-131626495D01*
X206229643Y-131572000D01*
X206210282Y-131338349D01*
X206209109Y-131324187D01*
X206209107Y-131324175D01*
X206148063Y-131083118D01*
X206048173Y-130855393D01*
X205912166Y-130647217D01*
X205890557Y-130623744D01*
X205743744Y-130464262D01*
X205547509Y-130311526D01*
X205547507Y-130311525D01*
X205547506Y-130311524D01*
X205328811Y-130193172D01*
X205328802Y-130193169D01*
X205093616Y-130112429D01*
X204848335Y-130071500D01*
X204599665Y-130071500D01*
X204354383Y-130112429D01*
X204119197Y-130193169D01*
X204119188Y-130193172D01*
X203900493Y-130311524D01*
X203704257Y-130464261D01*
X203545230Y-130637010D01*
X203485342Y-130673001D01*
X203415504Y-130670900D01*
X203362770Y-130637010D01*
X203317652Y-130587999D01*
X203203744Y-130464262D01*
X203007509Y-130311526D01*
X203007507Y-130311525D01*
X203007506Y-130311524D01*
X202788811Y-130193172D01*
X202788802Y-130193169D01*
X202553616Y-130112429D01*
X202308335Y-130071500D01*
X202059665Y-130071500D01*
X201814383Y-130112429D01*
X201579197Y-130193169D01*
X201579188Y-130193172D01*
X201360493Y-130311524D01*
X201164257Y-130464261D01*
X201005230Y-130637010D01*
X200945342Y-130673001D01*
X200875504Y-130670900D01*
X200822770Y-130637010D01*
X200777652Y-130587999D01*
X200663744Y-130464262D01*
X200467509Y-130311526D01*
X200467507Y-130311525D01*
X200467506Y-130311524D01*
X200248811Y-130193172D01*
X200248802Y-130193169D01*
X200013616Y-130112429D01*
X199768335Y-130071500D01*
X199519665Y-130071500D01*
X199274383Y-130112429D01*
X199039197Y-130193169D01*
X199039188Y-130193172D01*
X198820493Y-130311524D01*
X198624257Y-130464261D01*
X198465230Y-130637010D01*
X198405342Y-130673001D01*
X198335504Y-130670900D01*
X198282770Y-130637010D01*
X198237652Y-130587999D01*
X198123744Y-130464262D01*
X197927509Y-130311526D01*
X197927507Y-130311525D01*
X197927506Y-130311524D01*
X197708811Y-130193172D01*
X197708802Y-130193169D01*
X197473616Y-130112429D01*
X197228335Y-130071500D01*
X196979665Y-130071500D01*
X196734383Y-130112429D01*
X196499197Y-130193169D01*
X196499188Y-130193172D01*
X196280493Y-130311524D01*
X196084257Y-130464261D01*
X195915833Y-130647217D01*
X195779826Y-130855393D01*
X195679936Y-131083118D01*
X195618892Y-131324175D01*
X195618890Y-131324187D01*
X195598357Y-131571994D01*
X195598357Y-131572005D01*
X170267891Y-131572005D01*
X170380495Y-131459401D01*
X170516035Y-131265830D01*
X170615903Y-131051663D01*
X170677063Y-130823408D01*
X170697659Y-130588000D01*
X170677063Y-130352592D01*
X170615903Y-130124337D01*
X170516035Y-129910171D01*
X170477971Y-129855809D01*
X170380494Y-129716597D01*
X170213402Y-129549506D01*
X170213395Y-129549501D01*
X170019834Y-129413967D01*
X170019830Y-129413965D01*
X169989648Y-129399891D01*
X169805663Y-129314097D01*
X169805659Y-129314096D01*
X169805655Y-129314094D01*
X169577413Y-129252938D01*
X169577403Y-129252936D01*
X169342001Y-129232341D01*
X169341999Y-129232341D01*
X169106596Y-129252936D01*
X169106586Y-129252938D01*
X168878344Y-129314094D01*
X168878335Y-129314098D01*
X168664171Y-129413964D01*
X168664169Y-129413965D01*
X168470597Y-129549505D01*
X168303504Y-129716598D01*
X168241610Y-129804992D01*
X168187033Y-129848617D01*
X168117535Y-129855809D01*
X168055180Y-129824287D01*
X168027653Y-129786271D01*
X168015599Y-129760420D01*
X167880113Y-129566926D01*
X167880108Y-129566920D01*
X167713082Y-129399894D01*
X167519578Y-129264399D01*
X167305492Y-129164570D01*
X167305486Y-129164567D01*
X167092000Y-129107364D01*
X167092000Y-130152498D01*
X166984315Y-130103320D01*
X166877763Y-130088000D01*
X166806237Y-130088000D01*
X166699685Y-130103320D01*
X166592000Y-130152498D01*
X166592000Y-129107364D01*
X166591999Y-129107364D01*
X166378513Y-129164567D01*
X166378507Y-129164570D01*
X166164422Y-129264399D01*
X166164420Y-129264400D01*
X165970926Y-129399886D01*
X165970920Y-129399891D01*
X165803891Y-129566920D01*
X165803886Y-129566926D01*
X165668400Y-129760420D01*
X165668399Y-129760422D01*
X165568570Y-129974507D01*
X165568566Y-129974516D01*
X165507432Y-130202673D01*
X165507430Y-130202684D01*
X165495592Y-130337999D01*
X165495593Y-130338000D01*
X166408314Y-130338000D01*
X166382507Y-130378156D01*
X166342000Y-130516111D01*
X166342000Y-130659889D01*
X166382507Y-130797844D01*
X166408314Y-130838000D01*
X165495592Y-130838000D01*
X160377877Y-130838000D01*
X160339746Y-130792180D01*
X160339740Y-130792175D01*
X160138002Y-130611418D01*
X159912092Y-130461957D01*
X159912090Y-130461956D01*
X159666824Y-130346980D01*
X159666819Y-130346978D01*
X159666814Y-130346976D01*
X159407442Y-130268942D01*
X159407428Y-130268939D01*
X159291791Y-130251921D01*
X159139439Y-130229500D01*
X158936369Y-130229500D01*
X158936364Y-130229500D01*
X158733844Y-130244323D01*
X158733831Y-130244325D01*
X158469453Y-130303217D01*
X158469446Y-130303220D01*
X158216439Y-130399987D01*
X157980226Y-130532557D01*
X157765822Y-130698112D01*
X157577822Y-130893109D01*
X157577816Y-130893116D01*
X157420202Y-131113419D01*
X157420199Y-131113424D01*
X157296350Y-131354309D01*
X157296343Y-131354327D01*
X157208884Y-131610685D01*
X157208881Y-131610699D01*
X157205963Y-131626498D01*
X157170257Y-131819812D01*
X157159681Y-131877068D01*
X157159680Y-131877075D01*
X157149787Y-132147763D01*
X155956500Y-132147763D01*
X155956500Y-122932000D01*
X159047364Y-122932000D01*
X159104567Y-123145486D01*
X159104570Y-123145492D01*
X159204399Y-123359577D01*
X159204400Y-123359579D01*
X159339886Y-123553073D01*
X159339891Y-123553079D01*
X159506920Y-123720108D01*
X159506926Y-123720113D01*
X159700420Y-123855599D01*
X159726271Y-123867653D01*
X159778711Y-123913824D01*
X159797864Y-123981017D01*
X159777650Y-124047899D01*
X159744992Y-124081610D01*
X159656598Y-124143504D01*
X159489505Y-124310597D01*
X159353965Y-124504169D01*
X159353964Y-124504171D01*
X159254098Y-124718335D01*
X159254094Y-124718344D01*
X159192938Y-124946586D01*
X159192936Y-124946596D01*
X159172341Y-125181999D01*
X159172341Y-125182000D01*
X159192936Y-125417403D01*
X159192938Y-125417413D01*
X159254094Y-125645655D01*
X159254096Y-125645659D01*
X159254097Y-125645663D01*
X159329824Y-125808060D01*
X159353965Y-125859830D01*
X159353967Y-125859834D01*
X159450649Y-125997909D01*
X159489505Y-126053401D01*
X159656599Y-126220495D01*
X159747848Y-126284388D01*
X159850165Y-126356032D01*
X159850167Y-126356033D01*
X159850170Y-126356035D01*
X160064337Y-126455903D01*
X160292592Y-126517063D01*
X160480918Y-126533539D01*
X160527999Y-126537659D01*
X160528000Y-126537659D01*
X160528001Y-126537659D01*
X160567234Y-126534226D01*
X160763408Y-126517063D01*
X160991663Y-126455903D01*
X161205830Y-126356035D01*
X161399401Y-126220495D01*
X161566495Y-126053401D01*
X161702035Y-125859830D01*
X161801903Y-125645663D01*
X161863063Y-125417408D01*
X161883659Y-125182000D01*
X161863063Y-124946592D01*
X161801903Y-124718337D01*
X161702035Y-124504171D01*
X161680325Y-124473165D01*
X161566494Y-124310597D01*
X161399402Y-124143506D01*
X161399401Y-124143505D01*
X161311006Y-124081610D01*
X161267383Y-124027034D01*
X161260190Y-123957535D01*
X161291712Y-123895181D01*
X161329730Y-123867652D01*
X161355579Y-123855598D01*
X161549073Y-123720113D01*
X161549079Y-123720108D01*
X161716105Y-123553082D01*
X161851600Y-123359578D01*
X161930672Y-123190005D01*
X165626357Y-123190005D01*
X165646890Y-123437812D01*
X165646892Y-123437824D01*
X165707936Y-123678881D01*
X165807826Y-123906606D01*
X165943833Y-124114782D01*
X165976245Y-124149991D01*
X166112256Y-124297738D01*
X166308491Y-124450474D01*
X166308493Y-124450475D01*
X166526332Y-124568364D01*
X166527190Y-124568828D01*
X166746141Y-124643994D01*
X166760964Y-124649083D01*
X166762386Y-124649571D01*
X167007665Y-124690500D01*
X167256335Y-124690500D01*
X167501614Y-124649571D01*
X167736810Y-124568828D01*
X167955509Y-124450474D01*
X168151744Y-124297738D01*
X168310771Y-124124988D01*
X168370657Y-124088999D01*
X168440495Y-124091099D01*
X168493228Y-124124988D01*
X168652256Y-124297738D01*
X168848491Y-124450474D01*
X168848493Y-124450475D01*
X169066332Y-124568364D01*
X169067190Y-124568828D01*
X169286141Y-124643994D01*
X169300964Y-124649083D01*
X169302386Y-124649571D01*
X169547665Y-124690500D01*
X169796335Y-124690500D01*
X170041614Y-124649571D01*
X170276810Y-124568828D01*
X170495509Y-124450474D01*
X170691744Y-124297738D01*
X170860164Y-124114785D01*
X170860533Y-124114219D01*
X170860745Y-124114038D01*
X170863322Y-124110729D01*
X170864002Y-124111258D01*
X170913676Y-124068860D01*
X170977138Y-124058697D01*
X170988564Y-124059882D01*
X171720866Y-123327580D01*
X171743318Y-123404040D01*
X171822605Y-123527413D01*
X171933438Y-123623451D01*
X172066839Y-123684373D01*
X172070634Y-123684918D01*
X171341942Y-124413609D01*
X171388768Y-124450055D01*
X171388770Y-124450056D01*
X171607385Y-124568364D01*
X171607396Y-124568369D01*
X171842506Y-124649083D01*
X172087707Y-124690000D01*
X172336293Y-124690000D01*
X172581493Y-124649083D01*
X172816603Y-124568369D01*
X172816614Y-124568364D01*
X173035228Y-124450057D01*
X173035231Y-124450055D01*
X173082056Y-124413609D01*
X172353365Y-123684918D01*
X172357161Y-123684373D01*
X172490562Y-123623451D01*
X172601395Y-123527413D01*
X172680682Y-123404040D01*
X172703133Y-123327579D01*
X173435434Y-124059882D01*
X173446861Y-124058697D01*
X173515573Y-124071360D01*
X173560092Y-124111194D01*
X173560683Y-124110735D01*
X173563218Y-124113992D01*
X173563456Y-124114205D01*
X173563831Y-124114780D01*
X173611709Y-124166789D01*
X173732256Y-124297738D01*
X173928491Y-124450474D01*
X173928493Y-124450475D01*
X174146332Y-124568364D01*
X174147190Y-124568828D01*
X174366141Y-124643994D01*
X174380964Y-124649083D01*
X174382386Y-124649571D01*
X174627665Y-124690500D01*
X174876335Y-124690500D01*
X175121614Y-124649571D01*
X175356810Y-124568828D01*
X175552184Y-124463096D01*
X175620510Y-124448502D01*
X175685883Y-124473165D01*
X175698880Y-124484470D01*
X177434902Y-126220493D01*
X179106197Y-127891788D01*
X179116022Y-127904051D01*
X179116243Y-127903869D01*
X179121214Y-127909878D01*
X179147217Y-127934295D01*
X179171635Y-127957226D01*
X179192529Y-127978120D01*
X179198011Y-127982373D01*
X179202443Y-127986157D01*
X179236418Y-128018062D01*
X179253976Y-128027714D01*
X179270235Y-128038395D01*
X179286064Y-128050673D01*
X179328838Y-128069182D01*
X179334056Y-128071738D01*
X179374908Y-128094197D01*
X179394316Y-128099180D01*
X179412717Y-128105480D01*
X179431104Y-128113437D01*
X179474488Y-128120308D01*
X179477119Y-128120725D01*
X179482839Y-128121909D01*
X179527981Y-128133500D01*
X179548016Y-128133500D01*
X179567414Y-128135026D01*
X179587194Y-128138159D01*
X179587195Y-128138160D01*
X179587195Y-128138159D01*
X179587196Y-128138160D01*
X179633583Y-128133775D01*
X179639422Y-128133500D01*
X190578850Y-128133500D01*
X190645889Y-128153185D01*
X190691644Y-128205989D01*
X190692405Y-128207689D01*
X190699824Y-128224603D01*
X190835833Y-128432782D01*
X190835836Y-128432785D01*
X191004256Y-128615738D01*
X191200491Y-128768474D01*
X191200493Y-128768475D01*
X191418332Y-128886364D01*
X191419190Y-128886828D01*
X191638141Y-128961994D01*
X191652964Y-128967083D01*
X191654386Y-128967571D01*
X191899665Y-129008500D01*
X192148335Y-129008500D01*
X192393614Y-128967571D01*
X192628810Y-128886828D01*
X192847509Y-128768474D01*
X193043744Y-128615738D01*
X193202771Y-128442988D01*
X193262657Y-128406999D01*
X193332495Y-128409099D01*
X193385228Y-128442988D01*
X193544256Y-128615738D01*
X193740491Y-128768474D01*
X193740493Y-128768475D01*
X193958332Y-128886364D01*
X193959190Y-128886828D01*
X194178141Y-128961994D01*
X194192964Y-128967083D01*
X194194386Y-128967571D01*
X194439665Y-129008500D01*
X194688335Y-129008500D01*
X194933614Y-128967571D01*
X195168810Y-128886828D01*
X195387509Y-128768474D01*
X195583744Y-128615738D01*
X195742771Y-128442988D01*
X195802657Y-128406999D01*
X195872495Y-128409099D01*
X195925228Y-128442988D01*
X196084256Y-128615738D01*
X196280491Y-128768474D01*
X196280493Y-128768475D01*
X196498332Y-128886364D01*
X196499190Y-128886828D01*
X196718141Y-128961994D01*
X196732964Y-128967083D01*
X196734386Y-128967571D01*
X196979665Y-129008500D01*
X197228335Y-129008500D01*
X197473614Y-128967571D01*
X197708810Y-128886828D01*
X197927509Y-128768474D01*
X198123744Y-128615738D01*
X198292164Y-128432785D01*
X198292533Y-128432219D01*
X198292745Y-128432038D01*
X198295322Y-128428729D01*
X198296002Y-128429258D01*
X198345676Y-128386860D01*
X198409138Y-128376697D01*
X198420564Y-128377882D01*
X199152866Y-127645580D01*
X199175318Y-127722040D01*
X199254605Y-127845413D01*
X199365438Y-127941451D01*
X199498839Y-128002373D01*
X199502634Y-128002918D01*
X198773942Y-128731609D01*
X198820768Y-128768055D01*
X198820770Y-128768056D01*
X199039385Y-128886364D01*
X199039396Y-128886369D01*
X199274506Y-128967083D01*
X199519707Y-129008000D01*
X199768293Y-129008000D01*
X200013493Y-128967083D01*
X200248603Y-128886369D01*
X200248614Y-128886364D01*
X200467228Y-128768057D01*
X200467231Y-128768055D01*
X200514056Y-128731609D01*
X199785365Y-128002918D01*
X199789161Y-128002373D01*
X199922562Y-127941451D01*
X200033395Y-127845413D01*
X200112682Y-127722040D01*
X200135132Y-127645580D01*
X200867434Y-128377882D01*
X200878861Y-128376697D01*
X200947573Y-128389360D01*
X200992092Y-128429194D01*
X200992683Y-128428735D01*
X200995218Y-128431992D01*
X200995456Y-128432205D01*
X200995831Y-128432780D01*
X200995836Y-128432785D01*
X201164256Y-128615738D01*
X201360491Y-128768474D01*
X201360493Y-128768475D01*
X201578332Y-128886364D01*
X201579190Y-128886828D01*
X201798141Y-128961994D01*
X201812964Y-128967083D01*
X201814386Y-128967571D01*
X202059665Y-129008500D01*
X202308335Y-129008500D01*
X202553614Y-128967571D01*
X202788810Y-128886828D01*
X203007509Y-128768474D01*
X203203744Y-128615738D01*
X203362772Y-128442986D01*
X203422656Y-128406999D01*
X203492494Y-128409099D01*
X203545228Y-128442989D01*
X203704252Y-128615734D01*
X203704256Y-128615738D01*
X203900491Y-128768474D01*
X203900493Y-128768475D01*
X204118332Y-128886364D01*
X204119190Y-128886828D01*
X204338141Y-128961994D01*
X204352964Y-128967083D01*
X204354386Y-128967571D01*
X204599665Y-129008500D01*
X204848335Y-129008500D01*
X205093614Y-128967571D01*
X205328810Y-128886828D01*
X205547509Y-128768474D01*
X205743744Y-128615738D01*
X205902771Y-128442988D01*
X205962657Y-128406999D01*
X206032495Y-128409099D01*
X206085228Y-128442988D01*
X206244256Y-128615738D01*
X206440491Y-128768474D01*
X206440493Y-128768475D01*
X206658332Y-128886364D01*
X206659190Y-128886828D01*
X206878141Y-128961994D01*
X206892964Y-128967083D01*
X206894386Y-128967571D01*
X207139665Y-129008500D01*
X207388335Y-129008500D01*
X207633614Y-128967571D01*
X207868810Y-128886828D01*
X208087509Y-128768474D01*
X208283744Y-128615738D01*
X208442772Y-128442986D01*
X208502656Y-128406999D01*
X208572494Y-128409099D01*
X208625228Y-128442989D01*
X208784252Y-128615734D01*
X208784256Y-128615738D01*
X208980491Y-128768474D01*
X208980493Y-128768475D01*
X209198332Y-128886364D01*
X209199190Y-128886828D01*
X209418141Y-128961994D01*
X209432964Y-128967083D01*
X209434386Y-128967571D01*
X209679665Y-129008500D01*
X209928335Y-129008500D01*
X210173614Y-128967571D01*
X210408810Y-128886828D01*
X210627509Y-128768474D01*
X210823744Y-128615738D01*
X210992164Y-128432785D01*
X211128173Y-128224607D01*
X211228063Y-127996881D01*
X211289108Y-127755821D01*
X211309643Y-127508000D01*
X211289108Y-127260179D01*
X211228063Y-127019119D01*
X211218799Y-126998000D01*
X211128173Y-126791393D01*
X210992166Y-126583217D01*
X210931265Y-126517061D01*
X210823744Y-126400262D01*
X210627509Y-126247526D01*
X210627507Y-126247525D01*
X210627506Y-126247524D01*
X210408811Y-126129172D01*
X210408802Y-126129169D01*
X210173616Y-126048429D01*
X209928335Y-126007500D01*
X209679665Y-126007500D01*
X209434383Y-126048429D01*
X209199197Y-126129169D01*
X209199188Y-126129172D01*
X208980493Y-126247524D01*
X208784255Y-126400262D01*
X208784252Y-126400265D01*
X208625228Y-126573010D01*
X208565341Y-126609001D01*
X208495503Y-126606900D01*
X208442770Y-126573011D01*
X208283744Y-126400262D01*
X208087509Y-126247526D01*
X208087507Y-126247525D01*
X208087506Y-126247524D01*
X207868811Y-126129172D01*
X207868802Y-126129169D01*
X207633616Y-126048429D01*
X207388335Y-126007500D01*
X207139665Y-126007500D01*
X206894383Y-126048429D01*
X206659197Y-126129169D01*
X206659188Y-126129172D01*
X206440493Y-126247524D01*
X206244257Y-126400261D01*
X206085230Y-126573010D01*
X206025342Y-126609001D01*
X205955504Y-126606900D01*
X205902770Y-126573010D01*
X205851265Y-126517061D01*
X205743744Y-126400262D01*
X205547509Y-126247526D01*
X205547507Y-126247525D01*
X205547506Y-126247524D01*
X205328811Y-126129172D01*
X205328802Y-126129169D01*
X205093616Y-126048429D01*
X204848335Y-126007500D01*
X204599665Y-126007500D01*
X204354383Y-126048429D01*
X204119197Y-126129169D01*
X204119188Y-126129172D01*
X203900493Y-126247524D01*
X203704257Y-126400261D01*
X203545230Y-126573010D01*
X203485342Y-126609001D01*
X203415504Y-126606900D01*
X203362770Y-126573010D01*
X203311265Y-126517061D01*
X203203744Y-126400262D01*
X203007509Y-126247526D01*
X203007507Y-126247525D01*
X203007506Y-126247524D01*
X202788811Y-126129172D01*
X202788802Y-126129169D01*
X202553616Y-126048429D01*
X202308335Y-126007500D01*
X202059665Y-126007500D01*
X201814383Y-126048429D01*
X201579197Y-126129169D01*
X201579188Y-126129172D01*
X201360493Y-126247524D01*
X201164257Y-126400261D01*
X200995837Y-126583213D01*
X200995829Y-126583224D01*
X200995455Y-126583797D01*
X200995242Y-126583978D01*
X200992690Y-126587258D01*
X200992014Y-126586732D01*
X200942304Y-126629147D01*
X200878865Y-126639302D01*
X200867434Y-126638116D01*
X200135132Y-127370418D01*
X200112682Y-127293960D01*
X200033395Y-127170587D01*
X199922562Y-127074549D01*
X199789161Y-127013627D01*
X199785366Y-127013081D01*
X200514057Y-126284390D01*
X200514056Y-126284389D01*
X200467229Y-126247943D01*
X200248614Y-126129635D01*
X200248603Y-126129630D01*
X200013493Y-126048916D01*
X199768293Y-126008000D01*
X199519707Y-126008000D01*
X199274506Y-126048916D01*
X199039396Y-126129630D01*
X199039390Y-126129632D01*
X198820761Y-126247949D01*
X198773942Y-126284388D01*
X198773942Y-126284390D01*
X199502634Y-127013081D01*
X199498839Y-127013627D01*
X199365438Y-127074549D01*
X199254605Y-127170587D01*
X199175318Y-127293960D01*
X199152867Y-127370419D01*
X198420564Y-126638116D01*
X198409135Y-126639302D01*
X198340423Y-126626637D01*
X198295910Y-126586802D01*
X198295317Y-126587265D01*
X198292768Y-126583991D01*
X198292535Y-126583782D01*
X198292166Y-126583218D01*
X198292165Y-126583217D01*
X198292164Y-126583215D01*
X198123744Y-126400262D01*
X197927509Y-126247526D01*
X197927507Y-126247525D01*
X197927506Y-126247524D01*
X197708811Y-126129172D01*
X197708802Y-126129169D01*
X197473616Y-126048429D01*
X197228335Y-126007500D01*
X196979665Y-126007500D01*
X196734383Y-126048429D01*
X196499197Y-126129169D01*
X196499188Y-126129172D01*
X196280493Y-126247524D01*
X196084257Y-126400261D01*
X195925230Y-126573010D01*
X195865342Y-126609001D01*
X195795504Y-126606900D01*
X195742770Y-126573010D01*
X195691265Y-126517061D01*
X195583744Y-126400262D01*
X195387509Y-126247526D01*
X195387508Y-126247525D01*
X195387505Y-126247523D01*
X195387503Y-126247522D01*
X195254481Y-126175533D01*
X195204891Y-126126313D01*
X195189500Y-126066479D01*
X195189500Y-119182452D01*
X195209185Y-119115413D01*
X195225819Y-119094771D01*
X195863072Y-118457518D01*
X196526772Y-117793817D01*
X196588093Y-117760334D01*
X196654712Y-117764218D01*
X196706229Y-117781904D01*
X196734385Y-117791571D01*
X196979665Y-117832500D01*
X197228335Y-117832500D01*
X197473614Y-117791571D01*
X197708810Y-117710828D01*
X197927509Y-117592474D01*
X198123744Y-117439738D01*
X198282771Y-117266988D01*
X198342657Y-117230999D01*
X198412495Y-117233099D01*
X198465228Y-117266988D01*
X198624256Y-117439738D01*
X198820491Y-117592474D01*
X198820493Y-117592475D01*
X199038332Y-117710364D01*
X199039190Y-117710828D01*
X199258141Y-117785994D01*
X199272964Y-117791083D01*
X199274386Y-117791571D01*
X199519665Y-117832500D01*
X199768335Y-117832500D01*
X200013614Y-117791571D01*
X200248810Y-117710828D01*
X200467509Y-117592474D01*
X200663744Y-117439738D01*
X200832164Y-117256785D01*
X200832533Y-117256219D01*
X200832745Y-117256038D01*
X200835322Y-117252729D01*
X200836002Y-117253258D01*
X200885676Y-117210860D01*
X200949138Y-117200697D01*
X200960564Y-117201882D01*
X201692866Y-116469580D01*
X201715318Y-116546040D01*
X201794605Y-116669413D01*
X201905438Y-116765451D01*
X202038839Y-116826373D01*
X202042634Y-116826918D01*
X201313942Y-117555609D01*
X201360768Y-117592055D01*
X201360770Y-117592056D01*
X201579385Y-117710364D01*
X201579396Y-117710369D01*
X201814506Y-117791083D01*
X202059707Y-117832000D01*
X202308293Y-117832000D01*
X202553493Y-117791083D01*
X202788603Y-117710369D01*
X202788614Y-117710364D01*
X203007228Y-117592057D01*
X203007231Y-117592055D01*
X203054056Y-117555609D01*
X202325365Y-116826918D01*
X202329161Y-116826373D01*
X202462562Y-116765451D01*
X202573395Y-116669413D01*
X202652682Y-116546040D01*
X202675132Y-116469580D01*
X203407434Y-117201882D01*
X203418861Y-117200697D01*
X203487573Y-117213360D01*
X203532092Y-117253194D01*
X203532683Y-117252735D01*
X203535218Y-117255992D01*
X203535456Y-117256205D01*
X203535831Y-117256780D01*
X203581142Y-117306000D01*
X203704256Y-117439738D01*
X203900491Y-117592474D01*
X203900493Y-117592475D01*
X204118332Y-117710364D01*
X204119190Y-117710828D01*
X204338141Y-117785994D01*
X204352964Y-117791083D01*
X204354386Y-117791571D01*
X204599665Y-117832500D01*
X204848335Y-117832500D01*
X205093614Y-117791571D01*
X205328810Y-117710828D01*
X205547509Y-117592474D01*
X205743744Y-117439738D01*
X205902771Y-117266988D01*
X205962657Y-117230999D01*
X206032495Y-117233099D01*
X206085228Y-117266988D01*
X206244256Y-117439738D01*
X206440491Y-117592474D01*
X206440493Y-117592475D01*
X206658332Y-117710364D01*
X206659190Y-117710828D01*
X206878141Y-117785994D01*
X206892964Y-117791083D01*
X206894386Y-117791571D01*
X207139665Y-117832500D01*
X207388335Y-117832500D01*
X207633614Y-117791571D01*
X207868810Y-117710828D01*
X208087509Y-117592474D01*
X208283744Y-117439738D01*
X208452164Y-117256785D01*
X208588173Y-117048607D01*
X208688063Y-116820881D01*
X208749108Y-116579821D01*
X208750544Y-116562499D01*
X208760663Y-116440369D01*
X208769643Y-116332000D01*
X208757349Y-116183643D01*
X208749109Y-116084187D01*
X208749107Y-116084175D01*
X208688063Y-115843118D01*
X208588173Y-115615393D01*
X208452166Y-115407217D01*
X208362430Y-115309738D01*
X208283744Y-115224262D01*
X208087509Y-115071526D01*
X208087507Y-115071525D01*
X208087506Y-115071524D01*
X207868811Y-114953172D01*
X207868802Y-114953169D01*
X207633616Y-114872429D01*
X207388335Y-114831500D01*
X207139665Y-114831500D01*
X206894383Y-114872429D01*
X206659197Y-114953169D01*
X206659188Y-114953172D01*
X206440493Y-115071524D01*
X206244255Y-115224262D01*
X206244252Y-115224265D01*
X206085228Y-115397010D01*
X206025341Y-115433001D01*
X205955503Y-115430900D01*
X205902770Y-115397011D01*
X205743744Y-115224262D01*
X205547509Y-115071526D01*
X205547507Y-115071525D01*
X205547506Y-115071524D01*
X205328811Y-114953172D01*
X205328802Y-114953169D01*
X205093616Y-114872429D01*
X204848335Y-114831500D01*
X204599665Y-114831500D01*
X204354383Y-114872429D01*
X204119197Y-114953169D01*
X204119188Y-114953172D01*
X203900493Y-115071524D01*
X203704257Y-115224261D01*
X203535837Y-115407213D01*
X203535829Y-115407224D01*
X203535455Y-115407797D01*
X203535242Y-115407978D01*
X203532690Y-115411258D01*
X203532014Y-115410732D01*
X203482304Y-115453147D01*
X203418865Y-115463302D01*
X203407434Y-115462116D01*
X202675132Y-116194418D01*
X202652682Y-116117960D01*
X202573395Y-115994587D01*
X202462562Y-115898549D01*
X202329161Y-115837627D01*
X202325366Y-115837081D01*
X203054057Y-115108390D01*
X203054056Y-115108389D01*
X203007229Y-115071943D01*
X202788614Y-114953635D01*
X202788603Y-114953630D01*
X202553493Y-114872916D01*
X202308293Y-114832000D01*
X202059707Y-114832000D01*
X201814506Y-114872916D01*
X201579396Y-114953630D01*
X201579390Y-114953632D01*
X201360761Y-115071949D01*
X201313942Y-115108388D01*
X201313942Y-115108390D01*
X202042634Y-115837081D01*
X202038839Y-115837627D01*
X201905438Y-115898549D01*
X201794605Y-115994587D01*
X201715318Y-116117960D01*
X201692866Y-116194419D01*
X200960564Y-115462116D01*
X200949135Y-115463302D01*
X200880423Y-115450637D01*
X200835910Y-115410802D01*
X200835317Y-115411265D01*
X200832768Y-115407991D01*
X200832535Y-115407782D01*
X200832166Y-115407218D01*
X200832165Y-115407217D01*
X200832164Y-115407215D01*
X200663744Y-115224262D01*
X200467509Y-115071526D01*
X200467507Y-115071525D01*
X200467506Y-115071524D01*
X200248811Y-114953172D01*
X200248802Y-114953169D01*
X200013616Y-114872429D01*
X199768335Y-114831500D01*
X199519665Y-114831500D01*
X199274383Y-114872429D01*
X199039197Y-114953169D01*
X199039188Y-114953172D01*
X198820493Y-115071524D01*
X198624257Y-115224261D01*
X198465230Y-115397010D01*
X198405342Y-115433001D01*
X198335504Y-115430900D01*
X198282770Y-115397010D01*
X198202422Y-115309729D01*
X198123744Y-115224262D01*
X197927509Y-115071526D01*
X197927507Y-115071525D01*
X197927506Y-115071524D01*
X197708811Y-114953172D01*
X197708802Y-114953169D01*
X197473616Y-114872429D01*
X197228335Y-114831500D01*
X196979665Y-114831500D01*
X196734383Y-114872429D01*
X196499197Y-114953169D01*
X196499188Y-114953172D01*
X196280493Y-115071524D01*
X196084257Y-115224261D01*
X195925230Y-115397010D01*
X195865342Y-115433001D01*
X195795504Y-115430900D01*
X195742770Y-115397010D01*
X195662422Y-115309729D01*
X195583744Y-115224262D01*
X195387509Y-115071526D01*
X195387507Y-115071525D01*
X195387506Y-115071524D01*
X195168811Y-114953172D01*
X195168802Y-114953169D01*
X194933616Y-114872429D01*
X194688335Y-114831500D01*
X194439665Y-114831500D01*
X194194383Y-114872429D01*
X193959197Y-114953169D01*
X193959188Y-114953172D01*
X193740493Y-115071524D01*
X193544257Y-115224261D01*
X193375833Y-115407217D01*
X193239826Y-115615393D01*
X193139936Y-115843118D01*
X193078892Y-116084175D01*
X193078890Y-116084187D01*
X193058357Y-116331994D01*
X193058357Y-116332005D01*
X193078890Y-116579812D01*
X193078892Y-116579824D01*
X193139936Y-116820881D01*
X193239826Y-117048606D01*
X193375833Y-117256782D01*
X193408245Y-117291991D01*
X193544256Y-117439738D01*
X193740491Y-117592474D01*
X193740493Y-117592475D01*
X193958332Y-117710364D01*
X193959190Y-117710828D01*
X194178141Y-117785994D01*
X194192964Y-117791083D01*
X194194386Y-117791571D01*
X194439665Y-117832500D01*
X194439666Y-117832500D01*
X194441362Y-117832783D01*
X194504247Y-117863233D01*
X194540687Y-117922848D01*
X194539112Y-117992700D01*
X194508634Y-118042773D01*
X194180208Y-118371199D01*
X194167951Y-118381020D01*
X194168134Y-118381241D01*
X194162123Y-118386213D01*
X194114772Y-118436636D01*
X194093889Y-118457518D01*
X194093877Y-118457532D01*
X194089621Y-118463017D01*
X194085837Y-118467447D01*
X194053937Y-118501418D01*
X194053936Y-118501420D01*
X194044284Y-118518976D01*
X194033610Y-118535226D01*
X194021329Y-118551061D01*
X194021324Y-118551068D01*
X194002815Y-118593838D01*
X194000245Y-118599084D01*
X193977803Y-118639906D01*
X193972822Y-118659307D01*
X193966521Y-118677710D01*
X193958562Y-118696102D01*
X193958561Y-118696105D01*
X193951271Y-118742127D01*
X193950087Y-118747846D01*
X193938501Y-118792972D01*
X193938499Y-118792984D01*
X193938499Y-118813020D01*
X193936973Y-118832411D01*
X193933840Y-118852194D01*
X193933840Y-118852195D01*
X193938225Y-118898583D01*
X193938500Y-118904421D01*
X193938500Y-125695266D01*
X193918815Y-125762305D01*
X193866011Y-125808060D01*
X193796853Y-125818004D01*
X193733297Y-125788979D01*
X193729617Y-125785659D01*
X193704747Y-125762305D01*
X193674364Y-125733773D01*
X193663919Y-125723328D01*
X193653475Y-125712883D01*
X193647986Y-125708625D01*
X193643561Y-125704847D01*
X193609582Y-125672938D01*
X193609580Y-125672936D01*
X193609577Y-125672935D01*
X193592029Y-125663288D01*
X193575763Y-125652604D01*
X193566815Y-125645663D01*
X193559936Y-125640327D01*
X193559935Y-125640326D01*
X193559933Y-125640325D01*
X193517168Y-125621818D01*
X193511922Y-125619248D01*
X193471093Y-125596803D01*
X193471092Y-125596802D01*
X193451693Y-125591822D01*
X193433281Y-125585518D01*
X193414898Y-125577562D01*
X193414892Y-125577560D01*
X193368874Y-125570272D01*
X193363152Y-125569087D01*
X193318021Y-125557500D01*
X193318019Y-125557500D01*
X193297984Y-125557500D01*
X193278586Y-125555973D01*
X193271162Y-125554797D01*
X193258805Y-125552840D01*
X193258804Y-125552840D01*
X193212416Y-125557225D01*
X193206578Y-125557500D01*
X183135453Y-125557500D01*
X183068414Y-125537815D01*
X183047772Y-125521181D01*
X182427364Y-124900773D01*
X182393879Y-124839450D01*
X182398863Y-124769758D01*
X182440735Y-124713825D01*
X182494636Y-124690783D01*
X182496332Y-124690500D01*
X182496335Y-124690500D01*
X182741614Y-124649571D01*
X182976810Y-124568828D01*
X183195509Y-124450474D01*
X183391744Y-124297738D01*
X183560164Y-124114785D01*
X183696173Y-123906607D01*
X183796063Y-123678881D01*
X183857108Y-123437821D01*
X183877643Y-123190000D01*
X183857108Y-122942179D01*
X183796063Y-122701119D01*
X183786799Y-122680000D01*
X183696173Y-122473393D01*
X183560166Y-122265217D01*
X183483559Y-122182000D01*
X183391744Y-122082262D01*
X183195509Y-121929526D01*
X183195507Y-121929525D01*
X183195506Y-121929524D01*
X182976811Y-121811172D01*
X182976802Y-121811169D01*
X182741616Y-121730429D01*
X182496335Y-121689500D01*
X182247665Y-121689500D01*
X182002383Y-121730429D01*
X181767197Y-121811169D01*
X181767188Y-121811172D01*
X181548493Y-121929524D01*
X181352257Y-122082261D01*
X181193230Y-122255010D01*
X181133342Y-122291001D01*
X181063504Y-122288900D01*
X181010770Y-122255010D01*
X180943559Y-122182000D01*
X180851744Y-122082262D01*
X180655509Y-121929526D01*
X180655507Y-121929525D01*
X180655506Y-121929524D01*
X180436811Y-121811172D01*
X180436802Y-121811169D01*
X180201616Y-121730429D01*
X179956335Y-121689500D01*
X179707665Y-121689500D01*
X179462383Y-121730429D01*
X179227197Y-121811169D01*
X179227188Y-121811172D01*
X179008493Y-121929524D01*
X178812255Y-122082262D01*
X178812252Y-122082265D01*
X178653228Y-122255010D01*
X178593341Y-122291001D01*
X178523503Y-122288900D01*
X178470770Y-122255011D01*
X178311744Y-122082262D01*
X178115509Y-121929526D01*
X178115507Y-121929525D01*
X178115506Y-121929524D01*
X177896811Y-121811172D01*
X177896802Y-121811169D01*
X177661616Y-121730429D01*
X177416335Y-121689500D01*
X177167665Y-121689500D01*
X176922383Y-121730429D01*
X176687197Y-121811169D01*
X176687188Y-121811172D01*
X176468493Y-121929524D01*
X176272257Y-122082261D01*
X176113230Y-122255010D01*
X176053342Y-122291001D01*
X175983504Y-122288900D01*
X175930770Y-122255010D01*
X175863559Y-122182000D01*
X175771744Y-122082262D01*
X175575509Y-121929526D01*
X175575507Y-121929525D01*
X175575506Y-121929524D01*
X175356811Y-121811172D01*
X175356802Y-121811169D01*
X175121616Y-121730429D01*
X174876335Y-121689500D01*
X174627665Y-121689500D01*
X174382383Y-121730429D01*
X174147197Y-121811169D01*
X174147188Y-121811172D01*
X173928493Y-121929524D01*
X173732257Y-122082261D01*
X173563837Y-122265213D01*
X173563829Y-122265224D01*
X173563455Y-122265797D01*
X173563242Y-122265978D01*
X173560690Y-122269258D01*
X173560014Y-122268732D01*
X173510304Y-122311147D01*
X173446865Y-122321302D01*
X173435434Y-122320116D01*
X172703132Y-123052418D01*
X172680682Y-122975960D01*
X172601395Y-122852587D01*
X172490562Y-122756549D01*
X172357161Y-122695627D01*
X172353363Y-122695081D01*
X173082056Y-121966389D01*
X173035229Y-121929943D01*
X172816614Y-121811635D01*
X172816603Y-121811630D01*
X172581493Y-121730916D01*
X172336293Y-121690000D01*
X172087707Y-121690000D01*
X171842506Y-121730916D01*
X171607396Y-121811630D01*
X171607390Y-121811632D01*
X171388761Y-121929949D01*
X171341942Y-121966388D01*
X171341941Y-121966389D01*
X172070634Y-122695081D01*
X172066839Y-122695627D01*
X171933438Y-122756549D01*
X171822605Y-122852587D01*
X171743318Y-122975960D01*
X171720867Y-123052419D01*
X170988564Y-122320116D01*
X170977135Y-122321302D01*
X170908423Y-122308637D01*
X170863910Y-122268802D01*
X170863317Y-122269265D01*
X170860768Y-122265991D01*
X170860535Y-122265782D01*
X170860166Y-122265218D01*
X170860165Y-122265217D01*
X170860164Y-122265215D01*
X170691744Y-122082262D01*
X170495509Y-121929526D01*
X170495507Y-121929525D01*
X170495506Y-121929524D01*
X170276811Y-121811172D01*
X170276802Y-121811169D01*
X170041616Y-121730429D01*
X169796335Y-121689500D01*
X169547665Y-121689500D01*
X169302383Y-121730429D01*
X169067197Y-121811169D01*
X169067188Y-121811172D01*
X168848493Y-121929524D01*
X168652257Y-122082261D01*
X168493230Y-122255010D01*
X168433342Y-122291001D01*
X168363504Y-122288900D01*
X168310770Y-122255010D01*
X168243559Y-122182000D01*
X168151744Y-122082262D01*
X167955509Y-121929526D01*
X167955507Y-121929525D01*
X167955506Y-121929524D01*
X167736811Y-121811172D01*
X167736802Y-121811169D01*
X167501616Y-121730429D01*
X167256335Y-121689500D01*
X167007665Y-121689500D01*
X166762383Y-121730429D01*
X166527197Y-121811169D01*
X166527188Y-121811172D01*
X166308493Y-121929524D01*
X166112257Y-122082261D01*
X165943833Y-122265217D01*
X165807826Y-122473393D01*
X165707936Y-122701118D01*
X165646892Y-122942175D01*
X165646890Y-122942187D01*
X165626357Y-123189994D01*
X165626357Y-123190005D01*
X161930672Y-123190005D01*
X161951429Y-123145492D01*
X161951432Y-123145486D01*
X162008636Y-122932000D01*
X160961686Y-122932000D01*
X160987493Y-122891844D01*
X161028000Y-122753889D01*
X161028000Y-122610111D01*
X160987493Y-122472156D01*
X160961686Y-122432000D01*
X162008636Y-122432000D01*
X162008635Y-122431999D01*
X161951432Y-122218513D01*
X161951429Y-122218507D01*
X161851600Y-122004422D01*
X161851599Y-122004420D01*
X161716113Y-121810926D01*
X161716108Y-121810920D01*
X161549079Y-121643891D01*
X161549073Y-121643886D01*
X161355579Y-121508400D01*
X161355577Y-121508399D01*
X161141492Y-121408570D01*
X161141483Y-121408566D01*
X160913326Y-121347432D01*
X160913316Y-121347430D01*
X160778000Y-121335590D01*
X160778000Y-122246498D01*
X160670315Y-122197320D01*
X160563763Y-122182000D01*
X160492237Y-122182000D01*
X160385685Y-122197320D01*
X160278000Y-122246498D01*
X160278000Y-121335591D01*
X160277999Y-121335590D01*
X160142683Y-121347430D01*
X160142673Y-121347432D01*
X159914516Y-121408566D01*
X159914507Y-121408570D01*
X159700422Y-121508399D01*
X159700420Y-121508400D01*
X159506926Y-121643886D01*
X159506920Y-121643891D01*
X159339894Y-121810917D01*
X159204399Y-122004421D01*
X159104570Y-122218507D01*
X159104567Y-122218513D01*
X159047364Y-122431999D01*
X159047364Y-122432000D01*
X160094314Y-122432000D01*
X160068507Y-122472156D01*
X160028000Y-122610111D01*
X160028000Y-122753889D01*
X160068507Y-122891844D01*
X160094314Y-122932000D01*
X159047364Y-122932000D01*
X155956500Y-122932000D01*
X155956500Y-107864452D01*
X155976185Y-107797413D01*
X156028989Y-107751658D01*
X156098147Y-107741714D01*
X156161703Y-107770739D01*
X156168181Y-107776771D01*
X156725194Y-108333784D01*
X156735019Y-108346048D01*
X156735240Y-108345866D01*
X156740210Y-108351873D01*
X156740213Y-108351876D01*
X156740214Y-108351877D01*
X156790651Y-108399241D01*
X156811530Y-108420120D01*
X156817004Y-108424366D01*
X156821442Y-108428156D01*
X156855418Y-108460062D01*
X156855422Y-108460064D01*
X156872973Y-108469713D01*
X156889231Y-108480392D01*
X156905064Y-108492674D01*
X156927015Y-108502172D01*
X156947837Y-108511183D01*
X156953081Y-108513752D01*
X156993908Y-108536197D01*
X157013312Y-108541179D01*
X157031710Y-108547478D01*
X157050105Y-108555438D01*
X157096129Y-108562726D01*
X157101832Y-108563907D01*
X157146981Y-108575500D01*
X157167016Y-108575500D01*
X157186413Y-108577026D01*
X157206196Y-108580160D01*
X157206197Y-108580159D01*
X157206198Y-108580160D01*
X157217886Y-108579055D01*
X157286481Y-108592341D01*
X157337004Y-108640604D01*
X157353413Y-108708519D01*
X157330500Y-108774525D01*
X157275538Y-108817664D01*
X157255343Y-108823794D01*
X157248072Y-108825339D01*
X157239997Y-108827056D01*
X157239996Y-108827056D01*
X157239993Y-108827057D01*
X157239992Y-108827057D01*
X157067070Y-108904048D01*
X157067065Y-108904051D01*
X156913929Y-109015311D01*
X156787266Y-109155985D01*
X156692621Y-109319915D01*
X156692619Y-109319919D01*
X156637279Y-109490239D01*
X156607029Y-109539601D01*
X156486358Y-109660272D01*
X156472729Y-109672051D01*
X156453468Y-109686390D01*
X156419898Y-109726397D01*
X156416253Y-109730376D01*
X156410409Y-109736222D01*
X156390059Y-109761959D01*
X156340695Y-109820789D01*
X156336729Y-109826819D01*
X156336682Y-109826788D01*
X156332630Y-109833147D01*
X156332679Y-109833177D01*
X156328889Y-109839321D01*
X156296424Y-109908941D01*
X156261960Y-109977566D01*
X156259488Y-109984357D01*
X156259432Y-109984336D01*
X156256960Y-109991450D01*
X156257015Y-109991469D01*
X156254742Y-109998327D01*
X156246975Y-110035946D01*
X156239207Y-110073565D01*
X156226001Y-110129284D01*
X156221498Y-110148286D01*
X156220661Y-110155454D01*
X156220601Y-110155447D01*
X156219835Y-110162945D01*
X156219895Y-110162951D01*
X156219265Y-110170140D01*
X156221500Y-110246916D01*
X156221500Y-114998294D01*
X156220191Y-115016263D01*
X156216710Y-115040025D01*
X156221264Y-115092064D01*
X156221500Y-115097470D01*
X156221500Y-115105709D01*
X156224793Y-115133889D01*
X156225306Y-115138274D01*
X156232000Y-115214791D01*
X156233461Y-115221867D01*
X156233403Y-115221878D01*
X156235034Y-115229237D01*
X156235092Y-115229224D01*
X156236757Y-115236250D01*
X156263025Y-115308424D01*
X156287185Y-115381331D01*
X156290236Y-115387874D01*
X156290182Y-115387898D01*
X156293470Y-115394688D01*
X156293521Y-115394663D01*
X156296761Y-115401113D01*
X156296762Y-115401114D01*
X156296763Y-115401117D01*
X156317733Y-115433001D01*
X156338965Y-115465283D01*
X156379287Y-115530655D01*
X156383766Y-115536319D01*
X156383719Y-115536356D01*
X156388482Y-115542202D01*
X156388528Y-115542164D01*
X156393173Y-115547700D01*
X156449017Y-115600386D01*
X156449018Y-115600386D01*
X157394672Y-116546040D01*
X158296118Y-117447485D01*
X158329603Y-117508808D01*
X158328682Y-117563454D01*
X158328749Y-117563466D01*
X158328675Y-117563907D01*
X158328647Y-117565588D01*
X158327906Y-117568512D01*
X158327904Y-117568529D01*
X158325248Y-117600585D01*
X158313150Y-117746597D01*
X158313000Y-117748402D01*
X158313000Y-117963598D01*
X158327904Y-118143472D01*
X158387017Y-118376905D01*
X158483346Y-118596514D01*
X158483745Y-118597422D01*
X158615449Y-118799010D01*
X158778537Y-118976171D01*
X158914074Y-119081663D01*
X158968022Y-119123653D01*
X158968561Y-119124072D01*
X159076438Y-119182452D01*
X159179478Y-119238215D01*
X159180336Y-119238679D01*
X159298598Y-119279278D01*
X159408083Y-119316865D01*
X159408085Y-119316865D01*
X159408087Y-119316866D01*
X159645601Y-119356500D01*
X159645602Y-119356500D01*
X159886398Y-119356500D01*
X159886399Y-119356500D01*
X160123913Y-119316866D01*
X160351664Y-119238679D01*
X160563439Y-119124072D01*
X160753463Y-118976171D01*
X160916551Y-118799010D01*
X160932489Y-118774613D01*
X160985631Y-118729258D01*
X161054862Y-118719831D01*
X161118199Y-118749330D01*
X161140106Y-118774611D01*
X161155847Y-118798704D01*
X161155851Y-118798710D01*
X161318873Y-118975797D01*
X161318883Y-118975806D01*
X161508831Y-119123649D01*
X161508840Y-119123655D01*
X161720531Y-119238215D01*
X161720545Y-119238221D01*
X161948207Y-119316379D01*
X162056000Y-119334366D01*
X162056000Y-118347683D01*
X162084819Y-118365209D01*
X162230404Y-118406000D01*
X162343622Y-118406000D01*
X162455783Y-118390584D01*
X162556000Y-118347053D01*
X162556000Y-119334365D01*
X162663792Y-119316379D01*
X162891454Y-119238221D01*
X162891468Y-119238215D01*
X163103159Y-119123655D01*
X163103162Y-119123653D01*
X163245746Y-119012675D01*
X163310740Y-118987032D01*
X163379280Y-119000598D01*
X163429605Y-119049066D01*
X163438091Y-119067196D01*
X163449701Y-119098326D01*
X163449706Y-119098335D01*
X163535952Y-119213544D01*
X163535955Y-119213547D01*
X163651164Y-119299793D01*
X163651171Y-119299797D01*
X163786017Y-119350091D01*
X163786016Y-119350091D01*
X163792944Y-119350835D01*
X163845627Y-119356500D01*
X165846372Y-119356499D01*
X165905983Y-119350091D01*
X166040831Y-119299796D01*
X166156046Y-119213546D01*
X166242296Y-119098331D01*
X166292591Y-118963483D01*
X166299000Y-118903873D01*
X166299000Y-118730500D01*
X166318685Y-118663461D01*
X166371489Y-118617706D01*
X166423000Y-118606500D01*
X170599700Y-118606500D01*
X170666739Y-118626185D01*
X170712494Y-118678989D01*
X170723700Y-118730500D01*
X170723700Y-118826966D01*
X170739136Y-119003403D01*
X170739138Y-119003413D01*
X170800294Y-119231655D01*
X170800296Y-119231659D01*
X170800297Y-119231663D01*
X170803569Y-119238679D01*
X170900164Y-119445828D01*
X170900165Y-119445830D01*
X171035705Y-119639402D01*
X171188336Y-119792032D01*
X171202799Y-119806495D01*
X171299584Y-119874265D01*
X171396365Y-119942032D01*
X171396367Y-119942033D01*
X171396370Y-119942035D01*
X171610537Y-120041903D01*
X171838792Y-120103063D01*
X172027118Y-120119539D01*
X172074199Y-120123659D01*
X172074200Y-120123659D01*
X172074201Y-120123659D01*
X172113434Y-120120226D01*
X172309608Y-120103063D01*
X172537863Y-120041903D01*
X172752029Y-119942035D01*
X172945601Y-119806495D01*
X173112695Y-119639401D01*
X173248235Y-119445829D01*
X173260185Y-119420201D01*
X173306358Y-119367761D01*
X173373551Y-119348609D01*
X173440432Y-119368824D01*
X173474142Y-119401480D01*
X173535705Y-119489401D01*
X173702799Y-119656495D01*
X173799584Y-119724265D01*
X173896365Y-119792032D01*
X173896367Y-119792033D01*
X173896370Y-119792035D01*
X174110537Y-119891903D01*
X174338792Y-119953063D01*
X174527118Y-119969539D01*
X174574199Y-119973659D01*
X174574200Y-119973659D01*
X174574201Y-119973659D01*
X174613434Y-119970226D01*
X174809608Y-119953063D01*
X175037863Y-119891903D01*
X175252030Y-119792035D01*
X175445601Y-119656495D01*
X175612695Y-119489401D01*
X175748235Y-119295830D01*
X175848103Y-119081663D01*
X175909263Y-118853408D01*
X175929859Y-118618000D01*
X175909263Y-118382592D01*
X175848103Y-118154337D01*
X175748235Y-117940171D01*
X175736106Y-117922848D01*
X175612694Y-117746597D01*
X175445602Y-117579506D01*
X175445595Y-117579501D01*
X175429925Y-117568529D01*
X175383247Y-117535844D01*
X175252034Y-117443967D01*
X175252030Y-117443965D01*
X175221025Y-117429507D01*
X175037863Y-117344097D01*
X175037859Y-117344096D01*
X175037855Y-117344094D01*
X174809613Y-117282938D01*
X174809603Y-117282936D01*
X174574201Y-117262341D01*
X174574199Y-117262341D01*
X174338796Y-117282936D01*
X174338786Y-117282938D01*
X174110544Y-117344094D01*
X174110535Y-117344098D01*
X173896371Y-117443964D01*
X173896369Y-117443965D01*
X173702797Y-117579505D01*
X173535708Y-117746594D01*
X173474143Y-117834519D01*
X173419566Y-117878143D01*
X173350067Y-117885336D01*
X173287713Y-117853814D01*
X173260186Y-117815799D01*
X173248237Y-117790175D01*
X173248234Y-117790169D01*
X173112694Y-117596597D01*
X172945604Y-117429507D01*
X172877575Y-117381872D01*
X172833951Y-117327294D01*
X172824700Y-117280298D01*
X172824700Y-116806629D01*
X172844385Y-116739590D01*
X172861014Y-116718953D01*
X175267149Y-114312817D01*
X175328472Y-114279333D01*
X175354830Y-114276499D01*
X176742971Y-114276499D01*
X176742972Y-114276499D01*
X176802583Y-114270091D01*
X176937431Y-114219796D01*
X177052646Y-114133546D01*
X177138896Y-114018331D01*
X177189191Y-113883483D01*
X177195600Y-113823873D01*
X177195599Y-111728128D01*
X177189191Y-111668517D01*
X177184594Y-111656193D01*
X177138897Y-111533671D01*
X177138893Y-111533664D01*
X177052647Y-111418455D01*
X177052644Y-111418452D01*
X176937435Y-111332206D01*
X176937428Y-111332202D01*
X176802582Y-111281908D01*
X176802583Y-111281908D01*
X176742983Y-111275501D01*
X176742981Y-111275500D01*
X176742973Y-111275500D01*
X176742964Y-111275500D01*
X174742229Y-111275500D01*
X174742223Y-111275501D01*
X174682616Y-111281908D01*
X174547771Y-111332202D01*
X174547764Y-111332206D01*
X174432555Y-111418452D01*
X174432552Y-111418455D01*
X174346306Y-111533664D01*
X174346300Y-111533675D01*
X174334873Y-111564313D01*
X174293002Y-111620247D01*
X174227537Y-111644663D01*
X174159264Y-111629811D01*
X174142530Y-111618832D01*
X174000047Y-111507933D01*
X174000041Y-111507929D01*
X173788265Y-111393321D01*
X173788256Y-111393318D01*
X173560516Y-111315134D01*
X173344812Y-111279140D01*
X173322999Y-111275500D01*
X173260078Y-111275500D01*
X173193039Y-111255815D01*
X173147284Y-111203011D01*
X173137340Y-111133853D01*
X173166365Y-111070297D01*
X173172397Y-111063819D01*
X173424132Y-110812085D01*
X173831697Y-110404519D01*
X173893021Y-110371034D01*
X173919379Y-110368200D01*
X181670566Y-110368200D01*
X181678663Y-110368730D01*
X181711600Y-110373067D01*
X181711601Y-110373067D01*
X181727042Y-110371034D01*
X181858834Y-110353683D01*
X181996033Y-110296853D01*
X182084268Y-110229149D01*
X182084268Y-110229148D01*
X182107206Y-110211548D01*
X182107206Y-110211547D01*
X182113850Y-110206450D01*
X182134076Y-110180088D01*
X182139419Y-110173996D01*
X184499696Y-107813719D01*
X184561020Y-107780234D01*
X184587378Y-107777400D01*
X194210362Y-107777400D01*
X194277401Y-107797085D01*
X194323156Y-107849889D01*
X194333100Y-107919047D01*
X194317749Y-107963399D01*
X194244823Y-108089710D01*
X194244818Y-108089722D01*
X194199820Y-108228214D01*
X194186326Y-108269744D01*
X194166540Y-108458000D01*
X194186326Y-108646256D01*
X194186327Y-108646259D01*
X194244818Y-108826277D01*
X194244821Y-108826284D01*
X194339467Y-108990216D01*
X194441185Y-109103185D01*
X194466129Y-109130888D01*
X194619265Y-109242148D01*
X194619266Y-109242148D01*
X194619270Y-109242151D01*
X194751165Y-109300875D01*
X194804402Y-109346125D01*
X194824723Y-109412974D01*
X194805678Y-109480198D01*
X194753311Y-109526453D01*
X194721146Y-109536462D01*
X194714207Y-109537620D01*
X194486545Y-109615778D01*
X194486531Y-109615784D01*
X194274840Y-109730344D01*
X194274831Y-109730350D01*
X194084883Y-109878193D01*
X194084873Y-109878202D01*
X193921851Y-110055289D01*
X193921846Y-110055297D01*
X193906104Y-110079390D01*
X193852955Y-110124745D01*
X193783724Y-110134165D01*
X193720389Y-110104660D01*
X193698489Y-110079384D01*
X193682555Y-110054994D01*
X193586018Y-109950127D01*
X193519463Y-109877829D01*
X193370593Y-109761959D01*
X193329441Y-109729929D01*
X193117665Y-109615321D01*
X193117656Y-109615318D01*
X192889916Y-109537134D01*
X192690800Y-109503908D01*
X192652399Y-109497500D01*
X192411601Y-109497500D01*
X192373200Y-109503908D01*
X192174083Y-109537134D01*
X191946343Y-109615318D01*
X191946334Y-109615321D01*
X191734559Y-109729929D01*
X191592069Y-109840833D01*
X191527075Y-109866475D01*
X191458535Y-109852908D01*
X191408210Y-109804440D01*
X191399725Y-109786311D01*
X191388298Y-109755673D01*
X191388293Y-109755664D01*
X191302047Y-109640455D01*
X191302044Y-109640452D01*
X191186835Y-109554206D01*
X191186828Y-109554202D01*
X191051982Y-109503908D01*
X191051983Y-109503908D01*
X190992383Y-109497501D01*
X190992381Y-109497500D01*
X190992373Y-109497500D01*
X190992364Y-109497500D01*
X188991629Y-109497500D01*
X188991623Y-109497501D01*
X188932016Y-109503908D01*
X188797171Y-109554202D01*
X188797164Y-109554206D01*
X188681955Y-109640452D01*
X188681952Y-109640455D01*
X188595706Y-109755664D01*
X188595702Y-109755671D01*
X188545408Y-109890517D01*
X188539001Y-109950116D01*
X188539000Y-109950135D01*
X188539000Y-112045870D01*
X188539001Y-112045876D01*
X188545408Y-112105483D01*
X188595702Y-112240328D01*
X188595706Y-112240335D01*
X188681952Y-112355544D01*
X188681955Y-112355547D01*
X188797164Y-112441793D01*
X188797171Y-112441797D01*
X188932017Y-112492091D01*
X188932016Y-112492091D01*
X188938944Y-112492835D01*
X188991627Y-112498500D01*
X190992372Y-112498499D01*
X191051983Y-112492091D01*
X191186831Y-112441796D01*
X191302046Y-112355546D01*
X191388296Y-112240331D01*
X191399725Y-112209687D01*
X191441594Y-112153755D01*
X191507058Y-112129336D01*
X191575331Y-112144186D01*
X191592069Y-112155167D01*
X191734552Y-112266066D01*
X191734558Y-112266070D01*
X191734561Y-112266072D01*
X191881050Y-112345348D01*
X191945478Y-112380215D01*
X191946336Y-112380679D01*
X191994070Y-112397066D01*
X192174083Y-112458865D01*
X192174085Y-112458865D01*
X192174087Y-112458866D01*
X192411601Y-112498500D01*
X192411602Y-112498500D01*
X192652398Y-112498500D01*
X192652399Y-112498500D01*
X192889913Y-112458866D01*
X193117664Y-112380679D01*
X193329439Y-112266072D01*
X193519463Y-112118171D01*
X193682551Y-111941010D01*
X193698489Y-111916613D01*
X193751631Y-111871258D01*
X193820862Y-111861831D01*
X193884199Y-111891330D01*
X193906106Y-111916611D01*
X193921847Y-111940704D01*
X193921851Y-111940710D01*
X194084873Y-112117797D01*
X194084883Y-112117806D01*
X194274831Y-112265649D01*
X194274840Y-112265655D01*
X194486531Y-112380215D01*
X194486545Y-112380221D01*
X194714207Y-112458379D01*
X194822000Y-112476366D01*
X194822000Y-111489683D01*
X194850819Y-111507209D01*
X194996404Y-111548000D01*
X195109622Y-111548000D01*
X195221783Y-111532584D01*
X195322000Y-111489053D01*
X195322000Y-112476365D01*
X195429792Y-112458379D01*
X195657454Y-112380221D01*
X195657468Y-112380215D01*
X195869159Y-112265655D01*
X195869168Y-112265649D01*
X196059116Y-112117806D01*
X196059126Y-112117797D01*
X196222148Y-111940710D01*
X196222156Y-111940699D01*
X196353813Y-111739184D01*
X196450508Y-111518740D01*
X196509599Y-111285395D01*
X196509599Y-111285394D01*
X196512697Y-111248000D01*
X195566852Y-111248000D01*
X195615559Y-111110953D01*
X195625877Y-110960114D01*
X195595116Y-110812085D01*
X195561910Y-110748000D01*
X196512697Y-110748000D01*
X196509599Y-110710605D01*
X196509599Y-110710604D01*
X196450508Y-110477259D01*
X196353813Y-110256815D01*
X196222156Y-110055300D01*
X196222148Y-110055289D01*
X196059126Y-109878202D01*
X196059116Y-109878193D01*
X195869168Y-109730350D01*
X195869159Y-109730344D01*
X195657468Y-109615784D01*
X195657454Y-109615778D01*
X195429791Y-109537619D01*
X195422855Y-109536462D01*
X195359971Y-109506009D01*
X195323534Y-109446392D01*
X195325112Y-109376540D01*
X195364205Y-109318631D01*
X195392824Y-109300879D01*
X195524730Y-109242151D01*
X195677871Y-109130888D01*
X195680788Y-109127647D01*
X195683600Y-109124526D01*
X195743087Y-109087879D01*
X195775748Y-109083500D01*
X208497548Y-109083500D01*
X208564587Y-109103185D01*
X208585229Y-109119819D01*
X213875181Y-114409772D01*
X213908666Y-114471095D01*
X213911500Y-114497453D01*
X213911500Y-116109870D01*
X213911501Y-116109876D01*
X213917908Y-116169483D01*
X213968202Y-116304328D01*
X213968206Y-116304335D01*
X214054452Y-116419544D01*
X214054455Y-116419547D01*
X214169664Y-116505793D01*
X214169671Y-116505797D01*
X214304517Y-116556091D01*
X214304516Y-116556091D01*
X214311444Y-116556835D01*
X214364127Y-116562500D01*
X216459872Y-116562499D01*
X216519483Y-116556091D01*
X216654331Y-116505796D01*
X216769546Y-116419546D01*
X216855796Y-116304331D01*
X216906091Y-116169483D01*
X216912500Y-116109873D01*
X216912500Y-115062005D01*
X221506859Y-115062005D01*
X221527385Y-115309729D01*
X221527387Y-115309738D01*
X221588412Y-115550717D01*
X221688266Y-115778364D01*
X221788564Y-115931882D01*
X222528923Y-115191523D01*
X222552507Y-115271844D01*
X222630239Y-115392798D01*
X222738900Y-115486952D01*
X222869685Y-115546680D01*
X222879466Y-115548086D01*
X222141942Y-116285609D01*
X222188768Y-116322055D01*
X222188770Y-116322056D01*
X222407385Y-116440364D01*
X222407396Y-116440369D01*
X222642506Y-116521083D01*
X222887707Y-116562000D01*
X223136293Y-116562000D01*
X223381493Y-116521083D01*
X223616603Y-116440369D01*
X223616614Y-116440364D01*
X223835228Y-116322057D01*
X223835231Y-116322055D01*
X223882056Y-116285609D01*
X223144533Y-115548086D01*
X223154315Y-115546680D01*
X223285100Y-115486952D01*
X223393761Y-115392798D01*
X223471493Y-115271844D01*
X223495077Y-115191523D01*
X224235434Y-115931882D01*
X224335731Y-115778369D01*
X224435587Y-115550717D01*
X224496612Y-115309738D01*
X224496614Y-115309729D01*
X224517141Y-115062005D01*
X224517141Y-115061994D01*
X224496614Y-114814270D01*
X224496612Y-114814261D01*
X224435587Y-114573282D01*
X224335731Y-114345630D01*
X224235434Y-114192116D01*
X223495076Y-114932474D01*
X223471493Y-114852156D01*
X223393761Y-114731202D01*
X223285100Y-114637048D01*
X223154315Y-114577320D01*
X223144534Y-114575913D01*
X223882057Y-113838390D01*
X223882056Y-113838389D01*
X223835229Y-113801943D01*
X223616614Y-113683635D01*
X223616603Y-113683630D01*
X223381493Y-113602916D01*
X223136293Y-113562000D01*
X222887707Y-113562000D01*
X222642506Y-113602916D01*
X222407396Y-113683630D01*
X222407390Y-113683632D01*
X222188761Y-113801949D01*
X222141942Y-113838388D01*
X222141942Y-113838390D01*
X222879466Y-114575913D01*
X222869685Y-114577320D01*
X222738900Y-114637048D01*
X222630239Y-114731202D01*
X222552507Y-114852156D01*
X222528923Y-114932474D01*
X221788564Y-114192116D01*
X221688267Y-114345632D01*
X221588412Y-114573282D01*
X221527387Y-114814261D01*
X221527385Y-114814270D01*
X221506859Y-115061994D01*
X221506859Y-115062005D01*
X216912500Y-115062005D01*
X216912499Y-114014128D01*
X216906091Y-113954517D01*
X216897944Y-113932675D01*
X216855797Y-113819671D01*
X216855793Y-113819664D01*
X216769547Y-113704455D01*
X216769544Y-113704452D01*
X216654335Y-113618206D01*
X216654328Y-113618202D01*
X216519482Y-113567908D01*
X216519483Y-113567908D01*
X216459883Y-113561501D01*
X216459881Y-113561500D01*
X216459873Y-113561500D01*
X216459865Y-113561500D01*
X214847453Y-113561500D01*
X214780414Y-113541815D01*
X214759772Y-113525181D01*
X209308803Y-108074212D01*
X209298980Y-108061950D01*
X209298759Y-108062134D01*
X209293786Y-108056123D01*
X209243364Y-108008773D01*
X209232919Y-107998328D01*
X209222475Y-107987883D01*
X209216986Y-107983625D01*
X209212561Y-107979847D01*
X209178582Y-107947938D01*
X209178580Y-107947936D01*
X209178577Y-107947935D01*
X209161029Y-107938288D01*
X209144763Y-107927604D01*
X209142417Y-107925784D01*
X209128936Y-107915327D01*
X209128935Y-107915326D01*
X209128933Y-107915325D01*
X209086168Y-107896818D01*
X209080922Y-107894248D01*
X209040093Y-107871803D01*
X209040092Y-107871802D01*
X209020693Y-107866822D01*
X209002281Y-107860518D01*
X208983898Y-107852562D01*
X208983892Y-107852560D01*
X208937874Y-107845272D01*
X208932152Y-107844087D01*
X208887021Y-107832500D01*
X208887019Y-107832500D01*
X208866984Y-107832500D01*
X208847586Y-107830973D01*
X208840162Y-107829797D01*
X208827805Y-107827840D01*
X208827804Y-107827840D01*
X208781416Y-107832225D01*
X208775578Y-107832500D01*
X203668222Y-107832500D01*
X203601183Y-107812815D01*
X203555428Y-107760011D01*
X203545484Y-107690853D01*
X203574509Y-107627297D01*
X203580537Y-107620823D01*
X203585706Y-107615653D01*
X203585707Y-107615651D01*
X203585709Y-107615650D01*
X203605935Y-107589287D01*
X203611272Y-107583201D01*
X204618355Y-106576118D01*
X204679676Y-106542635D01*
X204749368Y-106547619D01*
X204782196Y-106565948D01*
X204916487Y-106670471D01*
X204916491Y-106670474D01*
X205134332Y-106788364D01*
X205135190Y-106788828D01*
X205269265Y-106834856D01*
X205369497Y-106869266D01*
X205370386Y-106869571D01*
X205615665Y-106910500D01*
X205864335Y-106910500D01*
X206109614Y-106869571D01*
X206344810Y-106788828D01*
X206563509Y-106670474D01*
X206759744Y-106517738D01*
X206918771Y-106344988D01*
X206978657Y-106308999D01*
X207048495Y-106311099D01*
X207101228Y-106344988D01*
X207260256Y-106517738D01*
X207456491Y-106670474D01*
X207485171Y-106685995D01*
X207674332Y-106788364D01*
X207675190Y-106788828D01*
X207809265Y-106834856D01*
X207909497Y-106869266D01*
X207910386Y-106869571D01*
X208155665Y-106910500D01*
X208404335Y-106910500D01*
X208649614Y-106869571D01*
X208884810Y-106788828D01*
X209103509Y-106670474D01*
X209299744Y-106517738D01*
X209458772Y-106344986D01*
X209518656Y-106308999D01*
X209588494Y-106311099D01*
X209641228Y-106344989D01*
X209800252Y-106517734D01*
X209800256Y-106517738D01*
X209996491Y-106670474D01*
X210025171Y-106685995D01*
X210214332Y-106788364D01*
X210215190Y-106788828D01*
X210349265Y-106834856D01*
X210449497Y-106869266D01*
X210450386Y-106869571D01*
X210695665Y-106910500D01*
X210944335Y-106910500D01*
X211189614Y-106869571D01*
X211424810Y-106788828D01*
X211643509Y-106670474D01*
X211839744Y-106517738D01*
X211998771Y-106344988D01*
X212058657Y-106308999D01*
X212128495Y-106311099D01*
X212181228Y-106344988D01*
X212340256Y-106517738D01*
X212536491Y-106670474D01*
X212565171Y-106685995D01*
X212754332Y-106788364D01*
X212755190Y-106788828D01*
X212889265Y-106834856D01*
X212989497Y-106869266D01*
X212990386Y-106869571D01*
X213235665Y-106910500D01*
X213484335Y-106910500D01*
X213729614Y-106869571D01*
X213964810Y-106788828D01*
X214183509Y-106670474D01*
X214379744Y-106517738D01*
X214538771Y-106344988D01*
X214598657Y-106308999D01*
X214668495Y-106311099D01*
X214721228Y-106344988D01*
X214880256Y-106517738D01*
X215076491Y-106670474D01*
X215105171Y-106685995D01*
X215294332Y-106788364D01*
X215295190Y-106788828D01*
X215429265Y-106834856D01*
X215529497Y-106869266D01*
X215530386Y-106869571D01*
X215775665Y-106910500D01*
X216024335Y-106910500D01*
X216269614Y-106869571D01*
X216504810Y-106788828D01*
X216723509Y-106670474D01*
X216919744Y-106517738D01*
X217078771Y-106344988D01*
X217138657Y-106308999D01*
X217208495Y-106311099D01*
X217261228Y-106344988D01*
X217420256Y-106517738D01*
X217616491Y-106670474D01*
X217645171Y-106685995D01*
X217834332Y-106788364D01*
X217835190Y-106788828D01*
X217969265Y-106834856D01*
X218069497Y-106869266D01*
X218070386Y-106869571D01*
X218315665Y-106910500D01*
X218564335Y-106910500D01*
X218809614Y-106869571D01*
X219044810Y-106788828D01*
X219263509Y-106670474D01*
X219459744Y-106517738D01*
X219628164Y-106334785D01*
X219764173Y-106126607D01*
X219864063Y-105898881D01*
X219925108Y-105657821D01*
X219945643Y-105410000D01*
X219925108Y-105162179D01*
X219878100Y-104976549D01*
X219864063Y-104921118D01*
X219764173Y-104693393D01*
X219628166Y-104485217D01*
X219606557Y-104461744D01*
X219459744Y-104302262D01*
X219263509Y-104149526D01*
X219263507Y-104149525D01*
X219263506Y-104149524D01*
X219044811Y-104031172D01*
X219044802Y-104031169D01*
X218809616Y-103950429D01*
X218564335Y-103909500D01*
X218315665Y-103909500D01*
X218070383Y-103950429D01*
X217835197Y-104031169D01*
X217835188Y-104031172D01*
X217616493Y-104149524D01*
X217420257Y-104302261D01*
X217261230Y-104475010D01*
X217201342Y-104511001D01*
X217131504Y-104508900D01*
X217078770Y-104475010D01*
X217039108Y-104431926D01*
X216919744Y-104302262D01*
X216723509Y-104149526D01*
X216723507Y-104149525D01*
X216723506Y-104149524D01*
X216504811Y-104031172D01*
X216504802Y-104031169D01*
X216269616Y-103950429D01*
X216024335Y-103909500D01*
X215775665Y-103909500D01*
X215530383Y-103950429D01*
X215295197Y-104031169D01*
X215295188Y-104031172D01*
X215076493Y-104149524D01*
X214880257Y-104302261D01*
X214721230Y-104475010D01*
X214661342Y-104511001D01*
X214591504Y-104508900D01*
X214538770Y-104475010D01*
X214499108Y-104431926D01*
X214379744Y-104302262D01*
X214183509Y-104149526D01*
X214183507Y-104149525D01*
X214183506Y-104149524D01*
X213964811Y-104031172D01*
X213964802Y-104031169D01*
X213729616Y-103950429D01*
X213484335Y-103909500D01*
X213235665Y-103909500D01*
X212990383Y-103950429D01*
X212755197Y-104031169D01*
X212755188Y-104031172D01*
X212536493Y-104149524D01*
X212340257Y-104302261D01*
X212181230Y-104475010D01*
X212121342Y-104511001D01*
X212051504Y-104508900D01*
X211998770Y-104475010D01*
X211959108Y-104431926D01*
X211839744Y-104302262D01*
X211643509Y-104149526D01*
X211643507Y-104149525D01*
X211643506Y-104149524D01*
X211424811Y-104031172D01*
X211424802Y-104031169D01*
X211189616Y-103950429D01*
X210944335Y-103909500D01*
X210695665Y-103909500D01*
X210450383Y-103950429D01*
X210215197Y-104031169D01*
X210215188Y-104031172D01*
X209996493Y-104149524D01*
X209800255Y-104302262D01*
X209800252Y-104302265D01*
X209641228Y-104475010D01*
X209581341Y-104511001D01*
X209511503Y-104508900D01*
X209458770Y-104475011D01*
X209299744Y-104302262D01*
X209103509Y-104149526D01*
X209103507Y-104149525D01*
X209103506Y-104149524D01*
X208884811Y-104031172D01*
X208884802Y-104031169D01*
X208649616Y-103950429D01*
X208404335Y-103909500D01*
X208155665Y-103909500D01*
X207910383Y-103950429D01*
X207675197Y-104031169D01*
X207675188Y-104031172D01*
X207456493Y-104149524D01*
X207260257Y-104302261D01*
X207101230Y-104475010D01*
X207041342Y-104511001D01*
X206971504Y-104508900D01*
X206918770Y-104475010D01*
X206879108Y-104431926D01*
X206759744Y-104302262D01*
X206563509Y-104149526D01*
X206563507Y-104149525D01*
X206563506Y-104149524D01*
X206344811Y-104031172D01*
X206344802Y-104031169D01*
X206109616Y-103950429D01*
X205864335Y-103909500D01*
X205645079Y-103909500D01*
X205578040Y-103889815D01*
X205532285Y-103837011D01*
X205522341Y-103767853D01*
X205551366Y-103704297D01*
X205557398Y-103697819D01*
X205832731Y-103422486D01*
X207373299Y-101881916D01*
X207379384Y-101876580D01*
X207405750Y-101856351D01*
X207496153Y-101738534D01*
X207552983Y-101601335D01*
X207567500Y-101491069D01*
X207567500Y-101491067D01*
X207572367Y-101454101D01*
X207568030Y-101421164D01*
X207567499Y-101413061D01*
X207567499Y-101107999D01*
X207567499Y-100858717D01*
X207587184Y-100791682D01*
X207618615Y-100758402D01*
X207666671Y-100723488D01*
X207793333Y-100582816D01*
X207887979Y-100418884D01*
X207946474Y-100238856D01*
X207966260Y-100050600D01*
X207946474Y-99862344D01*
X207887979Y-99682316D01*
X207793333Y-99518384D01*
X207666671Y-99377712D01*
X207666670Y-99377711D01*
X207513534Y-99266451D01*
X207513529Y-99266448D01*
X207340607Y-99189457D01*
X207340602Y-99189455D01*
X207194800Y-99158465D01*
X207155446Y-99150100D01*
X206966154Y-99150100D01*
X206933697Y-99156998D01*
X206780997Y-99189455D01*
X206780992Y-99189457D01*
X206608070Y-99266448D01*
X206608065Y-99266451D01*
X206454929Y-99377711D01*
X206328266Y-99518385D01*
X206233621Y-99682315D01*
X206233618Y-99682322D01*
X206175127Y-99862340D01*
X206175126Y-99862344D01*
X206155340Y-100050600D01*
X206175126Y-100238856D01*
X206175127Y-100238859D01*
X206233618Y-100418877D01*
X206233621Y-100418884D01*
X206328267Y-100582816D01*
X206354524Y-100611977D01*
X206407649Y-100670979D01*
X206437879Y-100733971D01*
X206439499Y-100753951D01*
X206439500Y-101169121D01*
X206419816Y-101236160D01*
X206403181Y-101256802D01*
X204093710Y-103566272D01*
X204087608Y-103571624D01*
X204061248Y-103591851D01*
X204027359Y-103636016D01*
X204027343Y-103636039D01*
X203970847Y-103709667D01*
X203914017Y-103846866D01*
X203914017Y-103846867D01*
X203905870Y-103908744D01*
X203877602Y-103972640D01*
X203819277Y-104011111D01*
X203749413Y-104011941D01*
X203742668Y-104009838D01*
X203569616Y-103950429D01*
X203324335Y-103909500D01*
X203075665Y-103909500D01*
X202830383Y-103950429D01*
X202595197Y-104031169D01*
X202595188Y-104031172D01*
X202376493Y-104149524D01*
X202180257Y-104302261D01*
X202021230Y-104475010D01*
X201961342Y-104511001D01*
X201891504Y-104508900D01*
X201838770Y-104475010D01*
X201679741Y-104302259D01*
X201679737Y-104302256D01*
X201519338Y-104177412D01*
X201478525Y-104120702D01*
X201471500Y-104079559D01*
X201471500Y-94733530D01*
X201491185Y-94666491D01*
X201543989Y-94620736D01*
X201613147Y-94610792D01*
X201635757Y-94616247D01*
X201814386Y-94677571D01*
X202059665Y-94718500D01*
X202308335Y-94718500D01*
X202553614Y-94677571D01*
X202788810Y-94596828D01*
X203007509Y-94478474D01*
X203203744Y-94325738D01*
X203362772Y-94152986D01*
X203422656Y-94116999D01*
X203492494Y-94119099D01*
X203545228Y-94152989D01*
X203704252Y-94325734D01*
X203704256Y-94325738D01*
X203900491Y-94478474D01*
X204119190Y-94596828D01*
X204354386Y-94677571D01*
X204599665Y-94718500D01*
X204848335Y-94718500D01*
X205093614Y-94677571D01*
X205328810Y-94596828D01*
X205547509Y-94478474D01*
X205743744Y-94325738D01*
X205912164Y-94142785D01*
X206048173Y-93934607D01*
X206148063Y-93706881D01*
X206209108Y-93465821D01*
X206229643Y-93218000D01*
X206217349Y-93069643D01*
X206209109Y-92970187D01*
X206209107Y-92970175D01*
X206148063Y-92729118D01*
X206048173Y-92501393D01*
X205912166Y-92293217D01*
X205890557Y-92269744D01*
X205743744Y-92110262D01*
X205547509Y-91957526D01*
X205547507Y-91957525D01*
X205547506Y-91957524D01*
X205403825Y-91879768D01*
X205354235Y-91830548D01*
X205339127Y-91762332D01*
X205363297Y-91696776D01*
X205419073Y-91654695D01*
X205483250Y-91648404D01*
X205615665Y-91670500D01*
X205615666Y-91670500D01*
X205864335Y-91670500D01*
X206109614Y-91629571D01*
X206344810Y-91548828D01*
X206563509Y-91430474D01*
X206759744Y-91277738D01*
X206918771Y-91104988D01*
X206978657Y-91068999D01*
X207048495Y-91071099D01*
X207101228Y-91104988D01*
X207260256Y-91277738D01*
X207456491Y-91430474D01*
X207557608Y-91485196D01*
X207674332Y-91548364D01*
X207675190Y-91548828D01*
X207842061Y-91606115D01*
X207908964Y-91629083D01*
X207910386Y-91629571D01*
X208155665Y-91670500D01*
X208404335Y-91670500D01*
X208649614Y-91629571D01*
X208884810Y-91548828D01*
X209103509Y-91430474D01*
X209299744Y-91277738D01*
X209458772Y-91104986D01*
X209518656Y-91068999D01*
X209588494Y-91071099D01*
X209641228Y-91104989D01*
X209800252Y-91277734D01*
X209800256Y-91277738D01*
X209996491Y-91430474D01*
X210097608Y-91485196D01*
X210214332Y-91548364D01*
X210215190Y-91548828D01*
X210382061Y-91606115D01*
X210448964Y-91629083D01*
X210450386Y-91629571D01*
X210695665Y-91670500D01*
X210944335Y-91670500D01*
X211189614Y-91629571D01*
X211424810Y-91548828D01*
X211643509Y-91430474D01*
X211839744Y-91277738D01*
X211998771Y-91104988D01*
X212058657Y-91068999D01*
X212128495Y-91071099D01*
X212181228Y-91104988D01*
X212340256Y-91277738D01*
X212536491Y-91430474D01*
X212637608Y-91485196D01*
X212754332Y-91548364D01*
X212755190Y-91548828D01*
X212922061Y-91606115D01*
X212988964Y-91629083D01*
X212990386Y-91629571D01*
X213235665Y-91670500D01*
X213484335Y-91670500D01*
X213729614Y-91629571D01*
X213964810Y-91548828D01*
X214183509Y-91430474D01*
X214379744Y-91277738D01*
X214538771Y-91104988D01*
X214598657Y-91068999D01*
X214668495Y-91071099D01*
X214721228Y-91104988D01*
X214880256Y-91277738D01*
X215076491Y-91430474D01*
X215177608Y-91485196D01*
X215294332Y-91548364D01*
X215295190Y-91548828D01*
X215462061Y-91606115D01*
X215528964Y-91629083D01*
X215530386Y-91629571D01*
X215775665Y-91670500D01*
X216024335Y-91670500D01*
X216269614Y-91629571D01*
X216504810Y-91548828D01*
X216723509Y-91430474D01*
X216919744Y-91277738D01*
X217078771Y-91104988D01*
X217138657Y-91068999D01*
X217208495Y-91071099D01*
X217261228Y-91104988D01*
X217420256Y-91277738D01*
X217616491Y-91430474D01*
X217717608Y-91485196D01*
X217834332Y-91548364D01*
X217835190Y-91548828D01*
X218002061Y-91606115D01*
X218068964Y-91629083D01*
X218070386Y-91629571D01*
X218315665Y-91670500D01*
X218564335Y-91670500D01*
X218809614Y-91629571D01*
X219044810Y-91548828D01*
X219263509Y-91430474D01*
X219459744Y-91277738D01*
X219628164Y-91094785D01*
X219764173Y-90886607D01*
X219864063Y-90658881D01*
X219925108Y-90417821D01*
X219945643Y-90170000D01*
X219925108Y-89922179D01*
X219884996Y-89763782D01*
X219864063Y-89681118D01*
X219764173Y-89453393D01*
X219628166Y-89245217D01*
X219558350Y-89169377D01*
X219459744Y-89062262D01*
X219263509Y-88909526D01*
X219263507Y-88909525D01*
X219263506Y-88909524D01*
X219044811Y-88791172D01*
X219044802Y-88791169D01*
X218809616Y-88710429D01*
X218564335Y-88669500D01*
X218315665Y-88669500D01*
X218070383Y-88710429D01*
X217835197Y-88791169D01*
X217835188Y-88791172D01*
X217616493Y-88909524D01*
X217420257Y-89062261D01*
X217261230Y-89235010D01*
X217201342Y-89271001D01*
X217131504Y-89268900D01*
X217078770Y-89235010D01*
X217018350Y-89169377D01*
X216919744Y-89062262D01*
X216723509Y-88909526D01*
X216723507Y-88909525D01*
X216723506Y-88909524D01*
X216504811Y-88791172D01*
X216504802Y-88791169D01*
X216269616Y-88710429D01*
X216024335Y-88669500D01*
X215775665Y-88669500D01*
X215530383Y-88710429D01*
X215295197Y-88791169D01*
X215295188Y-88791172D01*
X215076493Y-88909524D01*
X214880257Y-89062261D01*
X214721230Y-89235010D01*
X214661342Y-89271001D01*
X214591504Y-89268900D01*
X214538770Y-89235010D01*
X214478350Y-89169377D01*
X214379744Y-89062262D01*
X214183509Y-88909526D01*
X214183507Y-88909525D01*
X214183506Y-88909524D01*
X213964811Y-88791172D01*
X213964802Y-88791169D01*
X213729616Y-88710429D01*
X213484335Y-88669500D01*
X213235665Y-88669500D01*
X212990383Y-88710429D01*
X212755197Y-88791169D01*
X212755188Y-88791172D01*
X212536493Y-88909524D01*
X212340257Y-89062261D01*
X212181230Y-89235010D01*
X212121342Y-89271001D01*
X212051504Y-89268900D01*
X211998770Y-89235010D01*
X211938350Y-89169377D01*
X211839744Y-89062262D01*
X211643509Y-88909526D01*
X211643507Y-88909525D01*
X211643506Y-88909524D01*
X211424811Y-88791172D01*
X211424802Y-88791169D01*
X211189616Y-88710429D01*
X210944335Y-88669500D01*
X210695665Y-88669500D01*
X210450383Y-88710429D01*
X210215197Y-88791169D01*
X210215188Y-88791172D01*
X209996493Y-88909524D01*
X209800257Y-89062261D01*
X209641230Y-89235010D01*
X209581342Y-89271001D01*
X209511504Y-89268900D01*
X209458770Y-89235010D01*
X209398350Y-89169377D01*
X209299744Y-89062262D01*
X209103509Y-88909526D01*
X209103507Y-88909525D01*
X209103506Y-88909524D01*
X208884811Y-88791172D01*
X208884802Y-88791169D01*
X208649616Y-88710429D01*
X208404335Y-88669500D01*
X208155665Y-88669500D01*
X207910383Y-88710429D01*
X207675197Y-88791169D01*
X207675188Y-88791172D01*
X207456493Y-88909524D01*
X207260257Y-89062261D01*
X207101230Y-89235010D01*
X207041342Y-89271001D01*
X206971504Y-89268900D01*
X206918770Y-89235010D01*
X206858350Y-89169377D01*
X206759744Y-89062262D01*
X206563509Y-88909526D01*
X206563507Y-88909525D01*
X206563506Y-88909524D01*
X206344811Y-88791172D01*
X206344802Y-88791169D01*
X206109616Y-88710429D01*
X205864335Y-88669500D01*
X205615665Y-88669500D01*
X205370383Y-88710429D01*
X205135197Y-88791169D01*
X205135188Y-88791172D01*
X204916493Y-88909524D01*
X204720257Y-89062261D01*
X204561230Y-89235010D01*
X204501342Y-89271001D01*
X204431504Y-89268900D01*
X204378770Y-89235010D01*
X204318350Y-89169377D01*
X204219744Y-89062262D01*
X204023509Y-88909526D01*
X204023507Y-88909525D01*
X204023506Y-88909524D01*
X203804811Y-88791172D01*
X203804802Y-88791169D01*
X203569616Y-88710429D01*
X203324335Y-88669500D01*
X203075665Y-88669500D01*
X202830383Y-88710429D01*
X202595197Y-88791169D01*
X202595188Y-88791172D01*
X202376493Y-88909524D01*
X202180257Y-89062261D01*
X202021230Y-89235010D01*
X201961342Y-89271001D01*
X201891504Y-89268900D01*
X201838770Y-89235010D01*
X201778350Y-89169377D01*
X201679744Y-89062262D01*
X201483509Y-88909526D01*
X201483507Y-88909525D01*
X201483506Y-88909524D01*
X201264811Y-88791172D01*
X201264802Y-88791169D01*
X201029616Y-88710429D01*
X200822743Y-88675909D01*
X200759857Y-88645459D01*
X200723418Y-88585844D01*
X200724993Y-88515992D01*
X200764082Y-88458080D01*
X200828276Y-88430496D01*
X200843152Y-88429600D01*
X202415366Y-88429600D01*
X202423463Y-88430130D01*
X202456400Y-88434467D01*
X202456401Y-88434467D01*
X202471842Y-88432434D01*
X202603634Y-88415083D01*
X202740833Y-88358253D01*
X202829068Y-88290549D01*
X202829068Y-88290548D01*
X202858650Y-88267850D01*
X202878881Y-88241484D01*
X202884211Y-88235405D01*
X205036450Y-86083164D01*
X205097771Y-86049681D01*
X205113314Y-86047320D01*
X205173408Y-86042063D01*
X205401663Y-85980903D01*
X205615829Y-85881035D01*
X205809401Y-85745495D01*
X205976495Y-85578401D01*
X206086426Y-85421401D01*
X206141001Y-85377778D01*
X206210500Y-85370584D01*
X206272855Y-85402106D01*
X206289571Y-85421398D01*
X206339408Y-85492573D01*
X206399506Y-85578403D01*
X206489286Y-85668182D01*
X206566599Y-85745495D01*
X206581652Y-85756035D01*
X206760165Y-85881032D01*
X206760167Y-85881033D01*
X206760170Y-85881035D01*
X206974337Y-85980903D01*
X207202592Y-86042063D01*
X207390918Y-86058539D01*
X207437999Y-86062659D01*
X207438000Y-86062659D01*
X207438001Y-86062659D01*
X207477234Y-86059226D01*
X207673408Y-86042063D01*
X207901663Y-85980903D01*
X208115829Y-85881035D01*
X208309401Y-85745495D01*
X208476495Y-85578401D01*
X208612035Y-85384829D01*
X208711903Y-85170663D01*
X208773063Y-84942408D01*
X208788500Y-84765966D01*
X208788500Y-84398034D01*
X208788301Y-84395763D01*
X219887787Y-84395763D01*
X219917413Y-84665013D01*
X219917415Y-84665024D01*
X219985926Y-84927082D01*
X219985928Y-84927088D01*
X220091870Y-85176390D01*
X220208703Y-85367827D01*
X220232979Y-85407605D01*
X220232986Y-85407615D01*
X220406253Y-85615819D01*
X220406259Y-85615824D01*
X220550546Y-85745105D01*
X220607998Y-85796582D01*
X220833910Y-85946044D01*
X221079176Y-86061020D01*
X221079183Y-86061022D01*
X221079185Y-86061023D01*
X221338557Y-86139057D01*
X221338564Y-86139058D01*
X221338569Y-86139060D01*
X221606561Y-86178500D01*
X221606566Y-86178500D01*
X221809636Y-86178500D01*
X221861133Y-86174730D01*
X222012156Y-86163677D01*
X222124758Y-86138593D01*
X222276546Y-86104782D01*
X222276548Y-86104781D01*
X222276553Y-86104780D01*
X222529558Y-86008014D01*
X222765777Y-85875441D01*
X222980177Y-85709888D01*
X223168186Y-85514881D01*
X223325799Y-85294579D01*
X223447947Y-85057000D01*
X223449649Y-85053690D01*
X223449651Y-85053684D01*
X223449656Y-85053675D01*
X223537118Y-84797305D01*
X223586319Y-84530933D01*
X223596212Y-84260235D01*
X223566586Y-83990982D01*
X223498072Y-83728912D01*
X223392130Y-83479610D01*
X223251018Y-83248390D01*
X223196680Y-83183096D01*
X223077746Y-83040180D01*
X223077740Y-83040175D01*
X222876002Y-82859418D01*
X222650092Y-82709957D01*
X222603699Y-82688209D01*
X222404824Y-82594980D01*
X222404819Y-82594978D01*
X222404814Y-82594976D01*
X222145442Y-82516942D01*
X222145428Y-82516939D01*
X222029791Y-82499921D01*
X221877439Y-82477500D01*
X221674369Y-82477500D01*
X221674364Y-82477500D01*
X221471844Y-82492323D01*
X221471831Y-82492325D01*
X221207453Y-82551217D01*
X221207446Y-82551220D01*
X220954439Y-82647987D01*
X220718226Y-82780557D01*
X220718224Y-82780558D01*
X220718223Y-82780559D01*
X220655893Y-82828688D01*
X220503822Y-82946112D01*
X220315822Y-83141109D01*
X220315816Y-83141116D01*
X220158202Y-83361419D01*
X220158199Y-83361424D01*
X220034350Y-83602309D01*
X220034343Y-83602327D01*
X219946884Y-83858685D01*
X219946881Y-83858699D01*
X219938482Y-83904171D01*
X219898925Y-84118335D01*
X219897681Y-84125068D01*
X219897680Y-84125075D01*
X219887787Y-84395763D01*
X208788301Y-84395763D01*
X208773063Y-84221592D01*
X208711903Y-83993337D01*
X208612035Y-83779171D01*
X208600131Y-83762169D01*
X208476494Y-83585597D01*
X208309402Y-83418506D01*
X208309395Y-83418501D01*
X208285122Y-83401505D01*
X208270068Y-83390964D01*
X208115834Y-83282967D01*
X208115830Y-83282965D01*
X208041692Y-83248394D01*
X207901663Y-83183097D01*
X207901659Y-83183096D01*
X207901655Y-83183094D01*
X207673413Y-83121938D01*
X207673403Y-83121936D01*
X207438001Y-83101341D01*
X207437999Y-83101341D01*
X207202596Y-83121936D01*
X207202586Y-83121938D01*
X206974344Y-83183094D01*
X206974339Y-83183096D01*
X206974336Y-83183097D01*
X206974337Y-83183097D01*
X206959168Y-83190170D01*
X206890092Y-83200661D01*
X206826309Y-83172141D01*
X206819085Y-83165468D01*
X206585801Y-82932184D01*
X206341817Y-82688200D01*
X206336477Y-82682110D01*
X206316250Y-82655750D01*
X206316248Y-82655749D01*
X206316248Y-82655748D01*
X206264258Y-82615856D01*
X206198432Y-82565346D01*
X206118062Y-82532056D01*
X206061234Y-82508517D01*
X205969266Y-82496409D01*
X205914001Y-82489133D01*
X205914000Y-82489133D01*
X205881063Y-82493469D01*
X205872966Y-82494000D01*
X204257034Y-82494000D01*
X204248933Y-82493469D01*
X204216000Y-82489133D01*
X204215996Y-82489133D01*
X204186571Y-82493006D01*
X204186564Y-82493008D01*
X204116489Y-82502234D01*
X204068766Y-82508517D01*
X204068765Y-82508517D01*
X203931565Y-82565347D01*
X203813750Y-82655748D01*
X203793519Y-82682113D01*
X203788167Y-82688215D01*
X203338210Y-83138171D01*
X203332108Y-83143523D01*
X203305748Y-83163750D01*
X203271848Y-83207929D01*
X203271843Y-83207937D01*
X203248605Y-83238222D01*
X203192178Y-83279426D01*
X203122432Y-83283583D01*
X203097823Y-83275120D01*
X202901492Y-83183570D01*
X202901486Y-83183567D01*
X202688000Y-83126364D01*
X202688000Y-84173981D01*
X202573199Y-84121554D01*
X202471975Y-84107000D01*
X202404025Y-84107000D01*
X202302801Y-84121554D01*
X202188000Y-84173981D01*
X202188000Y-83126364D01*
X202187999Y-83126364D01*
X201974513Y-83183567D01*
X201974507Y-83183570D01*
X201760422Y-83283399D01*
X201760420Y-83283400D01*
X201566926Y-83418886D01*
X201566920Y-83418891D01*
X201399891Y-83585920D01*
X201399890Y-83585922D01*
X201289880Y-83743032D01*
X201235303Y-83786657D01*
X201165804Y-83793849D01*
X201103450Y-83762327D01*
X201086730Y-83743031D01*
X200976494Y-83585597D01*
X200809402Y-83418506D01*
X200809395Y-83418501D01*
X200785122Y-83401505D01*
X200770068Y-83390964D01*
X200615834Y-83282967D01*
X200615830Y-83282965D01*
X200541692Y-83248394D01*
X200401663Y-83183097D01*
X200401659Y-83183096D01*
X200401655Y-83183094D01*
X200173413Y-83121938D01*
X200173403Y-83121936D01*
X199938001Y-83101341D01*
X199937999Y-83101341D01*
X199702596Y-83121936D01*
X199702586Y-83121938D01*
X199474344Y-83183094D01*
X199474335Y-83183098D01*
X199260171Y-83282964D01*
X199260169Y-83282965D01*
X199066597Y-83418505D01*
X198899505Y-83585597D01*
X198763965Y-83779169D01*
X198763962Y-83779174D01*
X198759009Y-83789797D01*
X198712835Y-83842234D01*
X198645641Y-83861384D01*
X198578760Y-83841166D01*
X198545054Y-83808511D01*
X198476494Y-83710597D01*
X198309402Y-83543506D01*
X198309395Y-83543501D01*
X198285122Y-83526505D01*
X198218150Y-83479610D01*
X198115834Y-83407967D01*
X198115830Y-83407965D01*
X198101979Y-83401506D01*
X197901663Y-83308097D01*
X197901659Y-83308096D01*
X197901655Y-83308094D01*
X197673413Y-83246938D01*
X197673403Y-83246936D01*
X197438001Y-83226341D01*
X197437999Y-83226341D01*
X197202596Y-83246936D01*
X197202586Y-83246938D01*
X196974344Y-83308094D01*
X196974335Y-83308098D01*
X196760171Y-83407964D01*
X196760169Y-83407965D01*
X196566597Y-83543505D01*
X196399505Y-83710597D01*
X196263965Y-83904169D01*
X196263964Y-83904171D01*
X196164098Y-84118335D01*
X196164094Y-84118344D01*
X196102938Y-84346586D01*
X196102936Y-84346596D01*
X196082341Y-84581999D01*
X196082341Y-84582000D01*
X196102936Y-84817403D01*
X196102938Y-84817413D01*
X196164094Y-85045655D01*
X196164096Y-85045659D01*
X196164097Y-85045663D01*
X196215728Y-85156386D01*
X196263965Y-85259830D01*
X196263967Y-85259834D01*
X196363588Y-85402106D01*
X196399505Y-85453401D01*
X196566599Y-85620495D01*
X196634703Y-85668182D01*
X196760165Y-85756032D01*
X196760167Y-85756033D01*
X196760170Y-85756035D01*
X196974337Y-85855903D01*
X196974343Y-85855904D01*
X196974344Y-85855905D01*
X197004686Y-85864035D01*
X197202592Y-85917063D01*
X197390918Y-85933539D01*
X197437999Y-85937659D01*
X197438000Y-85937659D01*
X197438001Y-85937659D01*
X197477234Y-85934226D01*
X197673408Y-85917063D01*
X197901663Y-85855903D01*
X198115830Y-85756035D01*
X198309401Y-85620495D01*
X198476495Y-85453401D01*
X198545055Y-85355487D01*
X198599630Y-85311863D01*
X198669129Y-85304669D01*
X198731484Y-85336191D01*
X198759010Y-85374205D01*
X198763961Y-85384823D01*
X198763965Y-85384830D01*
X198899505Y-85578402D01*
X198989286Y-85668182D01*
X199066599Y-85745495D01*
X199081652Y-85756035D01*
X199260165Y-85881032D01*
X199260167Y-85881033D01*
X199260170Y-85881035D01*
X199474337Y-85980903D01*
X199702592Y-86042063D01*
X199890918Y-86058539D01*
X199937999Y-86062659D01*
X199938000Y-86062659D01*
X199938001Y-86062659D01*
X199977234Y-86059226D01*
X200173408Y-86042063D01*
X200401663Y-85980903D01*
X200615829Y-85881035D01*
X200809401Y-85745495D01*
X200976495Y-85578401D01*
X201086732Y-85420965D01*
X201141306Y-85377342D01*
X201210805Y-85370148D01*
X201273159Y-85401670D01*
X201289880Y-85420967D01*
X201399886Y-85578073D01*
X201399891Y-85578079D01*
X201566917Y-85745105D01*
X201760421Y-85880600D01*
X201974507Y-85980429D01*
X201974516Y-85980433D01*
X202188000Y-86037634D01*
X202188000Y-84990018D01*
X202302801Y-85042446D01*
X202404025Y-85057000D01*
X202471975Y-85057000D01*
X202573199Y-85042446D01*
X202688000Y-84990018D01*
X202688000Y-86023020D01*
X202668315Y-86090059D01*
X202651681Y-86110701D01*
X202037502Y-86724881D01*
X201976179Y-86758366D01*
X201949821Y-86761200D01*
X197457434Y-86761200D01*
X197449336Y-86760669D01*
X197416400Y-86756333D01*
X197416399Y-86756333D01*
X197400958Y-86758366D01*
X197379432Y-86761200D01*
X197269166Y-86775717D01*
X197269165Y-86775717D01*
X197131965Y-86832547D01*
X197014150Y-86922948D01*
X196993919Y-86949313D01*
X196988567Y-86955415D01*
X196486710Y-87457271D01*
X196480608Y-87462623D01*
X196454248Y-87482850D01*
X196420359Y-87527015D01*
X196420343Y-87527038D01*
X196363847Y-87600666D01*
X196363847Y-87600667D01*
X196307017Y-87737866D01*
X196287633Y-87885100D01*
X196290764Y-87908885D01*
X196291969Y-87918033D01*
X196292500Y-87926135D01*
X196292499Y-88654469D01*
X196272814Y-88721509D01*
X196220010Y-88767263D01*
X196150852Y-88777207D01*
X196128236Y-88771750D01*
X195949616Y-88710429D01*
X195704335Y-88669500D01*
X195455665Y-88669500D01*
X195210383Y-88710429D01*
X194975197Y-88791169D01*
X194975188Y-88791172D01*
X194756493Y-88909524D01*
X194560257Y-89062261D01*
X194401230Y-89235010D01*
X194341342Y-89271001D01*
X194271504Y-89268900D01*
X194218770Y-89235010D01*
X194158350Y-89169377D01*
X194059744Y-89062262D01*
X193863509Y-88909526D01*
X193863507Y-88909525D01*
X193863506Y-88909524D01*
X193644811Y-88791172D01*
X193644802Y-88791169D01*
X193409616Y-88710429D01*
X193164335Y-88669500D01*
X192915665Y-88669500D01*
X192670383Y-88710429D01*
X192435197Y-88791169D01*
X192435188Y-88791172D01*
X192216493Y-88909524D01*
X192020255Y-89062262D01*
X192020252Y-89062265D01*
X191861228Y-89235010D01*
X191801341Y-89271001D01*
X191731503Y-89268900D01*
X191678770Y-89235011D01*
X191519744Y-89062262D01*
X191323509Y-88909526D01*
X191323507Y-88909525D01*
X191323506Y-88909524D01*
X191104811Y-88791172D01*
X191104802Y-88791169D01*
X190869616Y-88710429D01*
X190624335Y-88669500D01*
X190375665Y-88669500D01*
X190130383Y-88710429D01*
X189895197Y-88791169D01*
X189895188Y-88791172D01*
X189676493Y-88909524D01*
X189480257Y-89062261D01*
X189321230Y-89235010D01*
X189261342Y-89271001D01*
X189191504Y-89268900D01*
X189138770Y-89235010D01*
X189078350Y-89169377D01*
X188979744Y-89062262D01*
X188783509Y-88909526D01*
X188783507Y-88909525D01*
X188783506Y-88909524D01*
X188564811Y-88791172D01*
X188564802Y-88791169D01*
X188504521Y-88770474D01*
X188447505Y-88730088D01*
X188421375Y-88665288D01*
X188434427Y-88596649D01*
X188457100Y-88565515D01*
X192962497Y-84060119D01*
X193023821Y-84026634D01*
X193050179Y-84023800D01*
X193445135Y-84023800D01*
X193512174Y-84043485D01*
X193537285Y-84064828D01*
X193602523Y-84137283D01*
X193602530Y-84137289D01*
X193755665Y-84248548D01*
X193755670Y-84248551D01*
X193928592Y-84325542D01*
X193928597Y-84325544D01*
X194113754Y-84364900D01*
X194113755Y-84364900D01*
X194303044Y-84364900D01*
X194303046Y-84364900D01*
X194488203Y-84325544D01*
X194661130Y-84248551D01*
X194814271Y-84137288D01*
X194940933Y-83996616D01*
X195035579Y-83832684D01*
X195094074Y-83652656D01*
X195113860Y-83464400D01*
X195094074Y-83276144D01*
X195037277Y-83101341D01*
X195035581Y-83096122D01*
X195035580Y-83096121D01*
X195035579Y-83096116D01*
X194940933Y-82932184D01*
X194814271Y-82791512D01*
X194814263Y-82791506D01*
X194661134Y-82680251D01*
X194661129Y-82680248D01*
X194488207Y-82603257D01*
X194488202Y-82603255D01*
X194342400Y-82572265D01*
X194303046Y-82563900D01*
X194113754Y-82563900D01*
X194081297Y-82570798D01*
X193928597Y-82603255D01*
X193928592Y-82603257D01*
X193755670Y-82680248D01*
X193755665Y-82680251D01*
X193602535Y-82791506D01*
X193602528Y-82791512D01*
X193545567Y-82854773D01*
X193486080Y-82891421D01*
X193453418Y-82895800D01*
X192806241Y-82895800D01*
X192798142Y-82895269D01*
X192765200Y-82890932D01*
X192765199Y-82890932D01*
X192569739Y-82916666D01*
X192547195Y-82938944D01*
X192535873Y-82944320D01*
X192480766Y-82967146D01*
X192362951Y-83057548D01*
X192342722Y-83083910D01*
X192337371Y-83090011D01*
X186475211Y-88952170D01*
X186413888Y-88985655D01*
X186344196Y-88980671D01*
X186311368Y-88962343D01*
X186243509Y-88909526D01*
X186119499Y-88842415D01*
X186024811Y-88791172D01*
X186024802Y-88791169D01*
X185789616Y-88710429D01*
X185544335Y-88669500D01*
X185295665Y-88669500D01*
X185050383Y-88710429D01*
X184815197Y-88791169D01*
X184815188Y-88791172D01*
X184596493Y-88909524D01*
X184400257Y-89062261D01*
X184241230Y-89235010D01*
X184181342Y-89271001D01*
X184111504Y-89268900D01*
X184058770Y-89235010D01*
X183998350Y-89169377D01*
X183899744Y-89062262D01*
X183703509Y-88909526D01*
X183703507Y-88909525D01*
X183703506Y-88909524D01*
X183484811Y-88791172D01*
X183484802Y-88791169D01*
X183249616Y-88710429D01*
X183004335Y-88669500D01*
X182755665Y-88669500D01*
X182510383Y-88710429D01*
X182275197Y-88791169D01*
X182275188Y-88791172D01*
X182056493Y-88909524D01*
X181860257Y-89062261D01*
X181701230Y-89235010D01*
X181641342Y-89271001D01*
X181571504Y-89268900D01*
X181518770Y-89235010D01*
X181458350Y-89169377D01*
X181359744Y-89062262D01*
X181163509Y-88909526D01*
X181163507Y-88909525D01*
X181163506Y-88909524D01*
X180944811Y-88791172D01*
X180944802Y-88791169D01*
X180709616Y-88710429D01*
X180464335Y-88669500D01*
X180215665Y-88669500D01*
X179970383Y-88710429D01*
X179735197Y-88791169D01*
X179735188Y-88791172D01*
X179516493Y-88909524D01*
X179320257Y-89062261D01*
X179161230Y-89235010D01*
X179101342Y-89271001D01*
X179031504Y-89268900D01*
X178978770Y-89235010D01*
X178918350Y-89169377D01*
X178819744Y-89062262D01*
X178623509Y-88909526D01*
X178623507Y-88909525D01*
X178623506Y-88909524D01*
X178404811Y-88791172D01*
X178404802Y-88791169D01*
X178169616Y-88710429D01*
X177924335Y-88669500D01*
X177675665Y-88669500D01*
X177430383Y-88710429D01*
X177195197Y-88791169D01*
X177195188Y-88791172D01*
X176976493Y-88909524D01*
X176780257Y-89062261D01*
X176621230Y-89235010D01*
X176561342Y-89271001D01*
X176491504Y-89268900D01*
X176438770Y-89235010D01*
X176378350Y-89169377D01*
X176279744Y-89062262D01*
X176083509Y-88909526D01*
X176083507Y-88909525D01*
X176083506Y-88909524D01*
X175864811Y-88791172D01*
X175864802Y-88791169D01*
X175629616Y-88710429D01*
X175384335Y-88669500D01*
X175135665Y-88669500D01*
X174890383Y-88710429D01*
X174655197Y-88791169D01*
X174655188Y-88791172D01*
X174436493Y-88909524D01*
X174240257Y-89062261D01*
X174081230Y-89235010D01*
X174021342Y-89271001D01*
X173951504Y-89268900D01*
X173898770Y-89235010D01*
X173838350Y-89169377D01*
X173739744Y-89062262D01*
X173543509Y-88909526D01*
X173543507Y-88909525D01*
X173543506Y-88909524D01*
X173324811Y-88791172D01*
X173324802Y-88791169D01*
X173089616Y-88710429D01*
X172844335Y-88669500D01*
X172595665Y-88669500D01*
X172350383Y-88710429D01*
X172115197Y-88791169D01*
X172115188Y-88791172D01*
X171896493Y-88909524D01*
X171700257Y-89062261D01*
X171541230Y-89235010D01*
X171481342Y-89271001D01*
X171411504Y-89268900D01*
X171358770Y-89235010D01*
X171298350Y-89169377D01*
X171199744Y-89062262D01*
X171003509Y-88909526D01*
X171003507Y-88909525D01*
X171003506Y-88909524D01*
X170784811Y-88791172D01*
X170784802Y-88791169D01*
X170549616Y-88710429D01*
X170304335Y-88669500D01*
X170055665Y-88669500D01*
X169810383Y-88710429D01*
X169575197Y-88791169D01*
X169575188Y-88791172D01*
X169356493Y-88909524D01*
X169160257Y-89062261D01*
X169001230Y-89235010D01*
X168941342Y-89271001D01*
X168871504Y-89268900D01*
X168818770Y-89235010D01*
X168758350Y-89169377D01*
X168659744Y-89062262D01*
X168463509Y-88909526D01*
X168463507Y-88909525D01*
X168463506Y-88909524D01*
X168244811Y-88791172D01*
X168244802Y-88791169D01*
X168009616Y-88710429D01*
X167764335Y-88669500D01*
X167515665Y-88669500D01*
X167270383Y-88710429D01*
X167035197Y-88791169D01*
X167035188Y-88791172D01*
X166816493Y-88909524D01*
X166620257Y-89062261D01*
X166461230Y-89235010D01*
X166401342Y-89271001D01*
X166331504Y-89268900D01*
X166278770Y-89235010D01*
X166218350Y-89169377D01*
X166119744Y-89062262D01*
X165923509Y-88909526D01*
X165923507Y-88909525D01*
X165923506Y-88909524D01*
X165704811Y-88791172D01*
X165704802Y-88791169D01*
X165469616Y-88710429D01*
X165224335Y-88669500D01*
X164975665Y-88669500D01*
X164730383Y-88710429D01*
X164495197Y-88791169D01*
X164495188Y-88791172D01*
X164276493Y-88909524D01*
X164080257Y-89062261D01*
X163911837Y-89245213D01*
X163911829Y-89245224D01*
X163911455Y-89245797D01*
X163911242Y-89245978D01*
X163908690Y-89249258D01*
X163908014Y-89248732D01*
X163858304Y-89291147D01*
X163794865Y-89301302D01*
X163783434Y-89300116D01*
X163051132Y-90032418D01*
X163028682Y-89955960D01*
X162949395Y-89832587D01*
X162838562Y-89736549D01*
X162705161Y-89675627D01*
X162701364Y-89675081D01*
X163430057Y-88946389D01*
X163383229Y-88909943D01*
X163164614Y-88791635D01*
X163164603Y-88791630D01*
X162929493Y-88710916D01*
X162684293Y-88670000D01*
X162435707Y-88670000D01*
X162190506Y-88710916D01*
X162041638Y-88762023D01*
X161971839Y-88765173D01*
X161911418Y-88730087D01*
X161879557Y-88667904D01*
X161886373Y-88598367D01*
X161913692Y-88557062D01*
X162347203Y-88123553D01*
X162405753Y-88065003D01*
X162405763Y-88064992D01*
X162720607Y-87750149D01*
X162940937Y-87529819D01*
X163002261Y-87496334D01*
X163028619Y-87493500D01*
X174946257Y-87493500D01*
X174961877Y-87495224D01*
X174961904Y-87494939D01*
X174969660Y-87495671D01*
X174969667Y-87495673D01*
X175038814Y-87493500D01*
X175068350Y-87493500D01*
X175075228Y-87492630D01*
X175081041Y-87492172D01*
X175127627Y-87490709D01*
X175146869Y-87485117D01*
X175165912Y-87481174D01*
X175185792Y-87478664D01*
X175229122Y-87461507D01*
X175234646Y-87459617D01*
X175242721Y-87457271D01*
X175279390Y-87446618D01*
X175296629Y-87436422D01*
X175314103Y-87427862D01*
X175332727Y-87420488D01*
X175332727Y-87420487D01*
X175332732Y-87420486D01*
X175370449Y-87393082D01*
X175375305Y-87389892D01*
X175415420Y-87366170D01*
X175429589Y-87351999D01*
X175444379Y-87339368D01*
X175460587Y-87327594D01*
X175490299Y-87291676D01*
X175494212Y-87287376D01*
X176777768Y-86003820D01*
X176839089Y-85970337D01*
X176897540Y-85971728D01*
X176931790Y-85980905D01*
X177096592Y-86025063D01*
X177284918Y-86041539D01*
X177331999Y-86045659D01*
X177332000Y-86045659D01*
X177332001Y-86045659D01*
X177371234Y-86042226D01*
X177567408Y-86025063D01*
X177795663Y-85963903D01*
X178009829Y-85864035D01*
X178203401Y-85728495D01*
X178370495Y-85561401D01*
X178480426Y-85404402D01*
X178535000Y-85360779D01*
X178604499Y-85353585D01*
X178666853Y-85385107D01*
X178683574Y-85404403D01*
X178736402Y-85479849D01*
X178793116Y-85560846D01*
X178793508Y-85561405D01*
X178900286Y-85668182D01*
X178960599Y-85728495D01*
X179057384Y-85796264D01*
X179154165Y-85864032D01*
X179154167Y-85864033D01*
X179154170Y-85864035D01*
X179368337Y-85963903D01*
X179368343Y-85963904D01*
X179368344Y-85963905D01*
X179423285Y-85978626D01*
X179596592Y-86025063D01*
X179784918Y-86041539D01*
X179831999Y-86045659D01*
X179832000Y-86045659D01*
X179832001Y-86045659D01*
X179871234Y-86042226D01*
X180067408Y-86025063D01*
X180295663Y-85963903D01*
X180509829Y-85864035D01*
X180703401Y-85728495D01*
X180870495Y-85561401D01*
X181006035Y-85367829D01*
X181010986Y-85357210D01*
X181057156Y-85304770D01*
X181124349Y-85285615D01*
X181191231Y-85305828D01*
X181224944Y-85338486D01*
X181293505Y-85436401D01*
X181460599Y-85603495D01*
X181512278Y-85639681D01*
X181654165Y-85739032D01*
X181654167Y-85739033D01*
X181654170Y-85739035D01*
X181868337Y-85838903D01*
X182096592Y-85900063D01*
X182284918Y-85916539D01*
X182331999Y-85920659D01*
X182332000Y-85920659D01*
X182332001Y-85920659D01*
X182371234Y-85917226D01*
X182567408Y-85900063D01*
X182795663Y-85838903D01*
X183009830Y-85739035D01*
X183203401Y-85603495D01*
X183370495Y-85436401D01*
X183506035Y-85242830D01*
X183605903Y-85028663D01*
X183667063Y-84800408D01*
X183687659Y-84565000D01*
X183667063Y-84329592D01*
X183605903Y-84101337D01*
X183506035Y-83887171D01*
X183474637Y-83842329D01*
X183370494Y-83693597D01*
X183203402Y-83526506D01*
X183203395Y-83526501D01*
X183009834Y-83390967D01*
X183009830Y-83390965D01*
X182946473Y-83361421D01*
X182795663Y-83291097D01*
X182795659Y-83291096D01*
X182795655Y-83291094D01*
X182567413Y-83229938D01*
X182567403Y-83229936D01*
X182332001Y-83209341D01*
X182331999Y-83209341D01*
X182096596Y-83229936D01*
X182096586Y-83229938D01*
X181868344Y-83291094D01*
X181868335Y-83291098D01*
X181654171Y-83390964D01*
X181654169Y-83390965D01*
X181460597Y-83526505D01*
X181293504Y-83693598D01*
X181224944Y-83791512D01*
X181170367Y-83835137D01*
X181100869Y-83842329D01*
X181038514Y-83810807D01*
X181010987Y-83772791D01*
X181006034Y-83762169D01*
X180870494Y-83568597D01*
X180703402Y-83401506D01*
X180703395Y-83401501D01*
X180509834Y-83265967D01*
X180509830Y-83265965D01*
X180472140Y-83248390D01*
X180295663Y-83166097D01*
X180295659Y-83166096D01*
X180295655Y-83166094D01*
X180067413Y-83104938D01*
X180067403Y-83104936D01*
X179832001Y-83084341D01*
X179831999Y-83084341D01*
X179596596Y-83104936D01*
X179596583Y-83104939D01*
X179536961Y-83120914D01*
X179467111Y-83119251D01*
X179417188Y-83088820D01*
X178392729Y-82064361D01*
X178380949Y-82050730D01*
X178373482Y-82040701D01*
X178366612Y-82031472D01*
X178366610Y-82031470D01*
X178326587Y-81997886D01*
X178322612Y-81994244D01*
X178319690Y-81991322D01*
X178316780Y-81988411D01*
X178291040Y-81968059D01*
X178232209Y-81918694D01*
X178226180Y-81914729D01*
X178226212Y-81914680D01*
X178219853Y-81910628D01*
X178219822Y-81910679D01*
X178213680Y-81906891D01*
X178213678Y-81906890D01*
X178213677Y-81906889D01*
X178174474Y-81888608D01*
X178144058Y-81874424D01*
X178109894Y-81857267D01*
X178075433Y-81839960D01*
X178075431Y-81839959D01*
X178075430Y-81839959D01*
X178068645Y-81837489D01*
X178068665Y-81837433D01*
X178061549Y-81834959D01*
X178061531Y-81835015D01*
X178054671Y-81832742D01*
X178026841Y-81826996D01*
X177979434Y-81817207D01*
X177930472Y-81805603D01*
X177904719Y-81799499D01*
X177897547Y-81798661D01*
X177897553Y-81798601D01*
X177890055Y-81797835D01*
X177890050Y-81797895D01*
X177882860Y-81797265D01*
X177806083Y-81799500D01*
X169989705Y-81799500D01*
X169971735Y-81798191D01*
X169947972Y-81794710D01*
X169902890Y-81798655D01*
X169895933Y-81799264D01*
X169890532Y-81799500D01*
X169882288Y-81799500D01*
X169849707Y-81803308D01*
X169773199Y-81810001D01*
X169766133Y-81811461D01*
X169766121Y-81811404D01*
X169758754Y-81813038D01*
X169758768Y-81813094D01*
X169751751Y-81814756D01*
X169679573Y-81841026D01*
X169606662Y-81865187D01*
X169600119Y-81868238D01*
X169600094Y-81868186D01*
X169593314Y-81871468D01*
X169593340Y-81871520D01*
X169586881Y-81874764D01*
X169522709Y-81916970D01*
X169457345Y-81957288D01*
X169451677Y-81961770D01*
X169451641Y-81961724D01*
X169445798Y-81966484D01*
X169445835Y-81966528D01*
X169440310Y-81971164D01*
X169387597Y-82027035D01*
X168317263Y-83097367D01*
X168255940Y-83130852D01*
X168197490Y-83129461D01*
X168169416Y-83121939D01*
X168169412Y-83121938D01*
X168169408Y-83121937D01*
X168169406Y-83121936D01*
X168169403Y-83121936D01*
X167934001Y-83101341D01*
X167933999Y-83101341D01*
X167698590Y-83121937D01*
X167698588Y-83121937D01*
X167638959Y-83137914D01*
X167569109Y-83136250D01*
X167519187Y-83105820D01*
X167272785Y-82859418D01*
X166985729Y-82572361D01*
X166973949Y-82558730D01*
X166966482Y-82548701D01*
X166959612Y-82539472D01*
X166932762Y-82516942D01*
X166919587Y-82505886D01*
X166915612Y-82502244D01*
X166912690Y-82499322D01*
X166909780Y-82496411D01*
X166884040Y-82476059D01*
X166825209Y-82426694D01*
X166819180Y-82422729D01*
X166819212Y-82422680D01*
X166812853Y-82418628D01*
X166812822Y-82418679D01*
X166806680Y-82414891D01*
X166806678Y-82414890D01*
X166806677Y-82414889D01*
X166767474Y-82396608D01*
X166737058Y-82382424D01*
X166702894Y-82365267D01*
X166668433Y-82347960D01*
X166668431Y-82347959D01*
X166668430Y-82347959D01*
X166661645Y-82345489D01*
X166661665Y-82345433D01*
X166654549Y-82342959D01*
X166654531Y-82343015D01*
X166647671Y-82340742D01*
X166619841Y-82334996D01*
X166572434Y-82325207D01*
X166523472Y-82313603D01*
X166497719Y-82307499D01*
X166490547Y-82306661D01*
X166490553Y-82306601D01*
X166483055Y-82305835D01*
X166483050Y-82305895D01*
X166475860Y-82305265D01*
X166399083Y-82307500D01*
X164350533Y-82307500D01*
X164332563Y-82306191D01*
X164308800Y-82302710D01*
X164263718Y-82306655D01*
X164256761Y-82307264D01*
X164251360Y-82307500D01*
X164243115Y-82307500D01*
X164217050Y-82310546D01*
X164210533Y-82311308D01*
X164205231Y-82311771D01*
X164134029Y-82318001D01*
X164126962Y-82319461D01*
X164126950Y-82319404D01*
X164119581Y-82321038D01*
X164119595Y-82321095D01*
X164112567Y-82322760D01*
X164063163Y-82340742D01*
X164040391Y-82349030D01*
X163967494Y-82373186D01*
X163967492Y-82373186D01*
X163967489Y-82373188D01*
X163960950Y-82376237D01*
X163960925Y-82376185D01*
X163954136Y-82379471D01*
X163954162Y-82379522D01*
X163947712Y-82382761D01*
X163883544Y-82424964D01*
X163818175Y-82465285D01*
X163812505Y-82469769D01*
X163812469Y-82469723D01*
X163806626Y-82474484D01*
X163806663Y-82474528D01*
X163801138Y-82479164D01*
X163801132Y-82479169D01*
X163801132Y-82479170D01*
X163784868Y-82496409D01*
X163748442Y-82535017D01*
X160643777Y-85639681D01*
X160582454Y-85673166D01*
X160512762Y-85668182D01*
X160456829Y-85626310D01*
X160432412Y-85560846D01*
X160447264Y-85492573D01*
X160455238Y-85479863D01*
X160587799Y-85294579D01*
X160709947Y-85057000D01*
X160711649Y-85053690D01*
X160711651Y-85053684D01*
X160711656Y-85053675D01*
X160799118Y-84797305D01*
X160848319Y-84530933D01*
X160858212Y-84260235D01*
X160828586Y-83990982D01*
X160760072Y-83728912D01*
X160654130Y-83479610D01*
X160513018Y-83248390D01*
X160458680Y-83183096D01*
X160339746Y-83040180D01*
X160339740Y-83040175D01*
X160138002Y-82859418D01*
X159912092Y-82709957D01*
X159865699Y-82688209D01*
X159666824Y-82594980D01*
X159666819Y-82594978D01*
X159666814Y-82594976D01*
X159407442Y-82516942D01*
X159407428Y-82516939D01*
X159291791Y-82499921D01*
X159139439Y-82477500D01*
X158936369Y-82477500D01*
X158936364Y-82477500D01*
X158733844Y-82492323D01*
X158733831Y-82492325D01*
X158469453Y-82551217D01*
X158469446Y-82551220D01*
X158216439Y-82647987D01*
X157980226Y-82780557D01*
X157980224Y-82780558D01*
X157980223Y-82780559D01*
X157917893Y-82828688D01*
X157765822Y-82946112D01*
X157577822Y-83141109D01*
X157577816Y-83141116D01*
X157420202Y-83361419D01*
X157420199Y-83361424D01*
X157296350Y-83602309D01*
X157296343Y-83602327D01*
X157208884Y-83858685D01*
X157208881Y-83858699D01*
X157200482Y-83904171D01*
X157160925Y-84118335D01*
X157159681Y-84125068D01*
X157159680Y-84125075D01*
X157149787Y-84395763D01*
X157179413Y-84665013D01*
X157179415Y-84665024D01*
X157247926Y-84927082D01*
X157247928Y-84927088D01*
X157353870Y-85176390D01*
X157470703Y-85367827D01*
X157494979Y-85407605D01*
X157494986Y-85407615D01*
X157668253Y-85615819D01*
X157668259Y-85615824D01*
X157812546Y-85745105D01*
X157869998Y-85796582D01*
X158095910Y-85946044D01*
X158341176Y-86061020D01*
X158341183Y-86061022D01*
X158341185Y-86061023D01*
X158600557Y-86139057D01*
X158600564Y-86139058D01*
X158600569Y-86139060D01*
X158868561Y-86178500D01*
X158868566Y-86178500D01*
X159071636Y-86178500D01*
X159123133Y-86174730D01*
X159274156Y-86163677D01*
X159386758Y-86138593D01*
X159538546Y-86104782D01*
X159538548Y-86104781D01*
X159538553Y-86104780D01*
X159791558Y-86008014D01*
X160027777Y-85875441D01*
X160163619Y-85770547D01*
X160228708Y-85745157D01*
X160297195Y-85758987D01*
X160347333Y-85807649D01*
X160363203Y-85875692D01*
X160339767Y-85941514D01*
X160327082Y-85956376D01*
X157014858Y-89268600D01*
X157001229Y-89280379D01*
X156981968Y-89294718D01*
X156948398Y-89334725D01*
X156944753Y-89338704D01*
X156938909Y-89344550D01*
X156918559Y-89370287D01*
X156869195Y-89429117D01*
X156865229Y-89435147D01*
X156865182Y-89435116D01*
X156861130Y-89441475D01*
X156861179Y-89441505D01*
X156857389Y-89447649D01*
X156824924Y-89517269D01*
X156790460Y-89585894D01*
X156787988Y-89592685D01*
X156787932Y-89592664D01*
X156785460Y-89599778D01*
X156785515Y-89599797D01*
X156783242Y-89606655D01*
X156775474Y-89644274D01*
X156767707Y-89681893D01*
X156754754Y-89736549D01*
X156749998Y-89756614D01*
X156749161Y-89763782D01*
X156749101Y-89763775D01*
X156748335Y-89771273D01*
X156748395Y-89771279D01*
X156747765Y-89778468D01*
X156750000Y-89855244D01*
X156750000Y-92683677D01*
X156733387Y-92745677D01*
X156673321Y-92849714D01*
X156635464Y-92966226D01*
X156614826Y-93029744D01*
X156595040Y-93218000D01*
X156614826Y-93406256D01*
X156614827Y-93406259D01*
X156673318Y-93586277D01*
X156673321Y-93586284D01*
X156767967Y-93750216D01*
X156858004Y-93850212D01*
X156894629Y-93890888D01*
X157047765Y-94002148D01*
X157047770Y-94002151D01*
X157220692Y-94079142D01*
X157220697Y-94079144D01*
X157405854Y-94118500D01*
X157405855Y-94118500D01*
X157595144Y-94118500D01*
X157595146Y-94118500D01*
X157780303Y-94079144D01*
X157953230Y-94002151D01*
X158106371Y-93890888D01*
X158233033Y-93750216D01*
X158327679Y-93586284D01*
X158386174Y-93406256D01*
X158405960Y-93218000D01*
X158386721Y-93034952D01*
X158399291Y-92966226D01*
X158447023Y-92915202D01*
X158514763Y-92898084D01*
X158581004Y-92920306D01*
X158597721Y-92934312D01*
X159951036Y-94287627D01*
X159984520Y-94348948D01*
X159979536Y-94418640D01*
X159937664Y-94474573D01*
X159934480Y-94476879D01*
X159893597Y-94505506D01*
X159726505Y-94672597D01*
X159590965Y-94866169D01*
X159590964Y-94866171D01*
X159491098Y-95080335D01*
X159491094Y-95080344D01*
X159429938Y-95308586D01*
X159429936Y-95308596D01*
X159409341Y-95543999D01*
X159409341Y-95544000D01*
X159429936Y-95779403D01*
X159429938Y-95779413D01*
X159491094Y-96007655D01*
X159491096Y-96007659D01*
X159491097Y-96007663D01*
X159562075Y-96159876D01*
X159590965Y-96221830D01*
X159590967Y-96221834D01*
X159726501Y-96415395D01*
X159726506Y-96415402D01*
X159893597Y-96582493D01*
X159893603Y-96582498D01*
X159991511Y-96651054D01*
X160035136Y-96705631D01*
X160042330Y-96775129D01*
X160010807Y-96837484D01*
X159972797Y-96865009D01*
X159962174Y-96869962D01*
X159962169Y-96869965D01*
X159768597Y-97005505D01*
X159601506Y-97172597D01*
X159601501Y-97172604D01*
X159465967Y-97366165D01*
X159465965Y-97366169D01*
X159366098Y-97580335D01*
X159366094Y-97580344D01*
X159304938Y-97808586D01*
X159304936Y-97808596D01*
X159284341Y-98043999D01*
X159284341Y-98044000D01*
X159304936Y-98279403D01*
X159304938Y-98279413D01*
X159366094Y-98507655D01*
X159366096Y-98507659D01*
X159366097Y-98507663D01*
X159401288Y-98583130D01*
X159465964Y-98721828D01*
X159465965Y-98721830D01*
X159601505Y-98915402D01*
X159768597Y-99082494D01*
X159926031Y-99192730D01*
X159969656Y-99247307D01*
X159976850Y-99316805D01*
X159945327Y-99379160D01*
X159926032Y-99395880D01*
X159768922Y-99505890D01*
X159768920Y-99505891D01*
X159601894Y-99672917D01*
X159466399Y-99866421D01*
X159366570Y-100080507D01*
X159366567Y-100080513D01*
X159309364Y-100293999D01*
X159309364Y-100294000D01*
X160361031Y-100294000D01*
X160328481Y-100344649D01*
X160290000Y-100475705D01*
X160290000Y-100612295D01*
X160328481Y-100743351D01*
X160361031Y-100794000D01*
X159309364Y-100794000D01*
X159366567Y-101007486D01*
X159366570Y-101007492D01*
X159466399Y-101221577D01*
X159466400Y-101221579D01*
X159601886Y-101415073D01*
X159601891Y-101415079D01*
X159768920Y-101582108D01*
X159768926Y-101582113D01*
X159962420Y-101717599D01*
X159962422Y-101717600D01*
X160176507Y-101817429D01*
X160176516Y-101817433D01*
X160404678Y-101878568D01*
X160515000Y-101888219D01*
X160515000Y-100952018D01*
X160629801Y-101004446D01*
X160731025Y-101019000D01*
X160798975Y-101019000D01*
X160900199Y-101004446D01*
X161015000Y-100952018D01*
X161015000Y-101888219D01*
X161125320Y-101878568D01*
X161125323Y-101878568D01*
X161353483Y-101817433D01*
X161353492Y-101817429D01*
X161567577Y-101717600D01*
X161567579Y-101717599D01*
X161761073Y-101582113D01*
X161761079Y-101582108D01*
X161928105Y-101415082D01*
X162063600Y-101221578D01*
X162163429Y-101007492D01*
X162163432Y-101007486D01*
X162220636Y-100794000D01*
X161168969Y-100794000D01*
X161201519Y-100743351D01*
X161240000Y-100612295D01*
X161240000Y-100475705D01*
X161201519Y-100344649D01*
X161168969Y-100294000D01*
X162220636Y-100294000D01*
X162220635Y-100293999D01*
X162163432Y-100080513D01*
X162163429Y-100080507D01*
X162063600Y-99866422D01*
X162063599Y-99866420D01*
X161928113Y-99672926D01*
X161928108Y-99672920D01*
X161761079Y-99505891D01*
X161761073Y-99505886D01*
X161603967Y-99395880D01*
X161560342Y-99341303D01*
X161553148Y-99271805D01*
X161584671Y-99209450D01*
X161603960Y-99192735D01*
X161761401Y-99082495D01*
X161928495Y-98915401D01*
X162064035Y-98721830D01*
X162163903Y-98507663D01*
X162225063Y-98279408D01*
X162225064Y-98279390D01*
X162225098Y-98279206D01*
X162225138Y-98279123D01*
X162226464Y-98274178D01*
X162227457Y-98274444D01*
X162256123Y-98216602D01*
X162259507Y-98213081D01*
X163463820Y-97008769D01*
X163525142Y-96975286D01*
X163594834Y-96980270D01*
X163650767Y-97022142D01*
X163675184Y-97087606D01*
X163675500Y-97096452D01*
X163675500Y-101580547D01*
X163655815Y-101647586D01*
X163639181Y-101668228D01*
X163099228Y-102208181D01*
X163037905Y-102241666D01*
X163011547Y-102244500D01*
X157181743Y-102244500D01*
X157166122Y-102242775D01*
X157166095Y-102243061D01*
X157158333Y-102242326D01*
X157089172Y-102244500D01*
X157059649Y-102244500D01*
X157052778Y-102245367D01*
X157046959Y-102245825D01*
X157000374Y-102247289D01*
X157000368Y-102247290D01*
X156981126Y-102252880D01*
X156962087Y-102256823D01*
X156942217Y-102259334D01*
X156942203Y-102259337D01*
X156898883Y-102276488D01*
X156893358Y-102278380D01*
X156848613Y-102291380D01*
X156848610Y-102291381D01*
X156831366Y-102301579D01*
X156813905Y-102310133D01*
X156795274Y-102317510D01*
X156795262Y-102317517D01*
X156757570Y-102344902D01*
X156752687Y-102348109D01*
X156712580Y-102371829D01*
X156698414Y-102385995D01*
X156683624Y-102398627D01*
X156667414Y-102410404D01*
X156667411Y-102410407D01*
X156637710Y-102446309D01*
X156633777Y-102450631D01*
X156168181Y-102916227D01*
X156106858Y-102949712D01*
X156037166Y-102944728D01*
X155981233Y-102902856D01*
X155956816Y-102837392D01*
X155956500Y-102828546D01*
X155956500Y-81404500D01*
X155976185Y-81337461D01*
X156028989Y-81291706D01*
X156080500Y-81280500D01*
X224665500Y-81280500D01*
X224732539Y-81300185D01*
G37*
%TD.AperFunction*%
%TA.AperFunction,Conductor*%
G36*
X161344210Y-108595185D02*
G01*
X161389965Y-108647989D01*
X161399354Y-108705502D01*
X161400540Y-108705502D01*
X161400540Y-108711997D01*
X161400540Y-108712000D01*
X161420326Y-108900256D01*
X161420327Y-108900259D01*
X161478818Y-109080277D01*
X161478821Y-109080284D01*
X161573467Y-109244216D01*
X161665227Y-109346125D01*
X161700129Y-109384888D01*
X161853265Y-109496148D01*
X161853270Y-109496151D01*
X162026191Y-109573142D01*
X162026193Y-109573142D01*
X162026197Y-109573144D01*
X162091329Y-109586987D01*
X162152809Y-109620178D01*
X162153228Y-109620596D01*
X162937151Y-110404519D01*
X163672243Y-111139610D01*
X163705728Y-111200933D01*
X163700744Y-111270625D01*
X163658872Y-111326558D01*
X163657713Y-111327303D01*
X163535955Y-111418452D01*
X163535952Y-111418455D01*
X163449706Y-111533664D01*
X163449702Y-111533671D01*
X163438091Y-111564804D01*
X163396220Y-111620738D01*
X163330756Y-111645155D01*
X163262483Y-111630303D01*
X163245747Y-111619324D01*
X163103168Y-111508350D01*
X163103159Y-111508344D01*
X162891468Y-111393784D01*
X162891454Y-111393778D01*
X162663791Y-111315619D01*
X162556000Y-111297633D01*
X162556000Y-112284316D01*
X162527181Y-112266791D01*
X162381596Y-112226000D01*
X162268378Y-112226000D01*
X162156217Y-112241416D01*
X162056000Y-112284946D01*
X162056000Y-111297633D01*
X162055999Y-111297633D01*
X161948208Y-111315619D01*
X161720545Y-111393778D01*
X161720531Y-111393784D01*
X161508840Y-111508344D01*
X161508831Y-111508350D01*
X161318883Y-111656193D01*
X161318873Y-111656202D01*
X161155851Y-111833289D01*
X161155846Y-111833297D01*
X161140104Y-111857390D01*
X161086955Y-111902745D01*
X161017724Y-111912165D01*
X160954389Y-111882660D01*
X160932489Y-111857384D01*
X160916555Y-111832994D01*
X160853000Y-111763955D01*
X160753463Y-111655829D01*
X160595117Y-111532584D01*
X160563441Y-111507929D01*
X160351665Y-111393321D01*
X160351656Y-111393318D01*
X160123916Y-111315134D01*
X159908212Y-111279140D01*
X159886399Y-111275500D01*
X159645601Y-111275500D01*
X159623788Y-111279140D01*
X159408083Y-111315134D01*
X159180343Y-111393318D01*
X159180334Y-111393321D01*
X158968558Y-111507929D01*
X158895486Y-111564804D01*
X158778537Y-111655829D01*
X158778534Y-111655831D01*
X158778534Y-111655832D01*
X158615449Y-111832990D01*
X158483743Y-112034581D01*
X158387017Y-112255094D01*
X158327904Y-112488527D01*
X158313000Y-112668402D01*
X158313000Y-112883598D01*
X158327904Y-113063472D01*
X158327904Y-113063475D01*
X158327905Y-113063476D01*
X158387017Y-113296905D01*
X158483745Y-113517422D01*
X158615449Y-113719010D01*
X158778537Y-113896171D01*
X158930082Y-114014123D01*
X158968022Y-114043653D01*
X158968561Y-114044072D01*
X159133891Y-114133544D01*
X159179478Y-114158215D01*
X159180336Y-114158679D01*
X159277735Y-114192116D01*
X159408083Y-114236865D01*
X159408085Y-114236865D01*
X159408087Y-114236866D01*
X159645601Y-114276500D01*
X159645602Y-114276500D01*
X159886398Y-114276500D01*
X159886399Y-114276500D01*
X160123913Y-114236866D01*
X160351664Y-114158679D01*
X160563439Y-114044072D01*
X160753463Y-113896171D01*
X160916551Y-113719010D01*
X160932489Y-113694613D01*
X160985631Y-113649258D01*
X161054862Y-113639831D01*
X161118199Y-113669330D01*
X161140106Y-113694611D01*
X161155847Y-113718704D01*
X161155851Y-113718710D01*
X161318873Y-113895797D01*
X161318883Y-113895806D01*
X161508831Y-114043649D01*
X161508840Y-114043655D01*
X161720531Y-114158215D01*
X161720545Y-114158221D01*
X161948207Y-114236379D01*
X162056000Y-114254366D01*
X162056000Y-113267683D01*
X162084819Y-113285209D01*
X162230404Y-113326000D01*
X162343622Y-113326000D01*
X162455783Y-113310584D01*
X162556000Y-113267053D01*
X162556000Y-114254365D01*
X162663792Y-114236379D01*
X162891454Y-114158221D01*
X162891468Y-114158215D01*
X163103159Y-114043655D01*
X163103162Y-114043653D01*
X163245746Y-113932675D01*
X163310740Y-113907032D01*
X163379280Y-113920598D01*
X163429605Y-113969066D01*
X163438091Y-113987196D01*
X163449701Y-114018326D01*
X163449706Y-114018335D01*
X163535952Y-114133544D01*
X163535955Y-114133547D01*
X163651164Y-114219793D01*
X163651171Y-114219797D01*
X163695630Y-114236379D01*
X163786017Y-114270091D01*
X163845627Y-114276500D01*
X163971500Y-114276499D01*
X164038539Y-114296183D01*
X164084294Y-114348987D01*
X164095500Y-114400499D01*
X164095500Y-116231500D01*
X164075815Y-116298539D01*
X164023011Y-116344294D01*
X163971501Y-116355500D01*
X163845630Y-116355500D01*
X163845623Y-116355501D01*
X163786016Y-116361908D01*
X163651171Y-116412202D01*
X163651164Y-116412206D01*
X163535955Y-116498452D01*
X163535952Y-116498455D01*
X163449706Y-116613664D01*
X163449702Y-116613671D01*
X163438091Y-116644804D01*
X163396220Y-116700738D01*
X163330756Y-116725155D01*
X163262483Y-116710303D01*
X163245747Y-116699324D01*
X163103168Y-116588350D01*
X163103159Y-116588344D01*
X162891468Y-116473784D01*
X162891454Y-116473778D01*
X162663791Y-116395619D01*
X162556000Y-116377633D01*
X162556000Y-117364316D01*
X162527181Y-117346791D01*
X162381596Y-117306000D01*
X162268378Y-117306000D01*
X162156217Y-117321416D01*
X162056000Y-117364946D01*
X162056000Y-116377633D01*
X162055999Y-116377633D01*
X161948208Y-116395619D01*
X161720545Y-116473778D01*
X161720531Y-116473784D01*
X161508840Y-116588344D01*
X161508831Y-116588350D01*
X161318883Y-116736193D01*
X161318873Y-116736202D01*
X161155851Y-116913289D01*
X161155846Y-116913297D01*
X161140104Y-116937390D01*
X161086955Y-116982745D01*
X161017724Y-116992165D01*
X160954389Y-116962660D01*
X160932489Y-116937384D01*
X160916555Y-116912994D01*
X160851200Y-116842000D01*
X160753463Y-116735829D01*
X160596505Y-116613664D01*
X160563441Y-116587929D01*
X160351665Y-116473321D01*
X160351656Y-116473318D01*
X160123916Y-116395134D01*
X159924800Y-116361908D01*
X159886399Y-116355500D01*
X159645601Y-116355500D01*
X159435405Y-116390575D01*
X159366040Y-116382193D01*
X159327315Y-116355947D01*
X157758819Y-114787451D01*
X157725334Y-114726128D01*
X157722500Y-114699770D01*
X157722500Y-110664199D01*
X157742185Y-110597160D01*
X157794989Y-110551405D01*
X157796064Y-110550920D01*
X157869380Y-110518276D01*
X157972530Y-110472351D01*
X158125671Y-110361088D01*
X158252333Y-110220416D01*
X158346979Y-110056484D01*
X158405474Y-109876456D01*
X158425260Y-109688200D01*
X158405474Y-109499944D01*
X158346979Y-109319916D01*
X158252333Y-109155984D01*
X158125671Y-109015312D01*
X158125670Y-109015311D01*
X157972534Y-108904051D01*
X157972529Y-108904048D01*
X157799607Y-108827057D01*
X157799600Y-108827055D01*
X157770125Y-108820790D01*
X157708643Y-108787598D01*
X157674866Y-108726435D01*
X157679518Y-108656721D01*
X157721122Y-108600588D01*
X157786470Y-108575859D01*
X157795905Y-108575500D01*
X161277171Y-108575500D01*
X161344210Y-108595185D01*
G37*
%TD.AperFunction*%
%TA.AperFunction,Conductor*%
G36*
X162091318Y-90384040D02*
G01*
X162170605Y-90507413D01*
X162281438Y-90603451D01*
X162414839Y-90664373D01*
X162418634Y-90664918D01*
X161689942Y-91393609D01*
X161736768Y-91430055D01*
X161736770Y-91430056D01*
X161955385Y-91548364D01*
X161955396Y-91548369D01*
X162190506Y-91629083D01*
X162435707Y-91670000D01*
X162684293Y-91670000D01*
X162929493Y-91629083D01*
X163164603Y-91548369D01*
X163164614Y-91548364D01*
X163383228Y-91430057D01*
X163383231Y-91430055D01*
X163430056Y-91393609D01*
X162701365Y-90664918D01*
X162705161Y-90664373D01*
X162838562Y-90603451D01*
X162949395Y-90507413D01*
X163028682Y-90384040D01*
X163051133Y-90307580D01*
X163783434Y-91039882D01*
X163794861Y-91038697D01*
X163863573Y-91051360D01*
X163908092Y-91091194D01*
X163908683Y-91090735D01*
X163911218Y-91093992D01*
X163911456Y-91094205D01*
X163911831Y-91094780D01*
X163911836Y-91094785D01*
X164080256Y-91277738D01*
X164276491Y-91430474D01*
X164377608Y-91485196D01*
X164494332Y-91548364D01*
X164495190Y-91548828D01*
X164662061Y-91606115D01*
X164728964Y-91629083D01*
X164730386Y-91629571D01*
X164975665Y-91670500D01*
X165224335Y-91670500D01*
X165469614Y-91629571D01*
X165704810Y-91548828D01*
X165923509Y-91430474D01*
X166119744Y-91277738D01*
X166278771Y-91104988D01*
X166338657Y-91068999D01*
X166408495Y-91071099D01*
X166461228Y-91104988D01*
X166620256Y-91277738D01*
X166816491Y-91430474D01*
X166917608Y-91485196D01*
X167034332Y-91548364D01*
X167035190Y-91548828D01*
X167202061Y-91606115D01*
X167268964Y-91629083D01*
X167270386Y-91629571D01*
X167515665Y-91670500D01*
X167764335Y-91670500D01*
X168009614Y-91629571D01*
X168244810Y-91548828D01*
X168463509Y-91430474D01*
X168659744Y-91277738D01*
X168818771Y-91104988D01*
X168878657Y-91068999D01*
X168948495Y-91071099D01*
X169001228Y-91104988D01*
X169160256Y-91277738D01*
X169356491Y-91430474D01*
X169457608Y-91485196D01*
X169574332Y-91548364D01*
X169575190Y-91548828D01*
X169742061Y-91606115D01*
X169808964Y-91629083D01*
X169810386Y-91629571D01*
X170055665Y-91670500D01*
X170304335Y-91670500D01*
X170549614Y-91629571D01*
X170629286Y-91602218D01*
X170699080Y-91599068D01*
X170757228Y-91631819D01*
X171275380Y-92149971D01*
X171308865Y-92211294D01*
X171311699Y-92237652D01*
X171311699Y-93564171D01*
X171292014Y-93631210D01*
X171239210Y-93676965D01*
X171170052Y-93686909D01*
X171135299Y-93676554D01*
X171100863Y-93660497D01*
X171100858Y-93660495D01*
X171100855Y-93660494D01*
X170872613Y-93599338D01*
X170872603Y-93599336D01*
X170637201Y-93578741D01*
X170637199Y-93578741D01*
X170401796Y-93599336D01*
X170401786Y-93599338D01*
X170173544Y-93660494D01*
X170173535Y-93660498D01*
X169959371Y-93760364D01*
X169959369Y-93760365D01*
X169765797Y-93895905D01*
X169598705Y-94062997D01*
X169463165Y-94256569D01*
X169463164Y-94256571D01*
X169363298Y-94470735D01*
X169363294Y-94470744D01*
X169302138Y-94698986D01*
X169302136Y-94698996D01*
X169281541Y-94934399D01*
X169281541Y-94934401D01*
X169300177Y-95147413D01*
X169286410Y-95215913D01*
X169264330Y-95245901D01*
X167154358Y-97355872D01*
X167140729Y-97367651D01*
X167121468Y-97381990D01*
X167087898Y-97421997D01*
X167084253Y-97425976D01*
X167078409Y-97431822D01*
X167058059Y-97457559D01*
X167008695Y-97516389D01*
X167004729Y-97522419D01*
X167004682Y-97522388D01*
X167000630Y-97528747D01*
X167000679Y-97528777D01*
X166996889Y-97534921D01*
X166964424Y-97604541D01*
X166929960Y-97673166D01*
X166927488Y-97679957D01*
X166927432Y-97679936D01*
X166924960Y-97687050D01*
X166925015Y-97687069D01*
X166922742Y-97693927D01*
X166914975Y-97731545D01*
X166907207Y-97769165D01*
X166897863Y-97808592D01*
X166889498Y-97843886D01*
X166888661Y-97851054D01*
X166888601Y-97851047D01*
X166887835Y-97858545D01*
X166887895Y-97858551D01*
X166887265Y-97865740D01*
X166889500Y-97942516D01*
X166889500Y-101319677D01*
X166872887Y-101381677D01*
X166812821Y-101485714D01*
X166760226Y-101647586D01*
X166754326Y-101665744D01*
X166734540Y-101854000D01*
X166754326Y-102042256D01*
X166754327Y-102042259D01*
X166812818Y-102222277D01*
X166812821Y-102222284D01*
X166907467Y-102386216D01*
X166963604Y-102448562D01*
X167034129Y-102526888D01*
X167187265Y-102638148D01*
X167187270Y-102638151D01*
X167360192Y-102715142D01*
X167360197Y-102715144D01*
X167545354Y-102754500D01*
X167545355Y-102754500D01*
X167734644Y-102754500D01*
X167734646Y-102754500D01*
X167919803Y-102715144D01*
X168092730Y-102638151D01*
X168245871Y-102526888D01*
X168372533Y-102386216D01*
X168467179Y-102222284D01*
X168525674Y-102042256D01*
X168545460Y-101854000D01*
X168525674Y-101665744D01*
X168467179Y-101485716D01*
X168448925Y-101454099D01*
X168407113Y-101381677D01*
X168390500Y-101319677D01*
X168390500Y-98293829D01*
X168410185Y-98226790D01*
X168426815Y-98206152D01*
X168980051Y-97652915D01*
X169041372Y-97619432D01*
X169111063Y-97624416D01*
X169166997Y-97666287D01*
X169187505Y-97708505D01*
X169238294Y-97898055D01*
X169238296Y-97898059D01*
X169238297Y-97898063D01*
X169259026Y-97942516D01*
X169338164Y-98112228D01*
X169338165Y-98112230D01*
X169473705Y-98305802D01*
X169640797Y-98472894D01*
X169798231Y-98583130D01*
X169841856Y-98637707D01*
X169849050Y-98707205D01*
X169817527Y-98769560D01*
X169798232Y-98786280D01*
X169641122Y-98896290D01*
X169641120Y-98896291D01*
X169474094Y-99063317D01*
X169338599Y-99256821D01*
X169238770Y-99470907D01*
X169238767Y-99470913D01*
X169181564Y-99684399D01*
X169181564Y-99684400D01*
X170233231Y-99684400D01*
X170200681Y-99735049D01*
X170162200Y-99866105D01*
X170162200Y-100002695D01*
X170200681Y-100133751D01*
X170233231Y-100184400D01*
X169181564Y-100184400D01*
X169238767Y-100397886D01*
X169238770Y-100397892D01*
X169338599Y-100611977D01*
X169338600Y-100611979D01*
X169474086Y-100805473D01*
X169474091Y-100805479D01*
X169641120Y-100972508D01*
X169641126Y-100972513D01*
X169834620Y-101107999D01*
X169834622Y-101108000D01*
X170048707Y-101207829D01*
X170048716Y-101207833D01*
X170276878Y-101268968D01*
X170387200Y-101278619D01*
X170387200Y-100342418D01*
X170502001Y-100394846D01*
X170603225Y-100409400D01*
X170671175Y-100409400D01*
X170772399Y-100394846D01*
X170887200Y-100342418D01*
X170887200Y-101278619D01*
X170997520Y-101268968D01*
X170997523Y-101268968D01*
X171225683Y-101207833D01*
X171225692Y-101207829D01*
X171439777Y-101108000D01*
X171439779Y-101107999D01*
X171633273Y-100972513D01*
X171633279Y-100972508D01*
X171800305Y-100805482D01*
X171935800Y-100611978D01*
X172035629Y-100397892D01*
X172035632Y-100397886D01*
X172092836Y-100184400D01*
X171041169Y-100184400D01*
X171073719Y-100133751D01*
X171112200Y-100002695D01*
X171112200Y-99866105D01*
X171073719Y-99735049D01*
X171041169Y-99684400D01*
X172092836Y-99684400D01*
X172092835Y-99684399D01*
X172035632Y-99470913D01*
X172035629Y-99470907D01*
X171935800Y-99256822D01*
X171935799Y-99256820D01*
X171800313Y-99063326D01*
X171800308Y-99063320D01*
X171633279Y-98896291D01*
X171633273Y-98896286D01*
X171476167Y-98786280D01*
X171432542Y-98731703D01*
X171425348Y-98662205D01*
X171456871Y-98599850D01*
X171476160Y-98583135D01*
X171633601Y-98472895D01*
X171800695Y-98305801D01*
X171936235Y-98112230D01*
X172036103Y-97898063D01*
X172097263Y-97669808D01*
X172117859Y-97434400D01*
X172117633Y-97431822D01*
X172112019Y-97367651D01*
X172097263Y-97198992D01*
X172043927Y-96999940D01*
X172045591Y-96930090D01*
X172076020Y-96880168D01*
X172320986Y-96635202D01*
X172333248Y-96625380D01*
X172333065Y-96625159D01*
X172339067Y-96620192D01*
X172339077Y-96620186D01*
X172386441Y-96569748D01*
X172407320Y-96548870D01*
X172411573Y-96543386D01*
X172415350Y-96538963D01*
X172447262Y-96504982D01*
X172456914Y-96487423D01*
X172467589Y-96471172D01*
X172479874Y-96455336D01*
X172498386Y-96412552D01*
X172500942Y-96407335D01*
X172523397Y-96366492D01*
X172528380Y-96347080D01*
X172534677Y-96328691D01*
X172542638Y-96310295D01*
X172549929Y-96264253D01*
X172551108Y-96258562D01*
X172562700Y-96213419D01*
X172562700Y-96193374D01*
X172564225Y-96173991D01*
X172567360Y-96154204D01*
X172562975Y-96107815D01*
X172562700Y-96101977D01*
X172562700Y-92009938D01*
X172564424Y-91994324D01*
X172564138Y-91994297D01*
X172564872Y-91986534D01*
X172562700Y-91917403D01*
X172562700Y-91887851D01*
X172562700Y-91887850D01*
X172561829Y-91880959D01*
X172561372Y-91875145D01*
X172559909Y-91828573D01*
X172559907Y-91828569D01*
X172558689Y-91820871D01*
X172560084Y-91820649D01*
X172560261Y-91759224D01*
X172598203Y-91700554D01*
X172661842Y-91671712D01*
X172679137Y-91670500D01*
X172844335Y-91670500D01*
X173089614Y-91629571D01*
X173324810Y-91548828D01*
X173543509Y-91430474D01*
X173739744Y-91277738D01*
X173898771Y-91104988D01*
X173958657Y-91068999D01*
X174028495Y-91071099D01*
X174081228Y-91104988D01*
X174240256Y-91277738D01*
X174436491Y-91430474D01*
X174537608Y-91485196D01*
X174654332Y-91548364D01*
X174655190Y-91548828D01*
X174822061Y-91606115D01*
X174888964Y-91629083D01*
X174890386Y-91629571D01*
X175135665Y-91670500D01*
X175384335Y-91670500D01*
X175629614Y-91629571D01*
X175864810Y-91548828D01*
X176083509Y-91430474D01*
X176279744Y-91277738D01*
X176438771Y-91104988D01*
X176498657Y-91068999D01*
X176568495Y-91071099D01*
X176621228Y-91104988D01*
X176780256Y-91277738D01*
X176976491Y-91430474D01*
X177077608Y-91485196D01*
X177194332Y-91548364D01*
X177195190Y-91548828D01*
X177362061Y-91606115D01*
X177428964Y-91629083D01*
X177430386Y-91629571D01*
X177675665Y-91670500D01*
X177924335Y-91670500D01*
X178169614Y-91629571D01*
X178249287Y-91602218D01*
X178319082Y-91599068D01*
X178377229Y-91631819D01*
X181456181Y-94710771D01*
X181489666Y-94772094D01*
X181492500Y-94798452D01*
X181492500Y-95687152D01*
X181490305Y-95710379D01*
X181488773Y-95718412D01*
X181492377Y-95775723D01*
X181492499Y-95779591D01*
X181492499Y-95797349D01*
X181494725Y-95814968D01*
X181495091Y-95818844D01*
X181498696Y-95876138D01*
X181501222Y-95883914D01*
X181506309Y-95906672D01*
X181507334Y-95914784D01*
X181507336Y-95914792D01*
X181528469Y-95968170D01*
X181529788Y-95971833D01*
X181547532Y-96026440D01*
X181547533Y-96026441D01*
X181550352Y-96030884D01*
X181551907Y-96033333D01*
X181562503Y-96054129D01*
X181565511Y-96061726D01*
X181565513Y-96061731D01*
X181599265Y-96108187D01*
X181601455Y-96111409D01*
X181632213Y-96159876D01*
X181638164Y-96165464D01*
X181653604Y-96182978D01*
X181658403Y-96189585D01*
X181702647Y-96226187D01*
X181705567Y-96228761D01*
X181747418Y-96268062D01*
X181754578Y-96271998D01*
X181773879Y-96285114D01*
X181780177Y-96290324D01*
X181780178Y-96290324D01*
X181780179Y-96290325D01*
X181832125Y-96314769D01*
X181835597Y-96316538D01*
X181885903Y-96344195D01*
X181885905Y-96344195D01*
X181885908Y-96344197D01*
X181891205Y-96345556D01*
X181893814Y-96346227D01*
X181915777Y-96354133D01*
X181923174Y-96357614D01*
X181979576Y-96368373D01*
X181983362Y-96369219D01*
X182038981Y-96383500D01*
X182047153Y-96383500D01*
X182070385Y-96385696D01*
X182071989Y-96386001D01*
X182078412Y-96387227D01*
X182135724Y-96383621D01*
X182139597Y-96383500D01*
X184208252Y-96383500D01*
X184275291Y-96403185D01*
X184300400Y-96424526D01*
X184306126Y-96430885D01*
X184306130Y-96430889D01*
X184459265Y-96542148D01*
X184459270Y-96542151D01*
X184632192Y-96619142D01*
X184632197Y-96619144D01*
X184817354Y-96658500D01*
X184817355Y-96658500D01*
X185006644Y-96658500D01*
X185006646Y-96658500D01*
X185191803Y-96619144D01*
X185364730Y-96542151D01*
X185517871Y-96430888D01*
X185644533Y-96290216D01*
X185739179Y-96126284D01*
X185797674Y-95946256D01*
X185817460Y-95758000D01*
X185797674Y-95569744D01*
X185739179Y-95389716D01*
X185644533Y-95225784D01*
X185517871Y-95085112D01*
X185517870Y-95085111D01*
X185364734Y-94973851D01*
X185364729Y-94973848D01*
X185191807Y-94896857D01*
X185191802Y-94896855D01*
X185016055Y-94859500D01*
X185006646Y-94857500D01*
X184817354Y-94857500D01*
X184807945Y-94859500D01*
X184632197Y-94896855D01*
X184632192Y-94896857D01*
X184459270Y-94973848D01*
X184459265Y-94973851D01*
X184306130Y-95085110D01*
X184306126Y-95085114D01*
X184300400Y-95091474D01*
X184240913Y-95128121D01*
X184208252Y-95132500D01*
X182867500Y-95132500D01*
X182800461Y-95112815D01*
X182754706Y-95060011D01*
X182743500Y-95008500D01*
X182743500Y-94570738D01*
X182745224Y-94555124D01*
X182744938Y-94555097D01*
X182745672Y-94547334D01*
X182743500Y-94478203D01*
X182743500Y-94448651D01*
X182743500Y-94448650D01*
X182742629Y-94441759D01*
X182742172Y-94435945D01*
X182741628Y-94418640D01*
X182740709Y-94389373D01*
X182735122Y-94370144D01*
X182731174Y-94351084D01*
X182730904Y-94348948D01*
X182728664Y-94331208D01*
X182711507Y-94287875D01*
X182709619Y-94282359D01*
X182696619Y-94237612D01*
X182686418Y-94220363D01*
X182677860Y-94202894D01*
X182670486Y-94184268D01*
X182670483Y-94184264D01*
X182670483Y-94184263D01*
X182643098Y-94146571D01*
X182639890Y-94141687D01*
X182616172Y-94101582D01*
X182616163Y-94101571D01*
X182602005Y-94087413D01*
X182589370Y-94072620D01*
X182577593Y-94056412D01*
X182541693Y-94026713D01*
X182537381Y-94022790D01*
X180395364Y-91880773D01*
X180361879Y-91819450D01*
X180366863Y-91749758D01*
X180408735Y-91693825D01*
X180462636Y-91670783D01*
X180464332Y-91670500D01*
X180464335Y-91670500D01*
X180709614Y-91629571D01*
X180944810Y-91548828D01*
X181163509Y-91430474D01*
X181359744Y-91277738D01*
X181518771Y-91104988D01*
X181578657Y-91068999D01*
X181648495Y-91071099D01*
X181701228Y-91104988D01*
X181860256Y-91277738D01*
X182056491Y-91430474D01*
X182157608Y-91485196D01*
X182274332Y-91548364D01*
X182275190Y-91548828D01*
X182442061Y-91606115D01*
X182508964Y-91629083D01*
X182510386Y-91629571D01*
X182755665Y-91670500D01*
X183004335Y-91670500D01*
X183249614Y-91629571D01*
X183484810Y-91548828D01*
X183703509Y-91430474D01*
X183899744Y-91277738D01*
X184058771Y-91104988D01*
X184118657Y-91068999D01*
X184188495Y-91071099D01*
X184241228Y-91104988D01*
X184400256Y-91277738D01*
X184596491Y-91430474D01*
X184697608Y-91485196D01*
X184814332Y-91548364D01*
X184815190Y-91548828D01*
X184982061Y-91606115D01*
X185048964Y-91629083D01*
X185050386Y-91629571D01*
X185295665Y-91670500D01*
X185544335Y-91670500D01*
X185789614Y-91629571D01*
X185968238Y-91568248D01*
X186038035Y-91565099D01*
X186098457Y-91600185D01*
X186130317Y-91662367D01*
X186132500Y-91685530D01*
X186132500Y-96228520D01*
X186112815Y-96295559D01*
X186096181Y-96316201D01*
X178441975Y-103970406D01*
X178380652Y-104003891D01*
X178314032Y-104000007D01*
X178169613Y-103950428D01*
X177924335Y-103909500D01*
X177675665Y-103909500D01*
X177430383Y-103950429D01*
X177195197Y-104031169D01*
X177195188Y-104031172D01*
X176976493Y-104149524D01*
X176780257Y-104302261D01*
X176621230Y-104475010D01*
X176561342Y-104511001D01*
X176491504Y-104508900D01*
X176438770Y-104475010D01*
X176399108Y-104431926D01*
X176279744Y-104302262D01*
X176083509Y-104149526D01*
X176083507Y-104149525D01*
X176083506Y-104149524D01*
X175864811Y-104031172D01*
X175864802Y-104031169D01*
X175629616Y-103950429D01*
X175384335Y-103909500D01*
X175135665Y-103909500D01*
X174890383Y-103950429D01*
X174655197Y-104031169D01*
X174655188Y-104031172D01*
X174436493Y-104149524D01*
X174240257Y-104302261D01*
X174081230Y-104475010D01*
X174021342Y-104511001D01*
X173951504Y-104508900D01*
X173898770Y-104475010D01*
X173859108Y-104431926D01*
X173739744Y-104302262D01*
X173543509Y-104149526D01*
X173543507Y-104149525D01*
X173543506Y-104149524D01*
X173324811Y-104031172D01*
X173324802Y-104031169D01*
X173089616Y-103950429D01*
X172844335Y-103909500D01*
X172595665Y-103909500D01*
X172350383Y-103950429D01*
X172115197Y-104031169D01*
X172115188Y-104031172D01*
X171896493Y-104149524D01*
X171700257Y-104302261D01*
X171541230Y-104475010D01*
X171481342Y-104511001D01*
X171411504Y-104508900D01*
X171358770Y-104475010D01*
X171319108Y-104431926D01*
X171199744Y-104302262D01*
X171003509Y-104149526D01*
X171003507Y-104149525D01*
X171003506Y-104149524D01*
X170784811Y-104031172D01*
X170784802Y-104031169D01*
X170549616Y-103950429D01*
X170304335Y-103909500D01*
X170055665Y-103909500D01*
X169810383Y-103950429D01*
X169575197Y-104031169D01*
X169575188Y-104031172D01*
X169356493Y-104149524D01*
X169160257Y-104302261D01*
X169001230Y-104475010D01*
X168941342Y-104511001D01*
X168871504Y-104508900D01*
X168818770Y-104475010D01*
X168779108Y-104431926D01*
X168659744Y-104302262D01*
X168463509Y-104149526D01*
X168463507Y-104149525D01*
X168463506Y-104149524D01*
X168244811Y-104031172D01*
X168244802Y-104031169D01*
X168009616Y-103950429D01*
X167764335Y-103909500D01*
X167515665Y-103909500D01*
X167270383Y-103950429D01*
X167035197Y-104031169D01*
X167035188Y-104031172D01*
X166816493Y-104149524D01*
X166620257Y-104302261D01*
X166461230Y-104475010D01*
X166401342Y-104511001D01*
X166331504Y-104508900D01*
X166278770Y-104475010D01*
X166239108Y-104431926D01*
X166119744Y-104302262D01*
X165923509Y-104149526D01*
X165923507Y-104149525D01*
X165923506Y-104149524D01*
X165704811Y-104031172D01*
X165704802Y-104031169D01*
X165469616Y-103950429D01*
X165224335Y-103909500D01*
X164975665Y-103909500D01*
X164730383Y-103950429D01*
X164495197Y-104031169D01*
X164495188Y-104031172D01*
X164276493Y-104149524D01*
X164080257Y-104302261D01*
X163921230Y-104475010D01*
X163861342Y-104511001D01*
X163791504Y-104508900D01*
X163738770Y-104475010D01*
X163699108Y-104431926D01*
X163579744Y-104302262D01*
X163383509Y-104149526D01*
X163383507Y-104149525D01*
X163383506Y-104149524D01*
X163164811Y-104031172D01*
X163164802Y-104031169D01*
X162929616Y-103950429D01*
X162684335Y-103909500D01*
X162435665Y-103909500D01*
X162190383Y-103950429D01*
X161955197Y-104031169D01*
X161955188Y-104031172D01*
X161736493Y-104149524D01*
X161540257Y-104302261D01*
X161371837Y-104485213D01*
X161371829Y-104485224D01*
X161371455Y-104485797D01*
X161371242Y-104485978D01*
X161368690Y-104489258D01*
X161368014Y-104488732D01*
X161318304Y-104531147D01*
X161254865Y-104541302D01*
X161243434Y-104540116D01*
X160511132Y-105272418D01*
X160488682Y-105195960D01*
X160409395Y-105072587D01*
X160298562Y-104976549D01*
X160165161Y-104915627D01*
X160161366Y-104915081D01*
X160890057Y-104186390D01*
X160890056Y-104186389D01*
X160843229Y-104149943D01*
X160624614Y-104031635D01*
X160624603Y-104031630D01*
X160389493Y-103950916D01*
X160144293Y-103910000D01*
X159895707Y-103910000D01*
X159650506Y-103950916D01*
X159415396Y-104031630D01*
X159415390Y-104031632D01*
X159196761Y-104149949D01*
X159149942Y-104186388D01*
X159149942Y-104186390D01*
X159878634Y-104915081D01*
X159874839Y-104915627D01*
X159741438Y-104976549D01*
X159630605Y-105072587D01*
X159551318Y-105195960D01*
X159528867Y-105272419D01*
X158796564Y-104540116D01*
X158696267Y-104693632D01*
X158596412Y-104921282D01*
X158535387Y-105162261D01*
X158535385Y-105162270D01*
X158514859Y-105409994D01*
X158514859Y-105410005D01*
X158535385Y-105657729D01*
X158535387Y-105657738D01*
X158596412Y-105898717D01*
X158696266Y-106126364D01*
X158796564Y-106279882D01*
X159528866Y-105547580D01*
X159551318Y-105624040D01*
X159630605Y-105747413D01*
X159741438Y-105843451D01*
X159874839Y-105904373D01*
X159878634Y-105904918D01*
X159149942Y-106633609D01*
X159196768Y-106670055D01*
X159196770Y-106670056D01*
X159415385Y-106788364D01*
X159415396Y-106788369D01*
X159650506Y-106869083D01*
X159895707Y-106910000D01*
X160144293Y-106910000D01*
X160389493Y-106869083D01*
X160624603Y-106788369D01*
X160624614Y-106788364D01*
X160843228Y-106670057D01*
X160843231Y-106670055D01*
X160890056Y-106633609D01*
X160161365Y-105904918D01*
X160165161Y-105904373D01*
X160298562Y-105843451D01*
X160409395Y-105747413D01*
X160488682Y-105624040D01*
X160511133Y-105547580D01*
X161243434Y-106279882D01*
X161254861Y-106278697D01*
X161323573Y-106291360D01*
X161368092Y-106331194D01*
X161368683Y-106330735D01*
X161371218Y-106333992D01*
X161371456Y-106334205D01*
X161371831Y-106334780D01*
X161371836Y-106334785D01*
X161540256Y-106517738D01*
X161736491Y-106670474D01*
X161765171Y-106685995D01*
X161954332Y-106788364D01*
X161955190Y-106788828D01*
X162089265Y-106834856D01*
X162189497Y-106869266D01*
X162190386Y-106869571D01*
X162435665Y-106910500D01*
X162684335Y-106910500D01*
X162929614Y-106869571D01*
X163164810Y-106788828D01*
X163383509Y-106670474D01*
X163579744Y-106517738D01*
X163738771Y-106344988D01*
X163798657Y-106308999D01*
X163868495Y-106311099D01*
X163921228Y-106344988D01*
X164080256Y-106517738D01*
X164276491Y-106670474D01*
X164305171Y-106685995D01*
X164494332Y-106788364D01*
X164495190Y-106788828D01*
X164629265Y-106834856D01*
X164729497Y-106869266D01*
X164730386Y-106869571D01*
X164975665Y-106910500D01*
X165224335Y-106910500D01*
X165469614Y-106869571D01*
X165704810Y-106788828D01*
X165923509Y-106670474D01*
X166119744Y-106517738D01*
X166278771Y-106344988D01*
X166338657Y-106308999D01*
X166408495Y-106311099D01*
X166461228Y-106344988D01*
X166620256Y-106517738D01*
X166816491Y-106670474D01*
X166845171Y-106685995D01*
X167034332Y-106788364D01*
X167035190Y-106788828D01*
X167169265Y-106834856D01*
X167269497Y-106869266D01*
X167270386Y-106869571D01*
X167515665Y-106910500D01*
X167764335Y-106910500D01*
X168009614Y-106869571D01*
X168244810Y-106788828D01*
X168463509Y-106670474D01*
X168659744Y-106517738D01*
X168818771Y-106344988D01*
X168878657Y-106308999D01*
X168948495Y-106311099D01*
X169001228Y-106344988D01*
X169160256Y-106517738D01*
X169356491Y-106670474D01*
X169385171Y-106685995D01*
X169574332Y-106788364D01*
X169575190Y-106788828D01*
X169709265Y-106834856D01*
X169809497Y-106869266D01*
X169810386Y-106869571D01*
X170055665Y-106910500D01*
X170304335Y-106910500D01*
X170549614Y-106869571D01*
X170784810Y-106788828D01*
X171003509Y-106670474D01*
X171199744Y-106517738D01*
X171358771Y-106344988D01*
X171418657Y-106308999D01*
X171488495Y-106311099D01*
X171541228Y-106344988D01*
X171700256Y-106517738D01*
X171896491Y-106670474D01*
X171925171Y-106685995D01*
X172114332Y-106788364D01*
X172115190Y-106788828D01*
X172249265Y-106834856D01*
X172349497Y-106869266D01*
X172350386Y-106869571D01*
X172595665Y-106910500D01*
X172844335Y-106910500D01*
X173089614Y-106869571D01*
X173324810Y-106788828D01*
X173543509Y-106670474D01*
X173739744Y-106517738D01*
X173898771Y-106344988D01*
X173958657Y-106308999D01*
X174028495Y-106311099D01*
X174081228Y-106344988D01*
X174240256Y-106517738D01*
X174436491Y-106670474D01*
X174465171Y-106685995D01*
X174654332Y-106788364D01*
X174655190Y-106788828D01*
X174789265Y-106834856D01*
X174889497Y-106869266D01*
X174890386Y-106869571D01*
X175135665Y-106910500D01*
X175384335Y-106910500D01*
X175629614Y-106869571D01*
X175864810Y-106788828D01*
X176083509Y-106670474D01*
X176279744Y-106517738D01*
X176438771Y-106344988D01*
X176498657Y-106308999D01*
X176568495Y-106311099D01*
X176621228Y-106344988D01*
X176780256Y-106517738D01*
X176976491Y-106670474D01*
X177005171Y-106685995D01*
X177194332Y-106788364D01*
X177195190Y-106788828D01*
X177329265Y-106834856D01*
X177429497Y-106869266D01*
X177430386Y-106869571D01*
X177675665Y-106910500D01*
X177924335Y-106910500D01*
X178169614Y-106869571D01*
X178404810Y-106788828D01*
X178623509Y-106670474D01*
X178819744Y-106517738D01*
X178978771Y-106344988D01*
X179038657Y-106308999D01*
X179108495Y-106311099D01*
X179161228Y-106344988D01*
X179320256Y-106517738D01*
X179320259Y-106517740D01*
X179320262Y-106517743D01*
X179500636Y-106658134D01*
X179541449Y-106714844D01*
X179545124Y-106784617D01*
X179510492Y-106845300D01*
X179474911Y-106869266D01*
X179379267Y-106911850D01*
X179379265Y-106911851D01*
X179226129Y-107023111D01*
X179099465Y-107163785D01*
X179042473Y-107262500D01*
X178991906Y-107310716D01*
X178935086Y-107324500D01*
X157536452Y-107324500D01*
X157469413Y-107304815D01*
X157448771Y-107288181D01*
X157125819Y-106965228D01*
X157092334Y-106903905D01*
X157089500Y-106877547D01*
X157089500Y-103815452D01*
X157109185Y-103748413D01*
X157125819Y-103727771D01*
X157321771Y-103531819D01*
X157383094Y-103498334D01*
X157409452Y-103495500D01*
X163239257Y-103495500D01*
X163254877Y-103497224D01*
X163254904Y-103496939D01*
X163262660Y-103497671D01*
X163262667Y-103497673D01*
X163331814Y-103495500D01*
X163361350Y-103495500D01*
X163368228Y-103494630D01*
X163374041Y-103494172D01*
X163420627Y-103492709D01*
X163439869Y-103487117D01*
X163458912Y-103483174D01*
X163478792Y-103480664D01*
X163522122Y-103463507D01*
X163527646Y-103461617D01*
X163531396Y-103460527D01*
X163572390Y-103448618D01*
X163589629Y-103438422D01*
X163607103Y-103429862D01*
X163625727Y-103422488D01*
X163625727Y-103422487D01*
X163625732Y-103422486D01*
X163663449Y-103395082D01*
X163668305Y-103391892D01*
X163708420Y-103368170D01*
X163722589Y-103353999D01*
X163737379Y-103341368D01*
X163753587Y-103329594D01*
X163783299Y-103293676D01*
X163787212Y-103289376D01*
X164684787Y-102391802D01*
X164697042Y-102381986D01*
X164696859Y-102381764D01*
X164702866Y-102376792D01*
X164702877Y-102376786D01*
X164733775Y-102343882D01*
X164750227Y-102326364D01*
X164760671Y-102315918D01*
X164771120Y-102305471D01*
X164775379Y-102299978D01*
X164779152Y-102295561D01*
X164811062Y-102261582D01*
X164820713Y-102244024D01*
X164831396Y-102227761D01*
X164843673Y-102211936D01*
X164862185Y-102169153D01*
X164864738Y-102163941D01*
X164887197Y-102123092D01*
X164892180Y-102103680D01*
X164898481Y-102085280D01*
X164906437Y-102066896D01*
X164913729Y-102020852D01*
X164914906Y-102015171D01*
X164926500Y-101970019D01*
X164926500Y-101949983D01*
X164928027Y-101930582D01*
X164931160Y-101910804D01*
X164926775Y-101864415D01*
X164926500Y-101858577D01*
X164926500Y-95549737D01*
X164928224Y-95534123D01*
X164927938Y-95534096D01*
X164928672Y-95526333D01*
X164926500Y-95457203D01*
X164926500Y-95427651D01*
X164926500Y-95427650D01*
X164925629Y-95420759D01*
X164925172Y-95414945D01*
X164923709Y-95368373D01*
X164918121Y-95349139D01*
X164914174Y-95330081D01*
X164911664Y-95310208D01*
X164894507Y-95266875D01*
X164892614Y-95261346D01*
X164882882Y-95227849D01*
X164879617Y-95216610D01*
X164869420Y-95199368D01*
X164860863Y-95181902D01*
X164853486Y-95163268D01*
X164826083Y-95125550D01*
X164822900Y-95120705D01*
X164799170Y-95080579D01*
X164799165Y-95080573D01*
X164785005Y-95066413D01*
X164772370Y-95051620D01*
X164762982Y-95038700D01*
X164760594Y-95035413D01*
X164724693Y-95005713D01*
X164720381Y-95001790D01*
X163568803Y-93850211D01*
X163558980Y-93837950D01*
X163558759Y-93838134D01*
X163553786Y-93832123D01*
X163553786Y-93832122D01*
X163503364Y-93784773D01*
X163492919Y-93774328D01*
X163482475Y-93763883D01*
X163476986Y-93759625D01*
X163472561Y-93755847D01*
X163438582Y-93723938D01*
X163438580Y-93723936D01*
X163438577Y-93723935D01*
X163421029Y-93714288D01*
X163404763Y-93703604D01*
X163388933Y-93691325D01*
X163346168Y-93672818D01*
X163340922Y-93670248D01*
X163300093Y-93647803D01*
X163300092Y-93647802D01*
X163280693Y-93642822D01*
X163262281Y-93636518D01*
X163243898Y-93628562D01*
X163243892Y-93628560D01*
X163197874Y-93621272D01*
X163192152Y-93620087D01*
X163147021Y-93608500D01*
X163147019Y-93608500D01*
X163126984Y-93608500D01*
X163107586Y-93606973D01*
X163100162Y-93605797D01*
X163087805Y-93603840D01*
X163087804Y-93603840D01*
X163041416Y-93608225D01*
X163035578Y-93608500D01*
X161092453Y-93608500D01*
X161025414Y-93588815D01*
X161004772Y-93572181D01*
X159157819Y-91725228D01*
X159124334Y-91663905D01*
X159121500Y-91637547D01*
X159121500Y-91597990D01*
X159141185Y-91530951D01*
X159193989Y-91485196D01*
X159263147Y-91475252D01*
X159304516Y-91488934D01*
X159356516Y-91517075D01*
X159414332Y-91548364D01*
X159415190Y-91548828D01*
X159582061Y-91606115D01*
X159648964Y-91629083D01*
X159650386Y-91629571D01*
X159895665Y-91670500D01*
X160144335Y-91670500D01*
X160389614Y-91629571D01*
X160624810Y-91548828D01*
X160843509Y-91430474D01*
X161039744Y-91277738D01*
X161208164Y-91094785D01*
X161208533Y-91094219D01*
X161208745Y-91094038D01*
X161211322Y-91090729D01*
X161212002Y-91091258D01*
X161261676Y-91048860D01*
X161325138Y-91038697D01*
X161336564Y-91039882D01*
X162068866Y-90307579D01*
X162091318Y-90384040D01*
G37*
%TD.AperFunction*%
%TD*%
M02*
