%TF.GenerationSoftware,KiCad,Pcbnew,8.0.2-1*%
%TF.CreationDate,2024-06-03T07:21:58-07:00*%
%TF.ProjectId,Nichrome,4e696368-726f-46d6-952e-6b696361645f,rev?*%
%TF.SameCoordinates,Original*%
%TF.FileFunction,Copper,L1,Top*%
%TF.FilePolarity,Positive*%
%FSLAX46Y46*%
G04 Gerber Fmt 4.6, Leading zero omitted, Abs format (unit mm)*
G04 Created by KiCad (PCBNEW 8.0.2-1) date 2024-06-03 07:21:58*
%MOMM*%
%LPD*%
G01*
G04 APERTURE LIST*
G04 Aperture macros list*
%AMRoundRect*
0 Rectangle with rounded corners*
0 $1 Rounding radius*
0 $2 $3 $4 $5 $6 $7 $8 $9 X,Y pos of 4 corners*
0 Add a 4 corners polygon primitive as box body*
4,1,4,$2,$3,$4,$5,$6,$7,$8,$9,$2,$3,0*
0 Add four circle primitives for the rounded corners*
1,1,$1+$1,$2,$3*
1,1,$1+$1,$4,$5*
1,1,$1+$1,$6,$7*
1,1,$1+$1,$8,$9*
0 Add four rect primitives between the rounded corners*
20,1,$1+$1,$2,$3,$4,$5,0*
20,1,$1+$1,$4,$5,$6,$7,0*
20,1,$1+$1,$6,$7,$8,$9,0*
20,1,$1+$1,$8,$9,$2,$3,0*%
G04 Aperture macros list end*
%TA.AperFunction,ComponentPad*%
%ADD10RoundRect,0.250000X-0.725000X0.600000X-0.725000X-0.600000X0.725000X-0.600000X0.725000X0.600000X0*%
%TD*%
%TA.AperFunction,ComponentPad*%
%ADD11O,1.950000X1.700000*%
%TD*%
%TA.AperFunction,ComponentPad*%
%ADD12R,6.000000X6.000000*%
%TD*%
%TA.AperFunction,ComponentPad*%
%ADD13R,1.600000X1.600000*%
%TD*%
%TA.AperFunction,ComponentPad*%
%ADD14O,1.600000X1.600000*%
%TD*%
%TA.AperFunction,Conductor*%
%ADD15C,0.250000*%
%TD*%
%TA.AperFunction,Conductor*%
%ADD16C,0.700000*%
%TD*%
G04 APERTURE END LIST*
D10*
%TO.P,J1,1,Pin_1*%
%TO.N,+5V*%
X176000000Y-119500000D03*
D11*
%TO.P,J1,2,Pin_2*%
%TO.N,Signal*%
X176000000Y-122000000D03*
%TO.P,J1,3,Pin_3*%
%TO.N,GND*%
X176000000Y-124500000D03*
%TD*%
D12*
%TO.P,R1,1*%
%TO.N,Net-(R1-Pad1)*%
X160600000Y-113200000D03*
%TO.P,R1,2*%
%TO.N,GND*%
X168728000Y-113200000D03*
%TD*%
D13*
%TO.P,U1,1*%
%TO.N,Signal*%
X168960000Y-125620000D03*
D14*
%TO.P,U1,2*%
%TO.N,GND*%
X171500000Y-125620000D03*
%TO.P,U1,3*%
%TO.N,+5V*%
X171500000Y-118000000D03*
%TO.P,U1,4*%
%TO.N,Net-(R1-Pad1)*%
X168960000Y-118000000D03*
%TD*%
D15*
%TO.N,Signal*%
X173080000Y-122000000D02*
X176000000Y-122000000D01*
X173080000Y-122000000D02*
X168960000Y-126120000D01*
D16*
%TO.N,Net-(R1-Pad1)*%
X160600000Y-113200000D02*
X161900000Y-113200000D01*
%TD*%
%TA.AperFunction,Conductor*%
%TO.N,+5V*%
G36*
X157467651Y-109719685D02*
G01*
X157513406Y-109772489D01*
X157523350Y-109841647D01*
X157494325Y-109905203D01*
X157450698Y-109937434D01*
X157427235Y-109947793D01*
X157347794Y-110027234D01*
X157302415Y-110130006D01*
X157302415Y-110130008D01*
X157299500Y-110155131D01*
X157299500Y-116244856D01*
X157299502Y-116244882D01*
X157302413Y-116269987D01*
X157302415Y-116269991D01*
X157347793Y-116372764D01*
X157347794Y-116372765D01*
X157427235Y-116452206D01*
X157530009Y-116497585D01*
X157555135Y-116500500D01*
X163644864Y-116500499D01*
X163644879Y-116500497D01*
X163644882Y-116500497D01*
X163669987Y-116497586D01*
X163669988Y-116497585D01*
X163669991Y-116497585D01*
X163772765Y-116452206D01*
X163852206Y-116372765D01*
X163897585Y-116269991D01*
X163900500Y-116244865D01*
X163900499Y-110155136D01*
X163900497Y-110155117D01*
X163897586Y-110130012D01*
X163897585Y-110130010D01*
X163897585Y-110130009D01*
X163852206Y-110027235D01*
X163772765Y-109947794D01*
X163772764Y-109947793D01*
X163749302Y-109937434D01*
X163695925Y-109892348D01*
X163675398Y-109825562D01*
X163694236Y-109758280D01*
X163746459Y-109711864D01*
X163799388Y-109700000D01*
X165528612Y-109700000D01*
X165595651Y-109719685D01*
X165641406Y-109772489D01*
X165651350Y-109841647D01*
X165622325Y-109905203D01*
X165578698Y-109937434D01*
X165555235Y-109947793D01*
X165475794Y-110027234D01*
X165430415Y-110130006D01*
X165430415Y-110130008D01*
X165427500Y-110155131D01*
X165427500Y-116244856D01*
X165427502Y-116244882D01*
X165430413Y-116269987D01*
X165430415Y-116269991D01*
X165475793Y-116372764D01*
X165475794Y-116372765D01*
X165555235Y-116452206D01*
X165658009Y-116497585D01*
X165683135Y-116500500D01*
X171131523Y-116500499D01*
X171198562Y-116520184D01*
X171244317Y-116572988D01*
X171254261Y-116642146D01*
X171225236Y-116705702D01*
X171166458Y-116743476D01*
X171163617Y-116744274D01*
X171053679Y-116773731D01*
X171053673Y-116773734D01*
X170847517Y-116869865D01*
X170661179Y-117000342D01*
X170500342Y-117161179D01*
X170369865Y-117347517D01*
X170273734Y-117553673D01*
X170273731Y-117553680D01*
X170246097Y-117656811D01*
X170209731Y-117716471D01*
X170146884Y-117747000D01*
X170077509Y-117738705D01*
X170023631Y-117694219D01*
X170007056Y-117658651D01*
X170006532Y-117656811D01*
X169990582Y-117600750D01*
X169899673Y-117418179D01*
X169776764Y-117255421D01*
X169776762Y-117255418D01*
X169626041Y-117118019D01*
X169626039Y-117118017D01*
X169452642Y-117010655D01*
X169452635Y-117010651D01*
X169357546Y-116973814D01*
X169262456Y-116936976D01*
X169061976Y-116899500D01*
X168858024Y-116899500D01*
X168657544Y-116936976D01*
X168657541Y-116936976D01*
X168657541Y-116936977D01*
X168467364Y-117010651D01*
X168467357Y-117010655D01*
X168293960Y-117118017D01*
X168293958Y-117118019D01*
X168143237Y-117255418D01*
X168020327Y-117418178D01*
X167929422Y-117600739D01*
X167929417Y-117600752D01*
X167873602Y-117796917D01*
X167854785Y-117999999D01*
X167854785Y-118000000D01*
X167873602Y-118203082D01*
X167929417Y-118399247D01*
X167929422Y-118399260D01*
X168020327Y-118581821D01*
X168143237Y-118744581D01*
X168293958Y-118881980D01*
X168293960Y-118881982D01*
X168393141Y-118943392D01*
X168467363Y-118989348D01*
X168657544Y-119063024D01*
X168858024Y-119100500D01*
X168858026Y-119100500D01*
X169061974Y-119100500D01*
X169061976Y-119100500D01*
X169262456Y-119063024D01*
X169452637Y-118989348D01*
X169626041Y-118881981D01*
X169776764Y-118744579D01*
X169899673Y-118581821D01*
X169990582Y-118399250D01*
X170007058Y-118341342D01*
X170044334Y-118282255D01*
X170107644Y-118252697D01*
X170176884Y-118262059D01*
X170230070Y-118307368D01*
X170246097Y-118343188D01*
X170273731Y-118446319D01*
X170273734Y-118446326D01*
X170369865Y-118652482D01*
X170500342Y-118838820D01*
X170661179Y-118999657D01*
X170847517Y-119130134D01*
X171053673Y-119226265D01*
X171053682Y-119226269D01*
X171249999Y-119278872D01*
X171250000Y-119278871D01*
X171250000Y-118315686D01*
X171254394Y-118320080D01*
X171345606Y-118372741D01*
X171447339Y-118400000D01*
X171552661Y-118400000D01*
X171654394Y-118372741D01*
X171745606Y-118320080D01*
X171750000Y-118315686D01*
X171750000Y-119278872D01*
X171946317Y-119226269D01*
X171946326Y-119226265D01*
X172152482Y-119130134D01*
X172338820Y-118999657D01*
X172499657Y-118838820D01*
X172630134Y-118652482D01*
X172726265Y-118446326D01*
X172726269Y-118446317D01*
X172778872Y-118250000D01*
X171815686Y-118250000D01*
X171820080Y-118245606D01*
X171872741Y-118154394D01*
X171900000Y-118052661D01*
X171900000Y-117947339D01*
X171872741Y-117845606D01*
X171820080Y-117754394D01*
X171815686Y-117750000D01*
X172778872Y-117750000D01*
X172778872Y-117749999D01*
X172726269Y-117553682D01*
X172726265Y-117553673D01*
X172630134Y-117347517D01*
X172499657Y-117161179D01*
X172338820Y-117000342D01*
X172152482Y-116869865D01*
X171946326Y-116773734D01*
X171946320Y-116773731D01*
X171803821Y-116735549D01*
X171744161Y-116699184D01*
X171713632Y-116636337D01*
X171721927Y-116566961D01*
X171766412Y-116513083D01*
X171789881Y-116502311D01*
X171789458Y-116501353D01*
X171836668Y-116480507D01*
X171900765Y-116452206D01*
X171980206Y-116372765D01*
X172025585Y-116269991D01*
X172028500Y-116244865D01*
X172028499Y-113078711D01*
X173749500Y-113078711D01*
X173749500Y-113321288D01*
X173781161Y-113561785D01*
X173843947Y-113796104D01*
X173936773Y-114020205D01*
X173936776Y-114020212D01*
X174058064Y-114230289D01*
X174058066Y-114230292D01*
X174058067Y-114230293D01*
X174205733Y-114422736D01*
X174205739Y-114422743D01*
X174377256Y-114594260D01*
X174377262Y-114594265D01*
X174569711Y-114741936D01*
X174779788Y-114863224D01*
X175003900Y-114956054D01*
X175238211Y-115018838D01*
X175418586Y-115042584D01*
X175478711Y-115050500D01*
X175478712Y-115050500D01*
X175721289Y-115050500D01*
X175769388Y-115044167D01*
X175961789Y-115018838D01*
X176196100Y-114956054D01*
X176420212Y-114863224D01*
X176630289Y-114741936D01*
X176822738Y-114594265D01*
X176994265Y-114422738D01*
X177141936Y-114230289D01*
X177263224Y-114020212D01*
X177356054Y-113796100D01*
X177418838Y-113561789D01*
X177450500Y-113321288D01*
X177450500Y-113078712D01*
X177418838Y-112838211D01*
X177356054Y-112603900D01*
X177263224Y-112379788D01*
X177141936Y-112169711D01*
X176994265Y-111977262D01*
X176994260Y-111977256D01*
X176822743Y-111805739D01*
X176822736Y-111805733D01*
X176630293Y-111658067D01*
X176630292Y-111658066D01*
X176630289Y-111658064D01*
X176420212Y-111536776D01*
X176420205Y-111536773D01*
X176196104Y-111443947D01*
X175961785Y-111381161D01*
X175721289Y-111349500D01*
X175721288Y-111349500D01*
X175478712Y-111349500D01*
X175478711Y-111349500D01*
X175238214Y-111381161D01*
X175003895Y-111443947D01*
X174779794Y-111536773D01*
X174779785Y-111536777D01*
X174569706Y-111658067D01*
X174377263Y-111805733D01*
X174377256Y-111805739D01*
X174205739Y-111977256D01*
X174205733Y-111977263D01*
X174058067Y-112169706D01*
X173936777Y-112379785D01*
X173936773Y-112379794D01*
X173843947Y-112603895D01*
X173781161Y-112838214D01*
X173749500Y-113078711D01*
X172028499Y-113078711D01*
X172028499Y-110155136D01*
X172028497Y-110155117D01*
X172025586Y-110130012D01*
X172025585Y-110130010D01*
X172025585Y-110130009D01*
X171980206Y-110027235D01*
X171900765Y-109947794D01*
X171900764Y-109947793D01*
X171877302Y-109937434D01*
X171823925Y-109892348D01*
X171803398Y-109825562D01*
X171822236Y-109758280D01*
X171874459Y-109711864D01*
X171927388Y-109700000D01*
X178975785Y-109700000D01*
X179042824Y-109719685D01*
X179088579Y-109772489D01*
X179099784Y-109824213D01*
X179078203Y-122269410D01*
X179070214Y-126876548D01*
X179050413Y-126943553D01*
X178997530Y-126989217D01*
X178946549Y-127000333D01*
X166624335Y-127033663D01*
X166557243Y-127014159D01*
X166511345Y-126961479D01*
X166500000Y-126909663D01*
X166500000Y-124775131D01*
X167859500Y-124775131D01*
X167859500Y-126464856D01*
X167859502Y-126464882D01*
X167862413Y-126489987D01*
X167862415Y-126489991D01*
X167907793Y-126592764D01*
X167907794Y-126592765D01*
X167987235Y-126672206D01*
X168090009Y-126717585D01*
X168115135Y-126720500D01*
X169804864Y-126720499D01*
X169804879Y-126720497D01*
X169804882Y-126720497D01*
X169829987Y-126717586D01*
X169829988Y-126717585D01*
X169829991Y-126717585D01*
X169932765Y-126672206D01*
X170012206Y-126592765D01*
X170057585Y-126489991D01*
X170060500Y-126464865D01*
X170060499Y-125672608D01*
X170080183Y-125605570D01*
X170096813Y-125584933D01*
X170185959Y-125495787D01*
X170247280Y-125462304D01*
X170316972Y-125467288D01*
X170372905Y-125509160D01*
X170397322Y-125574624D01*
X170397109Y-125594908D01*
X170394785Y-125619994D01*
X170394785Y-125620000D01*
X170413602Y-125823082D01*
X170469417Y-126019247D01*
X170469422Y-126019260D01*
X170560327Y-126201821D01*
X170683237Y-126364581D01*
X170833958Y-126501980D01*
X170833960Y-126501982D01*
X170933141Y-126563392D01*
X171007363Y-126609348D01*
X171197544Y-126683024D01*
X171398024Y-126720500D01*
X171398026Y-126720500D01*
X171601974Y-126720500D01*
X171601976Y-126720500D01*
X171802456Y-126683024D01*
X171992637Y-126609348D01*
X172166041Y-126501981D01*
X172316764Y-126364579D01*
X172439673Y-126201821D01*
X172530582Y-126019250D01*
X172586397Y-125823083D01*
X172605215Y-125620000D01*
X172605214Y-125619994D01*
X172586397Y-125416917D01*
X172538762Y-125249501D01*
X172530582Y-125220750D01*
X172439673Y-125038179D01*
X172380704Y-124960091D01*
X172316762Y-124875418D01*
X172166041Y-124738019D01*
X172166039Y-124738017D01*
X171992642Y-124630655D01*
X171992635Y-124630651D01*
X171889111Y-124590546D01*
X171802456Y-124556976D01*
X171601976Y-124519500D01*
X171461609Y-124519500D01*
X171394570Y-124499815D01*
X171348815Y-124447011D01*
X171338871Y-124377853D01*
X171367896Y-124314297D01*
X171373928Y-124307819D01*
X172247959Y-123433789D01*
X173219929Y-122461819D01*
X173281252Y-122428334D01*
X173307610Y-122425500D01*
X174724579Y-122425500D01*
X174791618Y-122445185D01*
X174835062Y-122493203D01*
X174887880Y-122596864D01*
X174891006Y-122602998D01*
X174997441Y-122749494D01*
X174997445Y-122749499D01*
X175125500Y-122877554D01*
X175125505Y-122877558D01*
X175253287Y-122970396D01*
X175272006Y-122983996D01*
X175377484Y-123037740D01*
X175433360Y-123066211D01*
X175433363Y-123066212D01*
X175519476Y-123094191D01*
X175605591Y-123122171D01*
X175630291Y-123126083D01*
X175639406Y-123127527D01*
X175702540Y-123157457D01*
X175739471Y-123216768D01*
X175738473Y-123286631D01*
X175699863Y-123344863D01*
X175639406Y-123372473D01*
X175605589Y-123377829D01*
X175433363Y-123433787D01*
X175433360Y-123433788D01*
X175272002Y-123516006D01*
X175125505Y-123622441D01*
X175125500Y-123622445D01*
X174997445Y-123750500D01*
X174997441Y-123750505D01*
X174891006Y-123897002D01*
X174808788Y-124058360D01*
X174808787Y-124058363D01*
X174752829Y-124230589D01*
X174724500Y-124409448D01*
X174724500Y-124590551D01*
X174752829Y-124769410D01*
X174808787Y-124941636D01*
X174808788Y-124941639D01*
X174891006Y-125102997D01*
X174997441Y-125249494D01*
X174997445Y-125249499D01*
X175125500Y-125377554D01*
X175125505Y-125377558D01*
X175179679Y-125416917D01*
X175272006Y-125483996D01*
X175377484Y-125537740D01*
X175433360Y-125566211D01*
X175433363Y-125566212D01*
X175490967Y-125584928D01*
X175605591Y-125622171D01*
X175688429Y-125635291D01*
X175784449Y-125650500D01*
X175784454Y-125650500D01*
X176215551Y-125650500D01*
X176302259Y-125636765D01*
X176394409Y-125622171D01*
X176566639Y-125566211D01*
X176727994Y-125483996D01*
X176874501Y-125377553D01*
X177002553Y-125249501D01*
X177108996Y-125102994D01*
X177191211Y-124941639D01*
X177247171Y-124769409D01*
X177261765Y-124677259D01*
X177275500Y-124590551D01*
X177275500Y-124409448D01*
X177259019Y-124305397D01*
X177247171Y-124230591D01*
X177191211Y-124058361D01*
X177191211Y-124058360D01*
X177162740Y-124002484D01*
X177108996Y-123897006D01*
X177095396Y-123878287D01*
X177002558Y-123750505D01*
X177002554Y-123750500D01*
X176874499Y-123622445D01*
X176874494Y-123622441D01*
X176727997Y-123516006D01*
X176727996Y-123516005D01*
X176727994Y-123516004D01*
X176676300Y-123489664D01*
X176566639Y-123433788D01*
X176566636Y-123433787D01*
X176394410Y-123377829D01*
X176360594Y-123372473D01*
X176297459Y-123342544D01*
X176260528Y-123283232D01*
X176261526Y-123213370D01*
X176300136Y-123155137D01*
X176360594Y-123127527D01*
X176368388Y-123126292D01*
X176394409Y-123122171D01*
X176566639Y-123066211D01*
X176727994Y-122983996D01*
X176874501Y-122877553D01*
X177002553Y-122749501D01*
X177108996Y-122602994D01*
X177191211Y-122441639D01*
X177247171Y-122269409D01*
X177261765Y-122177259D01*
X177275500Y-122090551D01*
X177275500Y-121909448D01*
X177259019Y-121805397D01*
X177247171Y-121730591D01*
X177205877Y-121603498D01*
X177191212Y-121558363D01*
X177191211Y-121558360D01*
X177162740Y-121502484D01*
X177108996Y-121397006D01*
X177095396Y-121378287D01*
X177002558Y-121250505D01*
X177002554Y-121250500D01*
X176874499Y-121122445D01*
X176874494Y-121122441D01*
X176795948Y-121065374D01*
X176753282Y-121010044D01*
X176747303Y-120940431D01*
X176779909Y-120878636D01*
X176840747Y-120844279D01*
X176856235Y-120841698D01*
X176877696Y-120839506D01*
X177044119Y-120784358D01*
X177044124Y-120784356D01*
X177193345Y-120692315D01*
X177317315Y-120568345D01*
X177409356Y-120419124D01*
X177409358Y-120419119D01*
X177464505Y-120252697D01*
X177464506Y-120252690D01*
X177474999Y-120149986D01*
X177475000Y-120149973D01*
X177475000Y-119750000D01*
X176404146Y-119750000D01*
X176442630Y-119683343D01*
X176475000Y-119562535D01*
X176475000Y-119437465D01*
X176442630Y-119316657D01*
X176404146Y-119250000D01*
X177474999Y-119250000D01*
X177474999Y-118850028D01*
X177474998Y-118850013D01*
X177464505Y-118747302D01*
X177409358Y-118580880D01*
X177409356Y-118580875D01*
X177317315Y-118431654D01*
X177193345Y-118307684D01*
X177044124Y-118215643D01*
X177044119Y-118215641D01*
X176877697Y-118160494D01*
X176877690Y-118160493D01*
X176774986Y-118150000D01*
X176250000Y-118150000D01*
X176250000Y-119095854D01*
X176183343Y-119057370D01*
X176062535Y-119025000D01*
X175937465Y-119025000D01*
X175816657Y-119057370D01*
X175750000Y-119095854D01*
X175750000Y-118150000D01*
X175225028Y-118150000D01*
X175225012Y-118150001D01*
X175122302Y-118160494D01*
X174955880Y-118215641D01*
X174955875Y-118215643D01*
X174806654Y-118307684D01*
X174682684Y-118431654D01*
X174590643Y-118580875D01*
X174590641Y-118580880D01*
X174535494Y-118747302D01*
X174535493Y-118747309D01*
X174525000Y-118850013D01*
X174525000Y-119250000D01*
X175595854Y-119250000D01*
X175557370Y-119316657D01*
X175525000Y-119437465D01*
X175525000Y-119562535D01*
X175557370Y-119683343D01*
X175595854Y-119750000D01*
X174525001Y-119750000D01*
X174525001Y-120149986D01*
X174535494Y-120252697D01*
X174590641Y-120419119D01*
X174590643Y-120419124D01*
X174682684Y-120568345D01*
X174806654Y-120692315D01*
X174955875Y-120784356D01*
X174955880Y-120784358D01*
X175122302Y-120839505D01*
X175122309Y-120839506D01*
X175143769Y-120841699D01*
X175208460Y-120868095D01*
X175248612Y-120925276D01*
X175251475Y-120995087D01*
X175216141Y-121055364D01*
X175204051Y-121065375D01*
X175125505Y-121122441D01*
X175125500Y-121122445D01*
X174997445Y-121250500D01*
X174997441Y-121250505D01*
X174891006Y-121397001D01*
X174865299Y-121447453D01*
X174835062Y-121506796D01*
X174787090Y-121557591D01*
X174724579Y-121574500D01*
X173023982Y-121574500D01*
X172915763Y-121603497D01*
X172915760Y-121603498D01*
X172818740Y-121659513D01*
X172818734Y-121659517D01*
X169977353Y-124500897D01*
X169916030Y-124534382D01*
X169846338Y-124529398D01*
X169839590Y-124526652D01*
X169829996Y-124522416D01*
X169829991Y-124522415D01*
X169804865Y-124519500D01*
X168115143Y-124519500D01*
X168115117Y-124519502D01*
X168090012Y-124522413D01*
X168090008Y-124522415D01*
X167987235Y-124567793D01*
X167907794Y-124647234D01*
X167862415Y-124750006D01*
X167862415Y-124750008D01*
X167859500Y-124775131D01*
X166500000Y-124775131D01*
X166500000Y-117500000D01*
X150223773Y-117470226D01*
X150156770Y-117450419D01*
X150111112Y-117397531D01*
X150100000Y-117346226D01*
X150100000Y-113078711D01*
X151749500Y-113078711D01*
X151749500Y-113321288D01*
X151781161Y-113561785D01*
X151843947Y-113796104D01*
X151936773Y-114020205D01*
X151936776Y-114020212D01*
X152058064Y-114230289D01*
X152058066Y-114230292D01*
X152058067Y-114230293D01*
X152205733Y-114422736D01*
X152205739Y-114422743D01*
X152377256Y-114594260D01*
X152377262Y-114594265D01*
X152569711Y-114741936D01*
X152779788Y-114863224D01*
X153003900Y-114956054D01*
X153238211Y-115018838D01*
X153418586Y-115042584D01*
X153478711Y-115050500D01*
X153478712Y-115050500D01*
X153721289Y-115050500D01*
X153769388Y-115044167D01*
X153961789Y-115018838D01*
X154196100Y-114956054D01*
X154420212Y-114863224D01*
X154630289Y-114741936D01*
X154822738Y-114594265D01*
X154994265Y-114422738D01*
X155141936Y-114230289D01*
X155263224Y-114020212D01*
X155356054Y-113796100D01*
X155418838Y-113561789D01*
X155450500Y-113321288D01*
X155450500Y-113078712D01*
X155418838Y-112838211D01*
X155356054Y-112603900D01*
X155263224Y-112379788D01*
X155141936Y-112169711D01*
X154994265Y-111977262D01*
X154994260Y-111977256D01*
X154822743Y-111805739D01*
X154822736Y-111805733D01*
X154630293Y-111658067D01*
X154630292Y-111658066D01*
X154630289Y-111658064D01*
X154420212Y-111536776D01*
X154420205Y-111536773D01*
X154196104Y-111443947D01*
X153961785Y-111381161D01*
X153721289Y-111349500D01*
X153721288Y-111349500D01*
X153478712Y-111349500D01*
X153478711Y-111349500D01*
X153238214Y-111381161D01*
X153003895Y-111443947D01*
X152779794Y-111536773D01*
X152779785Y-111536777D01*
X152569706Y-111658067D01*
X152377263Y-111805733D01*
X152377256Y-111805739D01*
X152205739Y-111977256D01*
X152205733Y-111977263D01*
X152058067Y-112169706D01*
X151936777Y-112379785D01*
X151936773Y-112379794D01*
X151843947Y-112603895D01*
X151781161Y-112838214D01*
X151749500Y-113078711D01*
X150100000Y-113078711D01*
X150100000Y-109824000D01*
X150119685Y-109756961D01*
X150172489Y-109711206D01*
X150224000Y-109700000D01*
X157400612Y-109700000D01*
X157467651Y-109719685D01*
G37*
%TD.AperFunction*%
%TD*%
M02*
