%TF.GenerationSoftware,KiCad,Pcbnew,8.0.2*%
%TF.CreationDate,2024-05-21T16:28:02-04:00*%
%TF.ProjectId,Nichrome,4e696368-726f-46d6-952e-6b696361645f,rev?*%
%TF.SameCoordinates,Original*%
%TF.FileFunction,Drillmap*%
%TF.FilePolarity,Positive*%
%FSLAX45Y45*%
G04 Gerber Fmt 4.5, Leading zero omitted, Abs format (unit mm)*
G04 Created by KiCad (PCBNEW 8.0.2) date 2024-05-21 16:28:02*
%MOMM*%
%LPD*%
G01*
G04 APERTURE LIST*
%ADD10C,0.200000*%
%ADD11C,0.100000*%
%ADD12C,0.320000*%
G04 APERTURE END LIST*
D10*
X17910000Y-10970000D02*
X15010000Y-10970000D01*
X16650000Y-12703400D02*
X17907000Y-12700000D01*
X16650000Y-11750000D02*
X16650000Y-12703400D01*
X17907000Y-12700000D02*
X17910000Y-10970000D01*
X15010000Y-11747000D02*
X15010000Y-10970000D01*
X15010000Y-11747000D02*
X16650000Y-11750000D01*
D11*
X16856000Y-11760000D02*
X16936000Y-11840000D01*
X16936000Y-11760000D02*
X16856000Y-11840000D01*
X16856000Y-12522000D02*
X16936000Y-12602000D01*
X16936000Y-12522000D02*
X16856000Y-12602000D01*
X17110000Y-11760000D02*
X17190000Y-11840000D01*
X17190000Y-11760000D02*
X17110000Y-11840000D01*
X17110000Y-12522000D02*
X17190000Y-12602000D01*
X17190000Y-12522000D02*
X17110000Y-12602000D01*
X17647500Y-11950000D02*
G75*
G02*
X17552500Y-11950000I-47500J0D01*
G01*
X17552500Y-11950000D02*
G75*
G02*
X17647500Y-11950000I47500J0D01*
G01*
X17647500Y-12200000D02*
G75*
G02*
X17552500Y-12200000I-47500J0D01*
G01*
X17552500Y-12200000D02*
G75*
G02*
X17647500Y-12200000I47500J0D01*
G01*
X17647500Y-12450000D02*
G75*
G02*
X17552500Y-12450000I-47500J0D01*
G01*
X17552500Y-12450000D02*
G75*
G02*
X17647500Y-12450000I47500J0D01*
G01*
D12*
X16060000Y-11160000D02*
X16060000Y-11480000D01*
X15900000Y-11320000D02*
X16220000Y-11320000D01*
X16872800Y-11160000D02*
X16872800Y-11480000D01*
X16712800Y-11320000D02*
X17032800Y-11320000D01*
D10*
X15260777Y-13024884D02*
X15260777Y-12824884D01*
X15260777Y-12824884D02*
X15308396Y-12824884D01*
X15308396Y-12824884D02*
X15336967Y-12834408D01*
X15336967Y-12834408D02*
X15356015Y-12853455D01*
X15356015Y-12853455D02*
X15365539Y-12872503D01*
X15365539Y-12872503D02*
X15375062Y-12910598D01*
X15375062Y-12910598D02*
X15375062Y-12939169D01*
X15375062Y-12939169D02*
X15365539Y-12977265D01*
X15365539Y-12977265D02*
X15356015Y-12996312D01*
X15356015Y-12996312D02*
X15336967Y-13015360D01*
X15336967Y-13015360D02*
X15308396Y-13024884D01*
X15308396Y-13024884D02*
X15260777Y-13024884D01*
X15460777Y-13024884D02*
X15460777Y-12891550D01*
X15460777Y-12929646D02*
X15470301Y-12910598D01*
X15470301Y-12910598D02*
X15479824Y-12901074D01*
X15479824Y-12901074D02*
X15498872Y-12891550D01*
X15498872Y-12891550D02*
X15517920Y-12891550D01*
X15584586Y-13024884D02*
X15584586Y-12891550D01*
X15584586Y-12824884D02*
X15575062Y-12834408D01*
X15575062Y-12834408D02*
X15584586Y-12843931D01*
X15584586Y-12843931D02*
X15594110Y-12834408D01*
X15594110Y-12834408D02*
X15584586Y-12824884D01*
X15584586Y-12824884D02*
X15584586Y-12843931D01*
X15708396Y-13024884D02*
X15689348Y-13015360D01*
X15689348Y-13015360D02*
X15679824Y-12996312D01*
X15679824Y-12996312D02*
X15679824Y-12824884D01*
X15813158Y-13024884D02*
X15794110Y-13015360D01*
X15794110Y-13015360D02*
X15784586Y-12996312D01*
X15784586Y-12996312D02*
X15784586Y-12824884D01*
X16041729Y-13024884D02*
X16041729Y-12824884D01*
X16041729Y-12824884D02*
X16108396Y-12967741D01*
X16108396Y-12967741D02*
X16175062Y-12824884D01*
X16175062Y-12824884D02*
X16175062Y-13024884D01*
X16356015Y-13024884D02*
X16356015Y-12920122D01*
X16356015Y-12920122D02*
X16346491Y-12901074D01*
X16346491Y-12901074D02*
X16327443Y-12891550D01*
X16327443Y-12891550D02*
X16289348Y-12891550D01*
X16289348Y-12891550D02*
X16270301Y-12901074D01*
X16356015Y-13015360D02*
X16336967Y-13024884D01*
X16336967Y-13024884D02*
X16289348Y-13024884D01*
X16289348Y-13024884D02*
X16270301Y-13015360D01*
X16270301Y-13015360D02*
X16260777Y-12996312D01*
X16260777Y-12996312D02*
X16260777Y-12977265D01*
X16260777Y-12977265D02*
X16270301Y-12958217D01*
X16270301Y-12958217D02*
X16289348Y-12948693D01*
X16289348Y-12948693D02*
X16336967Y-12948693D01*
X16336967Y-12948693D02*
X16356015Y-12939169D01*
X16451253Y-12891550D02*
X16451253Y-13091550D01*
X16451253Y-12901074D02*
X16470301Y-12891550D01*
X16470301Y-12891550D02*
X16508396Y-12891550D01*
X16508396Y-12891550D02*
X16527443Y-12901074D01*
X16527443Y-12901074D02*
X16536967Y-12910598D01*
X16536967Y-12910598D02*
X16546491Y-12929646D01*
X16546491Y-12929646D02*
X16546491Y-12986788D01*
X16546491Y-12986788D02*
X16536967Y-13005836D01*
X16536967Y-13005836D02*
X16527443Y-13015360D01*
X16527443Y-13015360D02*
X16508396Y-13024884D01*
X16508396Y-13024884D02*
X16470301Y-13024884D01*
X16470301Y-13024884D02*
X16451253Y-13015360D01*
X16632205Y-13005836D02*
X16641729Y-13015360D01*
X16641729Y-13015360D02*
X16632205Y-13024884D01*
X16632205Y-13024884D02*
X16622682Y-13015360D01*
X16622682Y-13015360D02*
X16632205Y-13005836D01*
X16632205Y-13005836D02*
X16632205Y-13024884D01*
X16632205Y-12901074D02*
X16641729Y-12910598D01*
X16641729Y-12910598D02*
X16632205Y-12920122D01*
X16632205Y-12920122D02*
X16622682Y-12910598D01*
X16622682Y-12910598D02*
X16632205Y-12901074D01*
X16632205Y-12901074D02*
X16632205Y-12920122D01*
D11*
X14920000Y-13313400D02*
X15000000Y-13393400D01*
X15000000Y-13313400D02*
X14920000Y-13393400D01*
D10*
X15298872Y-13244884D02*
X15317920Y-13244884D01*
X15317920Y-13244884D02*
X15336967Y-13254408D01*
X15336967Y-13254408D02*
X15346491Y-13263931D01*
X15346491Y-13263931D02*
X15356015Y-13282979D01*
X15356015Y-13282979D02*
X15365539Y-13321074D01*
X15365539Y-13321074D02*
X15365539Y-13368693D01*
X15365539Y-13368693D02*
X15356015Y-13406788D01*
X15356015Y-13406788D02*
X15346491Y-13425836D01*
X15346491Y-13425836D02*
X15336967Y-13435360D01*
X15336967Y-13435360D02*
X15317920Y-13444884D01*
X15317920Y-13444884D02*
X15298872Y-13444884D01*
X15298872Y-13444884D02*
X15279824Y-13435360D01*
X15279824Y-13435360D02*
X15270301Y-13425836D01*
X15270301Y-13425836D02*
X15260777Y-13406788D01*
X15260777Y-13406788D02*
X15251253Y-13368693D01*
X15251253Y-13368693D02*
X15251253Y-13321074D01*
X15251253Y-13321074D02*
X15260777Y-13282979D01*
X15260777Y-13282979D02*
X15270301Y-13263931D01*
X15270301Y-13263931D02*
X15279824Y-13254408D01*
X15279824Y-13254408D02*
X15298872Y-13244884D01*
X15451253Y-13425836D02*
X15460777Y-13435360D01*
X15460777Y-13435360D02*
X15451253Y-13444884D01*
X15451253Y-13444884D02*
X15441729Y-13435360D01*
X15441729Y-13435360D02*
X15451253Y-13425836D01*
X15451253Y-13425836D02*
X15451253Y-13444884D01*
X15575062Y-13330598D02*
X15556015Y-13321074D01*
X15556015Y-13321074D02*
X15546491Y-13311550D01*
X15546491Y-13311550D02*
X15536967Y-13292503D01*
X15536967Y-13292503D02*
X15536967Y-13282979D01*
X15536967Y-13282979D02*
X15546491Y-13263931D01*
X15546491Y-13263931D02*
X15556015Y-13254408D01*
X15556015Y-13254408D02*
X15575062Y-13244884D01*
X15575062Y-13244884D02*
X15613158Y-13244884D01*
X15613158Y-13244884D02*
X15632205Y-13254408D01*
X15632205Y-13254408D02*
X15641729Y-13263931D01*
X15641729Y-13263931D02*
X15651253Y-13282979D01*
X15651253Y-13282979D02*
X15651253Y-13292503D01*
X15651253Y-13292503D02*
X15641729Y-13311550D01*
X15641729Y-13311550D02*
X15632205Y-13321074D01*
X15632205Y-13321074D02*
X15613158Y-13330598D01*
X15613158Y-13330598D02*
X15575062Y-13330598D01*
X15575062Y-13330598D02*
X15556015Y-13340122D01*
X15556015Y-13340122D02*
X15546491Y-13349646D01*
X15546491Y-13349646D02*
X15536967Y-13368693D01*
X15536967Y-13368693D02*
X15536967Y-13406788D01*
X15536967Y-13406788D02*
X15546491Y-13425836D01*
X15546491Y-13425836D02*
X15556015Y-13435360D01*
X15556015Y-13435360D02*
X15575062Y-13444884D01*
X15575062Y-13444884D02*
X15613158Y-13444884D01*
X15613158Y-13444884D02*
X15632205Y-13435360D01*
X15632205Y-13435360D02*
X15641729Y-13425836D01*
X15641729Y-13425836D02*
X15651253Y-13406788D01*
X15651253Y-13406788D02*
X15651253Y-13368693D01*
X15651253Y-13368693D02*
X15641729Y-13349646D01*
X15641729Y-13349646D02*
X15632205Y-13340122D01*
X15632205Y-13340122D02*
X15613158Y-13330598D01*
X15775062Y-13244884D02*
X15794110Y-13244884D01*
X15794110Y-13244884D02*
X15813158Y-13254408D01*
X15813158Y-13254408D02*
X15822682Y-13263931D01*
X15822682Y-13263931D02*
X15832205Y-13282979D01*
X15832205Y-13282979D02*
X15841729Y-13321074D01*
X15841729Y-13321074D02*
X15841729Y-13368693D01*
X15841729Y-13368693D02*
X15832205Y-13406788D01*
X15832205Y-13406788D02*
X15822682Y-13425836D01*
X15822682Y-13425836D02*
X15813158Y-13435360D01*
X15813158Y-13435360D02*
X15794110Y-13444884D01*
X15794110Y-13444884D02*
X15775062Y-13444884D01*
X15775062Y-13444884D02*
X15756015Y-13435360D01*
X15756015Y-13435360D02*
X15746491Y-13425836D01*
X15746491Y-13425836D02*
X15736967Y-13406788D01*
X15736967Y-13406788D02*
X15727443Y-13368693D01*
X15727443Y-13368693D02*
X15727443Y-13321074D01*
X15727443Y-13321074D02*
X15736967Y-13282979D01*
X15736967Y-13282979D02*
X15746491Y-13263931D01*
X15746491Y-13263931D02*
X15756015Y-13254408D01*
X15756015Y-13254408D02*
X15775062Y-13244884D01*
X15965539Y-13244884D02*
X15984586Y-13244884D01*
X15984586Y-13244884D02*
X16003634Y-13254408D01*
X16003634Y-13254408D02*
X16013158Y-13263931D01*
X16013158Y-13263931D02*
X16022682Y-13282979D01*
X16022682Y-13282979D02*
X16032205Y-13321074D01*
X16032205Y-13321074D02*
X16032205Y-13368693D01*
X16032205Y-13368693D02*
X16022682Y-13406788D01*
X16022682Y-13406788D02*
X16013158Y-13425836D01*
X16013158Y-13425836D02*
X16003634Y-13435360D01*
X16003634Y-13435360D02*
X15984586Y-13444884D01*
X15984586Y-13444884D02*
X15965539Y-13444884D01*
X15965539Y-13444884D02*
X15946491Y-13435360D01*
X15946491Y-13435360D02*
X15936967Y-13425836D01*
X15936967Y-13425836D02*
X15927443Y-13406788D01*
X15927443Y-13406788D02*
X15917920Y-13368693D01*
X15917920Y-13368693D02*
X15917920Y-13321074D01*
X15917920Y-13321074D02*
X15927443Y-13282979D01*
X15927443Y-13282979D02*
X15936967Y-13263931D01*
X15936967Y-13263931D02*
X15946491Y-13254408D01*
X15946491Y-13254408D02*
X15965539Y-13244884D01*
X16117920Y-13444884D02*
X16117920Y-13311550D01*
X16117920Y-13330598D02*
X16127443Y-13321074D01*
X16127443Y-13321074D02*
X16146491Y-13311550D01*
X16146491Y-13311550D02*
X16175063Y-13311550D01*
X16175063Y-13311550D02*
X16194110Y-13321074D01*
X16194110Y-13321074D02*
X16203634Y-13340122D01*
X16203634Y-13340122D02*
X16203634Y-13444884D01*
X16203634Y-13340122D02*
X16213158Y-13321074D01*
X16213158Y-13321074D02*
X16232205Y-13311550D01*
X16232205Y-13311550D02*
X16260777Y-13311550D01*
X16260777Y-13311550D02*
X16279824Y-13321074D01*
X16279824Y-13321074D02*
X16289348Y-13340122D01*
X16289348Y-13340122D02*
X16289348Y-13444884D01*
X16384586Y-13444884D02*
X16384586Y-13311550D01*
X16384586Y-13330598D02*
X16394110Y-13321074D01*
X16394110Y-13321074D02*
X16413158Y-13311550D01*
X16413158Y-13311550D02*
X16441729Y-13311550D01*
X16441729Y-13311550D02*
X16460777Y-13321074D01*
X16460777Y-13321074D02*
X16470301Y-13340122D01*
X16470301Y-13340122D02*
X16470301Y-13444884D01*
X16470301Y-13340122D02*
X16479824Y-13321074D01*
X16479824Y-13321074D02*
X16498872Y-13311550D01*
X16498872Y-13311550D02*
X16527443Y-13311550D01*
X16527443Y-13311550D02*
X16546491Y-13321074D01*
X16546491Y-13321074D02*
X16556015Y-13340122D01*
X16556015Y-13340122D02*
X16556015Y-13444884D01*
X16946491Y-13235360D02*
X16775063Y-13492503D01*
X17203634Y-13244884D02*
X17222682Y-13244884D01*
X17222682Y-13244884D02*
X17241729Y-13254408D01*
X17241729Y-13254408D02*
X17251253Y-13263931D01*
X17251253Y-13263931D02*
X17260777Y-13282979D01*
X17260777Y-13282979D02*
X17270301Y-13321074D01*
X17270301Y-13321074D02*
X17270301Y-13368693D01*
X17270301Y-13368693D02*
X17260777Y-13406788D01*
X17260777Y-13406788D02*
X17251253Y-13425836D01*
X17251253Y-13425836D02*
X17241729Y-13435360D01*
X17241729Y-13435360D02*
X17222682Y-13444884D01*
X17222682Y-13444884D02*
X17203634Y-13444884D01*
X17203634Y-13444884D02*
X17184587Y-13435360D01*
X17184587Y-13435360D02*
X17175063Y-13425836D01*
X17175063Y-13425836D02*
X17165539Y-13406788D01*
X17165539Y-13406788D02*
X17156015Y-13368693D01*
X17156015Y-13368693D02*
X17156015Y-13321074D01*
X17156015Y-13321074D02*
X17165539Y-13282979D01*
X17165539Y-13282979D02*
X17175063Y-13263931D01*
X17175063Y-13263931D02*
X17184587Y-13254408D01*
X17184587Y-13254408D02*
X17203634Y-13244884D01*
X17356015Y-13425836D02*
X17365539Y-13435360D01*
X17365539Y-13435360D02*
X17356015Y-13444884D01*
X17356015Y-13444884D02*
X17346491Y-13435360D01*
X17346491Y-13435360D02*
X17356015Y-13425836D01*
X17356015Y-13425836D02*
X17356015Y-13444884D01*
X17489348Y-13244884D02*
X17508396Y-13244884D01*
X17508396Y-13244884D02*
X17527444Y-13254408D01*
X17527444Y-13254408D02*
X17536968Y-13263931D01*
X17536968Y-13263931D02*
X17546491Y-13282979D01*
X17546491Y-13282979D02*
X17556015Y-13321074D01*
X17556015Y-13321074D02*
X17556015Y-13368693D01*
X17556015Y-13368693D02*
X17546491Y-13406788D01*
X17546491Y-13406788D02*
X17536968Y-13425836D01*
X17536968Y-13425836D02*
X17527444Y-13435360D01*
X17527444Y-13435360D02*
X17508396Y-13444884D01*
X17508396Y-13444884D02*
X17489348Y-13444884D01*
X17489348Y-13444884D02*
X17470301Y-13435360D01*
X17470301Y-13435360D02*
X17460777Y-13425836D01*
X17460777Y-13425836D02*
X17451253Y-13406788D01*
X17451253Y-13406788D02*
X17441729Y-13368693D01*
X17441729Y-13368693D02*
X17441729Y-13321074D01*
X17441729Y-13321074D02*
X17451253Y-13282979D01*
X17451253Y-13282979D02*
X17460777Y-13263931D01*
X17460777Y-13263931D02*
X17470301Y-13254408D01*
X17470301Y-13254408D02*
X17489348Y-13244884D01*
X17622682Y-13244884D02*
X17746491Y-13244884D01*
X17746491Y-13244884D02*
X17679825Y-13321074D01*
X17679825Y-13321074D02*
X17708396Y-13321074D01*
X17708396Y-13321074D02*
X17727444Y-13330598D01*
X17727444Y-13330598D02*
X17736968Y-13340122D01*
X17736968Y-13340122D02*
X17746491Y-13359169D01*
X17746491Y-13359169D02*
X17746491Y-13406788D01*
X17746491Y-13406788D02*
X17736968Y-13425836D01*
X17736968Y-13425836D02*
X17727444Y-13435360D01*
X17727444Y-13435360D02*
X17708396Y-13444884D01*
X17708396Y-13444884D02*
X17651253Y-13444884D01*
X17651253Y-13444884D02*
X17632206Y-13435360D01*
X17632206Y-13435360D02*
X17622682Y-13425836D01*
X17936968Y-13444884D02*
X17822682Y-13444884D01*
X17879825Y-13444884D02*
X17879825Y-13244884D01*
X17879825Y-13244884D02*
X17860777Y-13273455D01*
X17860777Y-13273455D02*
X17841729Y-13292503D01*
X17841729Y-13292503D02*
X17822682Y-13302027D01*
X18117920Y-13244884D02*
X18022682Y-13244884D01*
X18022682Y-13244884D02*
X18013158Y-13340122D01*
X18013158Y-13340122D02*
X18022682Y-13330598D01*
X18022682Y-13330598D02*
X18041729Y-13321074D01*
X18041729Y-13321074D02*
X18089349Y-13321074D01*
X18089349Y-13321074D02*
X18108396Y-13330598D01*
X18108396Y-13330598D02*
X18117920Y-13340122D01*
X18117920Y-13340122D02*
X18127444Y-13359169D01*
X18127444Y-13359169D02*
X18127444Y-13406788D01*
X18127444Y-13406788D02*
X18117920Y-13425836D01*
X18117920Y-13425836D02*
X18108396Y-13435360D01*
X18108396Y-13435360D02*
X18089349Y-13444884D01*
X18089349Y-13444884D02*
X18041729Y-13444884D01*
X18041729Y-13444884D02*
X18022682Y-13435360D01*
X18022682Y-13435360D02*
X18013158Y-13425836D01*
X18203634Y-13244884D02*
X18203634Y-13282979D01*
X18279825Y-13244884D02*
X18279825Y-13282979D01*
X18575063Y-13521074D02*
X18565539Y-13511550D01*
X18565539Y-13511550D02*
X18546491Y-13482979D01*
X18546491Y-13482979D02*
X18536968Y-13463931D01*
X18536968Y-13463931D02*
X18527444Y-13435360D01*
X18527444Y-13435360D02*
X18517920Y-13387741D01*
X18517920Y-13387741D02*
X18517920Y-13349646D01*
X18517920Y-13349646D02*
X18527444Y-13302027D01*
X18527444Y-13302027D02*
X18536968Y-13273455D01*
X18536968Y-13273455D02*
X18546491Y-13254408D01*
X18546491Y-13254408D02*
X18565539Y-13225836D01*
X18565539Y-13225836D02*
X18575063Y-13216312D01*
X18736968Y-13311550D02*
X18736968Y-13444884D01*
X18689349Y-13235360D02*
X18641730Y-13378217D01*
X18641730Y-13378217D02*
X18765539Y-13378217D01*
X18994111Y-13444884D02*
X18994111Y-13244884D01*
X19079825Y-13444884D02*
X19079825Y-13340122D01*
X19079825Y-13340122D02*
X19070301Y-13321074D01*
X19070301Y-13321074D02*
X19051253Y-13311550D01*
X19051253Y-13311550D02*
X19022682Y-13311550D01*
X19022682Y-13311550D02*
X19003634Y-13321074D01*
X19003634Y-13321074D02*
X18994111Y-13330598D01*
X19203634Y-13444884D02*
X19184587Y-13435360D01*
X19184587Y-13435360D02*
X19175063Y-13425836D01*
X19175063Y-13425836D02*
X19165539Y-13406788D01*
X19165539Y-13406788D02*
X19165539Y-13349646D01*
X19165539Y-13349646D02*
X19175063Y-13330598D01*
X19175063Y-13330598D02*
X19184587Y-13321074D01*
X19184587Y-13321074D02*
X19203634Y-13311550D01*
X19203634Y-13311550D02*
X19232206Y-13311550D01*
X19232206Y-13311550D02*
X19251253Y-13321074D01*
X19251253Y-13321074D02*
X19260777Y-13330598D01*
X19260777Y-13330598D02*
X19270301Y-13349646D01*
X19270301Y-13349646D02*
X19270301Y-13406788D01*
X19270301Y-13406788D02*
X19260777Y-13425836D01*
X19260777Y-13425836D02*
X19251253Y-13435360D01*
X19251253Y-13435360D02*
X19232206Y-13444884D01*
X19232206Y-13444884D02*
X19203634Y-13444884D01*
X19384587Y-13444884D02*
X19365539Y-13435360D01*
X19365539Y-13435360D02*
X19356015Y-13416312D01*
X19356015Y-13416312D02*
X19356015Y-13244884D01*
X19536968Y-13435360D02*
X19517920Y-13444884D01*
X19517920Y-13444884D02*
X19479825Y-13444884D01*
X19479825Y-13444884D02*
X19460777Y-13435360D01*
X19460777Y-13435360D02*
X19451253Y-13416312D01*
X19451253Y-13416312D02*
X19451253Y-13340122D01*
X19451253Y-13340122D02*
X19460777Y-13321074D01*
X19460777Y-13321074D02*
X19479825Y-13311550D01*
X19479825Y-13311550D02*
X19517920Y-13311550D01*
X19517920Y-13311550D02*
X19536968Y-13321074D01*
X19536968Y-13321074D02*
X19546492Y-13340122D01*
X19546492Y-13340122D02*
X19546492Y-13359169D01*
X19546492Y-13359169D02*
X19451253Y-13378217D01*
X19622682Y-13435360D02*
X19641730Y-13444884D01*
X19641730Y-13444884D02*
X19679825Y-13444884D01*
X19679825Y-13444884D02*
X19698873Y-13435360D01*
X19698873Y-13435360D02*
X19708396Y-13416312D01*
X19708396Y-13416312D02*
X19708396Y-13406788D01*
X19708396Y-13406788D02*
X19698873Y-13387741D01*
X19698873Y-13387741D02*
X19679825Y-13378217D01*
X19679825Y-13378217D02*
X19651253Y-13378217D01*
X19651253Y-13378217D02*
X19632206Y-13368693D01*
X19632206Y-13368693D02*
X19622682Y-13349646D01*
X19622682Y-13349646D02*
X19622682Y-13340122D01*
X19622682Y-13340122D02*
X19632206Y-13321074D01*
X19632206Y-13321074D02*
X19651253Y-13311550D01*
X19651253Y-13311550D02*
X19679825Y-13311550D01*
X19679825Y-13311550D02*
X19698873Y-13321074D01*
X19775063Y-13521074D02*
X19784587Y-13511550D01*
X19784587Y-13511550D02*
X19803634Y-13482979D01*
X19803634Y-13482979D02*
X19813158Y-13463931D01*
X19813158Y-13463931D02*
X19822682Y-13435360D01*
X19822682Y-13435360D02*
X19832206Y-13387741D01*
X19832206Y-13387741D02*
X19832206Y-13349646D01*
X19832206Y-13349646D02*
X19822682Y-13302027D01*
X19822682Y-13302027D02*
X19813158Y-13273455D01*
X19813158Y-13273455D02*
X19803634Y-13254408D01*
X19803634Y-13254408D02*
X19784587Y-13225836D01*
X19784587Y-13225836D02*
X19775063Y-13216312D01*
D11*
X15000000Y-13617400D02*
G75*
G02*
X14905000Y-13617400I-47500J0D01*
G01*
X14905000Y-13617400D02*
G75*
G02*
X15000000Y-13617400I47500J0D01*
G01*
D10*
X15298872Y-13508884D02*
X15317920Y-13508884D01*
X15317920Y-13508884D02*
X15336967Y-13518408D01*
X15336967Y-13518408D02*
X15346491Y-13527931D01*
X15346491Y-13527931D02*
X15356015Y-13546979D01*
X15356015Y-13546979D02*
X15365539Y-13585074D01*
X15365539Y-13585074D02*
X15365539Y-13632693D01*
X15365539Y-13632693D02*
X15356015Y-13670788D01*
X15356015Y-13670788D02*
X15346491Y-13689836D01*
X15346491Y-13689836D02*
X15336967Y-13699360D01*
X15336967Y-13699360D02*
X15317920Y-13708884D01*
X15317920Y-13708884D02*
X15298872Y-13708884D01*
X15298872Y-13708884D02*
X15279824Y-13699360D01*
X15279824Y-13699360D02*
X15270301Y-13689836D01*
X15270301Y-13689836D02*
X15260777Y-13670788D01*
X15260777Y-13670788D02*
X15251253Y-13632693D01*
X15251253Y-13632693D02*
X15251253Y-13585074D01*
X15251253Y-13585074D02*
X15260777Y-13546979D01*
X15260777Y-13546979D02*
X15270301Y-13527931D01*
X15270301Y-13527931D02*
X15279824Y-13518408D01*
X15279824Y-13518408D02*
X15298872Y-13508884D01*
X15451253Y-13689836D02*
X15460777Y-13699360D01*
X15460777Y-13699360D02*
X15451253Y-13708884D01*
X15451253Y-13708884D02*
X15441729Y-13699360D01*
X15441729Y-13699360D02*
X15451253Y-13689836D01*
X15451253Y-13689836D02*
X15451253Y-13708884D01*
X15556015Y-13708884D02*
X15594110Y-13708884D01*
X15594110Y-13708884D02*
X15613158Y-13699360D01*
X15613158Y-13699360D02*
X15622682Y-13689836D01*
X15622682Y-13689836D02*
X15641729Y-13661265D01*
X15641729Y-13661265D02*
X15651253Y-13623169D01*
X15651253Y-13623169D02*
X15651253Y-13546979D01*
X15651253Y-13546979D02*
X15641729Y-13527931D01*
X15641729Y-13527931D02*
X15632205Y-13518408D01*
X15632205Y-13518408D02*
X15613158Y-13508884D01*
X15613158Y-13508884D02*
X15575062Y-13508884D01*
X15575062Y-13508884D02*
X15556015Y-13518408D01*
X15556015Y-13518408D02*
X15546491Y-13527931D01*
X15546491Y-13527931D02*
X15536967Y-13546979D01*
X15536967Y-13546979D02*
X15536967Y-13594598D01*
X15536967Y-13594598D02*
X15546491Y-13613646D01*
X15546491Y-13613646D02*
X15556015Y-13623169D01*
X15556015Y-13623169D02*
X15575062Y-13632693D01*
X15575062Y-13632693D02*
X15613158Y-13632693D01*
X15613158Y-13632693D02*
X15632205Y-13623169D01*
X15632205Y-13623169D02*
X15641729Y-13613646D01*
X15641729Y-13613646D02*
X15651253Y-13594598D01*
X15832205Y-13508884D02*
X15736967Y-13508884D01*
X15736967Y-13508884D02*
X15727443Y-13604122D01*
X15727443Y-13604122D02*
X15736967Y-13594598D01*
X15736967Y-13594598D02*
X15756015Y-13585074D01*
X15756015Y-13585074D02*
X15803634Y-13585074D01*
X15803634Y-13585074D02*
X15822682Y-13594598D01*
X15822682Y-13594598D02*
X15832205Y-13604122D01*
X15832205Y-13604122D02*
X15841729Y-13623169D01*
X15841729Y-13623169D02*
X15841729Y-13670788D01*
X15841729Y-13670788D02*
X15832205Y-13689836D01*
X15832205Y-13689836D02*
X15822682Y-13699360D01*
X15822682Y-13699360D02*
X15803634Y-13708884D01*
X15803634Y-13708884D02*
X15756015Y-13708884D01*
X15756015Y-13708884D02*
X15736967Y-13699360D01*
X15736967Y-13699360D02*
X15727443Y-13689836D01*
X15965539Y-13508884D02*
X15984586Y-13508884D01*
X15984586Y-13508884D02*
X16003634Y-13518408D01*
X16003634Y-13518408D02*
X16013158Y-13527931D01*
X16013158Y-13527931D02*
X16022682Y-13546979D01*
X16022682Y-13546979D02*
X16032205Y-13585074D01*
X16032205Y-13585074D02*
X16032205Y-13632693D01*
X16032205Y-13632693D02*
X16022682Y-13670788D01*
X16022682Y-13670788D02*
X16013158Y-13689836D01*
X16013158Y-13689836D02*
X16003634Y-13699360D01*
X16003634Y-13699360D02*
X15984586Y-13708884D01*
X15984586Y-13708884D02*
X15965539Y-13708884D01*
X15965539Y-13708884D02*
X15946491Y-13699360D01*
X15946491Y-13699360D02*
X15936967Y-13689836D01*
X15936967Y-13689836D02*
X15927443Y-13670788D01*
X15927443Y-13670788D02*
X15917920Y-13632693D01*
X15917920Y-13632693D02*
X15917920Y-13585074D01*
X15917920Y-13585074D02*
X15927443Y-13546979D01*
X15927443Y-13546979D02*
X15936967Y-13527931D01*
X15936967Y-13527931D02*
X15946491Y-13518408D01*
X15946491Y-13518408D02*
X15965539Y-13508884D01*
X16117920Y-13708884D02*
X16117920Y-13575550D01*
X16117920Y-13594598D02*
X16127443Y-13585074D01*
X16127443Y-13585074D02*
X16146491Y-13575550D01*
X16146491Y-13575550D02*
X16175063Y-13575550D01*
X16175063Y-13575550D02*
X16194110Y-13585074D01*
X16194110Y-13585074D02*
X16203634Y-13604122D01*
X16203634Y-13604122D02*
X16203634Y-13708884D01*
X16203634Y-13604122D02*
X16213158Y-13585074D01*
X16213158Y-13585074D02*
X16232205Y-13575550D01*
X16232205Y-13575550D02*
X16260777Y-13575550D01*
X16260777Y-13575550D02*
X16279824Y-13585074D01*
X16279824Y-13585074D02*
X16289348Y-13604122D01*
X16289348Y-13604122D02*
X16289348Y-13708884D01*
X16384586Y-13708884D02*
X16384586Y-13575550D01*
X16384586Y-13594598D02*
X16394110Y-13585074D01*
X16394110Y-13585074D02*
X16413158Y-13575550D01*
X16413158Y-13575550D02*
X16441729Y-13575550D01*
X16441729Y-13575550D02*
X16460777Y-13585074D01*
X16460777Y-13585074D02*
X16470301Y-13604122D01*
X16470301Y-13604122D02*
X16470301Y-13708884D01*
X16470301Y-13604122D02*
X16479824Y-13585074D01*
X16479824Y-13585074D02*
X16498872Y-13575550D01*
X16498872Y-13575550D02*
X16527443Y-13575550D01*
X16527443Y-13575550D02*
X16546491Y-13585074D01*
X16546491Y-13585074D02*
X16556015Y-13604122D01*
X16556015Y-13604122D02*
X16556015Y-13708884D01*
X16946491Y-13499360D02*
X16775063Y-13756503D01*
X17203634Y-13508884D02*
X17222682Y-13508884D01*
X17222682Y-13508884D02*
X17241729Y-13518408D01*
X17241729Y-13518408D02*
X17251253Y-13527931D01*
X17251253Y-13527931D02*
X17260777Y-13546979D01*
X17260777Y-13546979D02*
X17270301Y-13585074D01*
X17270301Y-13585074D02*
X17270301Y-13632693D01*
X17270301Y-13632693D02*
X17260777Y-13670788D01*
X17260777Y-13670788D02*
X17251253Y-13689836D01*
X17251253Y-13689836D02*
X17241729Y-13699360D01*
X17241729Y-13699360D02*
X17222682Y-13708884D01*
X17222682Y-13708884D02*
X17203634Y-13708884D01*
X17203634Y-13708884D02*
X17184587Y-13699360D01*
X17184587Y-13699360D02*
X17175063Y-13689836D01*
X17175063Y-13689836D02*
X17165539Y-13670788D01*
X17165539Y-13670788D02*
X17156015Y-13632693D01*
X17156015Y-13632693D02*
X17156015Y-13585074D01*
X17156015Y-13585074D02*
X17165539Y-13546979D01*
X17165539Y-13546979D02*
X17175063Y-13527931D01*
X17175063Y-13527931D02*
X17184587Y-13518408D01*
X17184587Y-13518408D02*
X17203634Y-13508884D01*
X17356015Y-13689836D02*
X17365539Y-13699360D01*
X17365539Y-13699360D02*
X17356015Y-13708884D01*
X17356015Y-13708884D02*
X17346491Y-13699360D01*
X17346491Y-13699360D02*
X17356015Y-13689836D01*
X17356015Y-13689836D02*
X17356015Y-13708884D01*
X17489348Y-13508884D02*
X17508396Y-13508884D01*
X17508396Y-13508884D02*
X17527444Y-13518408D01*
X17527444Y-13518408D02*
X17536968Y-13527931D01*
X17536968Y-13527931D02*
X17546491Y-13546979D01*
X17546491Y-13546979D02*
X17556015Y-13585074D01*
X17556015Y-13585074D02*
X17556015Y-13632693D01*
X17556015Y-13632693D02*
X17546491Y-13670788D01*
X17546491Y-13670788D02*
X17536968Y-13689836D01*
X17536968Y-13689836D02*
X17527444Y-13699360D01*
X17527444Y-13699360D02*
X17508396Y-13708884D01*
X17508396Y-13708884D02*
X17489348Y-13708884D01*
X17489348Y-13708884D02*
X17470301Y-13699360D01*
X17470301Y-13699360D02*
X17460777Y-13689836D01*
X17460777Y-13689836D02*
X17451253Y-13670788D01*
X17451253Y-13670788D02*
X17441729Y-13632693D01*
X17441729Y-13632693D02*
X17441729Y-13585074D01*
X17441729Y-13585074D02*
X17451253Y-13546979D01*
X17451253Y-13546979D02*
X17460777Y-13527931D01*
X17460777Y-13527931D02*
X17470301Y-13518408D01*
X17470301Y-13518408D02*
X17489348Y-13508884D01*
X17622682Y-13508884D02*
X17746491Y-13508884D01*
X17746491Y-13508884D02*
X17679825Y-13585074D01*
X17679825Y-13585074D02*
X17708396Y-13585074D01*
X17708396Y-13585074D02*
X17727444Y-13594598D01*
X17727444Y-13594598D02*
X17736968Y-13604122D01*
X17736968Y-13604122D02*
X17746491Y-13623169D01*
X17746491Y-13623169D02*
X17746491Y-13670788D01*
X17746491Y-13670788D02*
X17736968Y-13689836D01*
X17736968Y-13689836D02*
X17727444Y-13699360D01*
X17727444Y-13699360D02*
X17708396Y-13708884D01*
X17708396Y-13708884D02*
X17651253Y-13708884D01*
X17651253Y-13708884D02*
X17632206Y-13699360D01*
X17632206Y-13699360D02*
X17622682Y-13689836D01*
X17813158Y-13508884D02*
X17946491Y-13508884D01*
X17946491Y-13508884D02*
X17860777Y-13708884D01*
X18108396Y-13575550D02*
X18108396Y-13708884D01*
X18060777Y-13499360D02*
X18013158Y-13642217D01*
X18013158Y-13642217D02*
X18136968Y-13642217D01*
X18203634Y-13508884D02*
X18203634Y-13546979D01*
X18279825Y-13508884D02*
X18279825Y-13546979D01*
X18575063Y-13785074D02*
X18565539Y-13775550D01*
X18565539Y-13775550D02*
X18546491Y-13746979D01*
X18546491Y-13746979D02*
X18536968Y-13727931D01*
X18536968Y-13727931D02*
X18527444Y-13699360D01*
X18527444Y-13699360D02*
X18517920Y-13651741D01*
X18517920Y-13651741D02*
X18517920Y-13613646D01*
X18517920Y-13613646D02*
X18527444Y-13566027D01*
X18527444Y-13566027D02*
X18536968Y-13537455D01*
X18536968Y-13537455D02*
X18546491Y-13518408D01*
X18546491Y-13518408D02*
X18565539Y-13489836D01*
X18565539Y-13489836D02*
X18575063Y-13480312D01*
X18632206Y-13508884D02*
X18756015Y-13508884D01*
X18756015Y-13508884D02*
X18689349Y-13585074D01*
X18689349Y-13585074D02*
X18717920Y-13585074D01*
X18717920Y-13585074D02*
X18736968Y-13594598D01*
X18736968Y-13594598D02*
X18746491Y-13604122D01*
X18746491Y-13604122D02*
X18756015Y-13623169D01*
X18756015Y-13623169D02*
X18756015Y-13670788D01*
X18756015Y-13670788D02*
X18746491Y-13689836D01*
X18746491Y-13689836D02*
X18736968Y-13699360D01*
X18736968Y-13699360D02*
X18717920Y-13708884D01*
X18717920Y-13708884D02*
X18660777Y-13708884D01*
X18660777Y-13708884D02*
X18641730Y-13699360D01*
X18641730Y-13699360D02*
X18632206Y-13689836D01*
X18994111Y-13708884D02*
X18994111Y-13508884D01*
X19079825Y-13708884D02*
X19079825Y-13604122D01*
X19079825Y-13604122D02*
X19070301Y-13585074D01*
X19070301Y-13585074D02*
X19051253Y-13575550D01*
X19051253Y-13575550D02*
X19022682Y-13575550D01*
X19022682Y-13575550D02*
X19003634Y-13585074D01*
X19003634Y-13585074D02*
X18994111Y-13594598D01*
X19203634Y-13708884D02*
X19184587Y-13699360D01*
X19184587Y-13699360D02*
X19175063Y-13689836D01*
X19175063Y-13689836D02*
X19165539Y-13670788D01*
X19165539Y-13670788D02*
X19165539Y-13613646D01*
X19165539Y-13613646D02*
X19175063Y-13594598D01*
X19175063Y-13594598D02*
X19184587Y-13585074D01*
X19184587Y-13585074D02*
X19203634Y-13575550D01*
X19203634Y-13575550D02*
X19232206Y-13575550D01*
X19232206Y-13575550D02*
X19251253Y-13585074D01*
X19251253Y-13585074D02*
X19260777Y-13594598D01*
X19260777Y-13594598D02*
X19270301Y-13613646D01*
X19270301Y-13613646D02*
X19270301Y-13670788D01*
X19270301Y-13670788D02*
X19260777Y-13689836D01*
X19260777Y-13689836D02*
X19251253Y-13699360D01*
X19251253Y-13699360D02*
X19232206Y-13708884D01*
X19232206Y-13708884D02*
X19203634Y-13708884D01*
X19384587Y-13708884D02*
X19365539Y-13699360D01*
X19365539Y-13699360D02*
X19356015Y-13680312D01*
X19356015Y-13680312D02*
X19356015Y-13508884D01*
X19536968Y-13699360D02*
X19517920Y-13708884D01*
X19517920Y-13708884D02*
X19479825Y-13708884D01*
X19479825Y-13708884D02*
X19460777Y-13699360D01*
X19460777Y-13699360D02*
X19451253Y-13680312D01*
X19451253Y-13680312D02*
X19451253Y-13604122D01*
X19451253Y-13604122D02*
X19460777Y-13585074D01*
X19460777Y-13585074D02*
X19479825Y-13575550D01*
X19479825Y-13575550D02*
X19517920Y-13575550D01*
X19517920Y-13575550D02*
X19536968Y-13585074D01*
X19536968Y-13585074D02*
X19546492Y-13604122D01*
X19546492Y-13604122D02*
X19546492Y-13623169D01*
X19546492Y-13623169D02*
X19451253Y-13642217D01*
X19622682Y-13699360D02*
X19641730Y-13708884D01*
X19641730Y-13708884D02*
X19679825Y-13708884D01*
X19679825Y-13708884D02*
X19698873Y-13699360D01*
X19698873Y-13699360D02*
X19708396Y-13680312D01*
X19708396Y-13680312D02*
X19708396Y-13670788D01*
X19708396Y-13670788D02*
X19698873Y-13651741D01*
X19698873Y-13651741D02*
X19679825Y-13642217D01*
X19679825Y-13642217D02*
X19651253Y-13642217D01*
X19651253Y-13642217D02*
X19632206Y-13632693D01*
X19632206Y-13632693D02*
X19622682Y-13613646D01*
X19622682Y-13613646D02*
X19622682Y-13604122D01*
X19622682Y-13604122D02*
X19632206Y-13585074D01*
X19632206Y-13585074D02*
X19651253Y-13575550D01*
X19651253Y-13575550D02*
X19679825Y-13575550D01*
X19679825Y-13575550D02*
X19698873Y-13585074D01*
X19775063Y-13785074D02*
X19784587Y-13775550D01*
X19784587Y-13775550D02*
X19803634Y-13746979D01*
X19803634Y-13746979D02*
X19813158Y-13727931D01*
X19813158Y-13727931D02*
X19822682Y-13699360D01*
X19822682Y-13699360D02*
X19832206Y-13651741D01*
X19832206Y-13651741D02*
X19832206Y-13613646D01*
X19832206Y-13613646D02*
X19822682Y-13566027D01*
X19822682Y-13566027D02*
X19813158Y-13537455D01*
X19813158Y-13537455D02*
X19803634Y-13518408D01*
X19803634Y-13518408D02*
X19784587Y-13489836D01*
X19784587Y-13489836D02*
X19775063Y-13480312D01*
X14900000Y-13781400D02*
X14900000Y-13981400D01*
X14800000Y-13881400D02*
X15000000Y-13881400D01*
X15241729Y-13772884D02*
X15365539Y-13772884D01*
X15365539Y-13772884D02*
X15298872Y-13849074D01*
X15298872Y-13849074D02*
X15327443Y-13849074D01*
X15327443Y-13849074D02*
X15346491Y-13858598D01*
X15346491Y-13858598D02*
X15356015Y-13868122D01*
X15356015Y-13868122D02*
X15365539Y-13887169D01*
X15365539Y-13887169D02*
X15365539Y-13934788D01*
X15365539Y-13934788D02*
X15356015Y-13953836D01*
X15356015Y-13953836D02*
X15346491Y-13963360D01*
X15346491Y-13963360D02*
X15327443Y-13972884D01*
X15327443Y-13972884D02*
X15270301Y-13972884D01*
X15270301Y-13972884D02*
X15251253Y-13963360D01*
X15251253Y-13963360D02*
X15241729Y-13953836D01*
X15451253Y-13953836D02*
X15460777Y-13963360D01*
X15460777Y-13963360D02*
X15451253Y-13972884D01*
X15451253Y-13972884D02*
X15441729Y-13963360D01*
X15441729Y-13963360D02*
X15451253Y-13953836D01*
X15451253Y-13953836D02*
X15451253Y-13972884D01*
X15536967Y-13791931D02*
X15546491Y-13782408D01*
X15546491Y-13782408D02*
X15565539Y-13772884D01*
X15565539Y-13772884D02*
X15613158Y-13772884D01*
X15613158Y-13772884D02*
X15632205Y-13782408D01*
X15632205Y-13782408D02*
X15641729Y-13791931D01*
X15641729Y-13791931D02*
X15651253Y-13810979D01*
X15651253Y-13810979D02*
X15651253Y-13830027D01*
X15651253Y-13830027D02*
X15641729Y-13858598D01*
X15641729Y-13858598D02*
X15527443Y-13972884D01*
X15527443Y-13972884D02*
X15651253Y-13972884D01*
X15775062Y-13772884D02*
X15794110Y-13772884D01*
X15794110Y-13772884D02*
X15813158Y-13782408D01*
X15813158Y-13782408D02*
X15822682Y-13791931D01*
X15822682Y-13791931D02*
X15832205Y-13810979D01*
X15832205Y-13810979D02*
X15841729Y-13849074D01*
X15841729Y-13849074D02*
X15841729Y-13896693D01*
X15841729Y-13896693D02*
X15832205Y-13934788D01*
X15832205Y-13934788D02*
X15822682Y-13953836D01*
X15822682Y-13953836D02*
X15813158Y-13963360D01*
X15813158Y-13963360D02*
X15794110Y-13972884D01*
X15794110Y-13972884D02*
X15775062Y-13972884D01*
X15775062Y-13972884D02*
X15756015Y-13963360D01*
X15756015Y-13963360D02*
X15746491Y-13953836D01*
X15746491Y-13953836D02*
X15736967Y-13934788D01*
X15736967Y-13934788D02*
X15727443Y-13896693D01*
X15727443Y-13896693D02*
X15727443Y-13849074D01*
X15727443Y-13849074D02*
X15736967Y-13810979D01*
X15736967Y-13810979D02*
X15746491Y-13791931D01*
X15746491Y-13791931D02*
X15756015Y-13782408D01*
X15756015Y-13782408D02*
X15775062Y-13772884D01*
X15965539Y-13772884D02*
X15984586Y-13772884D01*
X15984586Y-13772884D02*
X16003634Y-13782408D01*
X16003634Y-13782408D02*
X16013158Y-13791931D01*
X16013158Y-13791931D02*
X16022682Y-13810979D01*
X16022682Y-13810979D02*
X16032205Y-13849074D01*
X16032205Y-13849074D02*
X16032205Y-13896693D01*
X16032205Y-13896693D02*
X16022682Y-13934788D01*
X16022682Y-13934788D02*
X16013158Y-13953836D01*
X16013158Y-13953836D02*
X16003634Y-13963360D01*
X16003634Y-13963360D02*
X15984586Y-13972884D01*
X15984586Y-13972884D02*
X15965539Y-13972884D01*
X15965539Y-13972884D02*
X15946491Y-13963360D01*
X15946491Y-13963360D02*
X15936967Y-13953836D01*
X15936967Y-13953836D02*
X15927443Y-13934788D01*
X15927443Y-13934788D02*
X15917920Y-13896693D01*
X15917920Y-13896693D02*
X15917920Y-13849074D01*
X15917920Y-13849074D02*
X15927443Y-13810979D01*
X15927443Y-13810979D02*
X15936967Y-13791931D01*
X15936967Y-13791931D02*
X15946491Y-13782408D01*
X15946491Y-13782408D02*
X15965539Y-13772884D01*
X16117920Y-13972884D02*
X16117920Y-13839550D01*
X16117920Y-13858598D02*
X16127443Y-13849074D01*
X16127443Y-13849074D02*
X16146491Y-13839550D01*
X16146491Y-13839550D02*
X16175063Y-13839550D01*
X16175063Y-13839550D02*
X16194110Y-13849074D01*
X16194110Y-13849074D02*
X16203634Y-13868122D01*
X16203634Y-13868122D02*
X16203634Y-13972884D01*
X16203634Y-13868122D02*
X16213158Y-13849074D01*
X16213158Y-13849074D02*
X16232205Y-13839550D01*
X16232205Y-13839550D02*
X16260777Y-13839550D01*
X16260777Y-13839550D02*
X16279824Y-13849074D01*
X16279824Y-13849074D02*
X16289348Y-13868122D01*
X16289348Y-13868122D02*
X16289348Y-13972884D01*
X16384586Y-13972884D02*
X16384586Y-13839550D01*
X16384586Y-13858598D02*
X16394110Y-13849074D01*
X16394110Y-13849074D02*
X16413158Y-13839550D01*
X16413158Y-13839550D02*
X16441729Y-13839550D01*
X16441729Y-13839550D02*
X16460777Y-13849074D01*
X16460777Y-13849074D02*
X16470301Y-13868122D01*
X16470301Y-13868122D02*
X16470301Y-13972884D01*
X16470301Y-13868122D02*
X16479824Y-13849074D01*
X16479824Y-13849074D02*
X16498872Y-13839550D01*
X16498872Y-13839550D02*
X16527443Y-13839550D01*
X16527443Y-13839550D02*
X16546491Y-13849074D01*
X16546491Y-13849074D02*
X16556015Y-13868122D01*
X16556015Y-13868122D02*
X16556015Y-13972884D01*
X16946491Y-13763360D02*
X16775063Y-14020503D01*
X17203634Y-13772884D02*
X17222682Y-13772884D01*
X17222682Y-13772884D02*
X17241729Y-13782408D01*
X17241729Y-13782408D02*
X17251253Y-13791931D01*
X17251253Y-13791931D02*
X17260777Y-13810979D01*
X17260777Y-13810979D02*
X17270301Y-13849074D01*
X17270301Y-13849074D02*
X17270301Y-13896693D01*
X17270301Y-13896693D02*
X17260777Y-13934788D01*
X17260777Y-13934788D02*
X17251253Y-13953836D01*
X17251253Y-13953836D02*
X17241729Y-13963360D01*
X17241729Y-13963360D02*
X17222682Y-13972884D01*
X17222682Y-13972884D02*
X17203634Y-13972884D01*
X17203634Y-13972884D02*
X17184587Y-13963360D01*
X17184587Y-13963360D02*
X17175063Y-13953836D01*
X17175063Y-13953836D02*
X17165539Y-13934788D01*
X17165539Y-13934788D02*
X17156015Y-13896693D01*
X17156015Y-13896693D02*
X17156015Y-13849074D01*
X17156015Y-13849074D02*
X17165539Y-13810979D01*
X17165539Y-13810979D02*
X17175063Y-13791931D01*
X17175063Y-13791931D02*
X17184587Y-13782408D01*
X17184587Y-13782408D02*
X17203634Y-13772884D01*
X17356015Y-13953836D02*
X17365539Y-13963360D01*
X17365539Y-13963360D02*
X17356015Y-13972884D01*
X17356015Y-13972884D02*
X17346491Y-13963360D01*
X17346491Y-13963360D02*
X17356015Y-13953836D01*
X17356015Y-13953836D02*
X17356015Y-13972884D01*
X17556015Y-13972884D02*
X17441729Y-13972884D01*
X17498872Y-13972884D02*
X17498872Y-13772884D01*
X17498872Y-13772884D02*
X17479825Y-13801455D01*
X17479825Y-13801455D02*
X17460777Y-13820503D01*
X17460777Y-13820503D02*
X17441729Y-13830027D01*
X17632206Y-13791931D02*
X17641729Y-13782408D01*
X17641729Y-13782408D02*
X17660777Y-13772884D01*
X17660777Y-13772884D02*
X17708396Y-13772884D01*
X17708396Y-13772884D02*
X17727444Y-13782408D01*
X17727444Y-13782408D02*
X17736968Y-13791931D01*
X17736968Y-13791931D02*
X17746491Y-13810979D01*
X17746491Y-13810979D02*
X17746491Y-13830027D01*
X17746491Y-13830027D02*
X17736968Y-13858598D01*
X17736968Y-13858598D02*
X17622682Y-13972884D01*
X17622682Y-13972884D02*
X17746491Y-13972884D01*
X17917920Y-13772884D02*
X17879825Y-13772884D01*
X17879825Y-13772884D02*
X17860777Y-13782408D01*
X17860777Y-13782408D02*
X17851253Y-13791931D01*
X17851253Y-13791931D02*
X17832206Y-13820503D01*
X17832206Y-13820503D02*
X17822682Y-13858598D01*
X17822682Y-13858598D02*
X17822682Y-13934788D01*
X17822682Y-13934788D02*
X17832206Y-13953836D01*
X17832206Y-13953836D02*
X17841729Y-13963360D01*
X17841729Y-13963360D02*
X17860777Y-13972884D01*
X17860777Y-13972884D02*
X17898872Y-13972884D01*
X17898872Y-13972884D02*
X17917920Y-13963360D01*
X17917920Y-13963360D02*
X17927444Y-13953836D01*
X17927444Y-13953836D02*
X17936968Y-13934788D01*
X17936968Y-13934788D02*
X17936968Y-13887169D01*
X17936968Y-13887169D02*
X17927444Y-13868122D01*
X17927444Y-13868122D02*
X17917920Y-13858598D01*
X17917920Y-13858598D02*
X17898872Y-13849074D01*
X17898872Y-13849074D02*
X17860777Y-13849074D01*
X17860777Y-13849074D02*
X17841729Y-13858598D01*
X17841729Y-13858598D02*
X17832206Y-13868122D01*
X17832206Y-13868122D02*
X17822682Y-13887169D01*
X18060777Y-13772884D02*
X18079825Y-13772884D01*
X18079825Y-13772884D02*
X18098872Y-13782408D01*
X18098872Y-13782408D02*
X18108396Y-13791931D01*
X18108396Y-13791931D02*
X18117920Y-13810979D01*
X18117920Y-13810979D02*
X18127444Y-13849074D01*
X18127444Y-13849074D02*
X18127444Y-13896693D01*
X18127444Y-13896693D02*
X18117920Y-13934788D01*
X18117920Y-13934788D02*
X18108396Y-13953836D01*
X18108396Y-13953836D02*
X18098872Y-13963360D01*
X18098872Y-13963360D02*
X18079825Y-13972884D01*
X18079825Y-13972884D02*
X18060777Y-13972884D01*
X18060777Y-13972884D02*
X18041729Y-13963360D01*
X18041729Y-13963360D02*
X18032206Y-13953836D01*
X18032206Y-13953836D02*
X18022682Y-13934788D01*
X18022682Y-13934788D02*
X18013158Y-13896693D01*
X18013158Y-13896693D02*
X18013158Y-13849074D01*
X18013158Y-13849074D02*
X18022682Y-13810979D01*
X18022682Y-13810979D02*
X18032206Y-13791931D01*
X18032206Y-13791931D02*
X18041729Y-13782408D01*
X18041729Y-13782408D02*
X18060777Y-13772884D01*
X18203634Y-13772884D02*
X18203634Y-13810979D01*
X18279825Y-13772884D02*
X18279825Y-13810979D01*
X18575063Y-14049074D02*
X18565539Y-14039550D01*
X18565539Y-14039550D02*
X18546491Y-14010979D01*
X18546491Y-14010979D02*
X18536968Y-13991931D01*
X18536968Y-13991931D02*
X18527444Y-13963360D01*
X18527444Y-13963360D02*
X18517920Y-13915741D01*
X18517920Y-13915741D02*
X18517920Y-13877646D01*
X18517920Y-13877646D02*
X18527444Y-13830027D01*
X18527444Y-13830027D02*
X18536968Y-13801455D01*
X18536968Y-13801455D02*
X18546491Y-13782408D01*
X18546491Y-13782408D02*
X18565539Y-13753836D01*
X18565539Y-13753836D02*
X18575063Y-13744312D01*
X18641730Y-13791931D02*
X18651253Y-13782408D01*
X18651253Y-13782408D02*
X18670301Y-13772884D01*
X18670301Y-13772884D02*
X18717920Y-13772884D01*
X18717920Y-13772884D02*
X18736968Y-13782408D01*
X18736968Y-13782408D02*
X18746491Y-13791931D01*
X18746491Y-13791931D02*
X18756015Y-13810979D01*
X18756015Y-13810979D02*
X18756015Y-13830027D01*
X18756015Y-13830027D02*
X18746491Y-13858598D01*
X18746491Y-13858598D02*
X18632206Y-13972884D01*
X18632206Y-13972884D02*
X18756015Y-13972884D01*
X18994111Y-13972884D02*
X18994111Y-13772884D01*
X19079825Y-13972884D02*
X19079825Y-13868122D01*
X19079825Y-13868122D02*
X19070301Y-13849074D01*
X19070301Y-13849074D02*
X19051253Y-13839550D01*
X19051253Y-13839550D02*
X19022682Y-13839550D01*
X19022682Y-13839550D02*
X19003634Y-13849074D01*
X19003634Y-13849074D02*
X18994111Y-13858598D01*
X19203634Y-13972884D02*
X19184587Y-13963360D01*
X19184587Y-13963360D02*
X19175063Y-13953836D01*
X19175063Y-13953836D02*
X19165539Y-13934788D01*
X19165539Y-13934788D02*
X19165539Y-13877646D01*
X19165539Y-13877646D02*
X19175063Y-13858598D01*
X19175063Y-13858598D02*
X19184587Y-13849074D01*
X19184587Y-13849074D02*
X19203634Y-13839550D01*
X19203634Y-13839550D02*
X19232206Y-13839550D01*
X19232206Y-13839550D02*
X19251253Y-13849074D01*
X19251253Y-13849074D02*
X19260777Y-13858598D01*
X19260777Y-13858598D02*
X19270301Y-13877646D01*
X19270301Y-13877646D02*
X19270301Y-13934788D01*
X19270301Y-13934788D02*
X19260777Y-13953836D01*
X19260777Y-13953836D02*
X19251253Y-13963360D01*
X19251253Y-13963360D02*
X19232206Y-13972884D01*
X19232206Y-13972884D02*
X19203634Y-13972884D01*
X19384587Y-13972884D02*
X19365539Y-13963360D01*
X19365539Y-13963360D02*
X19356015Y-13944312D01*
X19356015Y-13944312D02*
X19356015Y-13772884D01*
X19536968Y-13963360D02*
X19517920Y-13972884D01*
X19517920Y-13972884D02*
X19479825Y-13972884D01*
X19479825Y-13972884D02*
X19460777Y-13963360D01*
X19460777Y-13963360D02*
X19451253Y-13944312D01*
X19451253Y-13944312D02*
X19451253Y-13868122D01*
X19451253Y-13868122D02*
X19460777Y-13849074D01*
X19460777Y-13849074D02*
X19479825Y-13839550D01*
X19479825Y-13839550D02*
X19517920Y-13839550D01*
X19517920Y-13839550D02*
X19536968Y-13849074D01*
X19536968Y-13849074D02*
X19546492Y-13868122D01*
X19546492Y-13868122D02*
X19546492Y-13887169D01*
X19546492Y-13887169D02*
X19451253Y-13906217D01*
X19622682Y-13963360D02*
X19641730Y-13972884D01*
X19641730Y-13972884D02*
X19679825Y-13972884D01*
X19679825Y-13972884D02*
X19698873Y-13963360D01*
X19698873Y-13963360D02*
X19708396Y-13944312D01*
X19708396Y-13944312D02*
X19708396Y-13934788D01*
X19708396Y-13934788D02*
X19698873Y-13915741D01*
X19698873Y-13915741D02*
X19679825Y-13906217D01*
X19679825Y-13906217D02*
X19651253Y-13906217D01*
X19651253Y-13906217D02*
X19632206Y-13896693D01*
X19632206Y-13896693D02*
X19622682Y-13877646D01*
X19622682Y-13877646D02*
X19622682Y-13868122D01*
X19622682Y-13868122D02*
X19632206Y-13849074D01*
X19632206Y-13849074D02*
X19651253Y-13839550D01*
X19651253Y-13839550D02*
X19679825Y-13839550D01*
X19679825Y-13839550D02*
X19698873Y-13849074D01*
X19775063Y-14049074D02*
X19784587Y-14039550D01*
X19784587Y-14039550D02*
X19803634Y-14010979D01*
X19803634Y-14010979D02*
X19813158Y-13991931D01*
X19813158Y-13991931D02*
X19822682Y-13963360D01*
X19822682Y-13963360D02*
X19832206Y-13915741D01*
X19832206Y-13915741D02*
X19832206Y-13877646D01*
X19832206Y-13877646D02*
X19822682Y-13830027D01*
X19822682Y-13830027D02*
X19813158Y-13801455D01*
X19813158Y-13801455D02*
X19803634Y-13782408D01*
X19803634Y-13782408D02*
X19784587Y-13753836D01*
X19784587Y-13753836D02*
X19775063Y-13744312D01*
M02*
