%TF.GenerationSoftware,KiCad,Pcbnew,8.0.2*%
%TF.CreationDate,2024-05-21T16:28:02-04:00*%
%TF.ProjectId,Nichrome,4e696368-726f-46d6-952e-6b696361645f,rev?*%
%TF.SameCoordinates,Original*%
%TF.FileFunction,Drillmap*%
%TF.FilePolarity,Positive*%
%FSLAX45Y45*%
G04 Gerber Fmt 4.5, Leading zero omitted, Abs format (unit mm)*
G04 Created by KiCad (PCBNEW 8.0.2) date 2024-05-21 16:28:02*
%MOMM*%
%LPD*%
G01*
G04 APERTURE LIST*
%ADD10C,0.200000*%
%ADD11C,0.320000*%
G04 APERTURE END LIST*
D10*
X17910000Y-10970000D02*
X15010000Y-10970000D01*
X16650000Y-12703400D02*
X17907000Y-12700000D01*
X16650000Y-11750000D02*
X16650000Y-12703400D01*
X17907000Y-12700000D02*
X17910000Y-10970000D01*
X15010000Y-11747000D02*
X15010000Y-10970000D01*
X15010000Y-11747000D02*
X16650000Y-11750000D01*
D11*
X15200000Y-11160000D02*
X15520000Y-11480000D01*
X15520000Y-11160000D02*
X15200000Y-11480000D01*
X17400000Y-11160000D02*
X17720000Y-11480000D01*
X17720000Y-11160000D02*
X17400000Y-11480000D01*
D10*
X15260777Y-13024884D02*
X15260777Y-12824884D01*
X15260777Y-12824884D02*
X15308396Y-12824884D01*
X15308396Y-12824884D02*
X15336967Y-12834408D01*
X15336967Y-12834408D02*
X15356015Y-12853455D01*
X15356015Y-12853455D02*
X15365539Y-12872503D01*
X15365539Y-12872503D02*
X15375062Y-12910598D01*
X15375062Y-12910598D02*
X15375062Y-12939169D01*
X15375062Y-12939169D02*
X15365539Y-12977265D01*
X15365539Y-12977265D02*
X15356015Y-12996312D01*
X15356015Y-12996312D02*
X15336967Y-13015360D01*
X15336967Y-13015360D02*
X15308396Y-13024884D01*
X15308396Y-13024884D02*
X15260777Y-13024884D01*
X15460777Y-13024884D02*
X15460777Y-12891550D01*
X15460777Y-12929646D02*
X15470301Y-12910598D01*
X15470301Y-12910598D02*
X15479824Y-12901074D01*
X15479824Y-12901074D02*
X15498872Y-12891550D01*
X15498872Y-12891550D02*
X15517920Y-12891550D01*
X15584586Y-13024884D02*
X15584586Y-12891550D01*
X15584586Y-12824884D02*
X15575062Y-12834408D01*
X15575062Y-12834408D02*
X15584586Y-12843931D01*
X15584586Y-12843931D02*
X15594110Y-12834408D01*
X15594110Y-12834408D02*
X15584586Y-12824884D01*
X15584586Y-12824884D02*
X15584586Y-12843931D01*
X15708396Y-13024884D02*
X15689348Y-13015360D01*
X15689348Y-13015360D02*
X15679824Y-12996312D01*
X15679824Y-12996312D02*
X15679824Y-12824884D01*
X15813158Y-13024884D02*
X15794110Y-13015360D01*
X15794110Y-13015360D02*
X15784586Y-12996312D01*
X15784586Y-12996312D02*
X15784586Y-12824884D01*
X16041729Y-13024884D02*
X16041729Y-12824884D01*
X16041729Y-12824884D02*
X16108396Y-12967741D01*
X16108396Y-12967741D02*
X16175062Y-12824884D01*
X16175062Y-12824884D02*
X16175062Y-13024884D01*
X16356015Y-13024884D02*
X16356015Y-12920122D01*
X16356015Y-12920122D02*
X16346491Y-12901074D01*
X16346491Y-12901074D02*
X16327443Y-12891550D01*
X16327443Y-12891550D02*
X16289348Y-12891550D01*
X16289348Y-12891550D02*
X16270301Y-12901074D01*
X16356015Y-13015360D02*
X16336967Y-13024884D01*
X16336967Y-13024884D02*
X16289348Y-13024884D01*
X16289348Y-13024884D02*
X16270301Y-13015360D01*
X16270301Y-13015360D02*
X16260777Y-12996312D01*
X16260777Y-12996312D02*
X16260777Y-12977265D01*
X16260777Y-12977265D02*
X16270301Y-12958217D01*
X16270301Y-12958217D02*
X16289348Y-12948693D01*
X16289348Y-12948693D02*
X16336967Y-12948693D01*
X16336967Y-12948693D02*
X16356015Y-12939169D01*
X16451253Y-12891550D02*
X16451253Y-13091550D01*
X16451253Y-12901074D02*
X16470301Y-12891550D01*
X16470301Y-12891550D02*
X16508396Y-12891550D01*
X16508396Y-12891550D02*
X16527443Y-12901074D01*
X16527443Y-12901074D02*
X16536967Y-12910598D01*
X16536967Y-12910598D02*
X16546491Y-12929646D01*
X16546491Y-12929646D02*
X16546491Y-12986788D01*
X16546491Y-12986788D02*
X16536967Y-13005836D01*
X16536967Y-13005836D02*
X16527443Y-13015360D01*
X16527443Y-13015360D02*
X16508396Y-13024884D01*
X16508396Y-13024884D02*
X16470301Y-13024884D01*
X16470301Y-13024884D02*
X16451253Y-13015360D01*
X16632205Y-13005836D02*
X16641729Y-13015360D01*
X16641729Y-13015360D02*
X16632205Y-13024884D01*
X16632205Y-13024884D02*
X16622682Y-13015360D01*
X16622682Y-13015360D02*
X16632205Y-13005836D01*
X16632205Y-13005836D02*
X16632205Y-13024884D01*
X16632205Y-12901074D02*
X16641729Y-12910598D01*
X16641729Y-12910598D02*
X16632205Y-12920122D01*
X16632205Y-12920122D02*
X16622682Y-12910598D01*
X16622682Y-12910598D02*
X16632205Y-12901074D01*
X16632205Y-12901074D02*
X16632205Y-12920122D01*
X14800000Y-13253400D02*
X15000000Y-13453400D01*
X15000000Y-13253400D02*
X14800000Y-13453400D01*
X15241729Y-13244884D02*
X15365539Y-13244884D01*
X15365539Y-13244884D02*
X15298872Y-13321074D01*
X15298872Y-13321074D02*
X15327443Y-13321074D01*
X15327443Y-13321074D02*
X15346491Y-13330598D01*
X15346491Y-13330598D02*
X15356015Y-13340122D01*
X15356015Y-13340122D02*
X15365539Y-13359169D01*
X15365539Y-13359169D02*
X15365539Y-13406788D01*
X15365539Y-13406788D02*
X15356015Y-13425836D01*
X15356015Y-13425836D02*
X15346491Y-13435360D01*
X15346491Y-13435360D02*
X15327443Y-13444884D01*
X15327443Y-13444884D02*
X15270301Y-13444884D01*
X15270301Y-13444884D02*
X15251253Y-13435360D01*
X15251253Y-13435360D02*
X15241729Y-13425836D01*
X15451253Y-13425836D02*
X15460777Y-13435360D01*
X15460777Y-13435360D02*
X15451253Y-13444884D01*
X15451253Y-13444884D02*
X15441729Y-13435360D01*
X15441729Y-13435360D02*
X15451253Y-13425836D01*
X15451253Y-13425836D02*
X15451253Y-13444884D01*
X15536967Y-13263931D02*
X15546491Y-13254408D01*
X15546491Y-13254408D02*
X15565539Y-13244884D01*
X15565539Y-13244884D02*
X15613158Y-13244884D01*
X15613158Y-13244884D02*
X15632205Y-13254408D01*
X15632205Y-13254408D02*
X15641729Y-13263931D01*
X15641729Y-13263931D02*
X15651253Y-13282979D01*
X15651253Y-13282979D02*
X15651253Y-13302027D01*
X15651253Y-13302027D02*
X15641729Y-13330598D01*
X15641729Y-13330598D02*
X15527443Y-13444884D01*
X15527443Y-13444884D02*
X15651253Y-13444884D01*
X15775062Y-13244884D02*
X15794110Y-13244884D01*
X15794110Y-13244884D02*
X15813158Y-13254408D01*
X15813158Y-13254408D02*
X15822682Y-13263931D01*
X15822682Y-13263931D02*
X15832205Y-13282979D01*
X15832205Y-13282979D02*
X15841729Y-13321074D01*
X15841729Y-13321074D02*
X15841729Y-13368693D01*
X15841729Y-13368693D02*
X15832205Y-13406788D01*
X15832205Y-13406788D02*
X15822682Y-13425836D01*
X15822682Y-13425836D02*
X15813158Y-13435360D01*
X15813158Y-13435360D02*
X15794110Y-13444884D01*
X15794110Y-13444884D02*
X15775062Y-13444884D01*
X15775062Y-13444884D02*
X15756015Y-13435360D01*
X15756015Y-13435360D02*
X15746491Y-13425836D01*
X15746491Y-13425836D02*
X15736967Y-13406788D01*
X15736967Y-13406788D02*
X15727443Y-13368693D01*
X15727443Y-13368693D02*
X15727443Y-13321074D01*
X15727443Y-13321074D02*
X15736967Y-13282979D01*
X15736967Y-13282979D02*
X15746491Y-13263931D01*
X15746491Y-13263931D02*
X15756015Y-13254408D01*
X15756015Y-13254408D02*
X15775062Y-13244884D01*
X15965539Y-13244884D02*
X15984586Y-13244884D01*
X15984586Y-13244884D02*
X16003634Y-13254408D01*
X16003634Y-13254408D02*
X16013158Y-13263931D01*
X16013158Y-13263931D02*
X16022682Y-13282979D01*
X16022682Y-13282979D02*
X16032205Y-13321074D01*
X16032205Y-13321074D02*
X16032205Y-13368693D01*
X16032205Y-13368693D02*
X16022682Y-13406788D01*
X16022682Y-13406788D02*
X16013158Y-13425836D01*
X16013158Y-13425836D02*
X16003634Y-13435360D01*
X16003634Y-13435360D02*
X15984586Y-13444884D01*
X15984586Y-13444884D02*
X15965539Y-13444884D01*
X15965539Y-13444884D02*
X15946491Y-13435360D01*
X15946491Y-13435360D02*
X15936967Y-13425836D01*
X15936967Y-13425836D02*
X15927443Y-13406788D01*
X15927443Y-13406788D02*
X15917920Y-13368693D01*
X15917920Y-13368693D02*
X15917920Y-13321074D01*
X15917920Y-13321074D02*
X15927443Y-13282979D01*
X15927443Y-13282979D02*
X15936967Y-13263931D01*
X15936967Y-13263931D02*
X15946491Y-13254408D01*
X15946491Y-13254408D02*
X15965539Y-13244884D01*
X16117920Y-13444884D02*
X16117920Y-13311550D01*
X16117920Y-13330598D02*
X16127443Y-13321074D01*
X16127443Y-13321074D02*
X16146491Y-13311550D01*
X16146491Y-13311550D02*
X16175063Y-13311550D01*
X16175063Y-13311550D02*
X16194110Y-13321074D01*
X16194110Y-13321074D02*
X16203634Y-13340122D01*
X16203634Y-13340122D02*
X16203634Y-13444884D01*
X16203634Y-13340122D02*
X16213158Y-13321074D01*
X16213158Y-13321074D02*
X16232205Y-13311550D01*
X16232205Y-13311550D02*
X16260777Y-13311550D01*
X16260777Y-13311550D02*
X16279824Y-13321074D01*
X16279824Y-13321074D02*
X16289348Y-13340122D01*
X16289348Y-13340122D02*
X16289348Y-13444884D01*
X16384586Y-13444884D02*
X16384586Y-13311550D01*
X16384586Y-13330598D02*
X16394110Y-13321074D01*
X16394110Y-13321074D02*
X16413158Y-13311550D01*
X16413158Y-13311550D02*
X16441729Y-13311550D01*
X16441729Y-13311550D02*
X16460777Y-13321074D01*
X16460777Y-13321074D02*
X16470301Y-13340122D01*
X16470301Y-13340122D02*
X16470301Y-13444884D01*
X16470301Y-13340122D02*
X16479824Y-13321074D01*
X16479824Y-13321074D02*
X16498872Y-13311550D01*
X16498872Y-13311550D02*
X16527443Y-13311550D01*
X16527443Y-13311550D02*
X16546491Y-13321074D01*
X16546491Y-13321074D02*
X16556015Y-13340122D01*
X16556015Y-13340122D02*
X16556015Y-13444884D01*
X16946491Y-13235360D02*
X16775063Y-13492503D01*
X17203634Y-13244884D02*
X17222682Y-13244884D01*
X17222682Y-13244884D02*
X17241729Y-13254408D01*
X17241729Y-13254408D02*
X17251253Y-13263931D01*
X17251253Y-13263931D02*
X17260777Y-13282979D01*
X17260777Y-13282979D02*
X17270301Y-13321074D01*
X17270301Y-13321074D02*
X17270301Y-13368693D01*
X17270301Y-13368693D02*
X17260777Y-13406788D01*
X17260777Y-13406788D02*
X17251253Y-13425836D01*
X17251253Y-13425836D02*
X17241729Y-13435360D01*
X17241729Y-13435360D02*
X17222682Y-13444884D01*
X17222682Y-13444884D02*
X17203634Y-13444884D01*
X17203634Y-13444884D02*
X17184587Y-13435360D01*
X17184587Y-13435360D02*
X17175063Y-13425836D01*
X17175063Y-13425836D02*
X17165539Y-13406788D01*
X17165539Y-13406788D02*
X17156015Y-13368693D01*
X17156015Y-13368693D02*
X17156015Y-13321074D01*
X17156015Y-13321074D02*
X17165539Y-13282979D01*
X17165539Y-13282979D02*
X17175063Y-13263931D01*
X17175063Y-13263931D02*
X17184587Y-13254408D01*
X17184587Y-13254408D02*
X17203634Y-13244884D01*
X17356015Y-13425836D02*
X17365539Y-13435360D01*
X17365539Y-13435360D02*
X17356015Y-13444884D01*
X17356015Y-13444884D02*
X17346491Y-13435360D01*
X17346491Y-13435360D02*
X17356015Y-13425836D01*
X17356015Y-13425836D02*
X17356015Y-13444884D01*
X17556015Y-13444884D02*
X17441729Y-13444884D01*
X17498872Y-13444884D02*
X17498872Y-13244884D01*
X17498872Y-13244884D02*
X17479825Y-13273455D01*
X17479825Y-13273455D02*
X17460777Y-13292503D01*
X17460777Y-13292503D02*
X17441729Y-13302027D01*
X17632206Y-13263931D02*
X17641729Y-13254408D01*
X17641729Y-13254408D02*
X17660777Y-13244884D01*
X17660777Y-13244884D02*
X17708396Y-13244884D01*
X17708396Y-13244884D02*
X17727444Y-13254408D01*
X17727444Y-13254408D02*
X17736968Y-13263931D01*
X17736968Y-13263931D02*
X17746491Y-13282979D01*
X17746491Y-13282979D02*
X17746491Y-13302027D01*
X17746491Y-13302027D02*
X17736968Y-13330598D01*
X17736968Y-13330598D02*
X17622682Y-13444884D01*
X17622682Y-13444884D02*
X17746491Y-13444884D01*
X17917920Y-13244884D02*
X17879825Y-13244884D01*
X17879825Y-13244884D02*
X17860777Y-13254408D01*
X17860777Y-13254408D02*
X17851253Y-13263931D01*
X17851253Y-13263931D02*
X17832206Y-13292503D01*
X17832206Y-13292503D02*
X17822682Y-13330598D01*
X17822682Y-13330598D02*
X17822682Y-13406788D01*
X17822682Y-13406788D02*
X17832206Y-13425836D01*
X17832206Y-13425836D02*
X17841729Y-13435360D01*
X17841729Y-13435360D02*
X17860777Y-13444884D01*
X17860777Y-13444884D02*
X17898872Y-13444884D01*
X17898872Y-13444884D02*
X17917920Y-13435360D01*
X17917920Y-13435360D02*
X17927444Y-13425836D01*
X17927444Y-13425836D02*
X17936968Y-13406788D01*
X17936968Y-13406788D02*
X17936968Y-13359169D01*
X17936968Y-13359169D02*
X17927444Y-13340122D01*
X17927444Y-13340122D02*
X17917920Y-13330598D01*
X17917920Y-13330598D02*
X17898872Y-13321074D01*
X17898872Y-13321074D02*
X17860777Y-13321074D01*
X17860777Y-13321074D02*
X17841729Y-13330598D01*
X17841729Y-13330598D02*
X17832206Y-13340122D01*
X17832206Y-13340122D02*
X17822682Y-13359169D01*
X18060777Y-13244884D02*
X18079825Y-13244884D01*
X18079825Y-13244884D02*
X18098872Y-13254408D01*
X18098872Y-13254408D02*
X18108396Y-13263931D01*
X18108396Y-13263931D02*
X18117920Y-13282979D01*
X18117920Y-13282979D02*
X18127444Y-13321074D01*
X18127444Y-13321074D02*
X18127444Y-13368693D01*
X18127444Y-13368693D02*
X18117920Y-13406788D01*
X18117920Y-13406788D02*
X18108396Y-13425836D01*
X18108396Y-13425836D02*
X18098872Y-13435360D01*
X18098872Y-13435360D02*
X18079825Y-13444884D01*
X18079825Y-13444884D02*
X18060777Y-13444884D01*
X18060777Y-13444884D02*
X18041729Y-13435360D01*
X18041729Y-13435360D02*
X18032206Y-13425836D01*
X18032206Y-13425836D02*
X18022682Y-13406788D01*
X18022682Y-13406788D02*
X18013158Y-13368693D01*
X18013158Y-13368693D02*
X18013158Y-13321074D01*
X18013158Y-13321074D02*
X18022682Y-13282979D01*
X18022682Y-13282979D02*
X18032206Y-13263931D01*
X18032206Y-13263931D02*
X18041729Y-13254408D01*
X18041729Y-13254408D02*
X18060777Y-13244884D01*
X18203634Y-13244884D02*
X18203634Y-13282979D01*
X18279825Y-13244884D02*
X18279825Y-13282979D01*
X18575063Y-13521074D02*
X18565539Y-13511550D01*
X18565539Y-13511550D02*
X18546491Y-13482979D01*
X18546491Y-13482979D02*
X18536968Y-13463931D01*
X18536968Y-13463931D02*
X18527444Y-13435360D01*
X18527444Y-13435360D02*
X18517920Y-13387741D01*
X18517920Y-13387741D02*
X18517920Y-13349646D01*
X18517920Y-13349646D02*
X18527444Y-13302027D01*
X18527444Y-13302027D02*
X18536968Y-13273455D01*
X18536968Y-13273455D02*
X18546491Y-13254408D01*
X18546491Y-13254408D02*
X18565539Y-13225836D01*
X18565539Y-13225836D02*
X18575063Y-13216312D01*
X18641730Y-13263931D02*
X18651253Y-13254408D01*
X18651253Y-13254408D02*
X18670301Y-13244884D01*
X18670301Y-13244884D02*
X18717920Y-13244884D01*
X18717920Y-13244884D02*
X18736968Y-13254408D01*
X18736968Y-13254408D02*
X18746491Y-13263931D01*
X18746491Y-13263931D02*
X18756015Y-13282979D01*
X18756015Y-13282979D02*
X18756015Y-13302027D01*
X18756015Y-13302027D02*
X18746491Y-13330598D01*
X18746491Y-13330598D02*
X18632206Y-13444884D01*
X18632206Y-13444884D02*
X18756015Y-13444884D01*
X18994111Y-13444884D02*
X18994111Y-13244884D01*
X19079825Y-13444884D02*
X19079825Y-13340122D01*
X19079825Y-13340122D02*
X19070301Y-13321074D01*
X19070301Y-13321074D02*
X19051253Y-13311550D01*
X19051253Y-13311550D02*
X19022682Y-13311550D01*
X19022682Y-13311550D02*
X19003634Y-13321074D01*
X19003634Y-13321074D02*
X18994111Y-13330598D01*
X19203634Y-13444884D02*
X19184587Y-13435360D01*
X19184587Y-13435360D02*
X19175063Y-13425836D01*
X19175063Y-13425836D02*
X19165539Y-13406788D01*
X19165539Y-13406788D02*
X19165539Y-13349646D01*
X19165539Y-13349646D02*
X19175063Y-13330598D01*
X19175063Y-13330598D02*
X19184587Y-13321074D01*
X19184587Y-13321074D02*
X19203634Y-13311550D01*
X19203634Y-13311550D02*
X19232206Y-13311550D01*
X19232206Y-13311550D02*
X19251253Y-13321074D01*
X19251253Y-13321074D02*
X19260777Y-13330598D01*
X19260777Y-13330598D02*
X19270301Y-13349646D01*
X19270301Y-13349646D02*
X19270301Y-13406788D01*
X19270301Y-13406788D02*
X19260777Y-13425836D01*
X19260777Y-13425836D02*
X19251253Y-13435360D01*
X19251253Y-13435360D02*
X19232206Y-13444884D01*
X19232206Y-13444884D02*
X19203634Y-13444884D01*
X19384587Y-13444884D02*
X19365539Y-13435360D01*
X19365539Y-13435360D02*
X19356015Y-13416312D01*
X19356015Y-13416312D02*
X19356015Y-13244884D01*
X19536968Y-13435360D02*
X19517920Y-13444884D01*
X19517920Y-13444884D02*
X19479825Y-13444884D01*
X19479825Y-13444884D02*
X19460777Y-13435360D01*
X19460777Y-13435360D02*
X19451253Y-13416312D01*
X19451253Y-13416312D02*
X19451253Y-13340122D01*
X19451253Y-13340122D02*
X19460777Y-13321074D01*
X19460777Y-13321074D02*
X19479825Y-13311550D01*
X19479825Y-13311550D02*
X19517920Y-13311550D01*
X19517920Y-13311550D02*
X19536968Y-13321074D01*
X19536968Y-13321074D02*
X19546492Y-13340122D01*
X19546492Y-13340122D02*
X19546492Y-13359169D01*
X19546492Y-13359169D02*
X19451253Y-13378217D01*
X19622682Y-13435360D02*
X19641730Y-13444884D01*
X19641730Y-13444884D02*
X19679825Y-13444884D01*
X19679825Y-13444884D02*
X19698873Y-13435360D01*
X19698873Y-13435360D02*
X19708396Y-13416312D01*
X19708396Y-13416312D02*
X19708396Y-13406788D01*
X19708396Y-13406788D02*
X19698873Y-13387741D01*
X19698873Y-13387741D02*
X19679825Y-13378217D01*
X19679825Y-13378217D02*
X19651253Y-13378217D01*
X19651253Y-13378217D02*
X19632206Y-13368693D01*
X19632206Y-13368693D02*
X19622682Y-13349646D01*
X19622682Y-13349646D02*
X19622682Y-13340122D01*
X19622682Y-13340122D02*
X19632206Y-13321074D01*
X19632206Y-13321074D02*
X19651253Y-13311550D01*
X19651253Y-13311550D02*
X19679825Y-13311550D01*
X19679825Y-13311550D02*
X19698873Y-13321074D01*
X19775063Y-13521074D02*
X19784587Y-13511550D01*
X19784587Y-13511550D02*
X19803634Y-13482979D01*
X19803634Y-13482979D02*
X19813158Y-13463931D01*
X19813158Y-13463931D02*
X19822682Y-13435360D01*
X19822682Y-13435360D02*
X19832206Y-13387741D01*
X19832206Y-13387741D02*
X19832206Y-13349646D01*
X19832206Y-13349646D02*
X19822682Y-13302027D01*
X19822682Y-13302027D02*
X19813158Y-13273455D01*
X19813158Y-13273455D02*
X19803634Y-13254408D01*
X19803634Y-13254408D02*
X19784587Y-13225836D01*
X19784587Y-13225836D02*
X19775063Y-13216312D01*
X20136968Y-13521074D02*
X20127444Y-13511550D01*
X20127444Y-13511550D02*
X20108396Y-13482979D01*
X20108396Y-13482979D02*
X20098873Y-13463931D01*
X20098873Y-13463931D02*
X20089349Y-13435360D01*
X20089349Y-13435360D02*
X20079825Y-13387741D01*
X20079825Y-13387741D02*
X20079825Y-13349646D01*
X20079825Y-13349646D02*
X20089349Y-13302027D01*
X20089349Y-13302027D02*
X20098873Y-13273455D01*
X20098873Y-13273455D02*
X20108396Y-13254408D01*
X20108396Y-13254408D02*
X20127444Y-13225836D01*
X20127444Y-13225836D02*
X20136968Y-13216312D01*
X20213158Y-13311550D02*
X20213158Y-13444884D01*
X20213158Y-13330598D02*
X20222682Y-13321074D01*
X20222682Y-13321074D02*
X20241730Y-13311550D01*
X20241730Y-13311550D02*
X20270301Y-13311550D01*
X20270301Y-13311550D02*
X20289349Y-13321074D01*
X20289349Y-13321074D02*
X20298873Y-13340122D01*
X20298873Y-13340122D02*
X20298873Y-13444884D01*
X20422682Y-13444884D02*
X20403634Y-13435360D01*
X20403634Y-13435360D02*
X20394111Y-13425836D01*
X20394111Y-13425836D02*
X20384587Y-13406788D01*
X20384587Y-13406788D02*
X20384587Y-13349646D01*
X20384587Y-13349646D02*
X20394111Y-13330598D01*
X20394111Y-13330598D02*
X20403634Y-13321074D01*
X20403634Y-13321074D02*
X20422682Y-13311550D01*
X20422682Y-13311550D02*
X20451254Y-13311550D01*
X20451254Y-13311550D02*
X20470301Y-13321074D01*
X20470301Y-13321074D02*
X20479825Y-13330598D01*
X20479825Y-13330598D02*
X20489349Y-13349646D01*
X20489349Y-13349646D02*
X20489349Y-13406788D01*
X20489349Y-13406788D02*
X20479825Y-13425836D01*
X20479825Y-13425836D02*
X20470301Y-13435360D01*
X20470301Y-13435360D02*
X20451254Y-13444884D01*
X20451254Y-13444884D02*
X20422682Y-13444884D01*
X20546492Y-13311550D02*
X20622682Y-13311550D01*
X20575063Y-13244884D02*
X20575063Y-13416312D01*
X20575063Y-13416312D02*
X20584587Y-13435360D01*
X20584587Y-13435360D02*
X20603634Y-13444884D01*
X20603634Y-13444884D02*
X20622682Y-13444884D01*
X20841730Y-13311550D02*
X20841730Y-13511550D01*
X20841730Y-13321074D02*
X20860777Y-13311550D01*
X20860777Y-13311550D02*
X20898873Y-13311550D01*
X20898873Y-13311550D02*
X20917920Y-13321074D01*
X20917920Y-13321074D02*
X20927444Y-13330598D01*
X20927444Y-13330598D02*
X20936968Y-13349646D01*
X20936968Y-13349646D02*
X20936968Y-13406788D01*
X20936968Y-13406788D02*
X20927444Y-13425836D01*
X20927444Y-13425836D02*
X20917920Y-13435360D01*
X20917920Y-13435360D02*
X20898873Y-13444884D01*
X20898873Y-13444884D02*
X20860777Y-13444884D01*
X20860777Y-13444884D02*
X20841730Y-13435360D01*
X21051254Y-13444884D02*
X21032206Y-13435360D01*
X21032206Y-13435360D02*
X21022682Y-13416312D01*
X21022682Y-13416312D02*
X21022682Y-13244884D01*
X21213158Y-13444884D02*
X21213158Y-13340122D01*
X21213158Y-13340122D02*
X21203635Y-13321074D01*
X21203635Y-13321074D02*
X21184587Y-13311550D01*
X21184587Y-13311550D02*
X21146492Y-13311550D01*
X21146492Y-13311550D02*
X21127444Y-13321074D01*
X21213158Y-13435360D02*
X21194111Y-13444884D01*
X21194111Y-13444884D02*
X21146492Y-13444884D01*
X21146492Y-13444884D02*
X21127444Y-13435360D01*
X21127444Y-13435360D02*
X21117920Y-13416312D01*
X21117920Y-13416312D02*
X21117920Y-13397265D01*
X21117920Y-13397265D02*
X21127444Y-13378217D01*
X21127444Y-13378217D02*
X21146492Y-13368693D01*
X21146492Y-13368693D02*
X21194111Y-13368693D01*
X21194111Y-13368693D02*
X21213158Y-13359169D01*
X21279825Y-13311550D02*
X21356015Y-13311550D01*
X21308396Y-13244884D02*
X21308396Y-13416312D01*
X21308396Y-13416312D02*
X21317920Y-13435360D01*
X21317920Y-13435360D02*
X21336968Y-13444884D01*
X21336968Y-13444884D02*
X21356015Y-13444884D01*
X21498873Y-13435360D02*
X21479825Y-13444884D01*
X21479825Y-13444884D02*
X21441730Y-13444884D01*
X21441730Y-13444884D02*
X21422682Y-13435360D01*
X21422682Y-13435360D02*
X21413158Y-13416312D01*
X21413158Y-13416312D02*
X21413158Y-13340122D01*
X21413158Y-13340122D02*
X21422682Y-13321074D01*
X21422682Y-13321074D02*
X21441730Y-13311550D01*
X21441730Y-13311550D02*
X21479825Y-13311550D01*
X21479825Y-13311550D02*
X21498873Y-13321074D01*
X21498873Y-13321074D02*
X21508396Y-13340122D01*
X21508396Y-13340122D02*
X21508396Y-13359169D01*
X21508396Y-13359169D02*
X21413158Y-13378217D01*
X21679825Y-13444884D02*
X21679825Y-13244884D01*
X21679825Y-13435360D02*
X21660777Y-13444884D01*
X21660777Y-13444884D02*
X21622682Y-13444884D01*
X21622682Y-13444884D02*
X21603635Y-13435360D01*
X21603635Y-13435360D02*
X21594111Y-13425836D01*
X21594111Y-13425836D02*
X21584587Y-13406788D01*
X21584587Y-13406788D02*
X21584587Y-13349646D01*
X21584587Y-13349646D02*
X21594111Y-13330598D01*
X21594111Y-13330598D02*
X21603635Y-13321074D01*
X21603635Y-13321074D02*
X21622682Y-13311550D01*
X21622682Y-13311550D02*
X21660777Y-13311550D01*
X21660777Y-13311550D02*
X21679825Y-13321074D01*
X21756016Y-13521074D02*
X21765539Y-13511550D01*
X21765539Y-13511550D02*
X21784587Y-13482979D01*
X21784587Y-13482979D02*
X21794111Y-13463931D01*
X21794111Y-13463931D02*
X21803635Y-13435360D01*
X21803635Y-13435360D02*
X21813158Y-13387741D01*
X21813158Y-13387741D02*
X21813158Y-13349646D01*
X21813158Y-13349646D02*
X21803635Y-13302027D01*
X21803635Y-13302027D02*
X21794111Y-13273455D01*
X21794111Y-13273455D02*
X21784587Y-13254408D01*
X21784587Y-13254408D02*
X21765539Y-13225836D01*
X21765539Y-13225836D02*
X21756016Y-13216312D01*
M02*
