%TF.GenerationSoftware,KiCad,Pcbnew,7.0.6-0*%
%TF.CreationDate,2024-02-15T10:15:36-05:00*%
%TF.ProjectId,Frame PCB 2,4672616d-6520-4504-9342-20322e6b6963,rev?*%
%TF.SameCoordinates,Original*%
%TF.FileFunction,Legend,Bot*%
%TF.FilePolarity,Positive*%
%FSLAX46Y46*%
G04 Gerber Fmt 4.6, Leading zero omitted, Abs format (unit mm)*
G04 Created by KiCad (PCBNEW 7.0.6-0) date 2024-02-15 10:15:36*
%MOMM*%
%LPD*%
G01*
G04 APERTURE LIST*
%ADD10C,0.100000*%
%ADD11C,0.120000*%
G04 APERTURE END LIST*
D10*
X144257106Y-68617638D02*
X144352344Y-68570019D01*
X144352344Y-68570019D02*
X144495201Y-68570019D01*
X144495201Y-68570019D02*
X144638058Y-68617638D01*
X144638058Y-68617638D02*
X144733296Y-68712876D01*
X144733296Y-68712876D02*
X144780915Y-68808114D01*
X144780915Y-68808114D02*
X144828534Y-68998590D01*
X144828534Y-68998590D02*
X144828534Y-69141447D01*
X144828534Y-69141447D02*
X144780915Y-69331923D01*
X144780915Y-69331923D02*
X144733296Y-69427161D01*
X144733296Y-69427161D02*
X144638058Y-69522400D01*
X144638058Y-69522400D02*
X144495201Y-69570019D01*
X144495201Y-69570019D02*
X144399963Y-69570019D01*
X144399963Y-69570019D02*
X144257106Y-69522400D01*
X144257106Y-69522400D02*
X144209487Y-69474780D01*
X144209487Y-69474780D02*
X144209487Y-69141447D01*
X144209487Y-69141447D02*
X144399963Y-69141447D01*
X143780915Y-69570019D02*
X143780915Y-68570019D01*
X143780915Y-68570019D02*
X143209487Y-69570019D01*
X143209487Y-69570019D02*
X143209487Y-68570019D01*
X142733296Y-69570019D02*
X142733296Y-68570019D01*
X142733296Y-68570019D02*
X142495201Y-68570019D01*
X142495201Y-68570019D02*
X142352344Y-68617638D01*
X142352344Y-68617638D02*
X142257106Y-68712876D01*
X142257106Y-68712876D02*
X142209487Y-68808114D01*
X142209487Y-68808114D02*
X142161868Y-68998590D01*
X142161868Y-68998590D02*
X142161868Y-69141447D01*
X142161868Y-69141447D02*
X142209487Y-69331923D01*
X142209487Y-69331923D02*
X142257106Y-69427161D01*
X142257106Y-69427161D02*
X142352344Y-69522400D01*
X142352344Y-69522400D02*
X142495201Y-69570019D01*
X142495201Y-69570019D02*
X142733296Y-69570019D01*
X143904687Y-56622380D02*
X143952306Y-56670000D01*
X143952306Y-56670000D02*
X144095163Y-56717619D01*
X144095163Y-56717619D02*
X144190401Y-56717619D01*
X144190401Y-56717619D02*
X144333258Y-56670000D01*
X144333258Y-56670000D02*
X144428496Y-56574761D01*
X144428496Y-56574761D02*
X144476115Y-56479523D01*
X144476115Y-56479523D02*
X144523734Y-56289047D01*
X144523734Y-56289047D02*
X144523734Y-56146190D01*
X144523734Y-56146190D02*
X144476115Y-55955714D01*
X144476115Y-55955714D02*
X144428496Y-55860476D01*
X144428496Y-55860476D02*
X144333258Y-55765238D01*
X144333258Y-55765238D02*
X144190401Y-55717619D01*
X144190401Y-55717619D02*
X144095163Y-55717619D01*
X144095163Y-55717619D02*
X143952306Y-55765238D01*
X143952306Y-55765238D02*
X143904687Y-55812857D01*
X143618972Y-55717619D02*
X143047544Y-55717619D01*
X143333258Y-56717619D02*
X143333258Y-55717619D01*
X142761829Y-56670000D02*
X142618972Y-56717619D01*
X142618972Y-56717619D02*
X142380877Y-56717619D01*
X142380877Y-56717619D02*
X142285639Y-56670000D01*
X142285639Y-56670000D02*
X142238020Y-56622380D01*
X142238020Y-56622380D02*
X142190401Y-56527142D01*
X142190401Y-56527142D02*
X142190401Y-56431904D01*
X142190401Y-56431904D02*
X142238020Y-56336666D01*
X142238020Y-56336666D02*
X142285639Y-56289047D01*
X142285639Y-56289047D02*
X142380877Y-56241428D01*
X142380877Y-56241428D02*
X142571353Y-56193809D01*
X142571353Y-56193809D02*
X142666591Y-56146190D01*
X142666591Y-56146190D02*
X142714210Y-56098571D01*
X142714210Y-56098571D02*
X142761829Y-56003333D01*
X142761829Y-56003333D02*
X142761829Y-55908095D01*
X142761829Y-55908095D02*
X142714210Y-55812857D01*
X142714210Y-55812857D02*
X142666591Y-55765238D01*
X142666591Y-55765238D02*
X142571353Y-55717619D01*
X142571353Y-55717619D02*
X142333258Y-55717619D01*
X142333258Y-55717619D02*
X142190401Y-55765238D01*
X144476115Y-54177619D02*
X144476115Y-53177619D01*
X144476115Y-53177619D02*
X144142782Y-53891904D01*
X144142782Y-53891904D02*
X143809449Y-53177619D01*
X143809449Y-53177619D02*
X143809449Y-54177619D01*
X143142782Y-53177619D02*
X142952306Y-53177619D01*
X142952306Y-53177619D02*
X142857068Y-53225238D01*
X142857068Y-53225238D02*
X142761830Y-53320476D01*
X142761830Y-53320476D02*
X142714211Y-53510952D01*
X142714211Y-53510952D02*
X142714211Y-53844285D01*
X142714211Y-53844285D02*
X142761830Y-54034761D01*
X142761830Y-54034761D02*
X142857068Y-54130000D01*
X142857068Y-54130000D02*
X142952306Y-54177619D01*
X142952306Y-54177619D02*
X143142782Y-54177619D01*
X143142782Y-54177619D02*
X143238020Y-54130000D01*
X143238020Y-54130000D02*
X143333258Y-54034761D01*
X143333258Y-54034761D02*
X143380877Y-53844285D01*
X143380877Y-53844285D02*
X143380877Y-53510952D01*
X143380877Y-53510952D02*
X143333258Y-53320476D01*
X143333258Y-53320476D02*
X143238020Y-53225238D01*
X143238020Y-53225238D02*
X143142782Y-53177619D01*
X142285639Y-54177619D02*
X142285639Y-53177619D01*
X142285639Y-53177619D02*
X142047544Y-53177619D01*
X142047544Y-53177619D02*
X141904687Y-53225238D01*
X141904687Y-53225238D02*
X141809449Y-53320476D01*
X141809449Y-53320476D02*
X141761830Y-53415714D01*
X141761830Y-53415714D02*
X141714211Y-53606190D01*
X141714211Y-53606190D02*
X141714211Y-53749047D01*
X141714211Y-53749047D02*
X141761830Y-53939523D01*
X141761830Y-53939523D02*
X141809449Y-54034761D01*
X141809449Y-54034761D02*
X141904687Y-54130000D01*
X141904687Y-54130000D02*
X142047544Y-54177619D01*
X142047544Y-54177619D02*
X142285639Y-54177619D01*
X144730115Y-72211619D02*
X144730115Y-71211619D01*
X144730115Y-71211619D02*
X144492020Y-71211619D01*
X144492020Y-71211619D02*
X144349163Y-71259238D01*
X144349163Y-71259238D02*
X144253925Y-71354476D01*
X144253925Y-71354476D02*
X144206306Y-71449714D01*
X144206306Y-71449714D02*
X144158687Y-71640190D01*
X144158687Y-71640190D02*
X144158687Y-71783047D01*
X144158687Y-71783047D02*
X144206306Y-71973523D01*
X144206306Y-71973523D02*
X144253925Y-72068761D01*
X144253925Y-72068761D02*
X144349163Y-72164000D01*
X144349163Y-72164000D02*
X144492020Y-72211619D01*
X144492020Y-72211619D02*
X144730115Y-72211619D01*
X143396782Y-71687809D02*
X143730115Y-71687809D01*
X143730115Y-72211619D02*
X143730115Y-71211619D01*
X143730115Y-71211619D02*
X143253925Y-71211619D01*
X142872972Y-71211619D02*
X142872972Y-72021142D01*
X142872972Y-72021142D02*
X142825353Y-72116380D01*
X142825353Y-72116380D02*
X142777734Y-72164000D01*
X142777734Y-72164000D02*
X142682496Y-72211619D01*
X142682496Y-72211619D02*
X142492020Y-72211619D01*
X142492020Y-72211619D02*
X142396782Y-72164000D01*
X142396782Y-72164000D02*
X142349163Y-72116380D01*
X142349163Y-72116380D02*
X142301544Y-72021142D01*
X142301544Y-72021142D02*
X142301544Y-71211619D01*
X132458782Y-62543809D02*
X132315925Y-62591428D01*
X132315925Y-62591428D02*
X132268306Y-62639047D01*
X132268306Y-62639047D02*
X132220687Y-62734285D01*
X132220687Y-62734285D02*
X132220687Y-62877142D01*
X132220687Y-62877142D02*
X132268306Y-62972380D01*
X132268306Y-62972380D02*
X132315925Y-63020000D01*
X132315925Y-63020000D02*
X132411163Y-63067619D01*
X132411163Y-63067619D02*
X132792115Y-63067619D01*
X132792115Y-63067619D02*
X132792115Y-62067619D01*
X132792115Y-62067619D02*
X132458782Y-62067619D01*
X132458782Y-62067619D02*
X132363544Y-62115238D01*
X132363544Y-62115238D02*
X132315925Y-62162857D01*
X132315925Y-62162857D02*
X132268306Y-62258095D01*
X132268306Y-62258095D02*
X132268306Y-62353333D01*
X132268306Y-62353333D02*
X132315925Y-62448571D01*
X132315925Y-62448571D02*
X132363544Y-62496190D01*
X132363544Y-62496190D02*
X132458782Y-62543809D01*
X132458782Y-62543809D02*
X132792115Y-62543809D01*
X131649258Y-63067619D02*
X131744496Y-63020000D01*
X131744496Y-63020000D02*
X131792115Y-62924761D01*
X131792115Y-62924761D02*
X131792115Y-62067619D01*
X130839734Y-62400952D02*
X130839734Y-63067619D01*
X131268305Y-62400952D02*
X131268305Y-62924761D01*
X131268305Y-62924761D02*
X131220686Y-63020000D01*
X131220686Y-63020000D02*
X131125448Y-63067619D01*
X131125448Y-63067619D02*
X130982591Y-63067619D01*
X130982591Y-63067619D02*
X130887353Y-63020000D01*
X130887353Y-63020000D02*
X130839734Y-62972380D01*
X129982591Y-63020000D02*
X130077829Y-63067619D01*
X130077829Y-63067619D02*
X130268305Y-63067619D01*
X130268305Y-63067619D02*
X130363543Y-63020000D01*
X130363543Y-63020000D02*
X130411162Y-62924761D01*
X130411162Y-62924761D02*
X130411162Y-62543809D01*
X130411162Y-62543809D02*
X130363543Y-62448571D01*
X130363543Y-62448571D02*
X130268305Y-62400952D01*
X130268305Y-62400952D02*
X130077829Y-62400952D01*
X130077829Y-62400952D02*
X129982591Y-62448571D01*
X129982591Y-62448571D02*
X129934972Y-62543809D01*
X129934972Y-62543809D02*
X129934972Y-62639047D01*
X129934972Y-62639047D02*
X130411162Y-62734285D01*
X129649257Y-62400952D02*
X129268305Y-62400952D01*
X129506400Y-63067619D02*
X129506400Y-62210476D01*
X129506400Y-62210476D02*
X129458781Y-62115238D01*
X129458781Y-62115238D02*
X129363543Y-62067619D01*
X129363543Y-62067619D02*
X129268305Y-62067619D01*
X128934971Y-63067619D02*
X128934971Y-62400952D01*
X128934971Y-62591428D02*
X128887352Y-62496190D01*
X128887352Y-62496190D02*
X128839733Y-62448571D01*
X128839733Y-62448571D02*
X128744495Y-62400952D01*
X128744495Y-62400952D02*
X128649257Y-62400952D01*
X127887352Y-62400952D02*
X127887352Y-63067619D01*
X128315923Y-62400952D02*
X128315923Y-62924761D01*
X128315923Y-62924761D02*
X128268304Y-63020000D01*
X128268304Y-63020000D02*
X128173066Y-63067619D01*
X128173066Y-63067619D02*
X128030209Y-63067619D01*
X128030209Y-63067619D02*
X127934971Y-63020000D01*
X127934971Y-63020000D02*
X127887352Y-62972380D01*
X127411161Y-63067619D02*
X127411161Y-62400952D01*
X127411161Y-62067619D02*
X127458780Y-62115238D01*
X127458780Y-62115238D02*
X127411161Y-62162857D01*
X127411161Y-62162857D02*
X127363542Y-62115238D01*
X127363542Y-62115238D02*
X127411161Y-62067619D01*
X127411161Y-62067619D02*
X127411161Y-62162857D01*
X127077828Y-62400952D02*
X126696876Y-62400952D01*
X126934971Y-62067619D02*
X126934971Y-62924761D01*
X126934971Y-62924761D02*
X126887352Y-63020000D01*
X126887352Y-63020000D02*
X126792114Y-63067619D01*
X126792114Y-63067619D02*
X126696876Y-63067619D01*
X125125447Y-63067619D02*
X125601637Y-63067619D01*
X125601637Y-63067619D02*
X125601637Y-62067619D01*
X124792113Y-62543809D02*
X124458780Y-62543809D01*
X124315923Y-63067619D02*
X124792113Y-63067619D01*
X124792113Y-63067619D02*
X124792113Y-62067619D01*
X124792113Y-62067619D02*
X124315923Y-62067619D01*
X143904687Y-61848419D02*
X144238020Y-61372228D01*
X144476115Y-61848419D02*
X144476115Y-60848419D01*
X144476115Y-60848419D02*
X144095163Y-60848419D01*
X144095163Y-60848419D02*
X143999925Y-60896038D01*
X143999925Y-60896038D02*
X143952306Y-60943657D01*
X143952306Y-60943657D02*
X143904687Y-61038895D01*
X143904687Y-61038895D02*
X143904687Y-61181752D01*
X143904687Y-61181752D02*
X143952306Y-61276990D01*
X143952306Y-61276990D02*
X143999925Y-61324609D01*
X143999925Y-61324609D02*
X144095163Y-61372228D01*
X144095163Y-61372228D02*
X144476115Y-61372228D01*
X143571353Y-60848419D02*
X142904687Y-61848419D01*
X142904687Y-60848419D02*
X143571353Y-61848419D01*
X142523734Y-61848419D02*
X142523734Y-60848419D01*
X144669772Y-58511619D02*
X144098344Y-58511619D01*
X144384058Y-59511619D02*
X144384058Y-58511619D01*
X143860248Y-58511619D02*
X143193582Y-59511619D01*
X143193582Y-58511619D02*
X143860248Y-59511619D01*
X142622153Y-58511619D02*
X142431677Y-58511619D01*
X142431677Y-58511619D02*
X142336439Y-58559238D01*
X142336439Y-58559238D02*
X142241201Y-58654476D01*
X142241201Y-58654476D02*
X142193582Y-58844952D01*
X142193582Y-58844952D02*
X142193582Y-59178285D01*
X142193582Y-59178285D02*
X142241201Y-59368761D01*
X142241201Y-59368761D02*
X142336439Y-59464000D01*
X142336439Y-59464000D02*
X142431677Y-59511619D01*
X142431677Y-59511619D02*
X142622153Y-59511619D01*
X142622153Y-59511619D02*
X142717391Y-59464000D01*
X142717391Y-59464000D02*
X142812629Y-59368761D01*
X142812629Y-59368761D02*
X142860248Y-59178285D01*
X142860248Y-59178285D02*
X142860248Y-58844952D01*
X142860248Y-58844952D02*
X142812629Y-58654476D01*
X142812629Y-58654476D02*
X142717391Y-58559238D01*
X142717391Y-58559238D02*
X142622153Y-58511619D01*
X144618972Y-63591619D02*
X144285639Y-64591619D01*
X144285639Y-64591619D02*
X143952306Y-63591619D01*
X143618972Y-64591619D02*
X143618972Y-63591619D01*
X143142782Y-64591619D02*
X143142782Y-63591619D01*
X143142782Y-63591619D02*
X142571354Y-64591619D01*
X142571354Y-64591619D02*
X142571354Y-63591619D01*
X144057087Y-67030019D02*
X144390420Y-66553828D01*
X144628515Y-67030019D02*
X144628515Y-66030019D01*
X144628515Y-66030019D02*
X144247563Y-66030019D01*
X144247563Y-66030019D02*
X144152325Y-66077638D01*
X144152325Y-66077638D02*
X144104706Y-66125257D01*
X144104706Y-66125257D02*
X144057087Y-66220495D01*
X144057087Y-66220495D02*
X144057087Y-66363352D01*
X144057087Y-66363352D02*
X144104706Y-66458590D01*
X144104706Y-66458590D02*
X144152325Y-66506209D01*
X144152325Y-66506209D02*
X144247563Y-66553828D01*
X144247563Y-66553828D02*
X144628515Y-66553828D01*
X143771372Y-66030019D02*
X143199944Y-66030019D01*
X143485658Y-67030019D02*
X143485658Y-66030019D01*
X142914229Y-66982400D02*
X142771372Y-67030019D01*
X142771372Y-67030019D02*
X142533277Y-67030019D01*
X142533277Y-67030019D02*
X142438039Y-66982400D01*
X142438039Y-66982400D02*
X142390420Y-66934780D01*
X142390420Y-66934780D02*
X142342801Y-66839542D01*
X142342801Y-66839542D02*
X142342801Y-66744304D01*
X142342801Y-66744304D02*
X142390420Y-66649066D01*
X142390420Y-66649066D02*
X142438039Y-66601447D01*
X142438039Y-66601447D02*
X142533277Y-66553828D01*
X142533277Y-66553828D02*
X142723753Y-66506209D01*
X142723753Y-66506209D02*
X142818991Y-66458590D01*
X142818991Y-66458590D02*
X142866610Y-66410971D01*
X142866610Y-66410971D02*
X142914229Y-66315733D01*
X142914229Y-66315733D02*
X142914229Y-66220495D01*
X142914229Y-66220495D02*
X142866610Y-66125257D01*
X142866610Y-66125257D02*
X142818991Y-66077638D01*
X142818991Y-66077638D02*
X142723753Y-66030019D01*
X142723753Y-66030019D02*
X142485658Y-66030019D01*
X142485658Y-66030019D02*
X142342801Y-66077638D01*
D11*
%TO.C,Bluefruitle1*%
X147380000Y-72958000D02*
X144720000Y-72958000D01*
X147380000Y-55118000D02*
X147380000Y-72958000D01*
X147380000Y-55118000D02*
X144720000Y-55118000D01*
X146050000Y-52518000D02*
X144720000Y-52518000D01*
X144720000Y-55118000D02*
X144720000Y-72958000D01*
X144720000Y-52518000D02*
X144720000Y-53848000D01*
D10*
X148844000Y-49428400D02*
X104190800Y-49428400D01*
X104190800Y-49428400D02*
X104190800Y-77622400D01*
X104190800Y-77622400D02*
X148844000Y-77622400D01*
X148844000Y-77622400D02*
X148844000Y-49428400D01*
%TD*%
M02*
