M48
; DRILL file {KiCad 7.0.6-0} date 2024 February 15, Thursday 10:15:34
; FORMAT={-:-/ absolute / inch / decimal}
; #@! TF.CreationDate,2024-02-15T10:15:34-05:00
; #@! TF.GenerationSoftware,Kicad,Pcbnew,7.0.6-0
; #@! TF.FileFunction,Plated,1,2,PTH
FMAT,2
INCH
; #@! TA.AperFunction,Plated,PTH,ViaDrill
T1C0.0157
; #@! TA.AperFunction,Plated,PTH,ComponentDrill
T2C0.0374
; #@! TA.AperFunction,Plated,PTH,ComponentDrill
T3C0.0394
; #@! TA.AperFunction,Plated,PTH,ComponentDrill
T4C0.0402
; #@! TA.AperFunction,Plated,PTH,ComponentDrill
T5C0.0433
%
G90
G05
T1
X3.14Y-1.95
X3.14Y-2.43
X3.18Y-1.94
X3.18Y-2.5
X3.92Y-2.67
X3.92Y-2.92
X4.1137Y-2.8653
X4.74Y-2.94
X4.76Y-2.84
X4.84Y-3.02
X4.99Y-3.07
X5.1Y-1.97
X5.21Y-2.01
X5.56Y-2.01
X5.61Y-2.06
T2
X4.1031Y-3.45
X4.2016Y-3.45
X4.3Y-3.45
X4.5516Y-3.45
X4.65Y-3.45
X4.7484Y-3.45
X5.0016Y-3.45
X5.1Y-3.45
X5.1984Y-3.45
X5.2024Y-3.1707
X5.3008Y-3.1707
X5.3992Y-3.1707
X5.4531Y-3.45
X5.4976Y-3.1707
X5.5516Y-3.45
X5.65Y-3.45
T3
X3.2004Y-3.55
X3.4996Y-3.55
X3.7516Y-3.7
X3.85Y-3.7
X4.9Y-3.785
X5.0Y-3.785
X5.1Y-3.785
X5.2Y-3.785
X5.3Y-3.785
X5.4Y-3.785
X5.75Y-2.12
X5.75Y-2.22
X5.75Y-2.32
X5.75Y-2.42
X5.75Y-2.52
X5.75Y-2.62
X5.75Y-2.72
X5.75Y-2.82
T4
X3.2Y-3.1
X3.25Y-1.8
X3.25Y-2.4
X3.3Y-3.1
X3.35Y-1.8
X3.35Y-2.4
X3.4Y-3.1
X3.45Y-1.8
X3.45Y-2.4
X3.5Y-3.1
X3.55Y-1.8
X3.55Y-2.4
X3.6Y-3.1
X3.65Y-1.8
X3.65Y-2.4
X3.7Y-3.1
X3.75Y-1.8
X3.75Y-2.4
X3.8Y-3.1
X3.85Y-1.8
X3.85Y-2.4
X3.95Y-1.8
X3.95Y-2.4
X4.05Y-1.8
X4.05Y-2.4
X4.15Y-1.8
X4.15Y-2.4
X4.25Y-1.8
X4.25Y-2.4
X4.3Y-2.6
X4.35Y-1.8
X4.35Y-2.4
X4.4Y-2.6
X4.4Y-3.2
X4.45Y-1.8
X4.45Y-2.4
X4.5Y-2.6
X4.5Y-3.2
X4.55Y-1.8
X4.55Y-2.4
X4.6Y-2.6
X4.6Y-3.2
X4.65Y-1.8
X4.65Y-2.4
X4.7Y-2.6
X4.7Y-3.2
X4.75Y-1.8
X4.75Y-2.4
X4.8Y-2.6
X4.85Y-1.8
X4.85Y-2.4
X4.95Y-1.8
X4.95Y-2.4
X5.05Y-1.8
X5.05Y-2.4
X5.15Y-1.8
X5.15Y-2.4
X5.25Y-1.8
X5.25Y-2.4
X5.35Y-1.8
X5.35Y-2.4
X5.45Y-1.8
X5.45Y-2.4
X5.55Y-1.8
X5.55Y-2.4
T5
X4.1Y-3.7872
X4.2Y-3.7872
X4.3Y-3.7872
T0
M30
