%TF.GenerationSoftware,KiCad,Pcbnew,7.0.6-0*%
%TF.CreationDate,2024-02-15T10:15:36-05:00*%
%TF.ProjectId,Frame PCB 2,4672616d-6520-4504-9342-20322e6b6963,rev?*%
%TF.SameCoordinates,Original*%
%TF.FileFunction,Soldermask,Top*%
%TF.FilePolarity,Negative*%
%FSLAX46Y46*%
G04 Gerber Fmt 4.6, Leading zero omitted, Abs format (unit mm)*
G04 Created by KiCad (PCBNEW 7.0.6-0) date 2024-02-15 10:15:36*
%MOMM*%
%LPD*%
G01*
G04 APERTURE LIST*
G04 Aperture macros list*
%AMRoundRect*
0 Rectangle with rounded corners*
0 $1 Rounding radius*
0 $2 $3 $4 $5 $6 $7 $8 $9 X,Y pos of 4 corners*
0 Add a 4 corners polygon primitive as box body*
4,1,4,$2,$3,$4,$5,$6,$7,$8,$9,$2,$3,0*
0 Add four circle primitives for the rounded corners*
1,1,$1+$1,$2,$3*
1,1,$1+$1,$4,$5*
1,1,$1+$1,$6,$7*
1,1,$1+$1,$8,$9*
0 Add four rect primitives between the rounded corners*
20,1,$1+$1,$2,$3,$4,$5,0*
20,1,$1+$1,$4,$5,$6,$7,0*
20,1,$1+$1,$6,$7,$8,$9,0*
20,1,$1+$1,$8,$9,$2,$3,0*%
G04 Aperture macros list end*
%ADD10RoundRect,0.250000X-0.600000X-0.725000X0.600000X-0.725000X0.600000X0.725000X-0.600000X0.725000X0*%
%ADD11O,1.700000X1.950000*%
%ADD12R,1.700000X1.700000*%
%ADD13O,1.700000X1.700000*%
%ADD14C,3.200000*%
%ADD15C,2.000000*%
%ADD16R,1.905000X2.000000*%
%ADD17O,1.905000X2.000000*%
%ADD18RoundRect,0.250000X-0.600000X-0.750000X0.600000X-0.750000X0.600000X0.750000X-0.600000X0.750000X0*%
%ADD19O,1.700000X2.000000*%
%ADD20R,2.000000X2.000000*%
%ADD21RoundRect,0.250000X0.600000X0.725000X-0.600000X0.725000X-0.600000X-0.725000X0.600000X-0.725000X0*%
G04 APERTURE END LIST*
D10*
%TO.C,J5*%
X127040000Y-87630000D03*
D11*
X129540000Y-87630000D03*
X132040000Y-87630000D03*
%TD*%
D12*
%TO.C,BH1750*%
X124460000Y-96139000D03*
D13*
X127000000Y-96139000D03*
X129540000Y-96139000D03*
X132080000Y-96139000D03*
X134620000Y-96139000D03*
X137160000Y-96139000D03*
%TD*%
D10*
%TO.C,J7*%
X115610000Y-87630000D03*
D11*
X118110000Y-87630000D03*
X120610000Y-87630000D03*
%TD*%
D14*
%TO.C,H4*%
X147320000Y-96520000D03*
%TD*%
%TO.C,H2*%
X77470000Y-45720000D03*
%TD*%
D15*
%TO.C,BNO55*%
X121920000Y-66040000D03*
X119380000Y-66040000D03*
X116840000Y-66040000D03*
X114300000Y-66040000D03*
X111760000Y-66040000D03*
X109220000Y-66040000D03*
X119380000Y-81280000D03*
X116840000Y-81280000D03*
X114300000Y-81280000D03*
X111760000Y-81280000D03*
%TD*%
%TO.C,BMP280*%
X81280000Y-78740000D03*
X83820000Y-78740000D03*
X86360000Y-78740000D03*
X88900000Y-78740000D03*
X91440000Y-78740000D03*
X93980000Y-78740000D03*
X96520000Y-78740000D03*
%TD*%
D16*
%TO.C,q1*%
X104140000Y-96195000D03*
D17*
X106680000Y-96195000D03*
X109220000Y-96195000D03*
%TD*%
D14*
%TO.C,H3*%
X77470000Y-96520000D03*
%TD*%
D15*
%TO.C,Teensy4.1*%
X82550000Y-60960000D03*
X85090000Y-60960000D03*
X87630000Y-60960000D03*
X90170000Y-60960000D03*
X92710000Y-60960000D03*
X95250000Y-60960000D03*
X97790000Y-60960000D03*
X100330000Y-60960000D03*
X102870000Y-60960000D03*
X105410000Y-60960000D03*
X107950000Y-60960000D03*
X110490000Y-60960000D03*
X113030000Y-60960000D03*
X115570000Y-60960000D03*
X118110000Y-60960000D03*
X120650000Y-60960000D03*
X123190000Y-60960000D03*
X125730000Y-60960000D03*
X128270000Y-60960000D03*
X130810000Y-60960000D03*
X133350000Y-60960000D03*
X135890000Y-60960000D03*
X138430000Y-60960000D03*
X140970000Y-60960000D03*
X140970000Y-45720000D03*
X138430000Y-45720000D03*
X135890000Y-45720000D03*
X133350000Y-45720000D03*
X130810000Y-45720000D03*
X128270000Y-45720000D03*
X125730000Y-45720000D03*
X123190000Y-45720000D03*
X120650000Y-45720000D03*
X118110000Y-45720000D03*
X115570000Y-45720000D03*
X113030000Y-45720000D03*
X110490000Y-45720000D03*
X107950000Y-45720000D03*
X105410000Y-45720000D03*
X102870000Y-45720000D03*
X100330000Y-45720000D03*
X97790000Y-45720000D03*
X95250000Y-45720000D03*
X92710000Y-45720000D03*
X90170000Y-45720000D03*
X87630000Y-45720000D03*
X85090000Y-45720000D03*
X82550000Y-45720000D03*
%TD*%
D10*
%TO.C,J4*%
X104220000Y-87630000D03*
D11*
X106720000Y-87630000D03*
X109220000Y-87630000D03*
%TD*%
D10*
%TO.C,J6*%
X138510000Y-87630000D03*
D11*
X141010000Y-87630000D03*
X143510000Y-87630000D03*
%TD*%
D18*
%TO.C,J2*%
X95290000Y-93980000D03*
D19*
X97790000Y-93980000D03*
%TD*%
D20*
%TO.C,BZ1*%
X81290000Y-90170000D03*
D15*
X88890000Y-90170000D03*
%TD*%
D21*
%TO.C,J8*%
X139640000Y-80535000D03*
D11*
X137140000Y-80535000D03*
X134640000Y-80535000D03*
X132140000Y-80535000D03*
%TD*%
D14*
%TO.C,H1*%
X147320000Y-45720000D03*
%TD*%
D12*
%TO.C,Bluefruitle1*%
X146050000Y-53848000D03*
D13*
X146050000Y-56388000D03*
X146050000Y-58928000D03*
X146050000Y-61468000D03*
X146050000Y-64008000D03*
X146050000Y-66548000D03*
X146050000Y-69088000D03*
X146050000Y-71628000D03*
%TD*%
M02*
