%TF.GenerationSoftware,KiCad,Pcbnew,7.0.6-0*%
%TF.CreationDate,2023-11-16T12:01:13-05:00*%
%TF.ProjectId,TADPOL PCB,54414450-4f4c-4205-9043-422e6b696361,rev?*%
%TF.SameCoordinates,Original*%
%TF.FileFunction,Legend,Bot*%
%TF.FilePolarity,Positive*%
%FSLAX46Y46*%
G04 Gerber Fmt 4.6, Leading zero omitted, Abs format (unit mm)*
G04 Created by KiCad (PCBNEW 7.0.6-0) date 2023-11-16 12:01:13*
%MOMM*%
%LPD*%
G01*
G04 APERTURE LIST*
%ADD10C,0.150000*%
%ADD11C,0.100000*%
%ADD12C,0.120000*%
G04 APERTURE END LIST*
D10*
X164883858Y-95085019D02*
X164217192Y-95085019D01*
X164217192Y-95085019D02*
X164645763Y-96085019D01*
X163836239Y-95989780D02*
X163788620Y-96037400D01*
X163788620Y-96037400D02*
X163836239Y-96085019D01*
X163836239Y-96085019D02*
X163883858Y-96037400D01*
X163883858Y-96037400D02*
X163836239Y-95989780D01*
X163836239Y-95989780D02*
X163836239Y-96085019D01*
X162883859Y-95085019D02*
X163360049Y-95085019D01*
X163360049Y-95085019D02*
X163407668Y-95561209D01*
X163407668Y-95561209D02*
X163360049Y-95513590D01*
X163360049Y-95513590D02*
X163264811Y-95465971D01*
X163264811Y-95465971D02*
X163026716Y-95465971D01*
X163026716Y-95465971D02*
X162931478Y-95513590D01*
X162931478Y-95513590D02*
X162883859Y-95561209D01*
X162883859Y-95561209D02*
X162836240Y-95656447D01*
X162836240Y-95656447D02*
X162836240Y-95894542D01*
X162836240Y-95894542D02*
X162883859Y-95989780D01*
X162883859Y-95989780D02*
X162931478Y-96037400D01*
X162931478Y-96037400D02*
X163026716Y-96085019D01*
X163026716Y-96085019D02*
X163264811Y-96085019D01*
X163264811Y-96085019D02*
X163360049Y-96037400D01*
X163360049Y-96037400D02*
X163407668Y-95989780D01*
X162502906Y-95418352D02*
X162264811Y-96085019D01*
X162264811Y-96085019D02*
X162026716Y-95418352D01*
X197983239Y-86918800D02*
X197840382Y-86966419D01*
X197840382Y-86966419D02*
X197602287Y-86966419D01*
X197602287Y-86966419D02*
X197507049Y-86918800D01*
X197507049Y-86918800D02*
X197459430Y-86871180D01*
X197459430Y-86871180D02*
X197411811Y-86775942D01*
X197411811Y-86775942D02*
X197411811Y-86680704D01*
X197411811Y-86680704D02*
X197459430Y-86585466D01*
X197459430Y-86585466D02*
X197507049Y-86537847D01*
X197507049Y-86537847D02*
X197602287Y-86490228D01*
X197602287Y-86490228D02*
X197792763Y-86442609D01*
X197792763Y-86442609D02*
X197888001Y-86394990D01*
X197888001Y-86394990D02*
X197935620Y-86347371D01*
X197935620Y-86347371D02*
X197983239Y-86252133D01*
X197983239Y-86252133D02*
X197983239Y-86156895D01*
X197983239Y-86156895D02*
X197935620Y-86061657D01*
X197935620Y-86061657D02*
X197888001Y-86014038D01*
X197888001Y-86014038D02*
X197792763Y-85966419D01*
X197792763Y-85966419D02*
X197554668Y-85966419D01*
X197554668Y-85966419D02*
X197411811Y-86014038D01*
X196411811Y-86871180D02*
X196459430Y-86918800D01*
X196459430Y-86918800D02*
X196602287Y-86966419D01*
X196602287Y-86966419D02*
X196697525Y-86966419D01*
X196697525Y-86966419D02*
X196840382Y-86918800D01*
X196840382Y-86918800D02*
X196935620Y-86823561D01*
X196935620Y-86823561D02*
X196983239Y-86728323D01*
X196983239Y-86728323D02*
X197030858Y-86537847D01*
X197030858Y-86537847D02*
X197030858Y-86394990D01*
X197030858Y-86394990D02*
X196983239Y-86204514D01*
X196983239Y-86204514D02*
X196935620Y-86109276D01*
X196935620Y-86109276D02*
X196840382Y-86014038D01*
X196840382Y-86014038D02*
X196697525Y-85966419D01*
X196697525Y-85966419D02*
X196602287Y-85966419D01*
X196602287Y-85966419D02*
X196459430Y-86014038D01*
X196459430Y-86014038D02*
X196411811Y-86061657D01*
X195507049Y-86966419D02*
X195983239Y-86966419D01*
X195983239Y-86966419D02*
X195983239Y-85966419D01*
X203126811Y-86191838D02*
X203222049Y-86144219D01*
X203222049Y-86144219D02*
X203364906Y-86144219D01*
X203364906Y-86144219D02*
X203507763Y-86191838D01*
X203507763Y-86191838D02*
X203603001Y-86287076D01*
X203603001Y-86287076D02*
X203650620Y-86382314D01*
X203650620Y-86382314D02*
X203698239Y-86572790D01*
X203698239Y-86572790D02*
X203698239Y-86715647D01*
X203698239Y-86715647D02*
X203650620Y-86906123D01*
X203650620Y-86906123D02*
X203603001Y-87001361D01*
X203603001Y-87001361D02*
X203507763Y-87096600D01*
X203507763Y-87096600D02*
X203364906Y-87144219D01*
X203364906Y-87144219D02*
X203269668Y-87144219D01*
X203269668Y-87144219D02*
X203126811Y-87096600D01*
X203126811Y-87096600D02*
X203079192Y-87048980D01*
X203079192Y-87048980D02*
X203079192Y-86715647D01*
X203079192Y-86715647D02*
X203269668Y-86715647D01*
X202650620Y-87144219D02*
X202650620Y-86144219D01*
X202650620Y-86144219D02*
X202079192Y-87144219D01*
X202079192Y-87144219D02*
X202079192Y-86144219D01*
X201603001Y-87144219D02*
X201603001Y-86144219D01*
X201603001Y-86144219D02*
X201364906Y-86144219D01*
X201364906Y-86144219D02*
X201222049Y-86191838D01*
X201222049Y-86191838D02*
X201126811Y-86287076D01*
X201126811Y-86287076D02*
X201079192Y-86382314D01*
X201079192Y-86382314D02*
X201031573Y-86572790D01*
X201031573Y-86572790D02*
X201031573Y-86715647D01*
X201031573Y-86715647D02*
X201079192Y-86906123D01*
X201079192Y-86906123D02*
X201126811Y-87001361D01*
X201126811Y-87001361D02*
X201222049Y-87096600D01*
X201222049Y-87096600D02*
X201364906Y-87144219D01*
X201364906Y-87144219D02*
X201603001Y-87144219D01*
X201056639Y-83464400D02*
X200913782Y-83512019D01*
X200913782Y-83512019D02*
X200675687Y-83512019D01*
X200675687Y-83512019D02*
X200580449Y-83464400D01*
X200580449Y-83464400D02*
X200532830Y-83416780D01*
X200532830Y-83416780D02*
X200485211Y-83321542D01*
X200485211Y-83321542D02*
X200485211Y-83226304D01*
X200485211Y-83226304D02*
X200532830Y-83131066D01*
X200532830Y-83131066D02*
X200580449Y-83083447D01*
X200580449Y-83083447D02*
X200675687Y-83035828D01*
X200675687Y-83035828D02*
X200866163Y-82988209D01*
X200866163Y-82988209D02*
X200961401Y-82940590D01*
X200961401Y-82940590D02*
X201009020Y-82892971D01*
X201009020Y-82892971D02*
X201056639Y-82797733D01*
X201056639Y-82797733D02*
X201056639Y-82702495D01*
X201056639Y-82702495D02*
X201009020Y-82607257D01*
X201009020Y-82607257D02*
X200961401Y-82559638D01*
X200961401Y-82559638D02*
X200866163Y-82512019D01*
X200866163Y-82512019D02*
X200628068Y-82512019D01*
X200628068Y-82512019D02*
X200485211Y-82559638D01*
X200056639Y-83512019D02*
X200056639Y-82512019D01*
X200056639Y-82512019D02*
X199818544Y-82512019D01*
X199818544Y-82512019D02*
X199675687Y-82559638D01*
X199675687Y-82559638D02*
X199580449Y-82654876D01*
X199580449Y-82654876D02*
X199532830Y-82750114D01*
X199532830Y-82750114D02*
X199485211Y-82940590D01*
X199485211Y-82940590D02*
X199485211Y-83083447D01*
X199485211Y-83083447D02*
X199532830Y-83273923D01*
X199532830Y-83273923D02*
X199580449Y-83369161D01*
X199580449Y-83369161D02*
X199675687Y-83464400D01*
X199675687Y-83464400D02*
X199818544Y-83512019D01*
X199818544Y-83512019D02*
X200056639Y-83512019D01*
X199104258Y-83226304D02*
X198628068Y-83226304D01*
X199199496Y-83512019D02*
X198866163Y-82512019D01*
X198866163Y-82512019D02*
X198532830Y-83512019D01*
X174221611Y-99526838D02*
X174316849Y-99479219D01*
X174316849Y-99479219D02*
X174459706Y-99479219D01*
X174459706Y-99479219D02*
X174602563Y-99526838D01*
X174602563Y-99526838D02*
X174697801Y-99622076D01*
X174697801Y-99622076D02*
X174745420Y-99717314D01*
X174745420Y-99717314D02*
X174793039Y-99907790D01*
X174793039Y-99907790D02*
X174793039Y-100050647D01*
X174793039Y-100050647D02*
X174745420Y-100241123D01*
X174745420Y-100241123D02*
X174697801Y-100336361D01*
X174697801Y-100336361D02*
X174602563Y-100431600D01*
X174602563Y-100431600D02*
X174459706Y-100479219D01*
X174459706Y-100479219D02*
X174364468Y-100479219D01*
X174364468Y-100479219D02*
X174221611Y-100431600D01*
X174221611Y-100431600D02*
X174173992Y-100383980D01*
X174173992Y-100383980D02*
X174173992Y-100050647D01*
X174173992Y-100050647D02*
X174364468Y-100050647D01*
X173745420Y-100479219D02*
X173745420Y-99479219D01*
X173745420Y-99479219D02*
X173173992Y-100479219D01*
X173173992Y-100479219D02*
X173173992Y-99479219D01*
X172697801Y-100479219D02*
X172697801Y-99479219D01*
X172697801Y-99479219D02*
X172459706Y-99479219D01*
X172459706Y-99479219D02*
X172316849Y-99526838D01*
X172316849Y-99526838D02*
X172221611Y-99622076D01*
X172221611Y-99622076D02*
X172173992Y-99717314D01*
X172173992Y-99717314D02*
X172126373Y-99907790D01*
X172126373Y-99907790D02*
X172126373Y-100050647D01*
X172126373Y-100050647D02*
X172173992Y-100241123D01*
X172173992Y-100241123D02*
X172221611Y-100336361D01*
X172221611Y-100336361D02*
X172316849Y-100431600D01*
X172316849Y-100431600D02*
X172459706Y-100479219D01*
X172459706Y-100479219D02*
X172697801Y-100479219D01*
X181038258Y-85585419D02*
X180371592Y-85585419D01*
X180371592Y-85585419D02*
X180800163Y-86585419D01*
X179990639Y-86490180D02*
X179943020Y-86537800D01*
X179943020Y-86537800D02*
X179990639Y-86585419D01*
X179990639Y-86585419D02*
X180038258Y-86537800D01*
X180038258Y-86537800D02*
X179990639Y-86490180D01*
X179990639Y-86490180D02*
X179990639Y-86585419D01*
X179038259Y-85585419D02*
X179514449Y-85585419D01*
X179514449Y-85585419D02*
X179562068Y-86061609D01*
X179562068Y-86061609D02*
X179514449Y-86013990D01*
X179514449Y-86013990D02*
X179419211Y-85966371D01*
X179419211Y-85966371D02*
X179181116Y-85966371D01*
X179181116Y-85966371D02*
X179085878Y-86013990D01*
X179085878Y-86013990D02*
X179038259Y-86061609D01*
X179038259Y-86061609D02*
X178990640Y-86156847D01*
X178990640Y-86156847D02*
X178990640Y-86394942D01*
X178990640Y-86394942D02*
X179038259Y-86490180D01*
X179038259Y-86490180D02*
X179085878Y-86537800D01*
X179085878Y-86537800D02*
X179181116Y-86585419D01*
X179181116Y-86585419D02*
X179419211Y-86585419D01*
X179419211Y-86585419D02*
X179514449Y-86537800D01*
X179514449Y-86537800D02*
X179562068Y-86490180D01*
X178704925Y-85585419D02*
X178371592Y-86585419D01*
X178371592Y-86585419D02*
X178038259Y-85585419D01*
X165865011Y-82458038D02*
X165960249Y-82410419D01*
X165960249Y-82410419D02*
X166103106Y-82410419D01*
X166103106Y-82410419D02*
X166245963Y-82458038D01*
X166245963Y-82458038D02*
X166341201Y-82553276D01*
X166341201Y-82553276D02*
X166388820Y-82648514D01*
X166388820Y-82648514D02*
X166436439Y-82838990D01*
X166436439Y-82838990D02*
X166436439Y-82981847D01*
X166436439Y-82981847D02*
X166388820Y-83172323D01*
X166388820Y-83172323D02*
X166341201Y-83267561D01*
X166341201Y-83267561D02*
X166245963Y-83362800D01*
X166245963Y-83362800D02*
X166103106Y-83410419D01*
X166103106Y-83410419D02*
X166007868Y-83410419D01*
X166007868Y-83410419D02*
X165865011Y-83362800D01*
X165865011Y-83362800D02*
X165817392Y-83315180D01*
X165817392Y-83315180D02*
X165817392Y-82981847D01*
X165817392Y-82981847D02*
X166007868Y-82981847D01*
X165388820Y-83410419D02*
X165388820Y-82410419D01*
X165388820Y-82410419D02*
X164817392Y-83410419D01*
X164817392Y-83410419D02*
X164817392Y-82410419D01*
X164341201Y-83410419D02*
X164341201Y-82410419D01*
X164341201Y-82410419D02*
X164103106Y-82410419D01*
X164103106Y-82410419D02*
X163960249Y-82458038D01*
X163960249Y-82458038D02*
X163865011Y-82553276D01*
X163865011Y-82553276D02*
X163817392Y-82648514D01*
X163817392Y-82648514D02*
X163769773Y-82838990D01*
X163769773Y-82838990D02*
X163769773Y-82981847D01*
X163769773Y-82981847D02*
X163817392Y-83172323D01*
X163817392Y-83172323D02*
X163865011Y-83267561D01*
X163865011Y-83267561D02*
X163960249Y-83362800D01*
X163960249Y-83362800D02*
X164103106Y-83410419D01*
X164103106Y-83410419D02*
X164341201Y-83410419D01*
X177752211Y-82508838D02*
X177847449Y-82461219D01*
X177847449Y-82461219D02*
X177990306Y-82461219D01*
X177990306Y-82461219D02*
X178133163Y-82508838D01*
X178133163Y-82508838D02*
X178228401Y-82604076D01*
X178228401Y-82604076D02*
X178276020Y-82699314D01*
X178276020Y-82699314D02*
X178323639Y-82889790D01*
X178323639Y-82889790D02*
X178323639Y-83032647D01*
X178323639Y-83032647D02*
X178276020Y-83223123D01*
X178276020Y-83223123D02*
X178228401Y-83318361D01*
X178228401Y-83318361D02*
X178133163Y-83413600D01*
X178133163Y-83413600D02*
X177990306Y-83461219D01*
X177990306Y-83461219D02*
X177895068Y-83461219D01*
X177895068Y-83461219D02*
X177752211Y-83413600D01*
X177752211Y-83413600D02*
X177704592Y-83365980D01*
X177704592Y-83365980D02*
X177704592Y-83032647D01*
X177704592Y-83032647D02*
X177895068Y-83032647D01*
X177276020Y-83461219D02*
X177276020Y-82461219D01*
X177276020Y-82461219D02*
X176704592Y-83461219D01*
X176704592Y-83461219D02*
X176704592Y-82461219D01*
X176228401Y-83461219D02*
X176228401Y-82461219D01*
X176228401Y-82461219D02*
X175990306Y-82461219D01*
X175990306Y-82461219D02*
X175847449Y-82508838D01*
X175847449Y-82508838D02*
X175752211Y-82604076D01*
X175752211Y-82604076D02*
X175704592Y-82699314D01*
X175704592Y-82699314D02*
X175656973Y-82889790D01*
X175656973Y-82889790D02*
X175656973Y-83032647D01*
X175656973Y-83032647D02*
X175704592Y-83223123D01*
X175704592Y-83223123D02*
X175752211Y-83318361D01*
X175752211Y-83318361D02*
X175847449Y-83413600D01*
X175847449Y-83413600D02*
X175990306Y-83461219D01*
X175990306Y-83461219D02*
X176228401Y-83461219D01*
X170491011Y-109933438D02*
X170586249Y-109885819D01*
X170586249Y-109885819D02*
X170729106Y-109885819D01*
X170729106Y-109885819D02*
X170871963Y-109933438D01*
X170871963Y-109933438D02*
X170967201Y-110028676D01*
X170967201Y-110028676D02*
X171014820Y-110123914D01*
X171014820Y-110123914D02*
X171062439Y-110314390D01*
X171062439Y-110314390D02*
X171062439Y-110457247D01*
X171062439Y-110457247D02*
X171014820Y-110647723D01*
X171014820Y-110647723D02*
X170967201Y-110742961D01*
X170967201Y-110742961D02*
X170871963Y-110838200D01*
X170871963Y-110838200D02*
X170729106Y-110885819D01*
X170729106Y-110885819D02*
X170633868Y-110885819D01*
X170633868Y-110885819D02*
X170491011Y-110838200D01*
X170491011Y-110838200D02*
X170443392Y-110790580D01*
X170443392Y-110790580D02*
X170443392Y-110457247D01*
X170443392Y-110457247D02*
X170633868Y-110457247D01*
X158321211Y-122386838D02*
X158416449Y-122339219D01*
X158416449Y-122339219D02*
X158559306Y-122339219D01*
X158559306Y-122339219D02*
X158702163Y-122386838D01*
X158702163Y-122386838D02*
X158797401Y-122482076D01*
X158797401Y-122482076D02*
X158845020Y-122577314D01*
X158845020Y-122577314D02*
X158892639Y-122767790D01*
X158892639Y-122767790D02*
X158892639Y-122910647D01*
X158892639Y-122910647D02*
X158845020Y-123101123D01*
X158845020Y-123101123D02*
X158797401Y-123196361D01*
X158797401Y-123196361D02*
X158702163Y-123291600D01*
X158702163Y-123291600D02*
X158559306Y-123339219D01*
X158559306Y-123339219D02*
X158464068Y-123339219D01*
X158464068Y-123339219D02*
X158321211Y-123291600D01*
X158321211Y-123291600D02*
X158273592Y-123243980D01*
X158273592Y-123243980D02*
X158273592Y-122910647D01*
X158273592Y-122910647D02*
X158464068Y-122910647D01*
X157845020Y-123339219D02*
X157845020Y-122339219D01*
X157845020Y-122339219D02*
X157273592Y-123339219D01*
X157273592Y-123339219D02*
X157273592Y-122339219D01*
X156797401Y-123339219D02*
X156797401Y-122339219D01*
X156797401Y-122339219D02*
X156559306Y-122339219D01*
X156559306Y-122339219D02*
X156416449Y-122386838D01*
X156416449Y-122386838D02*
X156321211Y-122482076D01*
X156321211Y-122482076D02*
X156273592Y-122577314D01*
X156273592Y-122577314D02*
X156225973Y-122767790D01*
X156225973Y-122767790D02*
X156225973Y-122910647D01*
X156225973Y-122910647D02*
X156273592Y-123101123D01*
X156273592Y-123101123D02*
X156321211Y-123196361D01*
X156321211Y-123196361D02*
X156416449Y-123291600D01*
X156416449Y-123291600D02*
X156559306Y-123339219D01*
X156559306Y-123339219D02*
X156797401Y-123339219D01*
X171799020Y-83461219D02*
X171799020Y-82461219D01*
X171799020Y-82461219D02*
X171418068Y-82461219D01*
X171418068Y-82461219D02*
X171322830Y-82508838D01*
X171322830Y-82508838D02*
X171275211Y-82556457D01*
X171275211Y-82556457D02*
X171227592Y-82651695D01*
X171227592Y-82651695D02*
X171227592Y-82794552D01*
X171227592Y-82794552D02*
X171275211Y-82889790D01*
X171275211Y-82889790D02*
X171322830Y-82937409D01*
X171322830Y-82937409D02*
X171418068Y-82985028D01*
X171418068Y-82985028D02*
X171799020Y-82985028D01*
X170894258Y-82461219D02*
X170656163Y-83461219D01*
X170656163Y-83461219D02*
X170465687Y-82746933D01*
X170465687Y-82746933D02*
X170275211Y-83461219D01*
X170275211Y-83461219D02*
X170037116Y-82461219D01*
X169656163Y-83461219D02*
X169656163Y-82461219D01*
X169656163Y-82461219D02*
X169322830Y-83175504D01*
X169322830Y-83175504D02*
X168989497Y-82461219D01*
X168989497Y-82461219D02*
X168989497Y-83461219D01*
X183559220Y-83512019D02*
X183559220Y-82512019D01*
X183559220Y-82512019D02*
X183178268Y-82512019D01*
X183178268Y-82512019D02*
X183083030Y-82559638D01*
X183083030Y-82559638D02*
X183035411Y-82607257D01*
X183035411Y-82607257D02*
X182987792Y-82702495D01*
X182987792Y-82702495D02*
X182987792Y-82845352D01*
X182987792Y-82845352D02*
X183035411Y-82940590D01*
X183035411Y-82940590D02*
X183083030Y-82988209D01*
X183083030Y-82988209D02*
X183178268Y-83035828D01*
X183178268Y-83035828D02*
X183559220Y-83035828D01*
X182654458Y-82512019D02*
X182416363Y-83512019D01*
X182416363Y-83512019D02*
X182225887Y-82797733D01*
X182225887Y-82797733D02*
X182035411Y-83512019D01*
X182035411Y-83512019D02*
X181797316Y-82512019D01*
X181416363Y-83512019D02*
X181416363Y-82512019D01*
X181416363Y-82512019D02*
X181083030Y-83226304D01*
X181083030Y-83226304D02*
X180749697Y-82512019D01*
X180749697Y-82512019D02*
X180749697Y-83512019D01*
X169151058Y-85585419D02*
X168484392Y-85585419D01*
X168484392Y-85585419D02*
X168912963Y-86585419D01*
X168103439Y-86490180D02*
X168055820Y-86537800D01*
X168055820Y-86537800D02*
X168103439Y-86585419D01*
X168103439Y-86585419D02*
X168151058Y-86537800D01*
X168151058Y-86537800D02*
X168103439Y-86490180D01*
X168103439Y-86490180D02*
X168103439Y-86585419D01*
X167151059Y-85585419D02*
X167627249Y-85585419D01*
X167627249Y-85585419D02*
X167674868Y-86061609D01*
X167674868Y-86061609D02*
X167627249Y-86013990D01*
X167627249Y-86013990D02*
X167532011Y-85966371D01*
X167532011Y-85966371D02*
X167293916Y-85966371D01*
X167293916Y-85966371D02*
X167198678Y-86013990D01*
X167198678Y-86013990D02*
X167151059Y-86061609D01*
X167151059Y-86061609D02*
X167103440Y-86156847D01*
X167103440Y-86156847D02*
X167103440Y-86394942D01*
X167103440Y-86394942D02*
X167151059Y-86490180D01*
X167151059Y-86490180D02*
X167198678Y-86537800D01*
X167198678Y-86537800D02*
X167293916Y-86585419D01*
X167293916Y-86585419D02*
X167532011Y-86585419D01*
X167532011Y-86585419D02*
X167627249Y-86537800D01*
X167627249Y-86537800D02*
X167674868Y-86490180D01*
X166817725Y-85585419D02*
X166484392Y-86585419D01*
X166484392Y-86585419D02*
X166151059Y-85585419D01*
X175939220Y-97837619D02*
X175939220Y-96837619D01*
X175939220Y-96837619D02*
X175367792Y-97837619D01*
X175367792Y-97837619D02*
X175367792Y-96837619D01*
X174939220Y-97790000D02*
X174796363Y-97837619D01*
X174796363Y-97837619D02*
X174558268Y-97837619D01*
X174558268Y-97837619D02*
X174463030Y-97790000D01*
X174463030Y-97790000D02*
X174415411Y-97742380D01*
X174415411Y-97742380D02*
X174367792Y-97647142D01*
X174367792Y-97647142D02*
X174367792Y-97551904D01*
X174367792Y-97551904D02*
X174415411Y-97456666D01*
X174415411Y-97456666D02*
X174463030Y-97409047D01*
X174463030Y-97409047D02*
X174558268Y-97361428D01*
X174558268Y-97361428D02*
X174748744Y-97313809D01*
X174748744Y-97313809D02*
X174843982Y-97266190D01*
X174843982Y-97266190D02*
X174891601Y-97218571D01*
X174891601Y-97218571D02*
X174939220Y-97123333D01*
X174939220Y-97123333D02*
X174939220Y-97028095D01*
X174939220Y-97028095D02*
X174891601Y-96932857D01*
X174891601Y-96932857D02*
X174843982Y-96885238D01*
X174843982Y-96885238D02*
X174748744Y-96837619D01*
X174748744Y-96837619D02*
X174510649Y-96837619D01*
X174510649Y-96837619D02*
X174367792Y-96885238D01*
X173939220Y-97837619D02*
X173939220Y-97170952D01*
X173939220Y-96837619D02*
X173986839Y-96885238D01*
X173986839Y-96885238D02*
X173939220Y-96932857D01*
X173939220Y-96932857D02*
X173891601Y-96885238D01*
X173891601Y-96885238D02*
X173939220Y-96837619D01*
X173939220Y-96837619D02*
X173939220Y-96932857D01*
X173034459Y-97170952D02*
X173034459Y-97980476D01*
X173034459Y-97980476D02*
X173082078Y-98075714D01*
X173082078Y-98075714D02*
X173129697Y-98123333D01*
X173129697Y-98123333D02*
X173224935Y-98170952D01*
X173224935Y-98170952D02*
X173367792Y-98170952D01*
X173367792Y-98170952D02*
X173463030Y-98123333D01*
X173034459Y-97790000D02*
X173129697Y-97837619D01*
X173129697Y-97837619D02*
X173320173Y-97837619D01*
X173320173Y-97837619D02*
X173415411Y-97790000D01*
X173415411Y-97790000D02*
X173463030Y-97742380D01*
X173463030Y-97742380D02*
X173510649Y-97647142D01*
X173510649Y-97647142D02*
X173510649Y-97361428D01*
X173510649Y-97361428D02*
X173463030Y-97266190D01*
X173463030Y-97266190D02*
X173415411Y-97218571D01*
X173415411Y-97218571D02*
X173320173Y-97170952D01*
X173320173Y-97170952D02*
X173129697Y-97170952D01*
X173129697Y-97170952D02*
X173034459Y-97218571D01*
X172605887Y-96932857D02*
X172558268Y-96885238D01*
X172558268Y-96885238D02*
X172463030Y-96837619D01*
X172463030Y-96837619D02*
X172224935Y-96837619D01*
X172224935Y-96837619D02*
X172129697Y-96885238D01*
X172129697Y-96885238D02*
X172082078Y-96932857D01*
X172082078Y-96932857D02*
X172034459Y-97028095D01*
X172034459Y-97028095D02*
X172034459Y-97123333D01*
X172034459Y-97123333D02*
X172082078Y-97266190D01*
X172082078Y-97266190D02*
X172653506Y-97837619D01*
X172653506Y-97837619D02*
X172034459Y-97837619D01*
X172913439Y-110600104D02*
X172437249Y-110600104D01*
X173008677Y-110885819D02*
X172675344Y-109885819D01*
X172675344Y-109885819D02*
X172342011Y-110885819D01*
X160969438Y-114936588D02*
X160921819Y-114841350D01*
X160921819Y-114841350D02*
X160921819Y-114698493D01*
X160921819Y-114698493D02*
X160969438Y-114555636D01*
X160969438Y-114555636D02*
X161064676Y-114460398D01*
X161064676Y-114460398D02*
X161159914Y-114412779D01*
X161159914Y-114412779D02*
X161350390Y-114365160D01*
X161350390Y-114365160D02*
X161493247Y-114365160D01*
X161493247Y-114365160D02*
X161683723Y-114412779D01*
X161683723Y-114412779D02*
X161778961Y-114460398D01*
X161778961Y-114460398D02*
X161874200Y-114555636D01*
X161874200Y-114555636D02*
X161921819Y-114698493D01*
X161921819Y-114698493D02*
X161921819Y-114793731D01*
X161921819Y-114793731D02*
X161874200Y-114936588D01*
X161874200Y-114936588D02*
X161826580Y-114984207D01*
X161826580Y-114984207D02*
X161493247Y-114984207D01*
X161493247Y-114984207D02*
X161493247Y-114793731D01*
X161921819Y-115412779D02*
X160921819Y-115412779D01*
X160921819Y-115412779D02*
X161921819Y-115984207D01*
X161921819Y-115984207D02*
X160921819Y-115984207D01*
X161921819Y-116460398D02*
X160921819Y-116460398D01*
X160921819Y-116460398D02*
X160921819Y-116698493D01*
X160921819Y-116698493D02*
X160969438Y-116841350D01*
X160969438Y-116841350D02*
X161064676Y-116936588D01*
X161064676Y-116936588D02*
X161159914Y-116984207D01*
X161159914Y-116984207D02*
X161350390Y-117031826D01*
X161350390Y-117031826D02*
X161493247Y-117031826D01*
X161493247Y-117031826D02*
X161683723Y-116984207D01*
X161683723Y-116984207D02*
X161778961Y-116936588D01*
X161778961Y-116936588D02*
X161874200Y-116841350D01*
X161874200Y-116841350D02*
X161921819Y-116698493D01*
X161921819Y-116698493D02*
X161921819Y-116460398D01*
X164087011Y-100034838D02*
X164182249Y-99987219D01*
X164182249Y-99987219D02*
X164325106Y-99987219D01*
X164325106Y-99987219D02*
X164467963Y-100034838D01*
X164467963Y-100034838D02*
X164563201Y-100130076D01*
X164563201Y-100130076D02*
X164610820Y-100225314D01*
X164610820Y-100225314D02*
X164658439Y-100415790D01*
X164658439Y-100415790D02*
X164658439Y-100558647D01*
X164658439Y-100558647D02*
X164610820Y-100749123D01*
X164610820Y-100749123D02*
X164563201Y-100844361D01*
X164563201Y-100844361D02*
X164467963Y-100939600D01*
X164467963Y-100939600D02*
X164325106Y-100987219D01*
X164325106Y-100987219D02*
X164229868Y-100987219D01*
X164229868Y-100987219D02*
X164087011Y-100939600D01*
X164087011Y-100939600D02*
X164039392Y-100891980D01*
X164039392Y-100891980D02*
X164039392Y-100558647D01*
X164039392Y-100558647D02*
X164229868Y-100558647D01*
X163610820Y-100987219D02*
X163610820Y-99987219D01*
X163610820Y-99987219D02*
X163039392Y-100987219D01*
X163039392Y-100987219D02*
X163039392Y-99987219D01*
X162563201Y-100987219D02*
X162563201Y-99987219D01*
X162563201Y-99987219D02*
X162325106Y-99987219D01*
X162325106Y-99987219D02*
X162182249Y-100034838D01*
X162182249Y-100034838D02*
X162087011Y-100130076D01*
X162087011Y-100130076D02*
X162039392Y-100225314D01*
X162039392Y-100225314D02*
X161991773Y-100415790D01*
X161991773Y-100415790D02*
X161991773Y-100558647D01*
X161991773Y-100558647D02*
X162039392Y-100749123D01*
X162039392Y-100749123D02*
X162087011Y-100844361D01*
X162087011Y-100844361D02*
X162182249Y-100939600D01*
X162182249Y-100939600D02*
X162325106Y-100987219D01*
X162325106Y-100987219D02*
X162563201Y-100987219D01*
X208546287Y-86855809D02*
X208879620Y-86855809D01*
X208879620Y-87379619D02*
X208879620Y-86379619D01*
X208879620Y-86379619D02*
X208403430Y-86379619D01*
X208070096Y-87332000D02*
X207927239Y-87379619D01*
X207927239Y-87379619D02*
X207689144Y-87379619D01*
X207689144Y-87379619D02*
X207593906Y-87332000D01*
X207593906Y-87332000D02*
X207546287Y-87284380D01*
X207546287Y-87284380D02*
X207498668Y-87189142D01*
X207498668Y-87189142D02*
X207498668Y-87093904D01*
X207498668Y-87093904D02*
X207546287Y-86998666D01*
X207546287Y-86998666D02*
X207593906Y-86951047D01*
X207593906Y-86951047D02*
X207689144Y-86903428D01*
X207689144Y-86903428D02*
X207879620Y-86855809D01*
X207879620Y-86855809D02*
X207974858Y-86808190D01*
X207974858Y-86808190D02*
X208022477Y-86760571D01*
X208022477Y-86760571D02*
X208070096Y-86665333D01*
X208070096Y-86665333D02*
X208070096Y-86570095D01*
X208070096Y-86570095D02*
X208022477Y-86474857D01*
X208022477Y-86474857D02*
X207974858Y-86427238D01*
X207974858Y-86427238D02*
X207879620Y-86379619D01*
X207879620Y-86379619D02*
X207641525Y-86379619D01*
X207641525Y-86379619D02*
X207498668Y-86427238D01*
X207212953Y-86379619D02*
X206641525Y-86379619D01*
X206927239Y-87379619D02*
X206927239Y-86379619D01*
X205736763Y-87379619D02*
X206070096Y-86903428D01*
X206308191Y-87379619D02*
X206308191Y-86379619D01*
X206308191Y-86379619D02*
X205927239Y-86379619D01*
X205927239Y-86379619D02*
X205832001Y-86427238D01*
X205832001Y-86427238D02*
X205784382Y-86474857D01*
X205784382Y-86474857D02*
X205736763Y-86570095D01*
X205736763Y-86570095D02*
X205736763Y-86712952D01*
X205736763Y-86712952D02*
X205784382Y-86808190D01*
X205784382Y-86808190D02*
X205832001Y-86855809D01*
X205832001Y-86855809D02*
X205927239Y-86903428D01*
X205927239Y-86903428D02*
X206308191Y-86903428D01*
X159318077Y-124777619D02*
X158984744Y-125777619D01*
X158984744Y-125777619D02*
X158651411Y-124777619D01*
X158127601Y-124777619D02*
X157937125Y-124777619D01*
X157937125Y-124777619D02*
X157841887Y-124825238D01*
X157841887Y-124825238D02*
X157746649Y-124920476D01*
X157746649Y-124920476D02*
X157699030Y-125110952D01*
X157699030Y-125110952D02*
X157699030Y-125444285D01*
X157699030Y-125444285D02*
X157746649Y-125634761D01*
X157746649Y-125634761D02*
X157841887Y-125730000D01*
X157841887Y-125730000D02*
X157937125Y-125777619D01*
X157937125Y-125777619D02*
X158127601Y-125777619D01*
X158127601Y-125777619D02*
X158222839Y-125730000D01*
X158222839Y-125730000D02*
X158318077Y-125634761D01*
X158318077Y-125634761D02*
X158365696Y-125444285D01*
X158365696Y-125444285D02*
X158365696Y-125110952D01*
X158365696Y-125110952D02*
X158318077Y-124920476D01*
X158318077Y-124920476D02*
X158222839Y-124825238D01*
X158222839Y-124825238D02*
X158127601Y-124777619D01*
X157270458Y-124777619D02*
X157270458Y-125587142D01*
X157270458Y-125587142D02*
X157222839Y-125682380D01*
X157222839Y-125682380D02*
X157175220Y-125730000D01*
X157175220Y-125730000D02*
X157079982Y-125777619D01*
X157079982Y-125777619D02*
X156889506Y-125777619D01*
X156889506Y-125777619D02*
X156794268Y-125730000D01*
X156794268Y-125730000D02*
X156746649Y-125682380D01*
X156746649Y-125682380D02*
X156699030Y-125587142D01*
X156699030Y-125587142D02*
X156699030Y-124777619D01*
X156365696Y-124777619D02*
X155794268Y-124777619D01*
X156079982Y-125777619D02*
X156079982Y-124777619D01*
X176015420Y-110867819D02*
X176015420Y-109867819D01*
X175443992Y-110867819D02*
X175872563Y-110296390D01*
X175443992Y-109867819D02*
X176015420Y-110439247D01*
X158661219Y-115214569D02*
X158661219Y-114738379D01*
X158661219Y-114738379D02*
X159137409Y-114690760D01*
X159137409Y-114690760D02*
X159089790Y-114738379D01*
X159089790Y-114738379D02*
X159042171Y-114833617D01*
X159042171Y-114833617D02*
X159042171Y-115071712D01*
X159042171Y-115071712D02*
X159089790Y-115166950D01*
X159089790Y-115166950D02*
X159137409Y-115214569D01*
X159137409Y-115214569D02*
X159232647Y-115262188D01*
X159232647Y-115262188D02*
X159470742Y-115262188D01*
X159470742Y-115262188D02*
X159565980Y-115214569D01*
X159565980Y-115214569D02*
X159613600Y-115166950D01*
X159613600Y-115166950D02*
X159661219Y-115071712D01*
X159661219Y-115071712D02*
X159661219Y-114833617D01*
X159661219Y-114833617D02*
X159613600Y-114738379D01*
X159613600Y-114738379D02*
X159565980Y-114690760D01*
X158994552Y-115595522D02*
X159661219Y-115833617D01*
X159661219Y-115833617D02*
X158994552Y-116071712D01*
X205997011Y-82712038D02*
X206092249Y-82664419D01*
X206092249Y-82664419D02*
X206235106Y-82664419D01*
X206235106Y-82664419D02*
X206377963Y-82712038D01*
X206377963Y-82712038D02*
X206473201Y-82807276D01*
X206473201Y-82807276D02*
X206520820Y-82902514D01*
X206520820Y-82902514D02*
X206568439Y-83092990D01*
X206568439Y-83092990D02*
X206568439Y-83235847D01*
X206568439Y-83235847D02*
X206520820Y-83426323D01*
X206520820Y-83426323D02*
X206473201Y-83521561D01*
X206473201Y-83521561D02*
X206377963Y-83616800D01*
X206377963Y-83616800D02*
X206235106Y-83664419D01*
X206235106Y-83664419D02*
X206139868Y-83664419D01*
X206139868Y-83664419D02*
X205997011Y-83616800D01*
X205997011Y-83616800D02*
X205949392Y-83569180D01*
X205949392Y-83569180D02*
X205949392Y-83235847D01*
X205949392Y-83235847D02*
X206139868Y-83235847D01*
X205568439Y-83616800D02*
X205425582Y-83664419D01*
X205425582Y-83664419D02*
X205187487Y-83664419D01*
X205187487Y-83664419D02*
X205092249Y-83616800D01*
X205092249Y-83616800D02*
X205044630Y-83569180D01*
X205044630Y-83569180D02*
X204997011Y-83473942D01*
X204997011Y-83473942D02*
X204997011Y-83378704D01*
X204997011Y-83378704D02*
X205044630Y-83283466D01*
X205044630Y-83283466D02*
X205092249Y-83235847D01*
X205092249Y-83235847D02*
X205187487Y-83188228D01*
X205187487Y-83188228D02*
X205377963Y-83140609D01*
X205377963Y-83140609D02*
X205473201Y-83092990D01*
X205473201Y-83092990D02*
X205520820Y-83045371D01*
X205520820Y-83045371D02*
X205568439Y-82950133D01*
X205568439Y-82950133D02*
X205568439Y-82854895D01*
X205568439Y-82854895D02*
X205520820Y-82759657D01*
X205520820Y-82759657D02*
X205473201Y-82712038D01*
X205473201Y-82712038D02*
X205377963Y-82664419D01*
X205377963Y-82664419D02*
X205139868Y-82664419D01*
X205139868Y-82664419D02*
X204997011Y-82712038D01*
X204711296Y-82664419D02*
X204139868Y-82664419D01*
X204425582Y-83664419D02*
X204425582Y-82664419D01*
X203235106Y-83664419D02*
X203568439Y-83188228D01*
X203806534Y-83664419D02*
X203806534Y-82664419D01*
X203806534Y-82664419D02*
X203425582Y-82664419D01*
X203425582Y-82664419D02*
X203330344Y-82712038D01*
X203330344Y-82712038D02*
X203282725Y-82759657D01*
X203282725Y-82759657D02*
X203235106Y-82854895D01*
X203235106Y-82854895D02*
X203235106Y-82997752D01*
X203235106Y-82997752D02*
X203282725Y-83092990D01*
X203282725Y-83092990D02*
X203330344Y-83140609D01*
X203330344Y-83140609D02*
X203425582Y-83188228D01*
X203425582Y-83188228D02*
X203806534Y-83188228D01*
X163385619Y-114312941D02*
X163385619Y-114979607D01*
X163385619Y-114979607D02*
X164385619Y-114551036D01*
X164290380Y-115360560D02*
X164338000Y-115408179D01*
X164338000Y-115408179D02*
X164385619Y-115360560D01*
X164385619Y-115360560D02*
X164338000Y-115312941D01*
X164338000Y-115312941D02*
X164290380Y-115360560D01*
X164290380Y-115360560D02*
X164385619Y-115360560D01*
X163385619Y-116312940D02*
X163385619Y-115836750D01*
X163385619Y-115836750D02*
X163861809Y-115789131D01*
X163861809Y-115789131D02*
X163814190Y-115836750D01*
X163814190Y-115836750D02*
X163766571Y-115931988D01*
X163766571Y-115931988D02*
X163766571Y-116170083D01*
X163766571Y-116170083D02*
X163814190Y-116265321D01*
X163814190Y-116265321D02*
X163861809Y-116312940D01*
X163861809Y-116312940D02*
X163957047Y-116360559D01*
X163957047Y-116360559D02*
X164195142Y-116360559D01*
X164195142Y-116360559D02*
X164290380Y-116312940D01*
X164290380Y-116312940D02*
X164338000Y-116265321D01*
X164338000Y-116265321D02*
X164385619Y-116170083D01*
X164385619Y-116170083D02*
X164385619Y-115931988D01*
X164385619Y-115931988D02*
X164338000Y-115836750D01*
X164338000Y-115836750D02*
X164290380Y-115789131D01*
X163718952Y-116693893D02*
X164385619Y-116931988D01*
X164385619Y-116931988D02*
X163718952Y-117170083D01*
X165998638Y-132762788D02*
X165951019Y-132667550D01*
X165951019Y-132667550D02*
X165951019Y-132524693D01*
X165951019Y-132524693D02*
X165998638Y-132381836D01*
X165998638Y-132381836D02*
X166093876Y-132286598D01*
X166093876Y-132286598D02*
X166189114Y-132238979D01*
X166189114Y-132238979D02*
X166379590Y-132191360D01*
X166379590Y-132191360D02*
X166522447Y-132191360D01*
X166522447Y-132191360D02*
X166712923Y-132238979D01*
X166712923Y-132238979D02*
X166808161Y-132286598D01*
X166808161Y-132286598D02*
X166903400Y-132381836D01*
X166903400Y-132381836D02*
X166951019Y-132524693D01*
X166951019Y-132524693D02*
X166951019Y-132619931D01*
X166951019Y-132619931D02*
X166903400Y-132762788D01*
X166903400Y-132762788D02*
X166855780Y-132810407D01*
X166855780Y-132810407D02*
X166522447Y-132810407D01*
X166522447Y-132810407D02*
X166522447Y-132619931D01*
X166951019Y-133238979D02*
X165951019Y-133238979D01*
X165951019Y-133238979D02*
X166951019Y-133810407D01*
X166951019Y-133810407D02*
X165951019Y-133810407D01*
X166951019Y-134286598D02*
X165951019Y-134286598D01*
X165951019Y-134286598D02*
X165951019Y-134524693D01*
X165951019Y-134524693D02*
X165998638Y-134667550D01*
X165998638Y-134667550D02*
X166093876Y-134762788D01*
X166093876Y-134762788D02*
X166189114Y-134810407D01*
X166189114Y-134810407D02*
X166379590Y-134858026D01*
X166379590Y-134858026D02*
X166522447Y-134858026D01*
X166522447Y-134858026D02*
X166712923Y-134810407D01*
X166712923Y-134810407D02*
X166808161Y-134762788D01*
X166808161Y-134762788D02*
X166903400Y-134667550D01*
X166903400Y-134667550D02*
X166951019Y-134524693D01*
X166951019Y-134524693D02*
X166951019Y-134286598D01*
X175221658Y-94500819D02*
X174554992Y-94500819D01*
X174554992Y-94500819D02*
X174983563Y-95500819D01*
X174174039Y-95405580D02*
X174126420Y-95453200D01*
X174126420Y-95453200D02*
X174174039Y-95500819D01*
X174174039Y-95500819D02*
X174221658Y-95453200D01*
X174221658Y-95453200D02*
X174174039Y-95405580D01*
X174174039Y-95405580D02*
X174174039Y-95500819D01*
X173221659Y-94500819D02*
X173697849Y-94500819D01*
X173697849Y-94500819D02*
X173745468Y-94977009D01*
X173745468Y-94977009D02*
X173697849Y-94929390D01*
X173697849Y-94929390D02*
X173602611Y-94881771D01*
X173602611Y-94881771D02*
X173364516Y-94881771D01*
X173364516Y-94881771D02*
X173269278Y-94929390D01*
X173269278Y-94929390D02*
X173221659Y-94977009D01*
X173221659Y-94977009D02*
X173174040Y-95072247D01*
X173174040Y-95072247D02*
X173174040Y-95310342D01*
X173174040Y-95310342D02*
X173221659Y-95405580D01*
X173221659Y-95405580D02*
X173269278Y-95453200D01*
X173269278Y-95453200D02*
X173364516Y-95500819D01*
X173364516Y-95500819D02*
X173602611Y-95500819D01*
X173602611Y-95500819D02*
X173697849Y-95453200D01*
X173697849Y-95453200D02*
X173745468Y-95405580D01*
X172840706Y-94834152D02*
X172602611Y-95500819D01*
X172602611Y-95500819D02*
X172364516Y-94834152D01*
X168719619Y-132527922D02*
X169719619Y-132861255D01*
X169719619Y-132861255D02*
X168719619Y-133194588D01*
X169719619Y-133527922D02*
X168719619Y-133527922D01*
X169719619Y-134004112D02*
X168719619Y-134004112D01*
X168719619Y-134004112D02*
X169719619Y-134575540D01*
X169719619Y-134575540D02*
X168719619Y-134575540D01*
X165728420Y-98498019D02*
X165728420Y-97498019D01*
X165728420Y-97498019D02*
X165156992Y-98498019D01*
X165156992Y-98498019D02*
X165156992Y-97498019D01*
X164728420Y-98450400D02*
X164585563Y-98498019D01*
X164585563Y-98498019D02*
X164347468Y-98498019D01*
X164347468Y-98498019D02*
X164252230Y-98450400D01*
X164252230Y-98450400D02*
X164204611Y-98402780D01*
X164204611Y-98402780D02*
X164156992Y-98307542D01*
X164156992Y-98307542D02*
X164156992Y-98212304D01*
X164156992Y-98212304D02*
X164204611Y-98117066D01*
X164204611Y-98117066D02*
X164252230Y-98069447D01*
X164252230Y-98069447D02*
X164347468Y-98021828D01*
X164347468Y-98021828D02*
X164537944Y-97974209D01*
X164537944Y-97974209D02*
X164633182Y-97926590D01*
X164633182Y-97926590D02*
X164680801Y-97878971D01*
X164680801Y-97878971D02*
X164728420Y-97783733D01*
X164728420Y-97783733D02*
X164728420Y-97688495D01*
X164728420Y-97688495D02*
X164680801Y-97593257D01*
X164680801Y-97593257D02*
X164633182Y-97545638D01*
X164633182Y-97545638D02*
X164537944Y-97498019D01*
X164537944Y-97498019D02*
X164299849Y-97498019D01*
X164299849Y-97498019D02*
X164156992Y-97545638D01*
X163728420Y-98498019D02*
X163728420Y-97831352D01*
X163728420Y-97498019D02*
X163776039Y-97545638D01*
X163776039Y-97545638D02*
X163728420Y-97593257D01*
X163728420Y-97593257D02*
X163680801Y-97545638D01*
X163680801Y-97545638D02*
X163728420Y-97498019D01*
X163728420Y-97498019D02*
X163728420Y-97593257D01*
X162823659Y-97831352D02*
X162823659Y-98640876D01*
X162823659Y-98640876D02*
X162871278Y-98736114D01*
X162871278Y-98736114D02*
X162918897Y-98783733D01*
X162918897Y-98783733D02*
X163014135Y-98831352D01*
X163014135Y-98831352D02*
X163156992Y-98831352D01*
X163156992Y-98831352D02*
X163252230Y-98783733D01*
X162823659Y-98450400D02*
X162918897Y-98498019D01*
X162918897Y-98498019D02*
X163109373Y-98498019D01*
X163109373Y-98498019D02*
X163204611Y-98450400D01*
X163204611Y-98450400D02*
X163252230Y-98402780D01*
X163252230Y-98402780D02*
X163299849Y-98307542D01*
X163299849Y-98307542D02*
X163299849Y-98021828D01*
X163299849Y-98021828D02*
X163252230Y-97926590D01*
X163252230Y-97926590D02*
X163204611Y-97878971D01*
X163204611Y-97878971D02*
X163109373Y-97831352D01*
X163109373Y-97831352D02*
X162918897Y-97831352D01*
X162918897Y-97831352D02*
X162823659Y-97878971D01*
X161823659Y-98498019D02*
X162395087Y-98498019D01*
X162109373Y-98498019D02*
X162109373Y-97498019D01*
X162109373Y-97498019D02*
X162204611Y-97640876D01*
X162204611Y-97640876D02*
X162299849Y-97736114D01*
X162299849Y-97736114D02*
X162395087Y-97783733D01*
X157669819Y-90163047D02*
X156669819Y-90163047D01*
X156669819Y-90163047D02*
X157669819Y-90734475D01*
X157669819Y-90734475D02*
X156669819Y-90734475D01*
X157669819Y-91210666D02*
X157003152Y-91210666D01*
X156669819Y-91210666D02*
X156717438Y-91163047D01*
X156717438Y-91163047D02*
X156765057Y-91210666D01*
X156765057Y-91210666D02*
X156717438Y-91258285D01*
X156717438Y-91258285D02*
X156669819Y-91210666D01*
X156669819Y-91210666D02*
X156765057Y-91210666D01*
X157622200Y-92115427D02*
X157669819Y-92020189D01*
X157669819Y-92020189D02*
X157669819Y-91829713D01*
X157669819Y-91829713D02*
X157622200Y-91734475D01*
X157622200Y-91734475D02*
X157574580Y-91686856D01*
X157574580Y-91686856D02*
X157479342Y-91639237D01*
X157479342Y-91639237D02*
X157193628Y-91639237D01*
X157193628Y-91639237D02*
X157098390Y-91686856D01*
X157098390Y-91686856D02*
X157050771Y-91734475D01*
X157050771Y-91734475D02*
X157003152Y-91829713D01*
X157003152Y-91829713D02*
X157003152Y-92020189D01*
X157003152Y-92020189D02*
X157050771Y-92115427D01*
X157669819Y-92543999D02*
X156669819Y-92543999D01*
X157669819Y-92972570D02*
X157146009Y-92972570D01*
X157146009Y-92972570D02*
X157050771Y-92924951D01*
X157050771Y-92924951D02*
X157003152Y-92829713D01*
X157003152Y-92829713D02*
X157003152Y-92686856D01*
X157003152Y-92686856D02*
X157050771Y-92591618D01*
X157050771Y-92591618D02*
X157098390Y-92543999D01*
X157669819Y-93448761D02*
X157003152Y-93448761D01*
X157193628Y-93448761D02*
X157098390Y-93496380D01*
X157098390Y-93496380D02*
X157050771Y-93543999D01*
X157050771Y-93543999D02*
X157003152Y-93639237D01*
X157003152Y-93639237D02*
X157003152Y-93734475D01*
X157669819Y-94210666D02*
X157622200Y-94115428D01*
X157622200Y-94115428D02*
X157574580Y-94067809D01*
X157574580Y-94067809D02*
X157479342Y-94020190D01*
X157479342Y-94020190D02*
X157193628Y-94020190D01*
X157193628Y-94020190D02*
X157098390Y-94067809D01*
X157098390Y-94067809D02*
X157050771Y-94115428D01*
X157050771Y-94115428D02*
X157003152Y-94210666D01*
X157003152Y-94210666D02*
X157003152Y-94353523D01*
X157003152Y-94353523D02*
X157050771Y-94448761D01*
X157050771Y-94448761D02*
X157098390Y-94496380D01*
X157098390Y-94496380D02*
X157193628Y-94543999D01*
X157193628Y-94543999D02*
X157479342Y-94543999D01*
X157479342Y-94543999D02*
X157574580Y-94496380D01*
X157574580Y-94496380D02*
X157622200Y-94448761D01*
X157622200Y-94448761D02*
X157669819Y-94353523D01*
X157669819Y-94353523D02*
X157669819Y-94210666D01*
X157669819Y-94972571D02*
X157003152Y-94972571D01*
X157098390Y-94972571D02*
X157050771Y-95020190D01*
X157050771Y-95020190D02*
X157003152Y-95115428D01*
X157003152Y-95115428D02*
X157003152Y-95258285D01*
X157003152Y-95258285D02*
X157050771Y-95353523D01*
X157050771Y-95353523D02*
X157146009Y-95401142D01*
X157146009Y-95401142D02*
X157669819Y-95401142D01*
X157146009Y-95401142D02*
X157050771Y-95448761D01*
X157050771Y-95448761D02*
X157003152Y-95543999D01*
X157003152Y-95543999D02*
X157003152Y-95686856D01*
X157003152Y-95686856D02*
X157050771Y-95782095D01*
X157050771Y-95782095D02*
X157146009Y-95829714D01*
X157146009Y-95829714D02*
X157669819Y-95829714D01*
X157622200Y-96686856D02*
X157669819Y-96591618D01*
X157669819Y-96591618D02*
X157669819Y-96401142D01*
X157669819Y-96401142D02*
X157622200Y-96305904D01*
X157622200Y-96305904D02*
X157526961Y-96258285D01*
X157526961Y-96258285D02*
X157146009Y-96258285D01*
X157146009Y-96258285D02*
X157050771Y-96305904D01*
X157050771Y-96305904D02*
X157003152Y-96401142D01*
X157003152Y-96401142D02*
X157003152Y-96591618D01*
X157003152Y-96591618D02*
X157050771Y-96686856D01*
X157050771Y-96686856D02*
X157146009Y-96734475D01*
X157146009Y-96734475D02*
X157241247Y-96734475D01*
X157241247Y-96734475D02*
X157336485Y-96258285D01*
X157765057Y-96924952D02*
X157765057Y-97686856D01*
X157574580Y-98496380D02*
X157622200Y-98448761D01*
X157622200Y-98448761D02*
X157669819Y-98305904D01*
X157669819Y-98305904D02*
X157669819Y-98210666D01*
X157669819Y-98210666D02*
X157622200Y-98067809D01*
X157622200Y-98067809D02*
X157526961Y-97972571D01*
X157526961Y-97972571D02*
X157431723Y-97924952D01*
X157431723Y-97924952D02*
X157241247Y-97877333D01*
X157241247Y-97877333D02*
X157098390Y-97877333D01*
X157098390Y-97877333D02*
X156907914Y-97924952D01*
X156907914Y-97924952D02*
X156812676Y-97972571D01*
X156812676Y-97972571D02*
X156717438Y-98067809D01*
X156717438Y-98067809D02*
X156669819Y-98210666D01*
X156669819Y-98210666D02*
X156669819Y-98305904D01*
X156669819Y-98305904D02*
X156717438Y-98448761D01*
X156717438Y-98448761D02*
X156765057Y-98496380D01*
X157669819Y-99067809D02*
X157622200Y-98972571D01*
X157622200Y-98972571D02*
X157574580Y-98924952D01*
X157574580Y-98924952D02*
X157479342Y-98877333D01*
X157479342Y-98877333D02*
X157193628Y-98877333D01*
X157193628Y-98877333D02*
X157098390Y-98924952D01*
X157098390Y-98924952D02*
X157050771Y-98972571D01*
X157050771Y-98972571D02*
X157003152Y-99067809D01*
X157003152Y-99067809D02*
X157003152Y-99210666D01*
X157003152Y-99210666D02*
X157050771Y-99305904D01*
X157050771Y-99305904D02*
X157098390Y-99353523D01*
X157098390Y-99353523D02*
X157193628Y-99401142D01*
X157193628Y-99401142D02*
X157479342Y-99401142D01*
X157479342Y-99401142D02*
X157574580Y-99353523D01*
X157574580Y-99353523D02*
X157622200Y-99305904D01*
X157622200Y-99305904D02*
X157669819Y-99210666D01*
X157669819Y-99210666D02*
X157669819Y-99067809D01*
X157003152Y-99829714D02*
X157669819Y-99829714D01*
X157098390Y-99829714D02*
X157050771Y-99877333D01*
X157050771Y-99877333D02*
X157003152Y-99972571D01*
X157003152Y-99972571D02*
X157003152Y-100115428D01*
X157003152Y-100115428D02*
X157050771Y-100210666D01*
X157050771Y-100210666D02*
X157146009Y-100258285D01*
X157146009Y-100258285D02*
X157669819Y-100258285D01*
X157003152Y-100734476D02*
X157669819Y-100734476D01*
X157098390Y-100734476D02*
X157050771Y-100782095D01*
X157050771Y-100782095D02*
X157003152Y-100877333D01*
X157003152Y-100877333D02*
X157003152Y-101020190D01*
X157003152Y-101020190D02*
X157050771Y-101115428D01*
X157050771Y-101115428D02*
X157146009Y-101163047D01*
X157146009Y-101163047D02*
X157669819Y-101163047D01*
X157622200Y-102020190D02*
X157669819Y-101924952D01*
X157669819Y-101924952D02*
X157669819Y-101734476D01*
X157669819Y-101734476D02*
X157622200Y-101639238D01*
X157622200Y-101639238D02*
X157526961Y-101591619D01*
X157526961Y-101591619D02*
X157146009Y-101591619D01*
X157146009Y-101591619D02*
X157050771Y-101639238D01*
X157050771Y-101639238D02*
X157003152Y-101734476D01*
X157003152Y-101734476D02*
X157003152Y-101924952D01*
X157003152Y-101924952D02*
X157050771Y-102020190D01*
X157050771Y-102020190D02*
X157146009Y-102067809D01*
X157146009Y-102067809D02*
X157241247Y-102067809D01*
X157241247Y-102067809D02*
X157336485Y-101591619D01*
X157622200Y-102924952D02*
X157669819Y-102829714D01*
X157669819Y-102829714D02*
X157669819Y-102639238D01*
X157669819Y-102639238D02*
X157622200Y-102544000D01*
X157622200Y-102544000D02*
X157574580Y-102496381D01*
X157574580Y-102496381D02*
X157479342Y-102448762D01*
X157479342Y-102448762D02*
X157193628Y-102448762D01*
X157193628Y-102448762D02*
X157098390Y-102496381D01*
X157098390Y-102496381D02*
X157050771Y-102544000D01*
X157050771Y-102544000D02*
X157003152Y-102639238D01*
X157003152Y-102639238D02*
X157003152Y-102829714D01*
X157003152Y-102829714D02*
X157050771Y-102924952D01*
X157003152Y-103210667D02*
X157003152Y-103591619D01*
X156669819Y-103353524D02*
X157526961Y-103353524D01*
X157526961Y-103353524D02*
X157622200Y-103401143D01*
X157622200Y-103401143D02*
X157669819Y-103496381D01*
X157669819Y-103496381D02*
X157669819Y-103591619D01*
X157669819Y-104067810D02*
X157622200Y-103972572D01*
X157622200Y-103972572D02*
X157574580Y-103924953D01*
X157574580Y-103924953D02*
X157479342Y-103877334D01*
X157479342Y-103877334D02*
X157193628Y-103877334D01*
X157193628Y-103877334D02*
X157098390Y-103924953D01*
X157098390Y-103924953D02*
X157050771Y-103972572D01*
X157050771Y-103972572D02*
X157003152Y-104067810D01*
X157003152Y-104067810D02*
X157003152Y-104210667D01*
X157003152Y-104210667D02*
X157050771Y-104305905D01*
X157050771Y-104305905D02*
X157098390Y-104353524D01*
X157098390Y-104353524D02*
X157193628Y-104401143D01*
X157193628Y-104401143D02*
X157479342Y-104401143D01*
X157479342Y-104401143D02*
X157574580Y-104353524D01*
X157574580Y-104353524D02*
X157622200Y-104305905D01*
X157622200Y-104305905D02*
X157669819Y-104210667D01*
X157669819Y-104210667D02*
X157669819Y-104067810D01*
X157669819Y-104829715D02*
X157003152Y-104829715D01*
X157193628Y-104829715D02*
X157098390Y-104877334D01*
X157098390Y-104877334D02*
X157050771Y-104924953D01*
X157050771Y-104924953D02*
X157003152Y-105020191D01*
X157003152Y-105020191D02*
X157003152Y-105115429D01*
X157669819Y-105972572D02*
X157669819Y-105401144D01*
X157669819Y-105686858D02*
X156669819Y-105686858D01*
X156669819Y-105686858D02*
X156812676Y-105591620D01*
X156812676Y-105591620D02*
X156907914Y-105496382D01*
X156907914Y-105496382D02*
X156955533Y-105401144D01*
X167542019Y-89553447D02*
X166542019Y-89553447D01*
X166542019Y-89553447D02*
X167542019Y-90124875D01*
X167542019Y-90124875D02*
X166542019Y-90124875D01*
X167542019Y-90601066D02*
X166875352Y-90601066D01*
X166542019Y-90601066D02*
X166589638Y-90553447D01*
X166589638Y-90553447D02*
X166637257Y-90601066D01*
X166637257Y-90601066D02*
X166589638Y-90648685D01*
X166589638Y-90648685D02*
X166542019Y-90601066D01*
X166542019Y-90601066D02*
X166637257Y-90601066D01*
X167494400Y-91505827D02*
X167542019Y-91410589D01*
X167542019Y-91410589D02*
X167542019Y-91220113D01*
X167542019Y-91220113D02*
X167494400Y-91124875D01*
X167494400Y-91124875D02*
X167446780Y-91077256D01*
X167446780Y-91077256D02*
X167351542Y-91029637D01*
X167351542Y-91029637D02*
X167065828Y-91029637D01*
X167065828Y-91029637D02*
X166970590Y-91077256D01*
X166970590Y-91077256D02*
X166922971Y-91124875D01*
X166922971Y-91124875D02*
X166875352Y-91220113D01*
X166875352Y-91220113D02*
X166875352Y-91410589D01*
X166875352Y-91410589D02*
X166922971Y-91505827D01*
X167542019Y-91934399D02*
X166542019Y-91934399D01*
X167542019Y-92362970D02*
X167018209Y-92362970D01*
X167018209Y-92362970D02*
X166922971Y-92315351D01*
X166922971Y-92315351D02*
X166875352Y-92220113D01*
X166875352Y-92220113D02*
X166875352Y-92077256D01*
X166875352Y-92077256D02*
X166922971Y-91982018D01*
X166922971Y-91982018D02*
X166970590Y-91934399D01*
X167542019Y-92839161D02*
X166875352Y-92839161D01*
X167065828Y-92839161D02*
X166970590Y-92886780D01*
X166970590Y-92886780D02*
X166922971Y-92934399D01*
X166922971Y-92934399D02*
X166875352Y-93029637D01*
X166875352Y-93029637D02*
X166875352Y-93124875D01*
X167542019Y-93601066D02*
X167494400Y-93505828D01*
X167494400Y-93505828D02*
X167446780Y-93458209D01*
X167446780Y-93458209D02*
X167351542Y-93410590D01*
X167351542Y-93410590D02*
X167065828Y-93410590D01*
X167065828Y-93410590D02*
X166970590Y-93458209D01*
X166970590Y-93458209D02*
X166922971Y-93505828D01*
X166922971Y-93505828D02*
X166875352Y-93601066D01*
X166875352Y-93601066D02*
X166875352Y-93743923D01*
X166875352Y-93743923D02*
X166922971Y-93839161D01*
X166922971Y-93839161D02*
X166970590Y-93886780D01*
X166970590Y-93886780D02*
X167065828Y-93934399D01*
X167065828Y-93934399D02*
X167351542Y-93934399D01*
X167351542Y-93934399D02*
X167446780Y-93886780D01*
X167446780Y-93886780D02*
X167494400Y-93839161D01*
X167494400Y-93839161D02*
X167542019Y-93743923D01*
X167542019Y-93743923D02*
X167542019Y-93601066D01*
X167542019Y-94362971D02*
X166875352Y-94362971D01*
X166970590Y-94362971D02*
X166922971Y-94410590D01*
X166922971Y-94410590D02*
X166875352Y-94505828D01*
X166875352Y-94505828D02*
X166875352Y-94648685D01*
X166875352Y-94648685D02*
X166922971Y-94743923D01*
X166922971Y-94743923D02*
X167018209Y-94791542D01*
X167018209Y-94791542D02*
X167542019Y-94791542D01*
X167018209Y-94791542D02*
X166922971Y-94839161D01*
X166922971Y-94839161D02*
X166875352Y-94934399D01*
X166875352Y-94934399D02*
X166875352Y-95077256D01*
X166875352Y-95077256D02*
X166922971Y-95172495D01*
X166922971Y-95172495D02*
X167018209Y-95220114D01*
X167018209Y-95220114D02*
X167542019Y-95220114D01*
X167494400Y-96077256D02*
X167542019Y-95982018D01*
X167542019Y-95982018D02*
X167542019Y-95791542D01*
X167542019Y-95791542D02*
X167494400Y-95696304D01*
X167494400Y-95696304D02*
X167399161Y-95648685D01*
X167399161Y-95648685D02*
X167018209Y-95648685D01*
X167018209Y-95648685D02*
X166922971Y-95696304D01*
X166922971Y-95696304D02*
X166875352Y-95791542D01*
X166875352Y-95791542D02*
X166875352Y-95982018D01*
X166875352Y-95982018D02*
X166922971Y-96077256D01*
X166922971Y-96077256D02*
X167018209Y-96124875D01*
X167018209Y-96124875D02*
X167113447Y-96124875D01*
X167113447Y-96124875D02*
X167208685Y-95648685D01*
X167637257Y-96315352D02*
X167637257Y-97077256D01*
X167446780Y-97886780D02*
X167494400Y-97839161D01*
X167494400Y-97839161D02*
X167542019Y-97696304D01*
X167542019Y-97696304D02*
X167542019Y-97601066D01*
X167542019Y-97601066D02*
X167494400Y-97458209D01*
X167494400Y-97458209D02*
X167399161Y-97362971D01*
X167399161Y-97362971D02*
X167303923Y-97315352D01*
X167303923Y-97315352D02*
X167113447Y-97267733D01*
X167113447Y-97267733D02*
X166970590Y-97267733D01*
X166970590Y-97267733D02*
X166780114Y-97315352D01*
X166780114Y-97315352D02*
X166684876Y-97362971D01*
X166684876Y-97362971D02*
X166589638Y-97458209D01*
X166589638Y-97458209D02*
X166542019Y-97601066D01*
X166542019Y-97601066D02*
X166542019Y-97696304D01*
X166542019Y-97696304D02*
X166589638Y-97839161D01*
X166589638Y-97839161D02*
X166637257Y-97886780D01*
X167542019Y-98458209D02*
X167494400Y-98362971D01*
X167494400Y-98362971D02*
X167446780Y-98315352D01*
X167446780Y-98315352D02*
X167351542Y-98267733D01*
X167351542Y-98267733D02*
X167065828Y-98267733D01*
X167065828Y-98267733D02*
X166970590Y-98315352D01*
X166970590Y-98315352D02*
X166922971Y-98362971D01*
X166922971Y-98362971D02*
X166875352Y-98458209D01*
X166875352Y-98458209D02*
X166875352Y-98601066D01*
X166875352Y-98601066D02*
X166922971Y-98696304D01*
X166922971Y-98696304D02*
X166970590Y-98743923D01*
X166970590Y-98743923D02*
X167065828Y-98791542D01*
X167065828Y-98791542D02*
X167351542Y-98791542D01*
X167351542Y-98791542D02*
X167446780Y-98743923D01*
X167446780Y-98743923D02*
X167494400Y-98696304D01*
X167494400Y-98696304D02*
X167542019Y-98601066D01*
X167542019Y-98601066D02*
X167542019Y-98458209D01*
X166875352Y-99220114D02*
X167542019Y-99220114D01*
X166970590Y-99220114D02*
X166922971Y-99267733D01*
X166922971Y-99267733D02*
X166875352Y-99362971D01*
X166875352Y-99362971D02*
X166875352Y-99505828D01*
X166875352Y-99505828D02*
X166922971Y-99601066D01*
X166922971Y-99601066D02*
X167018209Y-99648685D01*
X167018209Y-99648685D02*
X167542019Y-99648685D01*
X166875352Y-100124876D02*
X167542019Y-100124876D01*
X166970590Y-100124876D02*
X166922971Y-100172495D01*
X166922971Y-100172495D02*
X166875352Y-100267733D01*
X166875352Y-100267733D02*
X166875352Y-100410590D01*
X166875352Y-100410590D02*
X166922971Y-100505828D01*
X166922971Y-100505828D02*
X167018209Y-100553447D01*
X167018209Y-100553447D02*
X167542019Y-100553447D01*
X167494400Y-101410590D02*
X167542019Y-101315352D01*
X167542019Y-101315352D02*
X167542019Y-101124876D01*
X167542019Y-101124876D02*
X167494400Y-101029638D01*
X167494400Y-101029638D02*
X167399161Y-100982019D01*
X167399161Y-100982019D02*
X167018209Y-100982019D01*
X167018209Y-100982019D02*
X166922971Y-101029638D01*
X166922971Y-101029638D02*
X166875352Y-101124876D01*
X166875352Y-101124876D02*
X166875352Y-101315352D01*
X166875352Y-101315352D02*
X166922971Y-101410590D01*
X166922971Y-101410590D02*
X167018209Y-101458209D01*
X167018209Y-101458209D02*
X167113447Y-101458209D01*
X167113447Y-101458209D02*
X167208685Y-100982019D01*
X167494400Y-102315352D02*
X167542019Y-102220114D01*
X167542019Y-102220114D02*
X167542019Y-102029638D01*
X167542019Y-102029638D02*
X167494400Y-101934400D01*
X167494400Y-101934400D02*
X167446780Y-101886781D01*
X167446780Y-101886781D02*
X167351542Y-101839162D01*
X167351542Y-101839162D02*
X167065828Y-101839162D01*
X167065828Y-101839162D02*
X166970590Y-101886781D01*
X166970590Y-101886781D02*
X166922971Y-101934400D01*
X166922971Y-101934400D02*
X166875352Y-102029638D01*
X166875352Y-102029638D02*
X166875352Y-102220114D01*
X166875352Y-102220114D02*
X166922971Y-102315352D01*
X166875352Y-102601067D02*
X166875352Y-102982019D01*
X166542019Y-102743924D02*
X167399161Y-102743924D01*
X167399161Y-102743924D02*
X167494400Y-102791543D01*
X167494400Y-102791543D02*
X167542019Y-102886781D01*
X167542019Y-102886781D02*
X167542019Y-102982019D01*
X167542019Y-103458210D02*
X167494400Y-103362972D01*
X167494400Y-103362972D02*
X167446780Y-103315353D01*
X167446780Y-103315353D02*
X167351542Y-103267734D01*
X167351542Y-103267734D02*
X167065828Y-103267734D01*
X167065828Y-103267734D02*
X166970590Y-103315353D01*
X166970590Y-103315353D02*
X166922971Y-103362972D01*
X166922971Y-103362972D02*
X166875352Y-103458210D01*
X166875352Y-103458210D02*
X166875352Y-103601067D01*
X166875352Y-103601067D02*
X166922971Y-103696305D01*
X166922971Y-103696305D02*
X166970590Y-103743924D01*
X166970590Y-103743924D02*
X167065828Y-103791543D01*
X167065828Y-103791543D02*
X167351542Y-103791543D01*
X167351542Y-103791543D02*
X167446780Y-103743924D01*
X167446780Y-103743924D02*
X167494400Y-103696305D01*
X167494400Y-103696305D02*
X167542019Y-103601067D01*
X167542019Y-103601067D02*
X167542019Y-103458210D01*
X167542019Y-104220115D02*
X166875352Y-104220115D01*
X167065828Y-104220115D02*
X166970590Y-104267734D01*
X166970590Y-104267734D02*
X166922971Y-104315353D01*
X166922971Y-104315353D02*
X166875352Y-104410591D01*
X166875352Y-104410591D02*
X166875352Y-104505829D01*
X166637257Y-104791544D02*
X166589638Y-104839163D01*
X166589638Y-104839163D02*
X166542019Y-104934401D01*
X166542019Y-104934401D02*
X166542019Y-105172496D01*
X166542019Y-105172496D02*
X166589638Y-105267734D01*
X166589638Y-105267734D02*
X166637257Y-105315353D01*
X166637257Y-105315353D02*
X166732495Y-105362972D01*
X166732495Y-105362972D02*
X166827733Y-105362972D01*
X166827733Y-105362972D02*
X166970590Y-105315353D01*
X166970590Y-105315353D02*
X167542019Y-104743925D01*
X167542019Y-104743925D02*
X167542019Y-105362972D01*
D11*
X211096857Y-109637800D02*
X210954000Y-109685419D01*
X210954000Y-109685419D02*
X210715905Y-109685419D01*
X210715905Y-109685419D02*
X210620667Y-109637800D01*
X210620667Y-109637800D02*
X210573048Y-109590180D01*
X210573048Y-109590180D02*
X210525429Y-109494942D01*
X210525429Y-109494942D02*
X210525429Y-109399704D01*
X210525429Y-109399704D02*
X210573048Y-109304466D01*
X210573048Y-109304466D02*
X210620667Y-109256847D01*
X210620667Y-109256847D02*
X210715905Y-109209228D01*
X210715905Y-109209228D02*
X210906381Y-109161609D01*
X210906381Y-109161609D02*
X211001619Y-109113990D01*
X211001619Y-109113990D02*
X211049238Y-109066371D01*
X211049238Y-109066371D02*
X211096857Y-108971133D01*
X211096857Y-108971133D02*
X211096857Y-108875895D01*
X211096857Y-108875895D02*
X211049238Y-108780657D01*
X211049238Y-108780657D02*
X211001619Y-108733038D01*
X211001619Y-108733038D02*
X210906381Y-108685419D01*
X210906381Y-108685419D02*
X210668286Y-108685419D01*
X210668286Y-108685419D02*
X210525429Y-108733038D01*
X210096857Y-109018752D02*
X210096857Y-110018752D01*
X210096857Y-109066371D02*
X210001619Y-109018752D01*
X210001619Y-109018752D02*
X209811143Y-109018752D01*
X209811143Y-109018752D02*
X209715905Y-109066371D01*
X209715905Y-109066371D02*
X209668286Y-109113990D01*
X209668286Y-109113990D02*
X209620667Y-109209228D01*
X209620667Y-109209228D02*
X209620667Y-109494942D01*
X209620667Y-109494942D02*
X209668286Y-109590180D01*
X209668286Y-109590180D02*
X209715905Y-109637800D01*
X209715905Y-109637800D02*
X209811143Y-109685419D01*
X209811143Y-109685419D02*
X210001619Y-109685419D01*
X210001619Y-109685419D02*
X210096857Y-109637800D01*
X208763524Y-109685419D02*
X208763524Y-109161609D01*
X208763524Y-109161609D02*
X208811143Y-109066371D01*
X208811143Y-109066371D02*
X208906381Y-109018752D01*
X208906381Y-109018752D02*
X209096857Y-109018752D01*
X209096857Y-109018752D02*
X209192095Y-109066371D01*
X208763524Y-109637800D02*
X208858762Y-109685419D01*
X208858762Y-109685419D02*
X209096857Y-109685419D01*
X209096857Y-109685419D02*
X209192095Y-109637800D01*
X209192095Y-109637800D02*
X209239714Y-109542561D01*
X209239714Y-109542561D02*
X209239714Y-109447323D01*
X209239714Y-109447323D02*
X209192095Y-109352085D01*
X209192095Y-109352085D02*
X209096857Y-109304466D01*
X209096857Y-109304466D02*
X208858762Y-109304466D01*
X208858762Y-109304466D02*
X208763524Y-109256847D01*
X208287333Y-109685419D02*
X208287333Y-109018752D01*
X208287333Y-109209228D02*
X208239714Y-109113990D01*
X208239714Y-109113990D02*
X208192095Y-109066371D01*
X208192095Y-109066371D02*
X208096857Y-109018752D01*
X208096857Y-109018752D02*
X208001619Y-109018752D01*
X207668285Y-109685419D02*
X207668285Y-108685419D01*
X207573047Y-109304466D02*
X207287333Y-109685419D01*
X207287333Y-109018752D02*
X207668285Y-109399704D01*
X207001618Y-109018752D02*
X206620666Y-109018752D01*
X206858761Y-109685419D02*
X206858761Y-108828276D01*
X206858761Y-108828276D02*
X206811142Y-108733038D01*
X206811142Y-108733038D02*
X206715904Y-108685419D01*
X206715904Y-108685419D02*
X206620666Y-108685419D01*
X205858761Y-109018752D02*
X205858761Y-109685419D01*
X206287332Y-109018752D02*
X206287332Y-109542561D01*
X206287332Y-109542561D02*
X206239713Y-109637800D01*
X206239713Y-109637800D02*
X206144475Y-109685419D01*
X206144475Y-109685419D02*
X206001618Y-109685419D01*
X206001618Y-109685419D02*
X205906380Y-109637800D01*
X205906380Y-109637800D02*
X205858761Y-109590180D01*
X205382570Y-109018752D02*
X205382570Y-109685419D01*
X205382570Y-109113990D02*
X205334951Y-109066371D01*
X205334951Y-109066371D02*
X205239713Y-109018752D01*
X205239713Y-109018752D02*
X205096856Y-109018752D01*
X205096856Y-109018752D02*
X205001618Y-109066371D01*
X205001618Y-109066371D02*
X204953999Y-109161609D01*
X204953999Y-109161609D02*
X204953999Y-109685419D01*
X204715904Y-109780657D02*
X203953999Y-109780657D01*
X203715903Y-109685419D02*
X203715903Y-108685419D01*
X203715903Y-108685419D02*
X203144475Y-109685419D01*
X203144475Y-109685419D02*
X203144475Y-108685419D01*
X202668284Y-109161609D02*
X202334951Y-109161609D01*
X202192094Y-109685419D02*
X202668284Y-109685419D01*
X202668284Y-109685419D02*
X202668284Y-108685419D01*
X202668284Y-108685419D02*
X202192094Y-108685419D01*
X201573046Y-108685419D02*
X201382570Y-108685419D01*
X201382570Y-108685419D02*
X201287332Y-108733038D01*
X201287332Y-108733038D02*
X201192094Y-108828276D01*
X201192094Y-108828276D02*
X201144475Y-109018752D01*
X201144475Y-109018752D02*
X201144475Y-109352085D01*
X201144475Y-109352085D02*
X201192094Y-109542561D01*
X201192094Y-109542561D02*
X201287332Y-109637800D01*
X201287332Y-109637800D02*
X201382570Y-109685419D01*
X201382570Y-109685419D02*
X201573046Y-109685419D01*
X201573046Y-109685419D02*
X201668284Y-109637800D01*
X201668284Y-109637800D02*
X201763522Y-109542561D01*
X201763522Y-109542561D02*
X201811141Y-109352085D01*
X201811141Y-109352085D02*
X201811141Y-109018752D01*
X201811141Y-109018752D02*
X201763522Y-108828276D01*
X201763522Y-108828276D02*
X201668284Y-108733038D01*
X201668284Y-108733038D02*
X201573046Y-108685419D01*
X200715903Y-109304466D02*
X199953999Y-109304466D01*
X199477808Y-109685419D02*
X199477808Y-108685419D01*
X199477808Y-108685419D02*
X199144475Y-109399704D01*
X199144475Y-109399704D02*
X198811142Y-108685419D01*
X198811142Y-108685419D02*
X198811142Y-109685419D01*
X198287332Y-109685419D02*
X198096856Y-109685419D01*
X198096856Y-109685419D02*
X198001618Y-109637800D01*
X198001618Y-109637800D02*
X197953999Y-109590180D01*
X197953999Y-109590180D02*
X197858761Y-109447323D01*
X197858761Y-109447323D02*
X197811142Y-109256847D01*
X197811142Y-109256847D02*
X197811142Y-108875895D01*
X197811142Y-108875895D02*
X197858761Y-108780657D01*
X197858761Y-108780657D02*
X197906380Y-108733038D01*
X197906380Y-108733038D02*
X198001618Y-108685419D01*
X198001618Y-108685419D02*
X198192094Y-108685419D01*
X198192094Y-108685419D02*
X198287332Y-108733038D01*
X198287332Y-108733038D02*
X198334951Y-108780657D01*
X198334951Y-108780657D02*
X198382570Y-108875895D01*
X198382570Y-108875895D02*
X198382570Y-109113990D01*
X198382570Y-109113990D02*
X198334951Y-109209228D01*
X198334951Y-109209228D02*
X198287332Y-109256847D01*
X198287332Y-109256847D02*
X198192094Y-109304466D01*
X198192094Y-109304466D02*
X198001618Y-109304466D01*
X198001618Y-109304466D02*
X197906380Y-109256847D01*
X197906380Y-109256847D02*
X197858761Y-109209228D01*
X197858761Y-109209228D02*
X197811142Y-109113990D01*
X197382570Y-109685419D02*
X197382570Y-108685419D01*
X197382570Y-108685419D02*
X196811142Y-109685419D01*
X196811142Y-109685419D02*
X196811142Y-108685419D01*
X195811142Y-109685419D02*
X196382570Y-109685419D01*
X196096856Y-109685419D02*
X196096856Y-108685419D01*
X196096856Y-108685419D02*
X196192094Y-108828276D01*
X196192094Y-108828276D02*
X196287332Y-108923514D01*
X196287332Y-108923514D02*
X196382570Y-108971133D01*
X202311580Y-125934115D02*
X203311580Y-125934115D01*
X202311580Y-125457925D02*
X203311580Y-125457925D01*
X203311580Y-125457925D02*
X202311580Y-124886497D01*
X202311580Y-124886497D02*
X203311580Y-124886497D01*
X203311580Y-124553163D02*
X203311580Y-123981735D01*
X202311580Y-124267449D02*
X203311580Y-124267449D01*
X217120115Y-90820419D02*
X217120115Y-91629942D01*
X217120115Y-91629942D02*
X217072496Y-91725180D01*
X217072496Y-91725180D02*
X217024877Y-91772800D01*
X217024877Y-91772800D02*
X216929639Y-91820419D01*
X216929639Y-91820419D02*
X216739163Y-91820419D01*
X216739163Y-91820419D02*
X216643925Y-91772800D01*
X216643925Y-91772800D02*
X216596306Y-91725180D01*
X216596306Y-91725180D02*
X216548687Y-91629942D01*
X216548687Y-91629942D02*
X216548687Y-90820419D01*
X216120115Y-91772800D02*
X215977258Y-91820419D01*
X215977258Y-91820419D02*
X215739163Y-91820419D01*
X215739163Y-91820419D02*
X215643925Y-91772800D01*
X215643925Y-91772800D02*
X215596306Y-91725180D01*
X215596306Y-91725180D02*
X215548687Y-91629942D01*
X215548687Y-91629942D02*
X215548687Y-91534704D01*
X215548687Y-91534704D02*
X215596306Y-91439466D01*
X215596306Y-91439466D02*
X215643925Y-91391847D01*
X215643925Y-91391847D02*
X215739163Y-91344228D01*
X215739163Y-91344228D02*
X215929639Y-91296609D01*
X215929639Y-91296609D02*
X216024877Y-91248990D01*
X216024877Y-91248990D02*
X216072496Y-91201371D01*
X216072496Y-91201371D02*
X216120115Y-91106133D01*
X216120115Y-91106133D02*
X216120115Y-91010895D01*
X216120115Y-91010895D02*
X216072496Y-90915657D01*
X216072496Y-90915657D02*
X216024877Y-90868038D01*
X216024877Y-90868038D02*
X215929639Y-90820419D01*
X215929639Y-90820419D02*
X215691544Y-90820419D01*
X215691544Y-90820419D02*
X215548687Y-90868038D01*
X214786782Y-91296609D02*
X214643925Y-91344228D01*
X214643925Y-91344228D02*
X214596306Y-91391847D01*
X214596306Y-91391847D02*
X214548687Y-91487085D01*
X214548687Y-91487085D02*
X214548687Y-91629942D01*
X214548687Y-91629942D02*
X214596306Y-91725180D01*
X214596306Y-91725180D02*
X214643925Y-91772800D01*
X214643925Y-91772800D02*
X214739163Y-91820419D01*
X214739163Y-91820419D02*
X215120115Y-91820419D01*
X215120115Y-91820419D02*
X215120115Y-90820419D01*
X215120115Y-90820419D02*
X214786782Y-90820419D01*
X214786782Y-90820419D02*
X214691544Y-90868038D01*
X214691544Y-90868038D02*
X214643925Y-90915657D01*
X214643925Y-90915657D02*
X214596306Y-91010895D01*
X214596306Y-91010895D02*
X214596306Y-91106133D01*
X214596306Y-91106133D02*
X214643925Y-91201371D01*
X214643925Y-91201371D02*
X214691544Y-91248990D01*
X214691544Y-91248990D02*
X214786782Y-91296609D01*
X214786782Y-91296609D02*
X215120115Y-91296609D01*
X214120115Y-91439466D02*
X213358211Y-91439466D01*
X212310592Y-91725180D02*
X212358211Y-91772800D01*
X212358211Y-91772800D02*
X212501068Y-91820419D01*
X212501068Y-91820419D02*
X212596306Y-91820419D01*
X212596306Y-91820419D02*
X212739163Y-91772800D01*
X212739163Y-91772800D02*
X212834401Y-91677561D01*
X212834401Y-91677561D02*
X212882020Y-91582323D01*
X212882020Y-91582323D02*
X212929639Y-91391847D01*
X212929639Y-91391847D02*
X212929639Y-91248990D01*
X212929639Y-91248990D02*
X212882020Y-91058514D01*
X212882020Y-91058514D02*
X212834401Y-90963276D01*
X212834401Y-90963276D02*
X212739163Y-90868038D01*
X212739163Y-90868038D02*
X212596306Y-90820419D01*
X212596306Y-90820419D02*
X212501068Y-90820419D01*
X212501068Y-90820419D02*
X212358211Y-90868038D01*
X212358211Y-90868038D02*
X212310592Y-90915657D01*
X207391580Y-125362687D02*
X207867771Y-125696020D01*
X207391580Y-125934115D02*
X208391580Y-125934115D01*
X208391580Y-125934115D02*
X208391580Y-125553163D01*
X208391580Y-125553163D02*
X208343961Y-125457925D01*
X208343961Y-125457925D02*
X208296342Y-125410306D01*
X208296342Y-125410306D02*
X208201104Y-125362687D01*
X208201104Y-125362687D02*
X208058247Y-125362687D01*
X208058247Y-125362687D02*
X207963009Y-125410306D01*
X207963009Y-125410306D02*
X207915390Y-125457925D01*
X207915390Y-125457925D02*
X207867771Y-125553163D01*
X207867771Y-125553163D02*
X207867771Y-125934115D01*
X207439200Y-124981734D02*
X207391580Y-124838877D01*
X207391580Y-124838877D02*
X207391580Y-124600782D01*
X207391580Y-124600782D02*
X207439200Y-124505544D01*
X207439200Y-124505544D02*
X207486819Y-124457925D01*
X207486819Y-124457925D02*
X207582057Y-124410306D01*
X207582057Y-124410306D02*
X207677295Y-124410306D01*
X207677295Y-124410306D02*
X207772533Y-124457925D01*
X207772533Y-124457925D02*
X207820152Y-124505544D01*
X207820152Y-124505544D02*
X207867771Y-124600782D01*
X207867771Y-124600782D02*
X207915390Y-124791258D01*
X207915390Y-124791258D02*
X207963009Y-124886496D01*
X207963009Y-124886496D02*
X208010628Y-124934115D01*
X208010628Y-124934115D02*
X208105866Y-124981734D01*
X208105866Y-124981734D02*
X208201104Y-124981734D01*
X208201104Y-124981734D02*
X208296342Y-124934115D01*
X208296342Y-124934115D02*
X208343961Y-124886496D01*
X208343961Y-124886496D02*
X208391580Y-124791258D01*
X208391580Y-124791258D02*
X208391580Y-124553163D01*
X208391580Y-124553163D02*
X208343961Y-124410306D01*
X208391580Y-124124591D02*
X208391580Y-123553163D01*
X207391580Y-123838877D02*
X208391580Y-123838877D01*
X204899200Y-125981734D02*
X204851580Y-125838877D01*
X204851580Y-125838877D02*
X204851580Y-125600782D01*
X204851580Y-125600782D02*
X204899200Y-125505544D01*
X204899200Y-125505544D02*
X204946819Y-125457925D01*
X204946819Y-125457925D02*
X205042057Y-125410306D01*
X205042057Y-125410306D02*
X205137295Y-125410306D01*
X205137295Y-125410306D02*
X205232533Y-125457925D01*
X205232533Y-125457925D02*
X205280152Y-125505544D01*
X205280152Y-125505544D02*
X205327771Y-125600782D01*
X205327771Y-125600782D02*
X205375390Y-125791258D01*
X205375390Y-125791258D02*
X205423009Y-125886496D01*
X205423009Y-125886496D02*
X205470628Y-125934115D01*
X205470628Y-125934115D02*
X205565866Y-125981734D01*
X205565866Y-125981734D02*
X205661104Y-125981734D01*
X205661104Y-125981734D02*
X205756342Y-125934115D01*
X205756342Y-125934115D02*
X205803961Y-125886496D01*
X205803961Y-125886496D02*
X205851580Y-125791258D01*
X205851580Y-125791258D02*
X205851580Y-125553163D01*
X205851580Y-125553163D02*
X205803961Y-125410306D01*
X205137295Y-125029353D02*
X205137295Y-124553163D01*
X204851580Y-125124591D02*
X205851580Y-124791258D01*
X205851580Y-124791258D02*
X204851580Y-124457925D01*
X205375390Y-123791258D02*
X205375390Y-124124591D01*
X204851580Y-124124591D02*
X205851580Y-124124591D01*
X205851580Y-124124591D02*
X205851580Y-123648401D01*
X205375390Y-123267448D02*
X205375390Y-122934115D01*
X204851580Y-122791258D02*
X204851580Y-123267448D01*
X204851580Y-123267448D02*
X205851580Y-123267448D01*
X205851580Y-123267448D02*
X205851580Y-122791258D01*
X200771580Y-98089353D02*
X200771580Y-97470306D01*
X200771580Y-97470306D02*
X200390628Y-97803639D01*
X200390628Y-97803639D02*
X200390628Y-97660782D01*
X200390628Y-97660782D02*
X200343009Y-97565544D01*
X200343009Y-97565544D02*
X200295390Y-97517925D01*
X200295390Y-97517925D02*
X200200152Y-97470306D01*
X200200152Y-97470306D02*
X199962057Y-97470306D01*
X199962057Y-97470306D02*
X199866819Y-97517925D01*
X199866819Y-97517925D02*
X199819200Y-97565544D01*
X199819200Y-97565544D02*
X199771580Y-97660782D01*
X199771580Y-97660782D02*
X199771580Y-97946496D01*
X199771580Y-97946496D02*
X199819200Y-98041734D01*
X199819200Y-98041734D02*
X199866819Y-98089353D01*
X200771580Y-97184591D02*
X199771580Y-96851258D01*
X199771580Y-96851258D02*
X200771580Y-96517925D01*
X200771580Y-96279829D02*
X200771580Y-95660782D01*
X200771580Y-95660782D02*
X200390628Y-95994115D01*
X200390628Y-95994115D02*
X200390628Y-95851258D01*
X200390628Y-95851258D02*
X200343009Y-95756020D01*
X200343009Y-95756020D02*
X200295390Y-95708401D01*
X200295390Y-95708401D02*
X200200152Y-95660782D01*
X200200152Y-95660782D02*
X199962057Y-95660782D01*
X199962057Y-95660782D02*
X199866819Y-95708401D01*
X199866819Y-95708401D02*
X199819200Y-95756020D01*
X199819200Y-95756020D02*
X199771580Y-95851258D01*
X199771580Y-95851258D02*
X199771580Y-96136972D01*
X199771580Y-96136972D02*
X199819200Y-96232210D01*
X199819200Y-96232210D02*
X199866819Y-96279829D01*
X192199200Y-125981734D02*
X192151580Y-125838877D01*
X192151580Y-125838877D02*
X192151580Y-125600782D01*
X192151580Y-125600782D02*
X192199200Y-125505544D01*
X192199200Y-125505544D02*
X192246819Y-125457925D01*
X192246819Y-125457925D02*
X192342057Y-125410306D01*
X192342057Y-125410306D02*
X192437295Y-125410306D01*
X192437295Y-125410306D02*
X192532533Y-125457925D01*
X192532533Y-125457925D02*
X192580152Y-125505544D01*
X192580152Y-125505544D02*
X192627771Y-125600782D01*
X192627771Y-125600782D02*
X192675390Y-125791258D01*
X192675390Y-125791258D02*
X192723009Y-125886496D01*
X192723009Y-125886496D02*
X192770628Y-125934115D01*
X192770628Y-125934115D02*
X192865866Y-125981734D01*
X192865866Y-125981734D02*
X192961104Y-125981734D01*
X192961104Y-125981734D02*
X193056342Y-125934115D01*
X193056342Y-125934115D02*
X193103961Y-125886496D01*
X193103961Y-125886496D02*
X193151580Y-125791258D01*
X193151580Y-125791258D02*
X193151580Y-125553163D01*
X193151580Y-125553163D02*
X193103961Y-125410306D01*
X192246819Y-124410306D02*
X192199200Y-124457925D01*
X192199200Y-124457925D02*
X192151580Y-124600782D01*
X192151580Y-124600782D02*
X192151580Y-124696020D01*
X192151580Y-124696020D02*
X192199200Y-124838877D01*
X192199200Y-124838877D02*
X192294438Y-124934115D01*
X192294438Y-124934115D02*
X192389676Y-124981734D01*
X192389676Y-124981734D02*
X192580152Y-125029353D01*
X192580152Y-125029353D02*
X192723009Y-125029353D01*
X192723009Y-125029353D02*
X192913485Y-124981734D01*
X192913485Y-124981734D02*
X193008723Y-124934115D01*
X193008723Y-124934115D02*
X193103961Y-124838877D01*
X193103961Y-124838877D02*
X193151580Y-124696020D01*
X193151580Y-124696020D02*
X193151580Y-124600782D01*
X193151580Y-124600782D02*
X193103961Y-124457925D01*
X193103961Y-124457925D02*
X193056342Y-124410306D01*
X192151580Y-123505544D02*
X192151580Y-123981734D01*
X192151580Y-123981734D02*
X193151580Y-123981734D01*
X203311580Y-96247925D02*
X203311580Y-96724115D01*
X203311580Y-96724115D02*
X202835390Y-96771734D01*
X202835390Y-96771734D02*
X202883009Y-96724115D01*
X202883009Y-96724115D02*
X202930628Y-96628877D01*
X202930628Y-96628877D02*
X202930628Y-96390782D01*
X202930628Y-96390782D02*
X202883009Y-96295544D01*
X202883009Y-96295544D02*
X202835390Y-96247925D01*
X202835390Y-96247925D02*
X202740152Y-96200306D01*
X202740152Y-96200306D02*
X202502057Y-96200306D01*
X202502057Y-96200306D02*
X202406819Y-96247925D01*
X202406819Y-96247925D02*
X202359200Y-96295544D01*
X202359200Y-96295544D02*
X202311580Y-96390782D01*
X202311580Y-96390782D02*
X202311580Y-96628877D01*
X202311580Y-96628877D02*
X202359200Y-96724115D01*
X202359200Y-96724115D02*
X202406819Y-96771734D01*
X203311580Y-95914591D02*
X202311580Y-95581258D01*
X202311580Y-95581258D02*
X203311580Y-95247925D01*
X193151580Y-100676972D02*
X193151580Y-100105544D01*
X192151580Y-100391258D02*
X193151580Y-100391258D01*
X193151580Y-99867448D02*
X192151580Y-99200782D01*
X193151580Y-99200782D02*
X192151580Y-99867448D01*
X193199200Y-98105544D02*
X191913485Y-98962686D01*
X192199200Y-97819829D02*
X192151580Y-97676972D01*
X192151580Y-97676972D02*
X192151580Y-97438877D01*
X192151580Y-97438877D02*
X192199200Y-97343639D01*
X192199200Y-97343639D02*
X192246819Y-97296020D01*
X192246819Y-97296020D02*
X192342057Y-97248401D01*
X192342057Y-97248401D02*
X192437295Y-97248401D01*
X192437295Y-97248401D02*
X192532533Y-97296020D01*
X192532533Y-97296020D02*
X192580152Y-97343639D01*
X192580152Y-97343639D02*
X192627771Y-97438877D01*
X192627771Y-97438877D02*
X192675390Y-97629353D01*
X192675390Y-97629353D02*
X192723009Y-97724591D01*
X192723009Y-97724591D02*
X192770628Y-97772210D01*
X192770628Y-97772210D02*
X192865866Y-97819829D01*
X192865866Y-97819829D02*
X192961104Y-97819829D01*
X192961104Y-97819829D02*
X193056342Y-97772210D01*
X193056342Y-97772210D02*
X193103961Y-97724591D01*
X193103961Y-97724591D02*
X193151580Y-97629353D01*
X193151580Y-97629353D02*
X193151580Y-97391258D01*
X193151580Y-97391258D02*
X193103961Y-97248401D01*
X192151580Y-96819829D02*
X193151580Y-96819829D01*
X193151580Y-96819829D02*
X193151580Y-96581734D01*
X193151580Y-96581734D02*
X193103961Y-96438877D01*
X193103961Y-96438877D02*
X193008723Y-96343639D01*
X193008723Y-96343639D02*
X192913485Y-96296020D01*
X192913485Y-96296020D02*
X192723009Y-96248401D01*
X192723009Y-96248401D02*
X192580152Y-96248401D01*
X192580152Y-96248401D02*
X192389676Y-96296020D01*
X192389676Y-96296020D02*
X192294438Y-96343639D01*
X192294438Y-96343639D02*
X192199200Y-96438877D01*
X192199200Y-96438877D02*
X192151580Y-96581734D01*
X192151580Y-96581734D02*
X192151580Y-96819829D01*
X193151580Y-95629353D02*
X193151580Y-95438877D01*
X193151580Y-95438877D02*
X193103961Y-95343639D01*
X193103961Y-95343639D02*
X193008723Y-95248401D01*
X193008723Y-95248401D02*
X192818247Y-95200782D01*
X192818247Y-95200782D02*
X192484914Y-95200782D01*
X192484914Y-95200782D02*
X192294438Y-95248401D01*
X192294438Y-95248401D02*
X192199200Y-95343639D01*
X192199200Y-95343639D02*
X192151580Y-95438877D01*
X192151580Y-95438877D02*
X192151580Y-95629353D01*
X192151580Y-95629353D02*
X192199200Y-95724591D01*
X192199200Y-95724591D02*
X192294438Y-95819829D01*
X192294438Y-95819829D02*
X192484914Y-95867448D01*
X192484914Y-95867448D02*
X192818247Y-95867448D01*
X192818247Y-95867448D02*
X193008723Y-95819829D01*
X193008723Y-95819829D02*
X193103961Y-95724591D01*
X193103961Y-95724591D02*
X193151580Y-95629353D01*
X205803961Y-97470306D02*
X205851580Y-97565544D01*
X205851580Y-97565544D02*
X205851580Y-97708401D01*
X205851580Y-97708401D02*
X205803961Y-97851258D01*
X205803961Y-97851258D02*
X205708723Y-97946496D01*
X205708723Y-97946496D02*
X205613485Y-97994115D01*
X205613485Y-97994115D02*
X205423009Y-98041734D01*
X205423009Y-98041734D02*
X205280152Y-98041734D01*
X205280152Y-98041734D02*
X205089676Y-97994115D01*
X205089676Y-97994115D02*
X204994438Y-97946496D01*
X204994438Y-97946496D02*
X204899200Y-97851258D01*
X204899200Y-97851258D02*
X204851580Y-97708401D01*
X204851580Y-97708401D02*
X204851580Y-97613163D01*
X204851580Y-97613163D02*
X204899200Y-97470306D01*
X204899200Y-97470306D02*
X204946819Y-97422687D01*
X204946819Y-97422687D02*
X205280152Y-97422687D01*
X205280152Y-97422687D02*
X205280152Y-97613163D01*
X204851580Y-96994115D02*
X205851580Y-96994115D01*
X205851580Y-96994115D02*
X204851580Y-96422687D01*
X204851580Y-96422687D02*
X205851580Y-96422687D01*
X204851580Y-95946496D02*
X205851580Y-95946496D01*
X205851580Y-95946496D02*
X205851580Y-95708401D01*
X205851580Y-95708401D02*
X205803961Y-95565544D01*
X205803961Y-95565544D02*
X205708723Y-95470306D01*
X205708723Y-95470306D02*
X205613485Y-95422687D01*
X205613485Y-95422687D02*
X205423009Y-95375068D01*
X205423009Y-95375068D02*
X205280152Y-95375068D01*
X205280152Y-95375068D02*
X205089676Y-95422687D01*
X205089676Y-95422687D02*
X204994438Y-95470306D01*
X204994438Y-95470306D02*
X204899200Y-95565544D01*
X204899200Y-95565544D02*
X204851580Y-95708401D01*
X204851580Y-95708401D02*
X204851580Y-95946496D01*
X200723961Y-125410306D02*
X200771580Y-125505544D01*
X200771580Y-125505544D02*
X200771580Y-125648401D01*
X200771580Y-125648401D02*
X200723961Y-125791258D01*
X200723961Y-125791258D02*
X200628723Y-125886496D01*
X200628723Y-125886496D02*
X200533485Y-125934115D01*
X200533485Y-125934115D02*
X200343009Y-125981734D01*
X200343009Y-125981734D02*
X200200152Y-125981734D01*
X200200152Y-125981734D02*
X200009676Y-125934115D01*
X200009676Y-125934115D02*
X199914438Y-125886496D01*
X199914438Y-125886496D02*
X199819200Y-125791258D01*
X199819200Y-125791258D02*
X199771580Y-125648401D01*
X199771580Y-125648401D02*
X199771580Y-125553163D01*
X199771580Y-125553163D02*
X199819200Y-125410306D01*
X199819200Y-125410306D02*
X199866819Y-125362687D01*
X199866819Y-125362687D02*
X200200152Y-125362687D01*
X200200152Y-125362687D02*
X200200152Y-125553163D01*
X199771580Y-124934115D02*
X200771580Y-124934115D01*
X200771580Y-124934115D02*
X199771580Y-124362687D01*
X199771580Y-124362687D02*
X200771580Y-124362687D01*
X199771580Y-123886496D02*
X200771580Y-123886496D01*
X200771580Y-123886496D02*
X200771580Y-123648401D01*
X200771580Y-123648401D02*
X200723961Y-123505544D01*
X200723961Y-123505544D02*
X200628723Y-123410306D01*
X200628723Y-123410306D02*
X200533485Y-123362687D01*
X200533485Y-123362687D02*
X200343009Y-123315068D01*
X200343009Y-123315068D02*
X200200152Y-123315068D01*
X200200152Y-123315068D02*
X200009676Y-123362687D01*
X200009676Y-123362687D02*
X199914438Y-123410306D01*
X199914438Y-123410306D02*
X199819200Y-123505544D01*
X199819200Y-123505544D02*
X199771580Y-123648401D01*
X199771580Y-123648401D02*
X199771580Y-123886496D01*
X189659200Y-98041734D02*
X189611580Y-97898877D01*
X189611580Y-97898877D02*
X189611580Y-97660782D01*
X189611580Y-97660782D02*
X189659200Y-97565544D01*
X189659200Y-97565544D02*
X189706819Y-97517925D01*
X189706819Y-97517925D02*
X189802057Y-97470306D01*
X189802057Y-97470306D02*
X189897295Y-97470306D01*
X189897295Y-97470306D02*
X189992533Y-97517925D01*
X189992533Y-97517925D02*
X190040152Y-97565544D01*
X190040152Y-97565544D02*
X190087771Y-97660782D01*
X190087771Y-97660782D02*
X190135390Y-97851258D01*
X190135390Y-97851258D02*
X190183009Y-97946496D01*
X190183009Y-97946496D02*
X190230628Y-97994115D01*
X190230628Y-97994115D02*
X190325866Y-98041734D01*
X190325866Y-98041734D02*
X190421104Y-98041734D01*
X190421104Y-98041734D02*
X190516342Y-97994115D01*
X190516342Y-97994115D02*
X190563961Y-97946496D01*
X190563961Y-97946496D02*
X190611580Y-97851258D01*
X190611580Y-97851258D02*
X190611580Y-97613163D01*
X190611580Y-97613163D02*
X190563961Y-97470306D01*
X189706819Y-96470306D02*
X189659200Y-96517925D01*
X189659200Y-96517925D02*
X189611580Y-96660782D01*
X189611580Y-96660782D02*
X189611580Y-96756020D01*
X189611580Y-96756020D02*
X189659200Y-96898877D01*
X189659200Y-96898877D02*
X189754438Y-96994115D01*
X189754438Y-96994115D02*
X189849676Y-97041734D01*
X189849676Y-97041734D02*
X190040152Y-97089353D01*
X190040152Y-97089353D02*
X190183009Y-97089353D01*
X190183009Y-97089353D02*
X190373485Y-97041734D01*
X190373485Y-97041734D02*
X190468723Y-96994115D01*
X190468723Y-96994115D02*
X190563961Y-96898877D01*
X190563961Y-96898877D02*
X190611580Y-96756020D01*
X190611580Y-96756020D02*
X190611580Y-96660782D01*
X190611580Y-96660782D02*
X190563961Y-96517925D01*
X190563961Y-96517925D02*
X190516342Y-96470306D01*
X189611580Y-96041734D02*
X190611580Y-96041734D01*
X189611580Y-95470306D02*
X190183009Y-95898877D01*
X190611580Y-95470306D02*
X190040152Y-96041734D01*
X194691580Y-99962687D02*
X195167771Y-100296020D01*
X194691580Y-100534115D02*
X195691580Y-100534115D01*
X195691580Y-100534115D02*
X195691580Y-100153163D01*
X195691580Y-100153163D02*
X195643961Y-100057925D01*
X195643961Y-100057925D02*
X195596342Y-100010306D01*
X195596342Y-100010306D02*
X195501104Y-99962687D01*
X195501104Y-99962687D02*
X195358247Y-99962687D01*
X195358247Y-99962687D02*
X195263009Y-100010306D01*
X195263009Y-100010306D02*
X195215390Y-100057925D01*
X195215390Y-100057925D02*
X195167771Y-100153163D01*
X195167771Y-100153163D02*
X195167771Y-100534115D01*
X195691580Y-99629353D02*
X194691580Y-98962687D01*
X195691580Y-98962687D02*
X194691580Y-99629353D01*
X195739200Y-97867449D02*
X194453485Y-98724591D01*
X194739200Y-97581734D02*
X194691580Y-97438877D01*
X194691580Y-97438877D02*
X194691580Y-97200782D01*
X194691580Y-97200782D02*
X194739200Y-97105544D01*
X194739200Y-97105544D02*
X194786819Y-97057925D01*
X194786819Y-97057925D02*
X194882057Y-97010306D01*
X194882057Y-97010306D02*
X194977295Y-97010306D01*
X194977295Y-97010306D02*
X195072533Y-97057925D01*
X195072533Y-97057925D02*
X195120152Y-97105544D01*
X195120152Y-97105544D02*
X195167771Y-97200782D01*
X195167771Y-97200782D02*
X195215390Y-97391258D01*
X195215390Y-97391258D02*
X195263009Y-97486496D01*
X195263009Y-97486496D02*
X195310628Y-97534115D01*
X195310628Y-97534115D02*
X195405866Y-97581734D01*
X195405866Y-97581734D02*
X195501104Y-97581734D01*
X195501104Y-97581734D02*
X195596342Y-97534115D01*
X195596342Y-97534115D02*
X195643961Y-97486496D01*
X195643961Y-97486496D02*
X195691580Y-97391258D01*
X195691580Y-97391258D02*
X195691580Y-97153163D01*
X195691580Y-97153163D02*
X195643961Y-97010306D01*
X194691580Y-96581734D02*
X195691580Y-96581734D01*
X195691580Y-96581734D02*
X195691580Y-96343639D01*
X195691580Y-96343639D02*
X195643961Y-96200782D01*
X195643961Y-96200782D02*
X195548723Y-96105544D01*
X195548723Y-96105544D02*
X195453485Y-96057925D01*
X195453485Y-96057925D02*
X195263009Y-96010306D01*
X195263009Y-96010306D02*
X195120152Y-96010306D01*
X195120152Y-96010306D02*
X194929676Y-96057925D01*
X194929676Y-96057925D02*
X194834438Y-96105544D01*
X194834438Y-96105544D02*
X194739200Y-96200782D01*
X194739200Y-96200782D02*
X194691580Y-96343639D01*
X194691580Y-96343639D02*
X194691580Y-96581734D01*
X194691580Y-95581734D02*
X195691580Y-95581734D01*
X209931580Y-125934115D02*
X210931580Y-125934115D01*
X210931580Y-125934115D02*
X210931580Y-125553163D01*
X210931580Y-125553163D02*
X210883961Y-125457925D01*
X210883961Y-125457925D02*
X210836342Y-125410306D01*
X210836342Y-125410306D02*
X210741104Y-125362687D01*
X210741104Y-125362687D02*
X210598247Y-125362687D01*
X210598247Y-125362687D02*
X210503009Y-125410306D01*
X210503009Y-125410306D02*
X210455390Y-125457925D01*
X210455390Y-125457925D02*
X210407771Y-125553163D01*
X210407771Y-125553163D02*
X210407771Y-125934115D01*
X209931580Y-124934115D02*
X210931580Y-124934115D01*
X210931580Y-124934115D02*
X210931580Y-124553163D01*
X210931580Y-124553163D02*
X210883961Y-124457925D01*
X210883961Y-124457925D02*
X210836342Y-124410306D01*
X210836342Y-124410306D02*
X210741104Y-124362687D01*
X210741104Y-124362687D02*
X210598247Y-124362687D01*
X210598247Y-124362687D02*
X210503009Y-124410306D01*
X210503009Y-124410306D02*
X210455390Y-124457925D01*
X210455390Y-124457925D02*
X210407771Y-124553163D01*
X210407771Y-124553163D02*
X210407771Y-124934115D01*
X209979200Y-123981734D02*
X209931580Y-123838877D01*
X209931580Y-123838877D02*
X209931580Y-123600782D01*
X209931580Y-123600782D02*
X209979200Y-123505544D01*
X209979200Y-123505544D02*
X210026819Y-123457925D01*
X210026819Y-123457925D02*
X210122057Y-123410306D01*
X210122057Y-123410306D02*
X210217295Y-123410306D01*
X210217295Y-123410306D02*
X210312533Y-123457925D01*
X210312533Y-123457925D02*
X210360152Y-123505544D01*
X210360152Y-123505544D02*
X210407771Y-123600782D01*
X210407771Y-123600782D02*
X210455390Y-123791258D01*
X210455390Y-123791258D02*
X210503009Y-123886496D01*
X210503009Y-123886496D02*
X210550628Y-123934115D01*
X210550628Y-123934115D02*
X210645866Y-123981734D01*
X210645866Y-123981734D02*
X210741104Y-123981734D01*
X210741104Y-123981734D02*
X210836342Y-123934115D01*
X210836342Y-123934115D02*
X210883961Y-123886496D01*
X210883961Y-123886496D02*
X210931580Y-123791258D01*
X210931580Y-123791258D02*
X210931580Y-123553163D01*
X210931580Y-123553163D02*
X210883961Y-123410306D01*
X194739200Y-125981734D02*
X194691580Y-125838877D01*
X194691580Y-125838877D02*
X194691580Y-125600782D01*
X194691580Y-125600782D02*
X194739200Y-125505544D01*
X194739200Y-125505544D02*
X194786819Y-125457925D01*
X194786819Y-125457925D02*
X194882057Y-125410306D01*
X194882057Y-125410306D02*
X194977295Y-125410306D01*
X194977295Y-125410306D02*
X195072533Y-125457925D01*
X195072533Y-125457925D02*
X195120152Y-125505544D01*
X195120152Y-125505544D02*
X195167771Y-125600782D01*
X195167771Y-125600782D02*
X195215390Y-125791258D01*
X195215390Y-125791258D02*
X195263009Y-125886496D01*
X195263009Y-125886496D02*
X195310628Y-125934115D01*
X195310628Y-125934115D02*
X195405866Y-125981734D01*
X195405866Y-125981734D02*
X195501104Y-125981734D01*
X195501104Y-125981734D02*
X195596342Y-125934115D01*
X195596342Y-125934115D02*
X195643961Y-125886496D01*
X195643961Y-125886496D02*
X195691580Y-125791258D01*
X195691580Y-125791258D02*
X195691580Y-125553163D01*
X195691580Y-125553163D02*
X195643961Y-125410306D01*
X194691580Y-124981734D02*
X195691580Y-124981734D01*
X195691580Y-124981734D02*
X195691580Y-124743639D01*
X195691580Y-124743639D02*
X195643961Y-124600782D01*
X195643961Y-124600782D02*
X195548723Y-124505544D01*
X195548723Y-124505544D02*
X195453485Y-124457925D01*
X195453485Y-124457925D02*
X195263009Y-124410306D01*
X195263009Y-124410306D02*
X195120152Y-124410306D01*
X195120152Y-124410306D02*
X194929676Y-124457925D01*
X194929676Y-124457925D02*
X194834438Y-124505544D01*
X194834438Y-124505544D02*
X194739200Y-124600782D01*
X194739200Y-124600782D02*
X194691580Y-124743639D01*
X194691580Y-124743639D02*
X194691580Y-124981734D01*
X194977295Y-124029353D02*
X194977295Y-123553163D01*
X194691580Y-124124591D02*
X195691580Y-123791258D01*
X195691580Y-123791258D02*
X194691580Y-123457925D01*
X198231580Y-126029353D02*
X198231580Y-125410306D01*
X198231580Y-125410306D02*
X197850628Y-125743639D01*
X197850628Y-125743639D02*
X197850628Y-125600782D01*
X197850628Y-125600782D02*
X197803009Y-125505544D01*
X197803009Y-125505544D02*
X197755390Y-125457925D01*
X197755390Y-125457925D02*
X197660152Y-125410306D01*
X197660152Y-125410306D02*
X197422057Y-125410306D01*
X197422057Y-125410306D02*
X197326819Y-125457925D01*
X197326819Y-125457925D02*
X197279200Y-125505544D01*
X197279200Y-125505544D02*
X197231580Y-125600782D01*
X197231580Y-125600782D02*
X197231580Y-125886496D01*
X197231580Y-125886496D02*
X197279200Y-125981734D01*
X197279200Y-125981734D02*
X197326819Y-126029353D01*
X198231580Y-125124591D02*
X197231580Y-124791258D01*
X197231580Y-124791258D02*
X198231580Y-124457925D01*
X198231580Y-124219829D02*
X198231580Y-123600782D01*
X198231580Y-123600782D02*
X197850628Y-123934115D01*
X197850628Y-123934115D02*
X197850628Y-123791258D01*
X197850628Y-123791258D02*
X197803009Y-123696020D01*
X197803009Y-123696020D02*
X197755390Y-123648401D01*
X197755390Y-123648401D02*
X197660152Y-123600782D01*
X197660152Y-123600782D02*
X197422057Y-123600782D01*
X197422057Y-123600782D02*
X197326819Y-123648401D01*
X197326819Y-123648401D02*
X197279200Y-123696020D01*
X197279200Y-123696020D02*
X197231580Y-123791258D01*
X197231580Y-123791258D02*
X197231580Y-124076972D01*
X197231580Y-124076972D02*
X197279200Y-124172210D01*
X197279200Y-124172210D02*
X197326819Y-124219829D01*
X181607734Y-104472800D02*
X181464877Y-104520419D01*
X181464877Y-104520419D02*
X181226782Y-104520419D01*
X181226782Y-104520419D02*
X181131544Y-104472800D01*
X181131544Y-104472800D02*
X181083925Y-104425180D01*
X181083925Y-104425180D02*
X181036306Y-104329942D01*
X181036306Y-104329942D02*
X181036306Y-104234704D01*
X181036306Y-104234704D02*
X181083925Y-104139466D01*
X181083925Y-104139466D02*
X181131544Y-104091847D01*
X181131544Y-104091847D02*
X181226782Y-104044228D01*
X181226782Y-104044228D02*
X181417258Y-103996609D01*
X181417258Y-103996609D02*
X181512496Y-103948990D01*
X181512496Y-103948990D02*
X181560115Y-103901371D01*
X181560115Y-103901371D02*
X181607734Y-103806133D01*
X181607734Y-103806133D02*
X181607734Y-103710895D01*
X181607734Y-103710895D02*
X181560115Y-103615657D01*
X181560115Y-103615657D02*
X181512496Y-103568038D01*
X181512496Y-103568038D02*
X181417258Y-103520419D01*
X181417258Y-103520419D02*
X181179163Y-103520419D01*
X181179163Y-103520419D02*
X181036306Y-103568038D01*
X180607734Y-104520419D02*
X180607734Y-103520419D01*
X180607734Y-103520419D02*
X180274401Y-104234704D01*
X180274401Y-104234704D02*
X179941068Y-103520419D01*
X179941068Y-103520419D02*
X179941068Y-104520419D01*
X179512496Y-104234704D02*
X179036306Y-104234704D01*
X179607734Y-104520419D02*
X179274401Y-103520419D01*
X179274401Y-103520419D02*
X178941068Y-104520419D01*
X197326819Y-96152687D02*
X197279200Y-96200306D01*
X197279200Y-96200306D02*
X197231580Y-96343163D01*
X197231580Y-96343163D02*
X197231580Y-96438401D01*
X197231580Y-96438401D02*
X197279200Y-96581258D01*
X197279200Y-96581258D02*
X197374438Y-96676496D01*
X197374438Y-96676496D02*
X197469676Y-96724115D01*
X197469676Y-96724115D02*
X197660152Y-96771734D01*
X197660152Y-96771734D02*
X197803009Y-96771734D01*
X197803009Y-96771734D02*
X197993485Y-96724115D01*
X197993485Y-96724115D02*
X198088723Y-96676496D01*
X198088723Y-96676496D02*
X198183961Y-96581258D01*
X198183961Y-96581258D02*
X198231580Y-96438401D01*
X198231580Y-96438401D02*
X198231580Y-96343163D01*
X198231580Y-96343163D02*
X198183961Y-96200306D01*
X198183961Y-96200306D02*
X198136342Y-96152687D01*
X197279200Y-95771734D02*
X197231580Y-95628877D01*
X197231580Y-95628877D02*
X197231580Y-95390782D01*
X197231580Y-95390782D02*
X197279200Y-95295544D01*
X197279200Y-95295544D02*
X197326819Y-95247925D01*
X197326819Y-95247925D02*
X197422057Y-95200306D01*
X197422057Y-95200306D02*
X197517295Y-95200306D01*
X197517295Y-95200306D02*
X197612533Y-95247925D01*
X197612533Y-95247925D02*
X197660152Y-95295544D01*
X197660152Y-95295544D02*
X197707771Y-95390782D01*
X197707771Y-95390782D02*
X197755390Y-95581258D01*
X197755390Y-95581258D02*
X197803009Y-95676496D01*
X197803009Y-95676496D02*
X197850628Y-95724115D01*
X197850628Y-95724115D02*
X197945866Y-95771734D01*
X197945866Y-95771734D02*
X198041104Y-95771734D01*
X198041104Y-95771734D02*
X198136342Y-95724115D01*
X198136342Y-95724115D02*
X198183961Y-95676496D01*
X198183961Y-95676496D02*
X198231580Y-95581258D01*
X198231580Y-95581258D02*
X198231580Y-95343163D01*
X198231580Y-95343163D02*
X198183961Y-95200306D01*
D10*
X208844972Y-80712238D02*
X208940210Y-80664619D01*
X208940210Y-80664619D02*
X209083067Y-80664619D01*
X209083067Y-80664619D02*
X209225924Y-80712238D01*
X209225924Y-80712238D02*
X209321162Y-80807476D01*
X209321162Y-80807476D02*
X209368781Y-80902714D01*
X209368781Y-80902714D02*
X209416400Y-81093190D01*
X209416400Y-81093190D02*
X209416400Y-81236047D01*
X209416400Y-81236047D02*
X209368781Y-81426523D01*
X209368781Y-81426523D02*
X209321162Y-81521761D01*
X209321162Y-81521761D02*
X209225924Y-81617000D01*
X209225924Y-81617000D02*
X209083067Y-81664619D01*
X209083067Y-81664619D02*
X208987829Y-81664619D01*
X208987829Y-81664619D02*
X208844972Y-81617000D01*
X208844972Y-81617000D02*
X208797353Y-81569380D01*
X208797353Y-81569380D02*
X208797353Y-81236047D01*
X208797353Y-81236047D02*
X208987829Y-81236047D01*
X208225924Y-81664619D02*
X208321162Y-81617000D01*
X208321162Y-81617000D02*
X208368781Y-81521761D01*
X208368781Y-81521761D02*
X208368781Y-80664619D01*
X207844971Y-81664619D02*
X207844971Y-80997952D01*
X207844971Y-80664619D02*
X207892590Y-80712238D01*
X207892590Y-80712238D02*
X207844971Y-80759857D01*
X207844971Y-80759857D02*
X207797352Y-80712238D01*
X207797352Y-80712238D02*
X207844971Y-80664619D01*
X207844971Y-80664619D02*
X207844971Y-80759857D01*
X206940210Y-81664619D02*
X206940210Y-80664619D01*
X206940210Y-81617000D02*
X207035448Y-81664619D01*
X207035448Y-81664619D02*
X207225924Y-81664619D01*
X207225924Y-81664619D02*
X207321162Y-81617000D01*
X207321162Y-81617000D02*
X207368781Y-81569380D01*
X207368781Y-81569380D02*
X207416400Y-81474142D01*
X207416400Y-81474142D02*
X207416400Y-81188428D01*
X207416400Y-81188428D02*
X207368781Y-81093190D01*
X207368781Y-81093190D02*
X207321162Y-81045571D01*
X207321162Y-81045571D02*
X207225924Y-80997952D01*
X207225924Y-80997952D02*
X207035448Y-80997952D01*
X207035448Y-80997952D02*
X206940210Y-81045571D01*
X206083067Y-81617000D02*
X206178305Y-81664619D01*
X206178305Y-81664619D02*
X206368781Y-81664619D01*
X206368781Y-81664619D02*
X206464019Y-81617000D01*
X206464019Y-81617000D02*
X206511638Y-81521761D01*
X206511638Y-81521761D02*
X206511638Y-81140809D01*
X206511638Y-81140809D02*
X206464019Y-81045571D01*
X206464019Y-81045571D02*
X206368781Y-80997952D01*
X206368781Y-80997952D02*
X206178305Y-80997952D01*
X206178305Y-80997952D02*
X206083067Y-81045571D01*
X206083067Y-81045571D02*
X206035448Y-81140809D01*
X206035448Y-81140809D02*
X206035448Y-81236047D01*
X206035448Y-81236047D02*
X206511638Y-81331285D01*
X205606876Y-81664619D02*
X205606876Y-80997952D01*
X205606876Y-81188428D02*
X205559257Y-81093190D01*
X205559257Y-81093190D02*
X205511638Y-81045571D01*
X205511638Y-81045571D02*
X205416400Y-80997952D01*
X205416400Y-80997952D02*
X205321162Y-80997952D01*
X205225924Y-81759857D02*
X204464019Y-81759857D01*
X203654495Y-81569380D02*
X203702114Y-81617000D01*
X203702114Y-81617000D02*
X203844971Y-81664619D01*
X203844971Y-81664619D02*
X203940209Y-81664619D01*
X203940209Y-81664619D02*
X204083066Y-81617000D01*
X204083066Y-81617000D02*
X204178304Y-81521761D01*
X204178304Y-81521761D02*
X204225923Y-81426523D01*
X204225923Y-81426523D02*
X204273542Y-81236047D01*
X204273542Y-81236047D02*
X204273542Y-81093190D01*
X204273542Y-81093190D02*
X204225923Y-80902714D01*
X204225923Y-80902714D02*
X204178304Y-80807476D01*
X204178304Y-80807476D02*
X204083066Y-80712238D01*
X204083066Y-80712238D02*
X203940209Y-80664619D01*
X203940209Y-80664619D02*
X203844971Y-80664619D01*
X203844971Y-80664619D02*
X203702114Y-80712238D01*
X203702114Y-80712238D02*
X203654495Y-80759857D01*
X203083066Y-81664619D02*
X203178304Y-81617000D01*
X203178304Y-81617000D02*
X203225923Y-81569380D01*
X203225923Y-81569380D02*
X203273542Y-81474142D01*
X203273542Y-81474142D02*
X203273542Y-81188428D01*
X203273542Y-81188428D02*
X203225923Y-81093190D01*
X203225923Y-81093190D02*
X203178304Y-81045571D01*
X203178304Y-81045571D02*
X203083066Y-80997952D01*
X203083066Y-80997952D02*
X202940209Y-80997952D01*
X202940209Y-80997952D02*
X202844971Y-81045571D01*
X202844971Y-81045571D02*
X202797352Y-81093190D01*
X202797352Y-81093190D02*
X202749733Y-81188428D01*
X202749733Y-81188428D02*
X202749733Y-81474142D01*
X202749733Y-81474142D02*
X202797352Y-81569380D01*
X202797352Y-81569380D02*
X202844971Y-81617000D01*
X202844971Y-81617000D02*
X202940209Y-81664619D01*
X202940209Y-81664619D02*
X203083066Y-81664619D01*
X202321161Y-80997952D02*
X202321161Y-81664619D01*
X202321161Y-81093190D02*
X202273542Y-81045571D01*
X202273542Y-81045571D02*
X202178304Y-80997952D01*
X202178304Y-80997952D02*
X202035447Y-80997952D01*
X202035447Y-80997952D02*
X201940209Y-81045571D01*
X201940209Y-81045571D02*
X201892590Y-81140809D01*
X201892590Y-81140809D02*
X201892590Y-81664619D01*
X201416399Y-80997952D02*
X201416399Y-81664619D01*
X201416399Y-81093190D02*
X201368780Y-81045571D01*
X201368780Y-81045571D02*
X201273542Y-80997952D01*
X201273542Y-80997952D02*
X201130685Y-80997952D01*
X201130685Y-80997952D02*
X201035447Y-81045571D01*
X201035447Y-81045571D02*
X200987828Y-81140809D01*
X200987828Y-81140809D02*
X200987828Y-81664619D01*
X200130685Y-81617000D02*
X200225923Y-81664619D01*
X200225923Y-81664619D02*
X200416399Y-81664619D01*
X200416399Y-81664619D02*
X200511637Y-81617000D01*
X200511637Y-81617000D02*
X200559256Y-81521761D01*
X200559256Y-81521761D02*
X200559256Y-81140809D01*
X200559256Y-81140809D02*
X200511637Y-81045571D01*
X200511637Y-81045571D02*
X200416399Y-80997952D01*
X200416399Y-80997952D02*
X200225923Y-80997952D01*
X200225923Y-80997952D02*
X200130685Y-81045571D01*
X200130685Y-81045571D02*
X200083066Y-81140809D01*
X200083066Y-81140809D02*
X200083066Y-81236047D01*
X200083066Y-81236047D02*
X200559256Y-81331285D01*
X199225923Y-81617000D02*
X199321161Y-81664619D01*
X199321161Y-81664619D02*
X199511637Y-81664619D01*
X199511637Y-81664619D02*
X199606875Y-81617000D01*
X199606875Y-81617000D02*
X199654494Y-81569380D01*
X199654494Y-81569380D02*
X199702113Y-81474142D01*
X199702113Y-81474142D02*
X199702113Y-81188428D01*
X199702113Y-81188428D02*
X199654494Y-81093190D01*
X199654494Y-81093190D02*
X199606875Y-81045571D01*
X199606875Y-81045571D02*
X199511637Y-80997952D01*
X199511637Y-80997952D02*
X199321161Y-80997952D01*
X199321161Y-80997952D02*
X199225923Y-81045571D01*
X198940208Y-80997952D02*
X198559256Y-80997952D01*
X198797351Y-80664619D02*
X198797351Y-81521761D01*
X198797351Y-81521761D02*
X198749732Y-81617000D01*
X198749732Y-81617000D02*
X198654494Y-81664619D01*
X198654494Y-81664619D02*
X198559256Y-81664619D01*
X198225922Y-81664619D02*
X198225922Y-80997952D01*
X198225922Y-80664619D02*
X198273541Y-80712238D01*
X198273541Y-80712238D02*
X198225922Y-80759857D01*
X198225922Y-80759857D02*
X198178303Y-80712238D01*
X198178303Y-80712238D02*
X198225922Y-80664619D01*
X198225922Y-80664619D02*
X198225922Y-80759857D01*
X197606875Y-81664619D02*
X197702113Y-81617000D01*
X197702113Y-81617000D02*
X197749732Y-81569380D01*
X197749732Y-81569380D02*
X197797351Y-81474142D01*
X197797351Y-81474142D02*
X197797351Y-81188428D01*
X197797351Y-81188428D02*
X197749732Y-81093190D01*
X197749732Y-81093190D02*
X197702113Y-81045571D01*
X197702113Y-81045571D02*
X197606875Y-80997952D01*
X197606875Y-80997952D02*
X197464018Y-80997952D01*
X197464018Y-80997952D02*
X197368780Y-81045571D01*
X197368780Y-81045571D02*
X197321161Y-81093190D01*
X197321161Y-81093190D02*
X197273542Y-81188428D01*
X197273542Y-81188428D02*
X197273542Y-81474142D01*
X197273542Y-81474142D02*
X197321161Y-81569380D01*
X197321161Y-81569380D02*
X197368780Y-81617000D01*
X197368780Y-81617000D02*
X197464018Y-81664619D01*
X197464018Y-81664619D02*
X197606875Y-81664619D01*
X196844970Y-80997952D02*
X196844970Y-81664619D01*
X196844970Y-81093190D02*
X196797351Y-81045571D01*
X196797351Y-81045571D02*
X196702113Y-80997952D01*
X196702113Y-80997952D02*
X196559256Y-80997952D01*
X196559256Y-80997952D02*
X196464018Y-81045571D01*
X196464018Y-81045571D02*
X196416399Y-81140809D01*
X196416399Y-81140809D02*
X196416399Y-81664619D01*
X195416399Y-81664619D02*
X195987827Y-81664619D01*
X195702113Y-81664619D02*
X195702113Y-80664619D01*
X195702113Y-80664619D02*
X195797351Y-80807476D01*
X195797351Y-80807476D02*
X195892589Y-80902714D01*
X195892589Y-80902714D02*
X195987827Y-80950333D01*
X170267333Y-87739200D02*
X170124476Y-87786819D01*
X170124476Y-87786819D02*
X169886381Y-87786819D01*
X169886381Y-87786819D02*
X169791143Y-87739200D01*
X169791143Y-87739200D02*
X169743524Y-87691580D01*
X169743524Y-87691580D02*
X169695905Y-87596342D01*
X169695905Y-87596342D02*
X169695905Y-87501104D01*
X169695905Y-87501104D02*
X169743524Y-87405866D01*
X169743524Y-87405866D02*
X169791143Y-87358247D01*
X169791143Y-87358247D02*
X169886381Y-87310628D01*
X169886381Y-87310628D02*
X170076857Y-87263009D01*
X170076857Y-87263009D02*
X170172095Y-87215390D01*
X170172095Y-87215390D02*
X170219714Y-87167771D01*
X170219714Y-87167771D02*
X170267333Y-87072533D01*
X170267333Y-87072533D02*
X170267333Y-86977295D01*
X170267333Y-86977295D02*
X170219714Y-86882057D01*
X170219714Y-86882057D02*
X170172095Y-86834438D01*
X170172095Y-86834438D02*
X170076857Y-86786819D01*
X170076857Y-86786819D02*
X169838762Y-86786819D01*
X169838762Y-86786819D02*
X169695905Y-86834438D01*
X168886381Y-87739200D02*
X168981619Y-87786819D01*
X168981619Y-87786819D02*
X169172095Y-87786819D01*
X169172095Y-87786819D02*
X169267333Y-87739200D01*
X169267333Y-87739200D02*
X169314952Y-87643961D01*
X169314952Y-87643961D02*
X169314952Y-87263009D01*
X169314952Y-87263009D02*
X169267333Y-87167771D01*
X169267333Y-87167771D02*
X169172095Y-87120152D01*
X169172095Y-87120152D02*
X168981619Y-87120152D01*
X168981619Y-87120152D02*
X168886381Y-87167771D01*
X168886381Y-87167771D02*
X168838762Y-87263009D01*
X168838762Y-87263009D02*
X168838762Y-87358247D01*
X168838762Y-87358247D02*
X169314952Y-87453485D01*
X168410190Y-87786819D02*
X168410190Y-87120152D01*
X168410190Y-87310628D02*
X168362571Y-87215390D01*
X168362571Y-87215390D02*
X168314952Y-87167771D01*
X168314952Y-87167771D02*
X168219714Y-87120152D01*
X168219714Y-87120152D02*
X168124476Y-87120152D01*
X167886380Y-87120152D02*
X167648285Y-87786819D01*
X167648285Y-87786819D02*
X167410190Y-87120152D01*
X166886380Y-87786819D02*
X166981618Y-87739200D01*
X166981618Y-87739200D02*
X167029237Y-87691580D01*
X167029237Y-87691580D02*
X167076856Y-87596342D01*
X167076856Y-87596342D02*
X167076856Y-87310628D01*
X167076856Y-87310628D02*
X167029237Y-87215390D01*
X167029237Y-87215390D02*
X166981618Y-87167771D01*
X166981618Y-87167771D02*
X166886380Y-87120152D01*
X166886380Y-87120152D02*
X166743523Y-87120152D01*
X166743523Y-87120152D02*
X166648285Y-87167771D01*
X166648285Y-87167771D02*
X166600666Y-87215390D01*
X166600666Y-87215390D02*
X166553047Y-87310628D01*
X166553047Y-87310628D02*
X166553047Y-87596342D01*
X166553047Y-87596342D02*
X166600666Y-87691580D01*
X166600666Y-87691580D02*
X166648285Y-87739200D01*
X166648285Y-87739200D02*
X166743523Y-87786819D01*
X166743523Y-87786819D02*
X166886380Y-87786819D01*
X165600666Y-87786819D02*
X166172094Y-87786819D01*
X165886380Y-87786819D02*
X165886380Y-86786819D01*
X165886380Y-86786819D02*
X165981618Y-86929676D01*
X165981618Y-86929676D02*
X166076856Y-87024914D01*
X166076856Y-87024914D02*
X166172094Y-87072533D01*
X170710763Y-113040819D02*
X170377430Y-114040819D01*
X170377430Y-114040819D02*
X170044097Y-113040819D01*
X169567906Y-114040819D02*
X169663144Y-113993200D01*
X169663144Y-113993200D02*
X169710763Y-113945580D01*
X169710763Y-113945580D02*
X169758382Y-113850342D01*
X169758382Y-113850342D02*
X169758382Y-113564628D01*
X169758382Y-113564628D02*
X169710763Y-113469390D01*
X169710763Y-113469390D02*
X169663144Y-113421771D01*
X169663144Y-113421771D02*
X169567906Y-113374152D01*
X169567906Y-113374152D02*
X169425049Y-113374152D01*
X169425049Y-113374152D02*
X169329811Y-113421771D01*
X169329811Y-113421771D02*
X169282192Y-113469390D01*
X169282192Y-113469390D02*
X169234573Y-113564628D01*
X169234573Y-113564628D02*
X169234573Y-113850342D01*
X169234573Y-113850342D02*
X169282192Y-113945580D01*
X169282192Y-113945580D02*
X169329811Y-113993200D01*
X169329811Y-113993200D02*
X169425049Y-114040819D01*
X169425049Y-114040819D02*
X169567906Y-114040819D01*
X168663144Y-114040819D02*
X168758382Y-113993200D01*
X168758382Y-113993200D02*
X168806001Y-113897961D01*
X168806001Y-113897961D02*
X168806001Y-113040819D01*
X168425048Y-113374152D02*
X168044096Y-113374152D01*
X168282191Y-113040819D02*
X168282191Y-113897961D01*
X168282191Y-113897961D02*
X168234572Y-113993200D01*
X168234572Y-113993200D02*
X168139334Y-114040819D01*
X168139334Y-114040819D02*
X168044096Y-114040819D01*
X167282191Y-114040819D02*
X167282191Y-113517009D01*
X167282191Y-113517009D02*
X167329810Y-113421771D01*
X167329810Y-113421771D02*
X167425048Y-113374152D01*
X167425048Y-113374152D02*
X167615524Y-113374152D01*
X167615524Y-113374152D02*
X167710762Y-113421771D01*
X167282191Y-113993200D02*
X167377429Y-114040819D01*
X167377429Y-114040819D02*
X167615524Y-114040819D01*
X167615524Y-114040819D02*
X167710762Y-113993200D01*
X167710762Y-113993200D02*
X167758381Y-113897961D01*
X167758381Y-113897961D02*
X167758381Y-113802723D01*
X167758381Y-113802723D02*
X167710762Y-113707485D01*
X167710762Y-113707485D02*
X167615524Y-113659866D01*
X167615524Y-113659866D02*
X167377429Y-113659866D01*
X167377429Y-113659866D02*
X167282191Y-113612247D01*
X166377429Y-113374152D02*
X166377429Y-114183676D01*
X166377429Y-114183676D02*
X166425048Y-114278914D01*
X166425048Y-114278914D02*
X166472667Y-114326533D01*
X166472667Y-114326533D02*
X166567905Y-114374152D01*
X166567905Y-114374152D02*
X166710762Y-114374152D01*
X166710762Y-114374152D02*
X166806000Y-114326533D01*
X166377429Y-113993200D02*
X166472667Y-114040819D01*
X166472667Y-114040819D02*
X166663143Y-114040819D01*
X166663143Y-114040819D02*
X166758381Y-113993200D01*
X166758381Y-113993200D02*
X166806000Y-113945580D01*
X166806000Y-113945580D02*
X166853619Y-113850342D01*
X166853619Y-113850342D02*
X166853619Y-113564628D01*
X166853619Y-113564628D02*
X166806000Y-113469390D01*
X166806000Y-113469390D02*
X166758381Y-113421771D01*
X166758381Y-113421771D02*
X166663143Y-113374152D01*
X166663143Y-113374152D02*
X166472667Y-113374152D01*
X166472667Y-113374152D02*
X166377429Y-113421771D01*
X165520286Y-113993200D02*
X165615524Y-114040819D01*
X165615524Y-114040819D02*
X165806000Y-114040819D01*
X165806000Y-114040819D02*
X165901238Y-113993200D01*
X165901238Y-113993200D02*
X165948857Y-113897961D01*
X165948857Y-113897961D02*
X165948857Y-113517009D01*
X165948857Y-113517009D02*
X165901238Y-113421771D01*
X165901238Y-113421771D02*
X165806000Y-113374152D01*
X165806000Y-113374152D02*
X165615524Y-113374152D01*
X165615524Y-113374152D02*
X165520286Y-113421771D01*
X165520286Y-113421771D02*
X165472667Y-113517009D01*
X165472667Y-113517009D02*
X165472667Y-113612247D01*
X165472667Y-113612247D02*
X165948857Y-113707485D01*
X165282191Y-114136057D02*
X164520286Y-114136057D01*
X163710762Y-114040819D02*
X164044095Y-113564628D01*
X164282190Y-114040819D02*
X164282190Y-113040819D01*
X164282190Y-113040819D02*
X163901238Y-113040819D01*
X163901238Y-113040819D02*
X163806000Y-113088438D01*
X163806000Y-113088438D02*
X163758381Y-113136057D01*
X163758381Y-113136057D02*
X163710762Y-113231295D01*
X163710762Y-113231295D02*
X163710762Y-113374152D01*
X163710762Y-113374152D02*
X163758381Y-113469390D01*
X163758381Y-113469390D02*
X163806000Y-113517009D01*
X163806000Y-113517009D02*
X163901238Y-113564628D01*
X163901238Y-113564628D02*
X164282190Y-113564628D01*
X162901238Y-113993200D02*
X162996476Y-114040819D01*
X162996476Y-114040819D02*
X163186952Y-114040819D01*
X163186952Y-114040819D02*
X163282190Y-113993200D01*
X163282190Y-113993200D02*
X163329809Y-113897961D01*
X163329809Y-113897961D02*
X163329809Y-113517009D01*
X163329809Y-113517009D02*
X163282190Y-113421771D01*
X163282190Y-113421771D02*
X163186952Y-113374152D01*
X163186952Y-113374152D02*
X162996476Y-113374152D01*
X162996476Y-113374152D02*
X162901238Y-113421771D01*
X162901238Y-113421771D02*
X162853619Y-113517009D01*
X162853619Y-113517009D02*
X162853619Y-113612247D01*
X162853619Y-113612247D02*
X163329809Y-113707485D01*
X161996476Y-113374152D02*
X161996476Y-114183676D01*
X161996476Y-114183676D02*
X162044095Y-114278914D01*
X162044095Y-114278914D02*
X162091714Y-114326533D01*
X162091714Y-114326533D02*
X162186952Y-114374152D01*
X162186952Y-114374152D02*
X162329809Y-114374152D01*
X162329809Y-114374152D02*
X162425047Y-114326533D01*
X161996476Y-113993200D02*
X162091714Y-114040819D01*
X162091714Y-114040819D02*
X162282190Y-114040819D01*
X162282190Y-114040819D02*
X162377428Y-113993200D01*
X162377428Y-113993200D02*
X162425047Y-113945580D01*
X162425047Y-113945580D02*
X162472666Y-113850342D01*
X162472666Y-113850342D02*
X162472666Y-113564628D01*
X162472666Y-113564628D02*
X162425047Y-113469390D01*
X162425047Y-113469390D02*
X162377428Y-113421771D01*
X162377428Y-113421771D02*
X162282190Y-113374152D01*
X162282190Y-113374152D02*
X162091714Y-113374152D01*
X162091714Y-113374152D02*
X161996476Y-113421771D01*
X161091714Y-113374152D02*
X161091714Y-114040819D01*
X161520285Y-113374152D02*
X161520285Y-113897961D01*
X161520285Y-113897961D02*
X161472666Y-113993200D01*
X161472666Y-113993200D02*
X161377428Y-114040819D01*
X161377428Y-114040819D02*
X161234571Y-114040819D01*
X161234571Y-114040819D02*
X161139333Y-113993200D01*
X161139333Y-113993200D02*
X161091714Y-113945580D01*
X160472666Y-114040819D02*
X160567904Y-113993200D01*
X160567904Y-113993200D02*
X160615523Y-113897961D01*
X160615523Y-113897961D02*
X160615523Y-113040819D01*
X159663142Y-114040819D02*
X159663142Y-113517009D01*
X159663142Y-113517009D02*
X159710761Y-113421771D01*
X159710761Y-113421771D02*
X159805999Y-113374152D01*
X159805999Y-113374152D02*
X159996475Y-113374152D01*
X159996475Y-113374152D02*
X160091713Y-113421771D01*
X159663142Y-113993200D02*
X159758380Y-114040819D01*
X159758380Y-114040819D02*
X159996475Y-114040819D01*
X159996475Y-114040819D02*
X160091713Y-113993200D01*
X160091713Y-113993200D02*
X160139332Y-113897961D01*
X160139332Y-113897961D02*
X160139332Y-113802723D01*
X160139332Y-113802723D02*
X160091713Y-113707485D01*
X160091713Y-113707485D02*
X159996475Y-113659866D01*
X159996475Y-113659866D02*
X159758380Y-113659866D01*
X159758380Y-113659866D02*
X159663142Y-113612247D01*
X159329808Y-113374152D02*
X158948856Y-113374152D01*
X159186951Y-113040819D02*
X159186951Y-113897961D01*
X159186951Y-113897961D02*
X159139332Y-113993200D01*
X159139332Y-113993200D02*
X159044094Y-114040819D01*
X159044094Y-114040819D02*
X158948856Y-114040819D01*
X158472665Y-114040819D02*
X158567903Y-113993200D01*
X158567903Y-113993200D02*
X158615522Y-113945580D01*
X158615522Y-113945580D02*
X158663141Y-113850342D01*
X158663141Y-113850342D02*
X158663141Y-113564628D01*
X158663141Y-113564628D02*
X158615522Y-113469390D01*
X158615522Y-113469390D02*
X158567903Y-113421771D01*
X158567903Y-113421771D02*
X158472665Y-113374152D01*
X158472665Y-113374152D02*
X158329808Y-113374152D01*
X158329808Y-113374152D02*
X158234570Y-113421771D01*
X158234570Y-113421771D02*
X158186951Y-113469390D01*
X158186951Y-113469390D02*
X158139332Y-113564628D01*
X158139332Y-113564628D02*
X158139332Y-113850342D01*
X158139332Y-113850342D02*
X158186951Y-113945580D01*
X158186951Y-113945580D02*
X158234570Y-113993200D01*
X158234570Y-113993200D02*
X158329808Y-114040819D01*
X158329808Y-114040819D02*
X158472665Y-114040819D01*
X157710760Y-114040819D02*
X157710760Y-113374152D01*
X157710760Y-113564628D02*
X157663141Y-113469390D01*
X157663141Y-113469390D02*
X157615522Y-113421771D01*
X157615522Y-113421771D02*
X157520284Y-113374152D01*
X157520284Y-113374152D02*
X157425046Y-113374152D01*
X157329808Y-114136057D02*
X156567903Y-114136057D01*
X155853617Y-113040819D02*
X156329807Y-113040819D01*
X156329807Y-113040819D02*
X156377426Y-113517009D01*
X156377426Y-113517009D02*
X156329807Y-113469390D01*
X156329807Y-113469390D02*
X156234569Y-113421771D01*
X156234569Y-113421771D02*
X155996474Y-113421771D01*
X155996474Y-113421771D02*
X155901236Y-113469390D01*
X155901236Y-113469390D02*
X155853617Y-113517009D01*
X155853617Y-113517009D02*
X155805998Y-113612247D01*
X155805998Y-113612247D02*
X155805998Y-113850342D01*
X155805998Y-113850342D02*
X155853617Y-113945580D01*
X155853617Y-113945580D02*
X155901236Y-113993200D01*
X155901236Y-113993200D02*
X155996474Y-114040819D01*
X155996474Y-114040819D02*
X156234569Y-114040819D01*
X156234569Y-114040819D02*
X156329807Y-113993200D01*
X156329807Y-113993200D02*
X156377426Y-113945580D01*
X155520283Y-113040819D02*
X155186950Y-114040819D01*
X155186950Y-114040819D02*
X154853617Y-113040819D01*
X154567902Y-113136057D02*
X154520283Y-113088438D01*
X154520283Y-113088438D02*
X154425045Y-113040819D01*
X154425045Y-113040819D02*
X154186950Y-113040819D01*
X154186950Y-113040819D02*
X154091712Y-113088438D01*
X154091712Y-113088438D02*
X154044093Y-113136057D01*
X154044093Y-113136057D02*
X153996474Y-113231295D01*
X153996474Y-113231295D02*
X153996474Y-113326533D01*
X153996474Y-113326533D02*
X154044093Y-113469390D01*
X154044093Y-113469390D02*
X154615521Y-114040819D01*
X154615521Y-114040819D02*
X153996474Y-114040819D01*
X173940694Y-108960819D02*
X173940694Y-107960819D01*
X173940694Y-107960819D02*
X173702599Y-107960819D01*
X173702599Y-107960819D02*
X173559742Y-108008438D01*
X173559742Y-108008438D02*
X173464504Y-108103676D01*
X173464504Y-108103676D02*
X173416885Y-108198914D01*
X173416885Y-108198914D02*
X173369266Y-108389390D01*
X173369266Y-108389390D02*
X173369266Y-108532247D01*
X173369266Y-108532247D02*
X173416885Y-108722723D01*
X173416885Y-108722723D02*
X173464504Y-108817961D01*
X173464504Y-108817961D02*
X173559742Y-108913200D01*
X173559742Y-108913200D02*
X173702599Y-108960819D01*
X173702599Y-108960819D02*
X173940694Y-108960819D01*
X172416885Y-108960819D02*
X172988313Y-108960819D01*
X172702599Y-108960819D02*
X172702599Y-107960819D01*
X172702599Y-107960819D02*
X172797837Y-108103676D01*
X172797837Y-108103676D02*
X172893075Y-108198914D01*
X172893075Y-108198914D02*
X172988313Y-108246533D01*
X178609914Y-114999009D02*
X178467057Y-115046628D01*
X178467057Y-115046628D02*
X178419438Y-115094247D01*
X178419438Y-115094247D02*
X178371819Y-115189485D01*
X178371819Y-115189485D02*
X178371819Y-115332342D01*
X178371819Y-115332342D02*
X178419438Y-115427580D01*
X178419438Y-115427580D02*
X178467057Y-115475200D01*
X178467057Y-115475200D02*
X178562295Y-115522819D01*
X178562295Y-115522819D02*
X178943247Y-115522819D01*
X178943247Y-115522819D02*
X178943247Y-114522819D01*
X178943247Y-114522819D02*
X178609914Y-114522819D01*
X178609914Y-114522819D02*
X178514676Y-114570438D01*
X178514676Y-114570438D02*
X178467057Y-114618057D01*
X178467057Y-114618057D02*
X178419438Y-114713295D01*
X178419438Y-114713295D02*
X178419438Y-114808533D01*
X178419438Y-114808533D02*
X178467057Y-114903771D01*
X178467057Y-114903771D02*
X178514676Y-114951390D01*
X178514676Y-114951390D02*
X178609914Y-114999009D01*
X178609914Y-114999009D02*
X178943247Y-114999009D01*
X178038485Y-114856152D02*
X177800390Y-115522819D01*
X177562295Y-114856152D02*
X177800390Y-115522819D01*
X177800390Y-115522819D02*
X177895628Y-115760914D01*
X177895628Y-115760914D02*
X177943247Y-115808533D01*
X177943247Y-115808533D02*
X178038485Y-115856152D01*
X177181342Y-114856152D02*
X177181342Y-115856152D01*
X177181342Y-114903771D02*
X177086104Y-114856152D01*
X177086104Y-114856152D02*
X176895628Y-114856152D01*
X176895628Y-114856152D02*
X176800390Y-114903771D01*
X176800390Y-114903771D02*
X176752771Y-114951390D01*
X176752771Y-114951390D02*
X176705152Y-115046628D01*
X176705152Y-115046628D02*
X176705152Y-115332342D01*
X176705152Y-115332342D02*
X176752771Y-115427580D01*
X176752771Y-115427580D02*
X176800390Y-115475200D01*
X176800390Y-115475200D02*
X176895628Y-115522819D01*
X176895628Y-115522819D02*
X177086104Y-115522819D01*
X177086104Y-115522819D02*
X177181342Y-115475200D01*
X175848009Y-115522819D02*
X175848009Y-114999009D01*
X175848009Y-114999009D02*
X175895628Y-114903771D01*
X175895628Y-114903771D02*
X175990866Y-114856152D01*
X175990866Y-114856152D02*
X176181342Y-114856152D01*
X176181342Y-114856152D02*
X176276580Y-114903771D01*
X175848009Y-115475200D02*
X175943247Y-115522819D01*
X175943247Y-115522819D02*
X176181342Y-115522819D01*
X176181342Y-115522819D02*
X176276580Y-115475200D01*
X176276580Y-115475200D02*
X176324199Y-115379961D01*
X176324199Y-115379961D02*
X176324199Y-115284723D01*
X176324199Y-115284723D02*
X176276580Y-115189485D01*
X176276580Y-115189485D02*
X176181342Y-115141866D01*
X176181342Y-115141866D02*
X175943247Y-115141866D01*
X175943247Y-115141866D02*
X175848009Y-115094247D01*
X175419437Y-115475200D02*
X175324199Y-115522819D01*
X175324199Y-115522819D02*
X175133723Y-115522819D01*
X175133723Y-115522819D02*
X175038485Y-115475200D01*
X175038485Y-115475200D02*
X174990866Y-115379961D01*
X174990866Y-115379961D02*
X174990866Y-115332342D01*
X174990866Y-115332342D02*
X175038485Y-115237104D01*
X175038485Y-115237104D02*
X175133723Y-115189485D01*
X175133723Y-115189485D02*
X175276580Y-115189485D01*
X175276580Y-115189485D02*
X175371818Y-115141866D01*
X175371818Y-115141866D02*
X175419437Y-115046628D01*
X175419437Y-115046628D02*
X175419437Y-114999009D01*
X175419437Y-114999009D02*
X175371818Y-114903771D01*
X175371818Y-114903771D02*
X175276580Y-114856152D01*
X175276580Y-114856152D02*
X175133723Y-114856152D01*
X175133723Y-114856152D02*
X175038485Y-114903771D01*
X174609913Y-115475200D02*
X174514675Y-115522819D01*
X174514675Y-115522819D02*
X174324199Y-115522819D01*
X174324199Y-115522819D02*
X174228961Y-115475200D01*
X174228961Y-115475200D02*
X174181342Y-115379961D01*
X174181342Y-115379961D02*
X174181342Y-115332342D01*
X174181342Y-115332342D02*
X174228961Y-115237104D01*
X174228961Y-115237104D02*
X174324199Y-115189485D01*
X174324199Y-115189485D02*
X174467056Y-115189485D01*
X174467056Y-115189485D02*
X174562294Y-115141866D01*
X174562294Y-115141866D02*
X174609913Y-115046628D01*
X174609913Y-115046628D02*
X174609913Y-114999009D01*
X174609913Y-114999009D02*
X174562294Y-114903771D01*
X174562294Y-114903771D02*
X174467056Y-114856152D01*
X174467056Y-114856152D02*
X174324199Y-114856152D01*
X174324199Y-114856152D02*
X174228961Y-114903771D01*
X173990866Y-115618057D02*
X173228961Y-115618057D01*
X173038484Y-115475200D02*
X172895627Y-115522819D01*
X172895627Y-115522819D02*
X172657532Y-115522819D01*
X172657532Y-115522819D02*
X172562294Y-115475200D01*
X172562294Y-115475200D02*
X172514675Y-115427580D01*
X172514675Y-115427580D02*
X172467056Y-115332342D01*
X172467056Y-115332342D02*
X172467056Y-115237104D01*
X172467056Y-115237104D02*
X172514675Y-115141866D01*
X172514675Y-115141866D02*
X172562294Y-115094247D01*
X172562294Y-115094247D02*
X172657532Y-115046628D01*
X172657532Y-115046628D02*
X172848008Y-114999009D01*
X172848008Y-114999009D02*
X172943246Y-114951390D01*
X172943246Y-114951390D02*
X172990865Y-114903771D01*
X172990865Y-114903771D02*
X173038484Y-114808533D01*
X173038484Y-114808533D02*
X173038484Y-114713295D01*
X173038484Y-114713295D02*
X172990865Y-114618057D01*
X172990865Y-114618057D02*
X172943246Y-114570438D01*
X172943246Y-114570438D02*
X172848008Y-114522819D01*
X172848008Y-114522819D02*
X172609913Y-114522819D01*
X172609913Y-114522819D02*
X172467056Y-114570438D01*
X172133722Y-114856152D02*
X171943246Y-115522819D01*
X171943246Y-115522819D02*
X171752770Y-115046628D01*
X171752770Y-115046628D02*
X171562294Y-115522819D01*
X171562294Y-115522819D02*
X171371818Y-114856152D01*
X170990865Y-115522819D02*
X170990865Y-114856152D01*
X170990865Y-114522819D02*
X171038484Y-114570438D01*
X171038484Y-114570438D02*
X170990865Y-114618057D01*
X170990865Y-114618057D02*
X170943246Y-114570438D01*
X170943246Y-114570438D02*
X170990865Y-114522819D01*
X170990865Y-114522819D02*
X170990865Y-114618057D01*
X170657532Y-114856152D02*
X170276580Y-114856152D01*
X170514675Y-114522819D02*
X170514675Y-115379961D01*
X170514675Y-115379961D02*
X170467056Y-115475200D01*
X170467056Y-115475200D02*
X170371818Y-115522819D01*
X170371818Y-115522819D02*
X170276580Y-115522819D01*
X169514675Y-115475200D02*
X169609913Y-115522819D01*
X169609913Y-115522819D02*
X169800389Y-115522819D01*
X169800389Y-115522819D02*
X169895627Y-115475200D01*
X169895627Y-115475200D02*
X169943246Y-115427580D01*
X169943246Y-115427580D02*
X169990865Y-115332342D01*
X169990865Y-115332342D02*
X169990865Y-115046628D01*
X169990865Y-115046628D02*
X169943246Y-114951390D01*
X169943246Y-114951390D02*
X169895627Y-114903771D01*
X169895627Y-114903771D02*
X169800389Y-114856152D01*
X169800389Y-114856152D02*
X169609913Y-114856152D01*
X169609913Y-114856152D02*
X169514675Y-114903771D01*
X169086103Y-115522819D02*
X169086103Y-114522819D01*
X168657532Y-115522819D02*
X168657532Y-114999009D01*
X168657532Y-114999009D02*
X168705151Y-114903771D01*
X168705151Y-114903771D02*
X168800389Y-114856152D01*
X168800389Y-114856152D02*
X168943246Y-114856152D01*
X168943246Y-114856152D02*
X169038484Y-114903771D01*
X169038484Y-114903771D02*
X169086103Y-114951390D01*
X167657532Y-115522819D02*
X168228960Y-115522819D01*
X167943246Y-115522819D02*
X167943246Y-114522819D01*
X167943246Y-114522819D02*
X168038484Y-114665676D01*
X168038484Y-114665676D02*
X168133722Y-114760914D01*
X168133722Y-114760914D02*
X168228960Y-114808533D01*
X182165333Y-87722200D02*
X182022476Y-87769819D01*
X182022476Y-87769819D02*
X181784381Y-87769819D01*
X181784381Y-87769819D02*
X181689143Y-87722200D01*
X181689143Y-87722200D02*
X181641524Y-87674580D01*
X181641524Y-87674580D02*
X181593905Y-87579342D01*
X181593905Y-87579342D02*
X181593905Y-87484104D01*
X181593905Y-87484104D02*
X181641524Y-87388866D01*
X181641524Y-87388866D02*
X181689143Y-87341247D01*
X181689143Y-87341247D02*
X181784381Y-87293628D01*
X181784381Y-87293628D02*
X181974857Y-87246009D01*
X181974857Y-87246009D02*
X182070095Y-87198390D01*
X182070095Y-87198390D02*
X182117714Y-87150771D01*
X182117714Y-87150771D02*
X182165333Y-87055533D01*
X182165333Y-87055533D02*
X182165333Y-86960295D01*
X182165333Y-86960295D02*
X182117714Y-86865057D01*
X182117714Y-86865057D02*
X182070095Y-86817438D01*
X182070095Y-86817438D02*
X181974857Y-86769819D01*
X181974857Y-86769819D02*
X181736762Y-86769819D01*
X181736762Y-86769819D02*
X181593905Y-86817438D01*
X180784381Y-87722200D02*
X180879619Y-87769819D01*
X180879619Y-87769819D02*
X181070095Y-87769819D01*
X181070095Y-87769819D02*
X181165333Y-87722200D01*
X181165333Y-87722200D02*
X181212952Y-87626961D01*
X181212952Y-87626961D02*
X181212952Y-87246009D01*
X181212952Y-87246009D02*
X181165333Y-87150771D01*
X181165333Y-87150771D02*
X181070095Y-87103152D01*
X181070095Y-87103152D02*
X180879619Y-87103152D01*
X180879619Y-87103152D02*
X180784381Y-87150771D01*
X180784381Y-87150771D02*
X180736762Y-87246009D01*
X180736762Y-87246009D02*
X180736762Y-87341247D01*
X180736762Y-87341247D02*
X181212952Y-87436485D01*
X180308190Y-87769819D02*
X180308190Y-87103152D01*
X180308190Y-87293628D02*
X180260571Y-87198390D01*
X180260571Y-87198390D02*
X180212952Y-87150771D01*
X180212952Y-87150771D02*
X180117714Y-87103152D01*
X180117714Y-87103152D02*
X180022476Y-87103152D01*
X179784380Y-87103152D02*
X179546285Y-87769819D01*
X179546285Y-87769819D02*
X179308190Y-87103152D01*
X178784380Y-87769819D02*
X178879618Y-87722200D01*
X178879618Y-87722200D02*
X178927237Y-87674580D01*
X178927237Y-87674580D02*
X178974856Y-87579342D01*
X178974856Y-87579342D02*
X178974856Y-87293628D01*
X178974856Y-87293628D02*
X178927237Y-87198390D01*
X178927237Y-87198390D02*
X178879618Y-87150771D01*
X178879618Y-87150771D02*
X178784380Y-87103152D01*
X178784380Y-87103152D02*
X178641523Y-87103152D01*
X178641523Y-87103152D02*
X178546285Y-87150771D01*
X178546285Y-87150771D02*
X178498666Y-87198390D01*
X178498666Y-87198390D02*
X178451047Y-87293628D01*
X178451047Y-87293628D02*
X178451047Y-87579342D01*
X178451047Y-87579342D02*
X178498666Y-87674580D01*
X178498666Y-87674580D02*
X178546285Y-87722200D01*
X178546285Y-87722200D02*
X178641523Y-87769819D01*
X178641523Y-87769819D02*
X178784380Y-87769819D01*
X178070094Y-86865057D02*
X178022475Y-86817438D01*
X178022475Y-86817438D02*
X177927237Y-86769819D01*
X177927237Y-86769819D02*
X177689142Y-86769819D01*
X177689142Y-86769819D02*
X177593904Y-86817438D01*
X177593904Y-86817438D02*
X177546285Y-86865057D01*
X177546285Y-86865057D02*
X177498666Y-86960295D01*
X177498666Y-86960295D02*
X177498666Y-87055533D01*
X177498666Y-87055533D02*
X177546285Y-87198390D01*
X177546285Y-87198390D02*
X178117713Y-87769819D01*
X178117713Y-87769819D02*
X177498666Y-87769819D01*
X170710763Y-107960819D02*
X170377430Y-108960819D01*
X170377430Y-108960819D02*
X170044097Y-107960819D01*
X169567906Y-108960819D02*
X169663144Y-108913200D01*
X169663144Y-108913200D02*
X169710763Y-108865580D01*
X169710763Y-108865580D02*
X169758382Y-108770342D01*
X169758382Y-108770342D02*
X169758382Y-108484628D01*
X169758382Y-108484628D02*
X169710763Y-108389390D01*
X169710763Y-108389390D02*
X169663144Y-108341771D01*
X169663144Y-108341771D02*
X169567906Y-108294152D01*
X169567906Y-108294152D02*
X169425049Y-108294152D01*
X169425049Y-108294152D02*
X169329811Y-108341771D01*
X169329811Y-108341771D02*
X169282192Y-108389390D01*
X169282192Y-108389390D02*
X169234573Y-108484628D01*
X169234573Y-108484628D02*
X169234573Y-108770342D01*
X169234573Y-108770342D02*
X169282192Y-108865580D01*
X169282192Y-108865580D02*
X169329811Y-108913200D01*
X169329811Y-108913200D02*
X169425049Y-108960819D01*
X169425049Y-108960819D02*
X169567906Y-108960819D01*
X168663144Y-108960819D02*
X168758382Y-108913200D01*
X168758382Y-108913200D02*
X168806001Y-108817961D01*
X168806001Y-108817961D02*
X168806001Y-107960819D01*
X168425048Y-108294152D02*
X168044096Y-108294152D01*
X168282191Y-107960819D02*
X168282191Y-108817961D01*
X168282191Y-108817961D02*
X168234572Y-108913200D01*
X168234572Y-108913200D02*
X168139334Y-108960819D01*
X168139334Y-108960819D02*
X168044096Y-108960819D01*
X167282191Y-108960819D02*
X167282191Y-108437009D01*
X167282191Y-108437009D02*
X167329810Y-108341771D01*
X167329810Y-108341771D02*
X167425048Y-108294152D01*
X167425048Y-108294152D02*
X167615524Y-108294152D01*
X167615524Y-108294152D02*
X167710762Y-108341771D01*
X167282191Y-108913200D02*
X167377429Y-108960819D01*
X167377429Y-108960819D02*
X167615524Y-108960819D01*
X167615524Y-108960819D02*
X167710762Y-108913200D01*
X167710762Y-108913200D02*
X167758381Y-108817961D01*
X167758381Y-108817961D02*
X167758381Y-108722723D01*
X167758381Y-108722723D02*
X167710762Y-108627485D01*
X167710762Y-108627485D02*
X167615524Y-108579866D01*
X167615524Y-108579866D02*
X167377429Y-108579866D01*
X167377429Y-108579866D02*
X167282191Y-108532247D01*
X166377429Y-108294152D02*
X166377429Y-109103676D01*
X166377429Y-109103676D02*
X166425048Y-109198914D01*
X166425048Y-109198914D02*
X166472667Y-109246533D01*
X166472667Y-109246533D02*
X166567905Y-109294152D01*
X166567905Y-109294152D02*
X166710762Y-109294152D01*
X166710762Y-109294152D02*
X166806000Y-109246533D01*
X166377429Y-108913200D02*
X166472667Y-108960819D01*
X166472667Y-108960819D02*
X166663143Y-108960819D01*
X166663143Y-108960819D02*
X166758381Y-108913200D01*
X166758381Y-108913200D02*
X166806000Y-108865580D01*
X166806000Y-108865580D02*
X166853619Y-108770342D01*
X166853619Y-108770342D02*
X166853619Y-108484628D01*
X166853619Y-108484628D02*
X166806000Y-108389390D01*
X166806000Y-108389390D02*
X166758381Y-108341771D01*
X166758381Y-108341771D02*
X166663143Y-108294152D01*
X166663143Y-108294152D02*
X166472667Y-108294152D01*
X166472667Y-108294152D02*
X166377429Y-108341771D01*
X165520286Y-108913200D02*
X165615524Y-108960819D01*
X165615524Y-108960819D02*
X165806000Y-108960819D01*
X165806000Y-108960819D02*
X165901238Y-108913200D01*
X165901238Y-108913200D02*
X165948857Y-108817961D01*
X165948857Y-108817961D02*
X165948857Y-108437009D01*
X165948857Y-108437009D02*
X165901238Y-108341771D01*
X165901238Y-108341771D02*
X165806000Y-108294152D01*
X165806000Y-108294152D02*
X165615524Y-108294152D01*
X165615524Y-108294152D02*
X165520286Y-108341771D01*
X165520286Y-108341771D02*
X165472667Y-108437009D01*
X165472667Y-108437009D02*
X165472667Y-108532247D01*
X165472667Y-108532247D02*
X165948857Y-108627485D01*
X165282191Y-109056057D02*
X164520286Y-109056057D01*
X163710762Y-108960819D02*
X164044095Y-108484628D01*
X164282190Y-108960819D02*
X164282190Y-107960819D01*
X164282190Y-107960819D02*
X163901238Y-107960819D01*
X163901238Y-107960819D02*
X163806000Y-108008438D01*
X163806000Y-108008438D02*
X163758381Y-108056057D01*
X163758381Y-108056057D02*
X163710762Y-108151295D01*
X163710762Y-108151295D02*
X163710762Y-108294152D01*
X163710762Y-108294152D02*
X163758381Y-108389390D01*
X163758381Y-108389390D02*
X163806000Y-108437009D01*
X163806000Y-108437009D02*
X163901238Y-108484628D01*
X163901238Y-108484628D02*
X164282190Y-108484628D01*
X162901238Y-108913200D02*
X162996476Y-108960819D01*
X162996476Y-108960819D02*
X163186952Y-108960819D01*
X163186952Y-108960819D02*
X163282190Y-108913200D01*
X163282190Y-108913200D02*
X163329809Y-108817961D01*
X163329809Y-108817961D02*
X163329809Y-108437009D01*
X163329809Y-108437009D02*
X163282190Y-108341771D01*
X163282190Y-108341771D02*
X163186952Y-108294152D01*
X163186952Y-108294152D02*
X162996476Y-108294152D01*
X162996476Y-108294152D02*
X162901238Y-108341771D01*
X162901238Y-108341771D02*
X162853619Y-108437009D01*
X162853619Y-108437009D02*
X162853619Y-108532247D01*
X162853619Y-108532247D02*
X163329809Y-108627485D01*
X161996476Y-108294152D02*
X161996476Y-109103676D01*
X161996476Y-109103676D02*
X162044095Y-109198914D01*
X162044095Y-109198914D02*
X162091714Y-109246533D01*
X162091714Y-109246533D02*
X162186952Y-109294152D01*
X162186952Y-109294152D02*
X162329809Y-109294152D01*
X162329809Y-109294152D02*
X162425047Y-109246533D01*
X161996476Y-108913200D02*
X162091714Y-108960819D01*
X162091714Y-108960819D02*
X162282190Y-108960819D01*
X162282190Y-108960819D02*
X162377428Y-108913200D01*
X162377428Y-108913200D02*
X162425047Y-108865580D01*
X162425047Y-108865580D02*
X162472666Y-108770342D01*
X162472666Y-108770342D02*
X162472666Y-108484628D01*
X162472666Y-108484628D02*
X162425047Y-108389390D01*
X162425047Y-108389390D02*
X162377428Y-108341771D01*
X162377428Y-108341771D02*
X162282190Y-108294152D01*
X162282190Y-108294152D02*
X162091714Y-108294152D01*
X162091714Y-108294152D02*
X161996476Y-108341771D01*
X161091714Y-108294152D02*
X161091714Y-108960819D01*
X161520285Y-108294152D02*
X161520285Y-108817961D01*
X161520285Y-108817961D02*
X161472666Y-108913200D01*
X161472666Y-108913200D02*
X161377428Y-108960819D01*
X161377428Y-108960819D02*
X161234571Y-108960819D01*
X161234571Y-108960819D02*
X161139333Y-108913200D01*
X161139333Y-108913200D02*
X161091714Y-108865580D01*
X160472666Y-108960819D02*
X160567904Y-108913200D01*
X160567904Y-108913200D02*
X160615523Y-108817961D01*
X160615523Y-108817961D02*
X160615523Y-107960819D01*
X159663142Y-108960819D02*
X159663142Y-108437009D01*
X159663142Y-108437009D02*
X159710761Y-108341771D01*
X159710761Y-108341771D02*
X159805999Y-108294152D01*
X159805999Y-108294152D02*
X159996475Y-108294152D01*
X159996475Y-108294152D02*
X160091713Y-108341771D01*
X159663142Y-108913200D02*
X159758380Y-108960819D01*
X159758380Y-108960819D02*
X159996475Y-108960819D01*
X159996475Y-108960819D02*
X160091713Y-108913200D01*
X160091713Y-108913200D02*
X160139332Y-108817961D01*
X160139332Y-108817961D02*
X160139332Y-108722723D01*
X160139332Y-108722723D02*
X160091713Y-108627485D01*
X160091713Y-108627485D02*
X159996475Y-108579866D01*
X159996475Y-108579866D02*
X159758380Y-108579866D01*
X159758380Y-108579866D02*
X159663142Y-108532247D01*
X159329808Y-108294152D02*
X158948856Y-108294152D01*
X159186951Y-107960819D02*
X159186951Y-108817961D01*
X159186951Y-108817961D02*
X159139332Y-108913200D01*
X159139332Y-108913200D02*
X159044094Y-108960819D01*
X159044094Y-108960819D02*
X158948856Y-108960819D01*
X158472665Y-108960819D02*
X158567903Y-108913200D01*
X158567903Y-108913200D02*
X158615522Y-108865580D01*
X158615522Y-108865580D02*
X158663141Y-108770342D01*
X158663141Y-108770342D02*
X158663141Y-108484628D01*
X158663141Y-108484628D02*
X158615522Y-108389390D01*
X158615522Y-108389390D02*
X158567903Y-108341771D01*
X158567903Y-108341771D02*
X158472665Y-108294152D01*
X158472665Y-108294152D02*
X158329808Y-108294152D01*
X158329808Y-108294152D02*
X158234570Y-108341771D01*
X158234570Y-108341771D02*
X158186951Y-108389390D01*
X158186951Y-108389390D02*
X158139332Y-108484628D01*
X158139332Y-108484628D02*
X158139332Y-108770342D01*
X158139332Y-108770342D02*
X158186951Y-108865580D01*
X158186951Y-108865580D02*
X158234570Y-108913200D01*
X158234570Y-108913200D02*
X158329808Y-108960819D01*
X158329808Y-108960819D02*
X158472665Y-108960819D01*
X157710760Y-108960819D02*
X157710760Y-108294152D01*
X157710760Y-108484628D02*
X157663141Y-108389390D01*
X157663141Y-108389390D02*
X157615522Y-108341771D01*
X157615522Y-108341771D02*
X157520284Y-108294152D01*
X157520284Y-108294152D02*
X157425046Y-108294152D01*
X157329808Y-109056057D02*
X156567903Y-109056057D01*
X155853617Y-107960819D02*
X156329807Y-107960819D01*
X156329807Y-107960819D02*
X156377426Y-108437009D01*
X156377426Y-108437009D02*
X156329807Y-108389390D01*
X156329807Y-108389390D02*
X156234569Y-108341771D01*
X156234569Y-108341771D02*
X155996474Y-108341771D01*
X155996474Y-108341771D02*
X155901236Y-108389390D01*
X155901236Y-108389390D02*
X155853617Y-108437009D01*
X155853617Y-108437009D02*
X155805998Y-108532247D01*
X155805998Y-108532247D02*
X155805998Y-108770342D01*
X155805998Y-108770342D02*
X155853617Y-108865580D01*
X155853617Y-108865580D02*
X155901236Y-108913200D01*
X155901236Y-108913200D02*
X155996474Y-108960819D01*
X155996474Y-108960819D02*
X156234569Y-108960819D01*
X156234569Y-108960819D02*
X156329807Y-108913200D01*
X156329807Y-108913200D02*
X156377426Y-108865580D01*
X155520283Y-107960819D02*
X155186950Y-108960819D01*
X155186950Y-108960819D02*
X154853617Y-107960819D01*
X153996474Y-108960819D02*
X154567902Y-108960819D01*
X154282188Y-108960819D02*
X154282188Y-107960819D01*
X154282188Y-107960819D02*
X154377426Y-108103676D01*
X154377426Y-108103676D02*
X154472664Y-108198914D01*
X154472664Y-108198914D02*
X154567902Y-108246533D01*
X170544380Y-127492819D02*
X170544380Y-126492819D01*
X170544380Y-126492819D02*
X170163428Y-126492819D01*
X170163428Y-126492819D02*
X170068190Y-126540438D01*
X170068190Y-126540438D02*
X170020571Y-126588057D01*
X170020571Y-126588057D02*
X169972952Y-126683295D01*
X169972952Y-126683295D02*
X169972952Y-126826152D01*
X169972952Y-126826152D02*
X170020571Y-126921390D01*
X170020571Y-126921390D02*
X170068190Y-126969009D01*
X170068190Y-126969009D02*
X170163428Y-127016628D01*
X170163428Y-127016628D02*
X170544380Y-127016628D01*
X169401523Y-127492819D02*
X169496761Y-127445200D01*
X169496761Y-127445200D02*
X169544380Y-127397580D01*
X169544380Y-127397580D02*
X169591999Y-127302342D01*
X169591999Y-127302342D02*
X169591999Y-127016628D01*
X169591999Y-127016628D02*
X169544380Y-126921390D01*
X169544380Y-126921390D02*
X169496761Y-126873771D01*
X169496761Y-126873771D02*
X169401523Y-126826152D01*
X169401523Y-126826152D02*
X169258666Y-126826152D01*
X169258666Y-126826152D02*
X169163428Y-126873771D01*
X169163428Y-126873771D02*
X169115809Y-126921390D01*
X169115809Y-126921390D02*
X169068190Y-127016628D01*
X169068190Y-127016628D02*
X169068190Y-127302342D01*
X169068190Y-127302342D02*
X169115809Y-127397580D01*
X169115809Y-127397580D02*
X169163428Y-127445200D01*
X169163428Y-127445200D02*
X169258666Y-127492819D01*
X169258666Y-127492819D02*
X169401523Y-127492819D01*
X168734856Y-126826152D02*
X168544380Y-127492819D01*
X168544380Y-127492819D02*
X168353904Y-127016628D01*
X168353904Y-127016628D02*
X168163428Y-127492819D01*
X168163428Y-127492819D02*
X167972952Y-126826152D01*
X167211047Y-127445200D02*
X167306285Y-127492819D01*
X167306285Y-127492819D02*
X167496761Y-127492819D01*
X167496761Y-127492819D02*
X167591999Y-127445200D01*
X167591999Y-127445200D02*
X167639618Y-127349961D01*
X167639618Y-127349961D02*
X167639618Y-126969009D01*
X167639618Y-126969009D02*
X167591999Y-126873771D01*
X167591999Y-126873771D02*
X167496761Y-126826152D01*
X167496761Y-126826152D02*
X167306285Y-126826152D01*
X167306285Y-126826152D02*
X167211047Y-126873771D01*
X167211047Y-126873771D02*
X167163428Y-126969009D01*
X167163428Y-126969009D02*
X167163428Y-127064247D01*
X167163428Y-127064247D02*
X167639618Y-127159485D01*
X166734856Y-127492819D02*
X166734856Y-126826152D01*
X166734856Y-127016628D02*
X166687237Y-126921390D01*
X166687237Y-126921390D02*
X166639618Y-126873771D01*
X166639618Y-126873771D02*
X166544380Y-126826152D01*
X166544380Y-126826152D02*
X166449142Y-126826152D01*
X165591999Y-127492819D02*
X166163427Y-127492819D01*
X165877713Y-127492819D02*
X165877713Y-126492819D01*
X165877713Y-126492819D02*
X165972951Y-126635676D01*
X165972951Y-126635676D02*
X166068189Y-126730914D01*
X166068189Y-126730914D02*
X166163427Y-126778533D01*
X164532819Y-120312952D02*
X163532819Y-120312952D01*
X163532819Y-120312952D02*
X163532819Y-120693904D01*
X163532819Y-120693904D02*
X163580438Y-120789142D01*
X163580438Y-120789142D02*
X163628057Y-120836761D01*
X163628057Y-120836761D02*
X163723295Y-120884380D01*
X163723295Y-120884380D02*
X163866152Y-120884380D01*
X163866152Y-120884380D02*
X163961390Y-120836761D01*
X163961390Y-120836761D02*
X164009009Y-120789142D01*
X164009009Y-120789142D02*
X164056628Y-120693904D01*
X164056628Y-120693904D02*
X164056628Y-120312952D01*
X163532819Y-121217714D02*
X164532819Y-121455809D01*
X164532819Y-121455809D02*
X163818533Y-121646285D01*
X163818533Y-121646285D02*
X164532819Y-121836761D01*
X164532819Y-121836761D02*
X163532819Y-122074857D01*
X164532819Y-123027237D02*
X164056628Y-122693904D01*
X164532819Y-122455809D02*
X163532819Y-122455809D01*
X163532819Y-122455809D02*
X163532819Y-122836761D01*
X163532819Y-122836761D02*
X163580438Y-122931999D01*
X163580438Y-122931999D02*
X163628057Y-122979618D01*
X163628057Y-122979618D02*
X163723295Y-123027237D01*
X163723295Y-123027237D02*
X163866152Y-123027237D01*
X163866152Y-123027237D02*
X163961390Y-122979618D01*
X163961390Y-122979618D02*
X164009009Y-122931999D01*
X164009009Y-122931999D02*
X164056628Y-122836761D01*
X164056628Y-122836761D02*
X164056628Y-122455809D01*
X164628057Y-123217714D02*
X164628057Y-123979618D01*
X163532819Y-124408190D02*
X163532819Y-124598666D01*
X163532819Y-124598666D02*
X163580438Y-124693904D01*
X163580438Y-124693904D02*
X163675676Y-124789142D01*
X163675676Y-124789142D02*
X163866152Y-124836761D01*
X163866152Y-124836761D02*
X164199485Y-124836761D01*
X164199485Y-124836761D02*
X164389961Y-124789142D01*
X164389961Y-124789142D02*
X164485200Y-124693904D01*
X164485200Y-124693904D02*
X164532819Y-124598666D01*
X164532819Y-124598666D02*
X164532819Y-124408190D01*
X164532819Y-124408190D02*
X164485200Y-124312952D01*
X164485200Y-124312952D02*
X164389961Y-124217714D01*
X164389961Y-124217714D02*
X164199485Y-124170095D01*
X164199485Y-124170095D02*
X163866152Y-124170095D01*
X163866152Y-124170095D02*
X163675676Y-124217714D01*
X163675676Y-124217714D02*
X163580438Y-124312952D01*
X163580438Y-124312952D02*
X163532819Y-124408190D01*
X163532819Y-125265333D02*
X164342342Y-125265333D01*
X164342342Y-125265333D02*
X164437580Y-125312952D01*
X164437580Y-125312952D02*
X164485200Y-125360571D01*
X164485200Y-125360571D02*
X164532819Y-125455809D01*
X164532819Y-125455809D02*
X164532819Y-125646285D01*
X164532819Y-125646285D02*
X164485200Y-125741523D01*
X164485200Y-125741523D02*
X164437580Y-125789142D01*
X164437580Y-125789142D02*
X164342342Y-125836761D01*
X164342342Y-125836761D02*
X163532819Y-125836761D01*
X163532819Y-126170095D02*
X163532819Y-126741523D01*
X164532819Y-126455809D02*
X163532819Y-126455809D01*
X164532819Y-127598666D02*
X164532819Y-127027238D01*
X164532819Y-127312952D02*
X163532819Y-127312952D01*
X163532819Y-127312952D02*
X163675676Y-127217714D01*
X163675676Y-127217714D02*
X163770914Y-127122476D01*
X163770914Y-127122476D02*
X163818533Y-127027238D01*
D12*
%TO.C,Nichrome_Connector1*%
X158015000Y-92694000D02*
X159265000Y-92694000D01*
X164275000Y-92984000D02*
X164275000Y-103104000D01*
X158305000Y-92984000D02*
X164275000Y-92984000D01*
X160565000Y-92994000D02*
X160565000Y-93744000D01*
X159065000Y-92994000D02*
X159065000Y-94794000D01*
X158315000Y-92994000D02*
X159065000Y-92994000D01*
X163515000Y-93744000D02*
X163515000Y-98044000D01*
X160565000Y-93744000D02*
X163515000Y-93744000D01*
X158015000Y-93944000D02*
X158015000Y-92694000D01*
X159065000Y-94794000D02*
X158315000Y-94794000D01*
X158315000Y-94794000D02*
X158315000Y-92994000D01*
X159065000Y-96294000D02*
X159065000Y-99794000D01*
X158315000Y-96294000D02*
X159065000Y-96294000D01*
X159065000Y-99794000D02*
X158315000Y-99794000D01*
X158315000Y-99794000D02*
X158315000Y-96294000D01*
X159065000Y-101294000D02*
X159065000Y-103094000D01*
X158315000Y-101294000D02*
X159065000Y-101294000D01*
X163515000Y-102344000D02*
X163515000Y-98044000D01*
X160565000Y-102344000D02*
X163515000Y-102344000D01*
X160565000Y-103094000D02*
X160565000Y-102344000D01*
X159065000Y-103094000D02*
X158315000Y-103094000D01*
X158315000Y-103094000D02*
X158315000Y-101294000D01*
X164275000Y-103104000D02*
X158305000Y-103104000D01*
X158305000Y-103104000D02*
X158305000Y-92984000D01*
%TO.C,Nichrome_Connector2*%
X167887200Y-92084400D02*
X169137200Y-92084400D01*
X174147200Y-92374400D02*
X174147200Y-102494400D01*
X168177200Y-92374400D02*
X174147200Y-92374400D01*
X170437200Y-92384400D02*
X170437200Y-93134400D01*
X168937200Y-92384400D02*
X168937200Y-94184400D01*
X168187200Y-92384400D02*
X168937200Y-92384400D01*
X173387200Y-93134400D02*
X173387200Y-97434400D01*
X170437200Y-93134400D02*
X173387200Y-93134400D01*
X167887200Y-93334400D02*
X167887200Y-92084400D01*
X168937200Y-94184400D02*
X168187200Y-94184400D01*
X168187200Y-94184400D02*
X168187200Y-92384400D01*
X168937200Y-95684400D02*
X168937200Y-99184400D01*
X168187200Y-95684400D02*
X168937200Y-95684400D01*
X168937200Y-99184400D02*
X168187200Y-99184400D01*
X168187200Y-99184400D02*
X168187200Y-95684400D01*
X168937200Y-100684400D02*
X168937200Y-102484400D01*
X168187200Y-100684400D02*
X168937200Y-100684400D01*
X173387200Y-101734400D02*
X173387200Y-97434400D01*
X170437200Y-101734400D02*
X173387200Y-101734400D01*
X170437200Y-102484400D02*
X170437200Y-101734400D01*
X168937200Y-102484400D02*
X168187200Y-102484400D01*
X168187200Y-102484400D02*
X168187200Y-100684400D01*
X174147200Y-102494400D02*
X168177200Y-102494400D01*
X168177200Y-102494400D02*
X168177200Y-92374400D01*
D11*
%TO.C,Sparkfun_NEO-M9N1*%
X218694000Y-89408000D02*
X211074000Y-89408000D01*
X211074000Y-89408000D02*
X211074000Y-91948000D01*
X211074000Y-91948000D02*
X218694000Y-91948000D01*
X218694000Y-91948000D02*
X218694000Y-89408000D01*
X183134000Y-128778000D02*
X223774000Y-128778000D01*
X223774000Y-128778000D02*
X223774000Y-91948000D01*
X223774000Y-91948000D02*
X183134000Y-91948000D01*
X183134000Y-91948000D02*
X183134000Y-128778000D01*
X176784000Y-105918000D02*
X183134000Y-105918000D01*
X183134000Y-105918000D02*
X183134000Y-100838000D01*
X183134000Y-100838000D02*
X176784000Y-100838000D01*
X176784000Y-100838000D02*
X176784000Y-105918000D01*
D12*
%TO.C,Glider_Connection1*%
X210266400Y-82009800D02*
X210266400Y-83259800D01*
X209976400Y-88269800D02*
X194856400Y-88269800D01*
X209976400Y-82299800D02*
X209976400Y-88269800D01*
X209966400Y-84559800D02*
X209216400Y-84559800D01*
X209966400Y-83059800D02*
X208166400Y-83059800D01*
X209966400Y-82309800D02*
X209966400Y-83059800D01*
X209216400Y-87509800D02*
X202416400Y-87509800D01*
X209216400Y-84559800D02*
X209216400Y-87509800D01*
X209016400Y-82009800D02*
X210266400Y-82009800D01*
X208166400Y-83059800D02*
X208166400Y-82309800D01*
X208166400Y-82309800D02*
X209966400Y-82309800D01*
X206666400Y-83059800D02*
X198166400Y-83059800D01*
X206666400Y-82309800D02*
X206666400Y-83059800D01*
X198166400Y-83059800D02*
X198166400Y-82309800D01*
X198166400Y-82309800D02*
X206666400Y-82309800D01*
X196666400Y-83059800D02*
X194866400Y-83059800D01*
X196666400Y-82309800D02*
X196666400Y-83059800D01*
X195616400Y-87509800D02*
X202416400Y-87509800D01*
X195616400Y-84559800D02*
X195616400Y-87509800D01*
X194866400Y-84559800D02*
X195616400Y-84559800D01*
X194866400Y-83059800D02*
X194866400Y-82309800D01*
X194866400Y-82309800D02*
X196666400Y-82309800D01*
X194856400Y-88269800D02*
X194856400Y-82299800D01*
X194856400Y-82299800D02*
X209976400Y-82299800D01*
%TO.C,Servo1*%
X173284000Y-81832000D02*
X173284000Y-83082000D01*
X172994000Y-88092000D02*
X162874000Y-88092000D01*
X172994000Y-82122000D02*
X172994000Y-88092000D01*
X172984000Y-84382000D02*
X172234000Y-84382000D01*
X172984000Y-82882000D02*
X171184000Y-82882000D01*
X172984000Y-82132000D02*
X172984000Y-82882000D01*
X172234000Y-87332000D02*
X167934000Y-87332000D01*
X172234000Y-84382000D02*
X172234000Y-87332000D01*
X172034000Y-81832000D02*
X173284000Y-81832000D01*
X171184000Y-82882000D02*
X171184000Y-82132000D01*
X171184000Y-82132000D02*
X172984000Y-82132000D01*
X169684000Y-82882000D02*
X166184000Y-82882000D01*
X169684000Y-82132000D02*
X169684000Y-82882000D01*
X166184000Y-82882000D02*
X166184000Y-82132000D01*
X166184000Y-82132000D02*
X169684000Y-82132000D01*
X164684000Y-82882000D02*
X162884000Y-82882000D01*
X164684000Y-82132000D02*
X164684000Y-82882000D01*
X163634000Y-87332000D02*
X167934000Y-87332000D01*
X163634000Y-84382000D02*
X163634000Y-87332000D01*
X162884000Y-84382000D02*
X163634000Y-84382000D01*
X162884000Y-82882000D02*
X162884000Y-82132000D01*
X162884000Y-82132000D02*
X164684000Y-82132000D01*
X162874000Y-88092000D02*
X162874000Y-82122000D01*
X162874000Y-82122000D02*
X172994000Y-82122000D01*
%TO.C,Voltage_Regulator_5V2*%
X167426000Y-119227000D02*
X157186000Y-119227000D01*
X167426000Y-116096000D02*
X157186000Y-116096000D01*
X167426000Y-114586000D02*
X167426000Y-119227000D01*
X167426000Y-114586000D02*
X157186000Y-114586000D01*
X164156000Y-114586000D02*
X164156000Y-116096000D01*
X160455000Y-114586000D02*
X160455000Y-116096000D01*
X157186000Y-114586000D02*
X157186000Y-119227000D01*
%TO.C,D1*%
X178322600Y-114147000D02*
X168082600Y-114147000D01*
X178322600Y-111016000D02*
X168082600Y-111016000D01*
X178322600Y-109506000D02*
X178322600Y-114147000D01*
X178322600Y-109506000D02*
X168082600Y-109506000D01*
X175052600Y-109506000D02*
X175052600Y-111016000D01*
X171351600Y-109506000D02*
X171351600Y-111016000D01*
X168082600Y-109506000D02*
X168082600Y-114147000D01*
%TO.C,Bypass_Switch1*%
X177424200Y-115868000D02*
X177424200Y-117118000D01*
X177134200Y-122128000D02*
X169514200Y-122128000D01*
X177134200Y-116158000D02*
X177134200Y-122128000D01*
X177124200Y-118418000D02*
X176374200Y-118418000D01*
X177124200Y-116918000D02*
X175324200Y-116918000D01*
X177124200Y-116168000D02*
X177124200Y-116918000D01*
X176374200Y-121368000D02*
X173324200Y-121368000D01*
X176374200Y-118418000D02*
X176374200Y-121368000D01*
X176174200Y-115868000D02*
X177424200Y-115868000D01*
X175324200Y-116918000D02*
X175324200Y-116168000D01*
X175324200Y-116168000D02*
X177124200Y-116168000D01*
X173824200Y-116918000D02*
X172824200Y-116918000D01*
X173824200Y-116168000D02*
X173824200Y-116918000D01*
X172824200Y-116918000D02*
X172824200Y-116168000D01*
X172824200Y-116168000D02*
X173824200Y-116168000D01*
X171324200Y-116918000D02*
X169524200Y-116918000D01*
X171324200Y-116168000D02*
X171324200Y-116918000D01*
X170274200Y-121368000D02*
X173324200Y-121368000D01*
X170274200Y-118418000D02*
X170274200Y-121368000D01*
X169524200Y-118418000D02*
X170274200Y-118418000D01*
X169524200Y-116918000D02*
X169524200Y-116168000D01*
X169524200Y-116168000D02*
X171324200Y-116168000D01*
X169514200Y-122128000D02*
X169514200Y-116158000D01*
X169514200Y-116158000D02*
X177134200Y-116158000D01*
%TO.C,Servo2*%
X185182000Y-81815000D02*
X185182000Y-83065000D01*
X184892000Y-88075000D02*
X174772000Y-88075000D01*
X184892000Y-82105000D02*
X184892000Y-88075000D01*
X184882000Y-84365000D02*
X184132000Y-84365000D01*
X184882000Y-82865000D02*
X183082000Y-82865000D01*
X184882000Y-82115000D02*
X184882000Y-82865000D01*
X184132000Y-87315000D02*
X179832000Y-87315000D01*
X184132000Y-84365000D02*
X184132000Y-87315000D01*
X183932000Y-81815000D02*
X185182000Y-81815000D01*
X183082000Y-82865000D02*
X183082000Y-82115000D01*
X183082000Y-82115000D02*
X184882000Y-82115000D01*
X181582000Y-82865000D02*
X178082000Y-82865000D01*
X181582000Y-82115000D02*
X181582000Y-82865000D01*
X178082000Y-82865000D02*
X178082000Y-82115000D01*
X178082000Y-82115000D02*
X181582000Y-82115000D01*
X176582000Y-82865000D02*
X174782000Y-82865000D01*
X176582000Y-82115000D02*
X176582000Y-82865000D01*
X175532000Y-87315000D02*
X179832000Y-87315000D01*
X175532000Y-84365000D02*
X175532000Y-87315000D01*
X174782000Y-84365000D02*
X175532000Y-84365000D01*
X174782000Y-82865000D02*
X174782000Y-82115000D01*
X174782000Y-82115000D02*
X176582000Y-82115000D01*
X174772000Y-88075000D02*
X174772000Y-82105000D01*
X174772000Y-82105000D02*
X184892000Y-82105000D01*
%TO.C,Voltage_Regulator_5V1*%
X167426000Y-114147000D02*
X157186000Y-114147000D01*
X167426000Y-111016000D02*
X157186000Y-111016000D01*
X167426000Y-109506000D02*
X167426000Y-114147000D01*
X167426000Y-109506000D02*
X157186000Y-109506000D01*
X164156000Y-109506000D02*
X164156000Y-111016000D01*
X160455000Y-109506000D02*
X160455000Y-111016000D01*
X157186000Y-109506000D02*
X157186000Y-114147000D01*
%TO.C,Power1*%
X172192000Y-127838000D02*
X172192000Y-129088000D01*
X171902000Y-134098000D02*
X164282000Y-134098000D01*
X171902000Y-128128000D02*
X171902000Y-134098000D01*
X171892000Y-130388000D02*
X171142000Y-130388000D01*
X171892000Y-128888000D02*
X170092000Y-128888000D01*
X171892000Y-128138000D02*
X171892000Y-128888000D01*
X171142000Y-133338000D02*
X168092000Y-133338000D01*
X171142000Y-130388000D02*
X171142000Y-133338000D01*
X170942000Y-127838000D02*
X172192000Y-127838000D01*
X170092000Y-128888000D02*
X170092000Y-128138000D01*
X170092000Y-128138000D02*
X171892000Y-128138000D01*
X168592000Y-128888000D02*
X167592000Y-128888000D01*
X168592000Y-128138000D02*
X168592000Y-128888000D01*
X167592000Y-128888000D02*
X167592000Y-128138000D01*
X167592000Y-128138000D02*
X168592000Y-128138000D01*
X166092000Y-128888000D02*
X164292000Y-128888000D01*
X166092000Y-128138000D02*
X166092000Y-128888000D01*
X165042000Y-133338000D02*
X168092000Y-133338000D01*
X165042000Y-130388000D02*
X165042000Y-133338000D01*
X164292000Y-130388000D02*
X165042000Y-130388000D01*
X164292000Y-128888000D02*
X164292000Y-128138000D01*
X164292000Y-128138000D02*
X166092000Y-128138000D01*
X164282000Y-134098000D02*
X164282000Y-128128000D01*
X164282000Y-128128000D02*
X171902000Y-128128000D01*
%TO.C,PWR_OUT1*%
X163278000Y-128032000D02*
X162028000Y-128032000D01*
X157018000Y-127742000D02*
X157018000Y-120122000D01*
X162988000Y-127742000D02*
X157018000Y-127742000D01*
X160728000Y-127732000D02*
X160728000Y-126982000D01*
X162228000Y-127732000D02*
X162228000Y-125932000D01*
X162978000Y-127732000D02*
X162228000Y-127732000D01*
X157778000Y-126982000D02*
X157778000Y-123932000D01*
X160728000Y-126982000D02*
X157778000Y-126982000D01*
X163278000Y-126782000D02*
X163278000Y-128032000D01*
X162228000Y-125932000D02*
X162978000Y-125932000D01*
X162978000Y-125932000D02*
X162978000Y-127732000D01*
X162228000Y-124432000D02*
X162228000Y-123432000D01*
X162978000Y-124432000D02*
X162228000Y-124432000D01*
X162228000Y-123432000D02*
X162978000Y-123432000D01*
X162978000Y-123432000D02*
X162978000Y-124432000D01*
X162228000Y-121932000D02*
X162228000Y-120132000D01*
X162978000Y-121932000D02*
X162228000Y-121932000D01*
X157778000Y-120882000D02*
X157778000Y-123932000D01*
X160728000Y-120882000D02*
X157778000Y-120882000D01*
X160728000Y-120132000D02*
X160728000Y-120882000D01*
X162228000Y-120132000D02*
X162978000Y-120132000D01*
X162978000Y-120132000D02*
X162978000Y-121932000D01*
X157018000Y-120122000D02*
X162988000Y-120122000D01*
X162988000Y-120122000D02*
X162988000Y-127742000D01*
%TD*%
M02*
