M48
; DRILL file {KiCad 7.0.6-0} date 2023 September 30, Saturday 12:38:02
; FORMAT={-:-/ absolute / inch / decimal}
; #@! TF.CreationDate,2023-09-30T12:38:02-04:00
; #@! TF.GenerationSoftware,Kicad,Pcbnew,7.0.6-0
; #@! TF.FileFunction,Plated,1,2,PTH
FMAT,2
INCH
; #@! TA.AperFunction,Plated,PTH,ViaDrill
T1C0.0157
; #@! TA.AperFunction,Plated,PTH,ComponentDrill
T2C0.0374
; #@! TA.AperFunction,Plated,PTH,ComponentDrill
T3C0.0394
; #@! TA.AperFunction,Plated,PTH,ComponentDrill
T4C0.0402
; #@! TA.AperFunction,Plated,PTH,ComponentDrill
T5C0.0433
%
G90
G05
T1
X6.39Y-4.28
X6.44Y-3.78
X6.6Y-4.01
X7.08Y-4.24
X7.28Y-3.77
X7.646Y-3.286
X7.68Y-4.27
X8.152Y-3.939
T2
X6.3293Y-3.7616
X6.3293Y-3.86
X6.3293Y-3.9584
X6.5131Y-3.33
X6.6116Y-3.33
X6.71Y-3.33
X6.718Y-3.7376
X6.718Y-3.836
X6.718Y-3.9344
X6.9816Y-3.3293
X7.08Y-3.3293
X7.1784Y-3.3293
X7.7723Y-3.337
X7.8707Y-3.337
X7.9691Y-3.337
X8.0676Y-3.337
X8.166Y-3.337
T3
X6.32Y-4.83
X6.32Y-4.9284
X6.5686Y-5.1413
X6.667Y-5.1413
X6.7746Y-4.67
X6.873Y-4.67
X8.4808Y-4.53
X8.78Y-4.53
T4
X6.3Y-3.55
X6.3Y-4.15
X6.4Y-3.55
X6.4Y-4.15
X6.5Y-3.55
X6.5Y-4.15
X6.58Y-4.85
X6.6Y-3.55
X6.6Y-4.15
X6.68Y-4.85
X6.7Y-3.55
X6.7Y-4.15
X6.78Y-4.85
X6.8Y-3.55
X6.8Y-4.15
X6.88Y-4.85
X6.9Y-3.55
X6.9Y-4.15
X6.98Y-4.85
X7.0Y-3.55
X7.0Y-4.15
X7.08Y-4.85
X7.1Y-3.55
X7.1Y-4.15
X7.18Y-4.85
X7.2Y-3.55
X7.2Y-4.15
X7.3Y-3.55
X7.3Y-4.15
X7.4Y-3.55
X7.4Y-4.15
X7.46Y-3.67
X7.5Y-3.55
X7.5Y-4.15
X7.56Y-3.67
X7.56Y-5.02
X7.6Y-3.55
X7.6Y-4.15
X7.66Y-3.67
X7.66Y-4.58
X7.66Y-5.02
X7.7Y-3.55
X7.7Y-4.15
X7.76Y-3.67
X7.76Y-4.58
X7.76Y-5.02
X7.76Y-5.18
X7.8Y-3.55
X7.8Y-4.15
X7.86Y-3.67
X7.86Y-4.58
X7.86Y-5.02
X7.86Y-5.18
X7.9Y-3.55
X7.9Y-4.15
X7.96Y-3.67
X7.96Y-4.58
X7.96Y-5.02
X7.96Y-5.18
X8.0Y-3.55
X8.0Y-4.15
X8.06Y-3.67
X8.06Y-4.58
X8.06Y-5.02
X8.06Y-5.18
X8.1Y-3.55
X8.1Y-4.15
X8.16Y-4.58
X8.16Y-5.02
X8.2Y-3.55
X8.2Y-4.15
X8.26Y-5.02
X8.3Y-3.55
X8.3Y-4.15
X8.4Y-3.55
X8.4Y-4.15
X8.5Y-3.55
X8.5Y-4.15
X8.6Y-3.55
X8.6Y-4.15
T5
X6.28Y-4.4372
X6.38Y-4.4372
X6.48Y-4.4372
X6.719Y-4.44
X6.819Y-4.44
X6.919Y-4.44
X7.48Y-4.37
X7.58Y-4.37
X7.68Y-4.37
T0
M30
