%TF.GenerationSoftware,KiCad,Pcbnew,8.0.2-1*%
%TF.CreationDate,2024-06-03T07:22:45-07:00*%
%TF.ProjectId,H Bridge PCB,48204272-6964-4676-9520-5043422e6b69,rev?*%
%TF.SameCoordinates,Original*%
%TF.FileFunction,Copper,L2,Bot*%
%TF.FilePolarity,Positive*%
%FSLAX46Y46*%
G04 Gerber Fmt 4.6, Leading zero omitted, Abs format (unit mm)*
G04 Created by KiCad (PCBNEW 8.0.2-1) date 2024-06-03 07:22:45*
%MOMM*%
%LPD*%
G01*
G04 APERTURE LIST*
G04 Aperture macros list*
%AMRoundRect*
0 Rectangle with rounded corners*
0 $1 Rounding radius*
0 $2 $3 $4 $5 $6 $7 $8 $9 X,Y pos of 4 corners*
0 Add a 4 corners polygon primitive as box body*
4,1,4,$2,$3,$4,$5,$6,$7,$8,$9,$2,$3,0*
0 Add four circle primitives for the rounded corners*
1,1,$1+$1,$2,$3*
1,1,$1+$1,$4,$5*
1,1,$1+$1,$6,$7*
1,1,$1+$1,$8,$9*
0 Add four rect primitives between the rounded corners*
20,1,$1+$1,$2,$3,$4,$5,0*
20,1,$1+$1,$4,$5,$6,$7,0*
20,1,$1+$1,$6,$7,$8,$9,0*
20,1,$1+$1,$8,$9,$2,$3,0*%
G04 Aperture macros list end*
%TA.AperFunction,ComponentPad*%
%ADD10C,1.270000*%
%TD*%
%TA.AperFunction,ComponentPad*%
%ADD11R,1.600000X1.600000*%
%TD*%
%TA.AperFunction,ComponentPad*%
%ADD12O,1.600000X1.600000*%
%TD*%
%TA.AperFunction,ComponentPad*%
%ADD13RoundRect,0.250000X-0.600000X-0.725000X0.600000X-0.725000X0.600000X0.725000X-0.600000X0.725000X0*%
%TD*%
%TA.AperFunction,ComponentPad*%
%ADD14O,1.700000X1.950000*%
%TD*%
%TA.AperFunction,ViaPad*%
%ADD15C,1.600000*%
%TD*%
%TA.AperFunction,Conductor*%
%ADD16C,1.000000*%
%TD*%
G04 APERTURE END LIST*
D10*
%TO.P,U5,1,A*%
%TO.N,/Sig 1*%
X125730000Y-98806000D03*
%TO.P,U5,2,C*%
%TO.N,GND*%
X125730000Y-101346000D03*
%TO.P,U5,3,3*%
%TO.N,/PWR*%
X133350000Y-101346000D03*
%TO.P,U5,4,4*%
%TO.N,Net-(J3-Pin_1)*%
X133350000Y-98806000D03*
%TD*%
D11*
%TO.P,U4,1*%
%TO.N,/Sig 1*%
X126761000Y-96266000D03*
D12*
%TO.P,U4,2*%
%TO.N,GND*%
X129301000Y-96266000D03*
%TO.P,U4,3*%
%TO.N,unconnected-(U4-Pad3)*%
X131841000Y-96266000D03*
%TO.P,U4,4*%
%TO.N,Net-(J3-Pin_1)*%
X131841000Y-88646000D03*
%TO.P,U4,5*%
%TO.N,GND*%
X129301000Y-88646000D03*
%TO.P,U4,6*%
%TO.N,Net-(J3-Pin_1)*%
X126761000Y-88646000D03*
%TD*%
D13*
%TO.P,J1,1,Pin_1*%
%TO.N,GND*%
X116626000Y-90661000D03*
D14*
%TO.P,J1,2,Pin_2*%
%TO.N,unconnected-(J1-Pin_2-Pad2)*%
X119126000Y-90661000D03*
%TO.P,J1,3,Pin_3*%
%TO.N,/Sig 2*%
X121626000Y-90661000D03*
%TD*%
D13*
%TO.P,J2,1,Pin_1*%
%TO.N,GND*%
X116626000Y-99043000D03*
D14*
%TO.P,J2,2,Pin_2*%
%TO.N,/PWR*%
X119126000Y-99043000D03*
%TO.P,J2,3,Pin_3*%
%TO.N,/Sig 1*%
X121626000Y-99043000D03*
%TD*%
D11*
%TO.P,U3,1*%
%TO.N,/Sig 2*%
X137937000Y-96256000D03*
D12*
%TO.P,U3,2*%
%TO.N,GND*%
X140477000Y-96256000D03*
%TO.P,U3,3*%
%TO.N,unconnected-(U3-Pad3)*%
X143017000Y-96256000D03*
%TO.P,U3,4*%
%TO.N,Net-(J3-Pin_2)*%
X143017000Y-88636000D03*
%TO.P,U3,5*%
%TO.N,GND*%
X140477000Y-88636000D03*
%TO.P,U3,6*%
%TO.N,Net-(J3-Pin_2)*%
X137937000Y-88636000D03*
%TD*%
D10*
%TO.P,U1,1,A*%
%TO.N,/Sig 2*%
X136652000Y-98806000D03*
%TO.P,U1,2,C*%
%TO.N,GND*%
X136652000Y-101346000D03*
%TO.P,U1,3,3*%
%TO.N,Net-(J3-Pin_2)*%
X144272000Y-101346000D03*
%TO.P,U1,4,4*%
%TO.N,/PWR*%
X144272000Y-98806000D03*
%TD*%
D15*
%TO.N,Net-(J3-Pin_1)*%
X151130000Y-93980000D03*
%TD*%
D16*
%TO.N,Net-(J3-Pin_1)*%
X149098000Y-93980000D02*
X151130000Y-93980000D01*
X136931000Y-93980000D02*
X133350000Y-97561000D01*
X137531975Y-93980000D02*
X136931000Y-93980000D01*
X133350000Y-91948000D02*
X129819000Y-91948000D01*
X134124500Y-91173500D02*
X133350000Y-91948000D01*
X136931000Y-93980000D02*
X134124500Y-91173500D01*
X134124500Y-91173500D02*
X131841000Y-88890000D01*
X137531975Y-93980000D02*
X149098000Y-93980000D01*
X129819000Y-91948000D02*
X126761000Y-88890000D01*
X133350000Y-97561000D02*
X133350000Y-98806000D01*
%TD*%
%TA.AperFunction,Conductor*%
%TO.N,GND*%
G36*
X125557279Y-87896185D02*
G01*
X125603034Y-87948989D01*
X125612978Y-88018147D01*
X125602622Y-88052905D01*
X125534261Y-88199502D01*
X125534258Y-88199511D01*
X125475366Y-88419302D01*
X125475364Y-88419313D01*
X125455532Y-88645998D01*
X125455532Y-88646001D01*
X125475364Y-88872686D01*
X125475366Y-88872697D01*
X125534258Y-89092488D01*
X125534261Y-89092497D01*
X125630431Y-89298732D01*
X125630432Y-89298734D01*
X125760954Y-89485141D01*
X125921858Y-89646045D01*
X125936374Y-89656209D01*
X126108266Y-89776568D01*
X126314504Y-89872739D01*
X126319411Y-89875027D01*
X126318781Y-89876375D01*
X126356449Y-89900369D01*
X129038735Y-92582655D01*
X129038764Y-92582686D01*
X129181214Y-92725136D01*
X129181218Y-92725139D01*
X129345079Y-92834628D01*
X129345092Y-92834635D01*
X129473833Y-92887961D01*
X129516744Y-92905735D01*
X129527164Y-92910051D01*
X129623812Y-92929275D01*
X129672135Y-92938887D01*
X129720458Y-92948500D01*
X129720459Y-92948500D01*
X133448542Y-92948500D01*
X133475280Y-92943181D01*
X133545188Y-92929275D01*
X133641836Y-92910051D01*
X133695165Y-92887961D01*
X133823914Y-92834632D01*
X133987782Y-92725139D01*
X134036820Y-92676100D01*
X134098140Y-92642616D01*
X134167831Y-92647599D01*
X134212181Y-92676101D01*
X135428398Y-93892318D01*
X135461883Y-93953641D01*
X135456899Y-94023333D01*
X135428398Y-94067680D01*
X133341227Y-96154851D01*
X133279904Y-96188336D01*
X133210212Y-96183352D01*
X133154279Y-96141480D01*
X133130018Y-96077977D01*
X133126635Y-96039313D01*
X133126635Y-96039308D01*
X133067739Y-95819504D01*
X132971568Y-95613266D01*
X132841047Y-95426861D01*
X132841045Y-95426858D01*
X132680141Y-95265954D01*
X132493734Y-95135432D01*
X132493732Y-95135431D01*
X132287497Y-95039261D01*
X132287488Y-95039258D01*
X132067697Y-94980366D01*
X132067693Y-94980365D01*
X132067692Y-94980365D01*
X132067691Y-94980364D01*
X132067686Y-94980364D01*
X131841002Y-94960532D01*
X131840998Y-94960532D01*
X131614313Y-94980364D01*
X131614302Y-94980366D01*
X131394511Y-95039258D01*
X131394502Y-95039261D01*
X131188267Y-95135431D01*
X131188265Y-95135432D01*
X131001858Y-95265954D01*
X130840954Y-95426858D01*
X130717256Y-95603520D01*
X130710432Y-95613266D01*
X130710315Y-95613518D01*
X130683106Y-95671867D01*
X130636933Y-95724306D01*
X130569739Y-95743457D01*
X130502858Y-95723241D01*
X130458342Y-95671865D01*
X130431135Y-95613520D01*
X130431134Y-95613518D01*
X130300657Y-95427179D01*
X130139820Y-95266342D01*
X129953482Y-95135865D01*
X129747328Y-95039734D01*
X129551000Y-94987127D01*
X129551000Y-95950314D01*
X129546606Y-95945920D01*
X129455394Y-95893259D01*
X129353661Y-95866000D01*
X129248339Y-95866000D01*
X129146606Y-95893259D01*
X129055394Y-95945920D01*
X129051000Y-95950314D01*
X129051000Y-94987127D01*
X128854671Y-95039734D01*
X128648517Y-95135865D01*
X128462179Y-95266342D01*
X128301339Y-95427182D01*
X128283806Y-95452222D01*
X128229229Y-95495845D01*
X128159730Y-95503037D01*
X128097376Y-95471513D01*
X128061963Y-95411283D01*
X128058943Y-95394349D01*
X128055091Y-95358516D01*
X128004797Y-95223671D01*
X128004793Y-95223664D01*
X127918547Y-95108455D01*
X127918544Y-95108452D01*
X127803335Y-95022206D01*
X127803328Y-95022202D01*
X127668482Y-94971908D01*
X127668483Y-94971908D01*
X127608883Y-94965501D01*
X127608881Y-94965500D01*
X127608873Y-94965500D01*
X127608864Y-94965500D01*
X125913129Y-94965500D01*
X125913123Y-94965501D01*
X125853516Y-94971908D01*
X125718671Y-95022202D01*
X125718664Y-95022206D01*
X125603455Y-95108452D01*
X125603452Y-95108455D01*
X125517206Y-95223664D01*
X125517202Y-95223671D01*
X125466908Y-95358517D01*
X125460501Y-95418116D01*
X125460500Y-95418135D01*
X125460500Y-97113870D01*
X125460501Y-97113876D01*
X125466908Y-97173483D01*
X125517202Y-97308328D01*
X125517206Y-97308335D01*
X125583258Y-97396568D01*
X125603454Y-97423546D01*
X125645588Y-97455087D01*
X125687458Y-97511020D01*
X125692442Y-97580712D01*
X125658957Y-97642035D01*
X125597633Y-97675519D01*
X125594062Y-97676242D01*
X125521599Y-97689787D01*
X125417924Y-97709168D01*
X125417922Y-97709168D01*
X125417920Y-97709169D01*
X125221698Y-97785185D01*
X125221692Y-97785188D01*
X125042778Y-97895967D01*
X125042776Y-97895969D01*
X124887261Y-98037739D01*
X124760442Y-98205674D01*
X124666642Y-98394049D01*
X124609051Y-98596462D01*
X124589635Y-98805999D01*
X124589635Y-98806000D01*
X124609051Y-99015537D01*
X124666642Y-99217950D01*
X124760442Y-99406325D01*
X124820330Y-99485630D01*
X124887261Y-99574260D01*
X125042776Y-99716030D01*
X125042778Y-99716032D01*
X125221692Y-99826811D01*
X125221698Y-99826814D01*
X125263268Y-99842918D01*
X125417924Y-99902832D01*
X125624780Y-99941500D01*
X125624782Y-99941500D01*
X125835218Y-99941500D01*
X125835220Y-99941500D01*
X126042076Y-99902832D01*
X126238304Y-99826813D01*
X126417223Y-99716031D01*
X126572740Y-99574259D01*
X126699558Y-99406325D01*
X126793359Y-99217947D01*
X126850948Y-99015542D01*
X126870365Y-98806000D01*
X126850948Y-98596458D01*
X126793359Y-98394053D01*
X126699558Y-98205675D01*
X126572740Y-98037741D01*
X126561033Y-98027069D01*
X126417224Y-97895970D01*
X126417223Y-97895969D01*
X126255647Y-97795925D01*
X126209013Y-97743898D01*
X126197909Y-97674916D01*
X126225862Y-97610882D01*
X126283997Y-97572126D01*
X126320921Y-97566499D01*
X127608872Y-97566499D01*
X127668483Y-97560091D01*
X127803331Y-97509796D01*
X127918546Y-97423546D01*
X128004796Y-97308331D01*
X128055091Y-97173483D01*
X128058944Y-97137644D01*
X128085679Y-97073098D01*
X128143070Y-97033248D01*
X128212895Y-97030753D01*
X128272985Y-97066404D01*
X128283806Y-97079777D01*
X128301341Y-97104819D01*
X128462179Y-97265657D01*
X128648517Y-97396134D01*
X128854673Y-97492265D01*
X128854682Y-97492269D01*
X129050999Y-97544872D01*
X129051000Y-97544871D01*
X129051000Y-96581686D01*
X129055394Y-96586080D01*
X129146606Y-96638741D01*
X129248339Y-96666000D01*
X129353661Y-96666000D01*
X129455394Y-96638741D01*
X129546606Y-96586080D01*
X129551000Y-96581686D01*
X129551000Y-97544872D01*
X129747317Y-97492269D01*
X129747326Y-97492265D01*
X129953482Y-97396134D01*
X130139820Y-97265657D01*
X130300657Y-97104820D01*
X130431132Y-96918484D01*
X130458341Y-96860134D01*
X130504513Y-96807695D01*
X130571707Y-96788542D01*
X130638588Y-96808757D01*
X130683106Y-96860133D01*
X130710431Y-96918732D01*
X130710432Y-96918734D01*
X130840954Y-97105141D01*
X131001858Y-97266045D01*
X131001861Y-97266047D01*
X131188266Y-97396568D01*
X131394504Y-97492739D01*
X131614308Y-97551635D01*
X131776230Y-97565801D01*
X131840998Y-97571468D01*
X131841000Y-97571468D01*
X131841002Y-97571468D01*
X131897807Y-97566498D01*
X132067692Y-97551635D01*
X132193410Y-97517949D01*
X132263256Y-97519612D01*
X132321118Y-97558774D01*
X132348623Y-97623002D01*
X132349500Y-97637724D01*
X132349500Y-98238650D01*
X132336500Y-98293921D01*
X132286644Y-98394044D01*
X132286640Y-98394054D01*
X132229051Y-98596462D01*
X132209635Y-98805999D01*
X132209635Y-98806000D01*
X132229051Y-99015537D01*
X132286642Y-99217950D01*
X132380442Y-99406325D01*
X132440330Y-99485630D01*
X132507261Y-99574260D01*
X132662776Y-99716030D01*
X132662778Y-99716032D01*
X132841692Y-99826811D01*
X132841698Y-99826814D01*
X132883268Y-99842918D01*
X133037924Y-99902832D01*
X133244780Y-99941500D01*
X133244782Y-99941500D01*
X133455218Y-99941500D01*
X133455220Y-99941500D01*
X133662076Y-99902832D01*
X133858304Y-99826813D01*
X134037223Y-99716031D01*
X134192740Y-99574259D01*
X134319558Y-99406325D01*
X134413359Y-99217947D01*
X134470948Y-99015542D01*
X134490365Y-98806000D01*
X134470948Y-98596458D01*
X134413359Y-98394053D01*
X134363500Y-98293921D01*
X134350500Y-98238650D01*
X134350500Y-98026782D01*
X134370185Y-97959743D01*
X134386819Y-97939101D01*
X135305167Y-97020753D01*
X136424821Y-95901098D01*
X136486142Y-95867615D01*
X136555834Y-95872599D01*
X136611767Y-95914471D01*
X136636184Y-95979935D01*
X136636500Y-95988781D01*
X136636500Y-97103870D01*
X136636501Y-97103876D01*
X136642908Y-97163483D01*
X136693202Y-97298328D01*
X136693206Y-97298335D01*
X136759258Y-97386568D01*
X136779454Y-97413546D01*
X136824456Y-97447234D01*
X136866326Y-97503167D01*
X136871310Y-97572859D01*
X136837825Y-97634182D01*
X136776501Y-97667666D01*
X136750144Y-97670500D01*
X136546780Y-97670500D01*
X136339924Y-97709168D01*
X136339921Y-97709168D01*
X136339921Y-97709169D01*
X136143698Y-97785185D01*
X136143692Y-97785188D01*
X135964778Y-97895967D01*
X135964776Y-97895969D01*
X135809261Y-98037739D01*
X135682442Y-98205674D01*
X135588642Y-98394049D01*
X135531051Y-98596462D01*
X135511635Y-98805999D01*
X135511635Y-98806000D01*
X135531051Y-99015537D01*
X135588642Y-99217950D01*
X135682442Y-99406325D01*
X135742330Y-99485630D01*
X135809261Y-99574260D01*
X135964776Y-99716030D01*
X135964778Y-99716032D01*
X136143692Y-99826811D01*
X136143698Y-99826814D01*
X136185268Y-99842918D01*
X136339924Y-99902832D01*
X136546780Y-99941500D01*
X136546782Y-99941500D01*
X136757218Y-99941500D01*
X136757220Y-99941500D01*
X136964076Y-99902832D01*
X137160304Y-99826813D01*
X137339223Y-99716031D01*
X137494740Y-99574259D01*
X137621558Y-99406325D01*
X137715359Y-99217947D01*
X137772948Y-99015542D01*
X137792365Y-98806000D01*
X137792365Y-98805999D01*
X143131635Y-98805999D01*
X143131635Y-98806000D01*
X143151051Y-99015537D01*
X143208642Y-99217950D01*
X143302442Y-99406325D01*
X143362330Y-99485630D01*
X143429261Y-99574260D01*
X143584776Y-99716030D01*
X143584778Y-99716032D01*
X143763692Y-99826811D01*
X143763698Y-99826814D01*
X143805268Y-99842918D01*
X143959924Y-99902832D01*
X144166780Y-99941500D01*
X144166782Y-99941500D01*
X144377218Y-99941500D01*
X144377220Y-99941500D01*
X144584076Y-99902832D01*
X144780304Y-99826813D01*
X144959223Y-99716031D01*
X145114740Y-99574259D01*
X145241558Y-99406325D01*
X145335359Y-99217947D01*
X145392948Y-99015542D01*
X145412365Y-98806000D01*
X145392948Y-98596458D01*
X145335359Y-98394053D01*
X145241558Y-98205675D01*
X145114740Y-98037741D01*
X145103033Y-98027069D01*
X144959223Y-97895969D01*
X144959221Y-97895967D01*
X144780307Y-97785188D01*
X144780301Y-97785185D01*
X144625648Y-97725273D01*
X144584076Y-97709168D01*
X144377220Y-97670500D01*
X144166780Y-97670500D01*
X143959924Y-97709168D01*
X143959921Y-97709168D01*
X143959921Y-97709169D01*
X143763698Y-97785185D01*
X143763692Y-97785188D01*
X143584778Y-97895967D01*
X143584776Y-97895969D01*
X143429261Y-98037739D01*
X143302442Y-98205674D01*
X143208642Y-98394049D01*
X143151051Y-98596462D01*
X143131635Y-98805999D01*
X137792365Y-98805999D01*
X137772948Y-98596458D01*
X137715359Y-98394053D01*
X137621558Y-98205675D01*
X137494740Y-98037741D01*
X137483033Y-98027069D01*
X137339224Y-97895970D01*
X137339223Y-97895969D01*
X137161498Y-97785926D01*
X137114863Y-97733898D01*
X137103759Y-97664916D01*
X137131712Y-97600882D01*
X137189848Y-97562125D01*
X137226769Y-97556499D01*
X138784872Y-97556499D01*
X138844483Y-97550091D01*
X138979331Y-97499796D01*
X139094546Y-97413546D01*
X139180796Y-97298331D01*
X139231091Y-97163483D01*
X139234944Y-97127644D01*
X139261679Y-97063098D01*
X139319070Y-97023248D01*
X139388895Y-97020753D01*
X139448985Y-97056404D01*
X139459806Y-97069777D01*
X139477341Y-97094819D01*
X139638179Y-97255657D01*
X139824517Y-97386134D01*
X140030673Y-97482265D01*
X140030682Y-97482269D01*
X140226999Y-97534872D01*
X140227000Y-97534871D01*
X140227000Y-96571686D01*
X140231394Y-96576080D01*
X140322606Y-96628741D01*
X140424339Y-96656000D01*
X140529661Y-96656000D01*
X140631394Y-96628741D01*
X140722606Y-96576080D01*
X140727000Y-96571686D01*
X140727000Y-97534872D01*
X140923317Y-97482269D01*
X140923326Y-97482265D01*
X141129482Y-97386134D01*
X141315820Y-97255657D01*
X141476657Y-97094820D01*
X141607132Y-96908484D01*
X141634341Y-96850134D01*
X141680513Y-96797695D01*
X141747707Y-96778542D01*
X141814588Y-96798757D01*
X141859105Y-96850132D01*
X141881088Y-96897275D01*
X141886431Y-96908732D01*
X141886432Y-96908734D01*
X142016954Y-97095141D01*
X142177858Y-97256045D01*
X142177861Y-97256047D01*
X142364266Y-97386568D01*
X142570504Y-97482739D01*
X142570509Y-97482740D01*
X142570511Y-97482741D01*
X142607821Y-97492738D01*
X142790308Y-97541635D01*
X142952230Y-97555801D01*
X143016998Y-97561468D01*
X143017000Y-97561468D01*
X143017002Y-97561468D01*
X143073807Y-97556498D01*
X143243692Y-97541635D01*
X143463496Y-97482739D01*
X143669734Y-97386568D01*
X143856139Y-97256047D01*
X144017047Y-97095139D01*
X144147568Y-96908734D01*
X144243739Y-96702496D01*
X144302635Y-96482692D01*
X144322468Y-96256000D01*
X144302635Y-96029308D01*
X144246420Y-95819511D01*
X144243741Y-95809511D01*
X144243738Y-95809502D01*
X144147568Y-95603266D01*
X144017934Y-95418128D01*
X144017045Y-95416858D01*
X143856141Y-95255954D01*
X143795751Y-95213669D01*
X143784904Y-95206074D01*
X143741280Y-95151499D01*
X143734086Y-95082001D01*
X143765608Y-95019646D01*
X143825838Y-94984231D01*
X143856028Y-94980500D01*
X148999459Y-94980500D01*
X150252412Y-94980500D01*
X150319451Y-95000185D01*
X150323523Y-95002917D01*
X150477266Y-95110568D01*
X150683504Y-95206739D01*
X150683509Y-95206740D01*
X150683511Y-95206741D01*
X150736415Y-95220916D01*
X150903308Y-95265635D01*
X151065230Y-95279801D01*
X151129998Y-95285468D01*
X151130000Y-95285468D01*
X151130002Y-95285468D01*
X151186673Y-95280509D01*
X151356692Y-95265635D01*
X151576496Y-95206739D01*
X151782734Y-95110568D01*
X151969139Y-94980047D01*
X152130047Y-94819139D01*
X152260568Y-94632734D01*
X152356739Y-94426496D01*
X152415635Y-94206692D01*
X152435468Y-93980000D01*
X152415635Y-93753308D01*
X152356739Y-93533504D01*
X152260568Y-93327266D01*
X152130047Y-93140861D01*
X152130045Y-93140858D01*
X151969141Y-92979954D01*
X151782734Y-92849432D01*
X151782732Y-92849431D01*
X151576497Y-92753261D01*
X151576488Y-92753258D01*
X151356697Y-92694366D01*
X151356693Y-92694365D01*
X151356692Y-92694365D01*
X151356691Y-92694364D01*
X151356686Y-92694364D01*
X151130002Y-92674532D01*
X151129998Y-92674532D01*
X150903313Y-92694364D01*
X150903302Y-92694366D01*
X150683511Y-92753258D01*
X150683502Y-92753261D01*
X150477267Y-92849431D01*
X150477265Y-92849432D01*
X150390694Y-92910050D01*
X150343378Y-92943181D01*
X150323535Y-92957075D01*
X150257329Y-92979402D01*
X150252412Y-92979500D01*
X137396783Y-92979500D01*
X137329744Y-92959815D01*
X137309102Y-92943181D01*
X134908710Y-90542790D01*
X134908708Y-90542787D01*
X134044474Y-89678553D01*
X133176528Y-88810608D01*
X133143044Y-88749286D01*
X133140682Y-88712125D01*
X133146468Y-88646000D01*
X133126635Y-88419308D01*
X133067739Y-88199504D01*
X132999377Y-88052904D01*
X132988886Y-87983828D01*
X133017406Y-87920044D01*
X133075882Y-87881804D01*
X133111760Y-87876500D01*
X136661577Y-87876500D01*
X136728616Y-87896185D01*
X136774371Y-87948989D01*
X136784315Y-88018147D01*
X136773959Y-88052905D01*
X136710261Y-88189502D01*
X136710258Y-88189511D01*
X136651366Y-88409302D01*
X136651364Y-88409313D01*
X136631532Y-88635998D01*
X136631532Y-88636001D01*
X136651364Y-88862686D01*
X136651366Y-88862697D01*
X136710258Y-89082488D01*
X136710261Y-89082497D01*
X136806431Y-89288732D01*
X136806432Y-89288734D01*
X136936954Y-89475141D01*
X137097858Y-89636045D01*
X137097861Y-89636047D01*
X137284266Y-89766568D01*
X137490504Y-89862739D01*
X137490509Y-89862740D01*
X137490511Y-89862741D01*
X137543415Y-89876916D01*
X137710308Y-89921635D01*
X137872230Y-89935801D01*
X137936998Y-89941468D01*
X137937000Y-89941468D01*
X137937002Y-89941468D01*
X137993673Y-89936509D01*
X138163692Y-89921635D01*
X138383496Y-89862739D01*
X138589734Y-89766568D01*
X138776139Y-89636047D01*
X138937047Y-89475139D01*
X139067568Y-89288734D01*
X139094895Y-89230129D01*
X139141064Y-89177695D01*
X139208257Y-89158542D01*
X139275139Y-89178757D01*
X139319657Y-89230133D01*
X139346865Y-89288482D01*
X139477342Y-89474820D01*
X139638179Y-89635657D01*
X139824517Y-89766134D01*
X140030673Y-89862265D01*
X140030682Y-89862269D01*
X140226999Y-89914872D01*
X140227000Y-89914871D01*
X140227000Y-88951686D01*
X140231394Y-88956080D01*
X140322606Y-89008741D01*
X140424339Y-89036000D01*
X140529661Y-89036000D01*
X140631394Y-89008741D01*
X140722606Y-88956080D01*
X140727000Y-88951686D01*
X140727000Y-89914872D01*
X140923317Y-89862269D01*
X140923326Y-89862265D01*
X141129482Y-89766134D01*
X141315820Y-89635657D01*
X141476657Y-89474820D01*
X141607132Y-89288484D01*
X141634341Y-89230134D01*
X141680513Y-89177695D01*
X141747707Y-89158542D01*
X141814588Y-89178757D01*
X141859105Y-89230132D01*
X141869135Y-89251641D01*
X141886431Y-89288732D01*
X141886432Y-89288734D01*
X142016954Y-89475141D01*
X142177858Y-89636045D01*
X142177861Y-89636047D01*
X142364266Y-89766568D01*
X142570504Y-89862739D01*
X142570509Y-89862740D01*
X142570511Y-89862741D01*
X142623415Y-89876916D01*
X142790308Y-89921635D01*
X142952230Y-89935801D01*
X143016998Y-89941468D01*
X143017000Y-89941468D01*
X143017002Y-89941468D01*
X143073673Y-89936509D01*
X143243692Y-89921635D01*
X143463496Y-89862739D01*
X143669734Y-89766568D01*
X143856139Y-89636047D01*
X144017047Y-89475139D01*
X144147568Y-89288734D01*
X144243739Y-89082496D01*
X144302635Y-88862692D01*
X144322468Y-88636000D01*
X144302635Y-88409308D01*
X144246420Y-88199511D01*
X144243741Y-88189511D01*
X144243738Y-88189502D01*
X144180041Y-88052905D01*
X144169549Y-87983828D01*
X144198068Y-87920044D01*
X144256545Y-87881804D01*
X144292423Y-87876500D01*
X158125500Y-87876500D01*
X158192539Y-87896185D01*
X158238294Y-87948989D01*
X158249500Y-88000500D01*
X158249500Y-101991500D01*
X158229815Y-102058539D01*
X158177011Y-102104294D01*
X158125500Y-102115500D01*
X145357586Y-102115500D01*
X145290547Y-102095815D01*
X145244792Y-102043011D01*
X145234848Y-101973853D01*
X145246586Y-101936228D01*
X145279389Y-101870349D01*
X145335359Y-101757947D01*
X145392948Y-101555542D01*
X145412365Y-101346000D01*
X145392948Y-101136458D01*
X145335359Y-100934053D01*
X145241558Y-100745675D01*
X145114740Y-100577741D01*
X145049755Y-100518500D01*
X144959223Y-100435969D01*
X144959221Y-100435967D01*
X144780307Y-100325188D01*
X144780301Y-100325185D01*
X144625648Y-100265273D01*
X144584076Y-100249168D01*
X144377220Y-100210500D01*
X144166780Y-100210500D01*
X143959924Y-100249168D01*
X143959921Y-100249168D01*
X143959921Y-100249169D01*
X143763698Y-100325185D01*
X143763692Y-100325188D01*
X143584778Y-100435967D01*
X143584776Y-100435969D01*
X143429261Y-100577739D01*
X143302442Y-100745674D01*
X143208642Y-100934049D01*
X143151051Y-101136462D01*
X143131635Y-101345999D01*
X143131635Y-101346000D01*
X143151051Y-101555537D01*
X143151051Y-101555539D01*
X143151052Y-101555542D01*
X143208641Y-101757947D01*
X143208642Y-101757950D01*
X143297414Y-101936228D01*
X143309675Y-102005014D01*
X143282802Y-102069509D01*
X143225326Y-102109236D01*
X143186414Y-102115500D01*
X137737026Y-102115500D01*
X137669987Y-102095815D01*
X137624232Y-102043011D01*
X137614288Y-101973853D01*
X137626026Y-101936228D01*
X137714888Y-101757769D01*
X137772454Y-101555444D01*
X137791862Y-101346000D01*
X137791862Y-101345999D01*
X137772454Y-101136555D01*
X137714888Y-100934230D01*
X137621130Y-100745941D01*
X137621128Y-100745937D01*
X137614453Y-100737099D01*
X137614452Y-100737098D01*
X137033000Y-101318550D01*
X137033000Y-101295840D01*
X137007036Y-101198939D01*
X136956876Y-101112060D01*
X136885940Y-101041124D01*
X136799061Y-100990964D01*
X136702160Y-100965000D01*
X136679448Y-100965000D01*
X137258111Y-100386335D01*
X137258110Y-100386334D01*
X137160083Y-100325638D01*
X137160077Y-100325636D01*
X136963936Y-100249651D01*
X136757171Y-100211000D01*
X136546829Y-100211000D01*
X136340064Y-100249651D01*
X136340063Y-100249651D01*
X136143923Y-100325635D01*
X136045887Y-100386335D01*
X136624553Y-100965000D01*
X136601840Y-100965000D01*
X136504939Y-100990964D01*
X136418060Y-101041124D01*
X136347124Y-101112060D01*
X136296964Y-101198939D01*
X136271000Y-101295840D01*
X136271000Y-101318553D01*
X135689546Y-100737099D01*
X135689545Y-100737099D01*
X135682870Y-100745939D01*
X135589111Y-100934230D01*
X135531545Y-101136555D01*
X135512138Y-101345999D01*
X135512138Y-101346000D01*
X135531545Y-101555444D01*
X135589111Y-101757769D01*
X135677974Y-101936228D01*
X135690235Y-102005013D01*
X135663362Y-102069508D01*
X135605887Y-102109236D01*
X135566974Y-102115500D01*
X134435586Y-102115500D01*
X134368547Y-102095815D01*
X134322792Y-102043011D01*
X134312848Y-101973853D01*
X134324586Y-101936228D01*
X134357389Y-101870349D01*
X134413359Y-101757947D01*
X134470948Y-101555542D01*
X134490365Y-101346000D01*
X134470948Y-101136458D01*
X134413359Y-100934053D01*
X134319558Y-100745675D01*
X134192740Y-100577741D01*
X134127755Y-100518500D01*
X134037223Y-100435969D01*
X134037221Y-100435967D01*
X133858307Y-100325188D01*
X133858301Y-100325185D01*
X133703648Y-100265273D01*
X133662076Y-100249168D01*
X133455220Y-100210500D01*
X133244780Y-100210500D01*
X133037924Y-100249168D01*
X133037921Y-100249168D01*
X133037921Y-100249169D01*
X132841698Y-100325185D01*
X132841692Y-100325188D01*
X132662778Y-100435967D01*
X132662776Y-100435969D01*
X132507261Y-100577739D01*
X132380442Y-100745674D01*
X132286642Y-100934049D01*
X132229051Y-101136462D01*
X132209635Y-101345999D01*
X132209635Y-101346000D01*
X132229051Y-101555537D01*
X132229051Y-101555539D01*
X132229052Y-101555542D01*
X132286641Y-101757947D01*
X132286642Y-101757950D01*
X132375414Y-101936228D01*
X132387675Y-102005014D01*
X132360802Y-102069509D01*
X132303326Y-102109236D01*
X132264414Y-102115500D01*
X126815026Y-102115500D01*
X126747987Y-102095815D01*
X126702232Y-102043011D01*
X126692288Y-101973853D01*
X126704026Y-101936228D01*
X126792888Y-101757769D01*
X126850454Y-101555444D01*
X126869862Y-101346000D01*
X126869862Y-101345999D01*
X126850454Y-101136555D01*
X126792888Y-100934230D01*
X126699130Y-100745941D01*
X126699128Y-100745937D01*
X126692453Y-100737099D01*
X126692452Y-100737098D01*
X126111000Y-101318550D01*
X126111000Y-101295840D01*
X126085036Y-101198939D01*
X126034876Y-101112060D01*
X125963940Y-101041124D01*
X125877061Y-100990964D01*
X125780160Y-100965000D01*
X125757448Y-100965000D01*
X126336111Y-100386335D01*
X126336110Y-100386334D01*
X126238083Y-100325638D01*
X126238077Y-100325636D01*
X126041936Y-100249651D01*
X125835171Y-100211000D01*
X125624829Y-100211000D01*
X125418064Y-100249651D01*
X125418063Y-100249651D01*
X125221923Y-100325635D01*
X125123887Y-100386335D01*
X125702553Y-100965000D01*
X125679840Y-100965000D01*
X125582939Y-100990964D01*
X125496060Y-101041124D01*
X125425124Y-101112060D01*
X125374964Y-101198939D01*
X125349000Y-101295840D01*
X125349000Y-101318553D01*
X124767546Y-100737099D01*
X124767545Y-100737099D01*
X124760870Y-100745939D01*
X124667111Y-100934230D01*
X124609545Y-101136555D01*
X124590138Y-101345999D01*
X124590138Y-101346000D01*
X124609545Y-101555444D01*
X124667111Y-101757769D01*
X124755974Y-101936228D01*
X124768235Y-102005013D01*
X124741362Y-102069508D01*
X124683887Y-102109236D01*
X124644974Y-102115500D01*
X113908500Y-102115500D01*
X113841461Y-102095815D01*
X113795706Y-102043011D01*
X113784500Y-101991500D01*
X113784500Y-98268013D01*
X115276000Y-98268013D01*
X115276000Y-98793000D01*
X116221854Y-98793000D01*
X116183370Y-98859657D01*
X116151000Y-98980465D01*
X116151000Y-99105535D01*
X116183370Y-99226343D01*
X116221854Y-99293000D01*
X115276001Y-99293000D01*
X115276001Y-99817986D01*
X115286494Y-99920697D01*
X115341641Y-100087119D01*
X115341643Y-100087124D01*
X115433684Y-100236345D01*
X115557654Y-100360315D01*
X115706875Y-100452356D01*
X115706880Y-100452358D01*
X115873302Y-100507505D01*
X115873309Y-100507506D01*
X115976019Y-100517999D01*
X116375999Y-100517999D01*
X116376000Y-100517998D01*
X116376000Y-99447145D01*
X116442657Y-99485630D01*
X116563465Y-99518000D01*
X116688535Y-99518000D01*
X116809343Y-99485630D01*
X116876000Y-99447145D01*
X116876000Y-100517999D01*
X117275972Y-100517999D01*
X117275986Y-100517998D01*
X117378697Y-100507505D01*
X117545119Y-100452358D01*
X117545124Y-100452356D01*
X117694345Y-100360315D01*
X117818317Y-100236343D01*
X117913815Y-100081516D01*
X117965763Y-100034791D01*
X118034725Y-100023568D01*
X118098808Y-100051412D01*
X118107035Y-100058931D01*
X118246213Y-100198109D01*
X118418179Y-100323048D01*
X118418181Y-100323049D01*
X118418184Y-100323051D01*
X118607588Y-100419557D01*
X118809757Y-100485246D01*
X119019713Y-100518500D01*
X119019714Y-100518500D01*
X119232286Y-100518500D01*
X119232287Y-100518500D01*
X119442243Y-100485246D01*
X119644412Y-100419557D01*
X119833816Y-100323051D01*
X119855789Y-100307086D01*
X120005786Y-100198109D01*
X120005788Y-100198106D01*
X120005792Y-100198104D01*
X120156104Y-100047792D01*
X120275683Y-99883204D01*
X120331011Y-99840540D01*
X120400624Y-99834561D01*
X120462420Y-99867166D01*
X120476313Y-99883199D01*
X120503557Y-99920697D01*
X120595896Y-100047792D01*
X120746213Y-100198109D01*
X120918179Y-100323048D01*
X120918181Y-100323049D01*
X120918184Y-100323051D01*
X121107588Y-100419557D01*
X121309757Y-100485246D01*
X121519713Y-100518500D01*
X121519714Y-100518500D01*
X121732286Y-100518500D01*
X121732287Y-100518500D01*
X121942243Y-100485246D01*
X122144412Y-100419557D01*
X122333816Y-100323051D01*
X122355789Y-100307086D01*
X122505786Y-100198109D01*
X122505788Y-100198106D01*
X122505792Y-100198104D01*
X122656104Y-100047792D01*
X122656106Y-100047788D01*
X122656109Y-100047786D01*
X122781048Y-99875820D01*
X122781047Y-99875820D01*
X122781051Y-99875816D01*
X122877557Y-99686412D01*
X122943246Y-99484243D01*
X122976500Y-99274287D01*
X122976500Y-98811713D01*
X122943246Y-98601757D01*
X122877557Y-98399588D01*
X122781051Y-98210184D01*
X122781049Y-98210181D01*
X122781048Y-98210179D01*
X122656109Y-98038213D01*
X122505786Y-97887890D01*
X122333820Y-97762951D01*
X122144414Y-97666444D01*
X122144413Y-97666443D01*
X122144412Y-97666443D01*
X121942243Y-97600754D01*
X121942241Y-97600753D01*
X121942240Y-97600753D01*
X121761494Y-97572126D01*
X121732287Y-97567500D01*
X121519713Y-97567500D01*
X121490506Y-97572126D01*
X121309760Y-97600753D01*
X121107585Y-97666444D01*
X120918179Y-97762951D01*
X120746213Y-97887890D01*
X120595894Y-98038209D01*
X120595890Y-98038214D01*
X120476318Y-98202793D01*
X120420989Y-98245459D01*
X120351375Y-98251438D01*
X120289580Y-98218833D01*
X120275682Y-98202793D01*
X120156109Y-98038214D01*
X120156105Y-98038209D01*
X120005786Y-97887890D01*
X119833820Y-97762951D01*
X119644414Y-97666444D01*
X119644413Y-97666443D01*
X119644412Y-97666443D01*
X119442243Y-97600754D01*
X119442241Y-97600753D01*
X119442240Y-97600753D01*
X119261494Y-97572126D01*
X119232287Y-97567500D01*
X119019713Y-97567500D01*
X118990506Y-97572126D01*
X118809760Y-97600753D01*
X118607585Y-97666444D01*
X118418179Y-97762951D01*
X118246215Y-97887889D01*
X118107035Y-98027069D01*
X118045712Y-98060553D01*
X117976020Y-98055569D01*
X117920087Y-98013697D01*
X117913815Y-98004484D01*
X117818315Y-97849654D01*
X117694345Y-97725684D01*
X117545124Y-97633643D01*
X117545119Y-97633641D01*
X117378697Y-97578494D01*
X117378690Y-97578493D01*
X117275986Y-97568000D01*
X116876000Y-97568000D01*
X116876000Y-98638854D01*
X116809343Y-98600370D01*
X116688535Y-98568000D01*
X116563465Y-98568000D01*
X116442657Y-98600370D01*
X116376000Y-98638854D01*
X116376000Y-97568000D01*
X115976028Y-97568000D01*
X115976012Y-97568001D01*
X115873302Y-97578494D01*
X115706880Y-97633641D01*
X115706875Y-97633643D01*
X115557654Y-97725684D01*
X115433684Y-97849654D01*
X115341643Y-97998875D01*
X115341641Y-97998880D01*
X115286494Y-98165302D01*
X115286493Y-98165309D01*
X115276000Y-98268013D01*
X113784500Y-98268013D01*
X113784500Y-89886013D01*
X115276000Y-89886013D01*
X115276000Y-90411000D01*
X116221854Y-90411000D01*
X116183370Y-90477657D01*
X116151000Y-90598465D01*
X116151000Y-90723535D01*
X116183370Y-90844343D01*
X116221854Y-90911000D01*
X115276001Y-90911000D01*
X115276001Y-91435986D01*
X115286494Y-91538697D01*
X115341641Y-91705119D01*
X115341643Y-91705124D01*
X115433684Y-91854345D01*
X115557654Y-91978315D01*
X115706875Y-92070356D01*
X115706880Y-92070358D01*
X115873302Y-92125505D01*
X115873309Y-92125506D01*
X115976019Y-92135999D01*
X116375999Y-92135999D01*
X116376000Y-92135998D01*
X116376000Y-91065145D01*
X116442657Y-91103630D01*
X116563465Y-91136000D01*
X116688535Y-91136000D01*
X116809343Y-91103630D01*
X116876000Y-91065145D01*
X116876000Y-92135999D01*
X117275972Y-92135999D01*
X117275986Y-92135998D01*
X117378697Y-92125505D01*
X117545119Y-92070358D01*
X117545124Y-92070356D01*
X117694345Y-91978315D01*
X117818317Y-91854343D01*
X117913815Y-91699516D01*
X117965763Y-91652791D01*
X118034725Y-91641568D01*
X118098808Y-91669412D01*
X118107035Y-91676931D01*
X118246213Y-91816109D01*
X118418179Y-91941048D01*
X118418181Y-91941049D01*
X118418184Y-91941051D01*
X118607588Y-92037557D01*
X118809757Y-92103246D01*
X119019713Y-92136500D01*
X119019714Y-92136500D01*
X119232286Y-92136500D01*
X119232287Y-92136500D01*
X119442243Y-92103246D01*
X119644412Y-92037557D01*
X119833816Y-91941051D01*
X119855789Y-91925086D01*
X120005786Y-91816109D01*
X120005788Y-91816106D01*
X120005792Y-91816104D01*
X120156104Y-91665792D01*
X120275683Y-91501204D01*
X120331011Y-91458540D01*
X120400624Y-91452561D01*
X120462420Y-91485166D01*
X120476313Y-91501199D01*
X120503557Y-91538697D01*
X120595896Y-91665792D01*
X120746213Y-91816109D01*
X120918179Y-91941048D01*
X120918181Y-91941049D01*
X120918184Y-91941051D01*
X121107588Y-92037557D01*
X121309757Y-92103246D01*
X121519713Y-92136500D01*
X121519714Y-92136500D01*
X121732286Y-92136500D01*
X121732287Y-92136500D01*
X121942243Y-92103246D01*
X122144412Y-92037557D01*
X122333816Y-91941051D01*
X122355789Y-91925086D01*
X122505786Y-91816109D01*
X122505788Y-91816106D01*
X122505792Y-91816104D01*
X122656104Y-91665792D01*
X122656106Y-91665788D01*
X122656109Y-91665786D01*
X122781048Y-91493820D01*
X122781047Y-91493820D01*
X122781051Y-91493816D01*
X122877557Y-91304412D01*
X122943246Y-91102243D01*
X122976500Y-90892287D01*
X122976500Y-90429713D01*
X122943246Y-90219757D01*
X122877557Y-90017588D01*
X122781051Y-89828184D01*
X122781049Y-89828181D01*
X122781048Y-89828179D01*
X122656109Y-89656213D01*
X122505786Y-89505890D01*
X122333820Y-89380951D01*
X122144414Y-89284444D01*
X122144413Y-89284443D01*
X122144412Y-89284443D01*
X121942243Y-89218754D01*
X121942241Y-89218753D01*
X121942240Y-89218753D01*
X121780957Y-89193208D01*
X121732287Y-89185500D01*
X121519713Y-89185500D01*
X121471042Y-89193208D01*
X121309760Y-89218753D01*
X121107585Y-89284444D01*
X120918179Y-89380951D01*
X120746213Y-89505890D01*
X120595894Y-89656209D01*
X120595890Y-89656214D01*
X120476318Y-89820793D01*
X120420989Y-89863459D01*
X120351375Y-89869438D01*
X120289580Y-89836833D01*
X120275682Y-89820793D01*
X120156109Y-89656214D01*
X120156105Y-89656209D01*
X120005786Y-89505890D01*
X119833820Y-89380951D01*
X119644414Y-89284444D01*
X119644413Y-89284443D01*
X119644412Y-89284443D01*
X119442243Y-89218754D01*
X119442241Y-89218753D01*
X119442240Y-89218753D01*
X119280957Y-89193208D01*
X119232287Y-89185500D01*
X119019713Y-89185500D01*
X118971042Y-89193208D01*
X118809760Y-89218753D01*
X118607585Y-89284444D01*
X118418179Y-89380951D01*
X118246215Y-89505889D01*
X118107035Y-89645069D01*
X118045712Y-89678553D01*
X117976020Y-89673569D01*
X117920087Y-89631697D01*
X117913815Y-89622484D01*
X117818315Y-89467654D01*
X117694345Y-89343684D01*
X117545124Y-89251643D01*
X117545119Y-89251641D01*
X117378697Y-89196494D01*
X117378690Y-89196493D01*
X117275986Y-89186000D01*
X116876000Y-89186000D01*
X116876000Y-90256854D01*
X116809343Y-90218370D01*
X116688535Y-90186000D01*
X116563465Y-90186000D01*
X116442657Y-90218370D01*
X116376000Y-90256854D01*
X116376000Y-89186000D01*
X115976028Y-89186000D01*
X115976012Y-89186001D01*
X115873302Y-89196494D01*
X115706880Y-89251641D01*
X115706875Y-89251643D01*
X115557654Y-89343684D01*
X115433684Y-89467654D01*
X115341643Y-89616875D01*
X115341641Y-89616880D01*
X115286494Y-89783302D01*
X115286493Y-89783309D01*
X115276000Y-89886013D01*
X113784500Y-89886013D01*
X113784500Y-88000500D01*
X113804185Y-87933461D01*
X113856989Y-87887706D01*
X113908500Y-87876500D01*
X125490240Y-87876500D01*
X125557279Y-87896185D01*
G37*
%TD.AperFunction*%
%TD*%
M02*
