M48
; DRILL file {KiCad 8.0.2-1} date 2024-06-03T07:22:42-0700
; FORMAT={-:-/ absolute / inch / decimal}
; #@! TF.CreationDate,2024-06-03T07:22:42-07:00
; #@! TF.GenerationSoftware,Kicad,Pcbnew,8.0.2-1
; #@! TF.FileFunction,Plated,1,2,PTH
FMAT,2
INCH
; #@! TA.AperFunction,Plated,PTH,ComponentDrill
T1C0.0300
; #@! TA.AperFunction,Plated,PTH,ViaDrill
T2C0.0315
; #@! TA.AperFunction,Plated,PTH,ComponentDrill
T3C0.0315
; #@! TA.AperFunction,Plated,PTH,ComponentDrill
T4C0.0374
%
G90
G05
T1
X4.95Y-3.89
X4.95Y-3.99
X5.25Y-3.89
X5.25Y-3.99
X5.38Y-3.89
X5.38Y-3.99
X5.68Y-3.89
X5.68Y-3.99
T2
X5.95Y-3.7
T3
X4.9906Y-3.49
X4.9906Y-3.79
X5.0906Y-3.49
X5.0906Y-3.79
X5.1906Y-3.49
X5.1906Y-3.79
X5.4306Y-3.4896
X5.4306Y-3.7896
X5.5306Y-3.4896
X5.5306Y-3.7896
X5.6306Y-3.4896
X5.6306Y-3.7896
T4
X4.5916Y-3.5693
X4.5916Y-3.8993
X4.69Y-3.5693
X4.69Y-3.8993
X4.7884Y-3.5693
X4.7884Y-3.8993
M30
