%TF.GenerationSoftware,KiCad,Pcbnew,8.0.2-1*%
%TF.CreationDate,2024-06-03T07:22:45-07:00*%
%TF.ProjectId,H Bridge PCB,48204272-6964-4676-9520-5043422e6b69,rev?*%
%TF.SameCoordinates,Original*%
%TF.FileFunction,Legend,Top*%
%TF.FilePolarity,Positive*%
%FSLAX46Y46*%
G04 Gerber Fmt 4.6, Leading zero omitted, Abs format (unit mm)*
G04 Created by KiCad (PCBNEW 8.0.2-1) date 2024-06-03 07:22:45*
%MOMM*%
%LPD*%
G01*
G04 APERTURE LIST*
%ADD10C,0.150000*%
%ADD11C,0.152400*%
%ADD12C,0.120000*%
G04 APERTURE END LIST*
D10*
X128778095Y-99530819D02*
X128778095Y-100340342D01*
X128778095Y-100340342D02*
X128825714Y-100435580D01*
X128825714Y-100435580D02*
X128873333Y-100483200D01*
X128873333Y-100483200D02*
X128968571Y-100530819D01*
X128968571Y-100530819D02*
X129159047Y-100530819D01*
X129159047Y-100530819D02*
X129254285Y-100483200D01*
X129254285Y-100483200D02*
X129301904Y-100435580D01*
X129301904Y-100435580D02*
X129349523Y-100340342D01*
X129349523Y-100340342D02*
X129349523Y-99530819D01*
X130301904Y-99530819D02*
X129825714Y-99530819D01*
X129825714Y-99530819D02*
X129778095Y-100007009D01*
X129778095Y-100007009D02*
X129825714Y-99959390D01*
X129825714Y-99959390D02*
X129920952Y-99911771D01*
X129920952Y-99911771D02*
X130159047Y-99911771D01*
X130159047Y-99911771D02*
X130254285Y-99959390D01*
X130254285Y-99959390D02*
X130301904Y-100007009D01*
X130301904Y-100007009D02*
X130349523Y-100102247D01*
X130349523Y-100102247D02*
X130349523Y-100340342D01*
X130349523Y-100340342D02*
X130301904Y-100435580D01*
X130301904Y-100435580D02*
X130254285Y-100483200D01*
X130254285Y-100483200D02*
X130159047Y-100530819D01*
X130159047Y-100530819D02*
X129920952Y-100530819D01*
X129920952Y-100530819D02*
X129825714Y-100483200D01*
X129825714Y-100483200D02*
X129778095Y-100435580D01*
X125730000Y-96863819D02*
X125730000Y-97101914D01*
X125491905Y-97006676D02*
X125730000Y-97101914D01*
X125730000Y-97101914D02*
X125968095Y-97006676D01*
X125587143Y-97292390D02*
X125730000Y-97101914D01*
X125730000Y-97101914D02*
X125872857Y-97292390D01*
X125730000Y-96863819D02*
X125730000Y-97101914D01*
X125491905Y-97006676D02*
X125730000Y-97101914D01*
X125730000Y-97101914D02*
X125968095Y-97006676D01*
X125587143Y-97292390D02*
X125730000Y-97101914D01*
X125730000Y-97101914D02*
X125872857Y-97292390D01*
X123885819Y-93217904D02*
X124695342Y-93217904D01*
X124695342Y-93217904D02*
X124790580Y-93170285D01*
X124790580Y-93170285D02*
X124838200Y-93122666D01*
X124838200Y-93122666D02*
X124885819Y-93027428D01*
X124885819Y-93027428D02*
X124885819Y-92836952D01*
X124885819Y-92836952D02*
X124838200Y-92741714D01*
X124838200Y-92741714D02*
X124790580Y-92694095D01*
X124790580Y-92694095D02*
X124695342Y-92646476D01*
X124695342Y-92646476D02*
X123885819Y-92646476D01*
X124219152Y-91741714D02*
X124885819Y-91741714D01*
X123838200Y-91979809D02*
X124552485Y-92217904D01*
X124552485Y-92217904D02*
X124552485Y-91598857D01*
X118792666Y-86565819D02*
X118792666Y-87280104D01*
X118792666Y-87280104D02*
X118745047Y-87422961D01*
X118745047Y-87422961D02*
X118649809Y-87518200D01*
X118649809Y-87518200D02*
X118506952Y-87565819D01*
X118506952Y-87565819D02*
X118411714Y-87565819D01*
X119792666Y-87565819D02*
X119221238Y-87565819D01*
X119506952Y-87565819D02*
X119506952Y-86565819D01*
X119506952Y-86565819D02*
X119411714Y-86708676D01*
X119411714Y-86708676D02*
X119316476Y-86803914D01*
X119316476Y-86803914D02*
X119221238Y-86851533D01*
X118792666Y-94947819D02*
X118792666Y-95662104D01*
X118792666Y-95662104D02*
X118745047Y-95804961D01*
X118745047Y-95804961D02*
X118649809Y-95900200D01*
X118649809Y-95900200D02*
X118506952Y-95947819D01*
X118506952Y-95947819D02*
X118411714Y-95947819D01*
X119221238Y-95043057D02*
X119268857Y-94995438D01*
X119268857Y-94995438D02*
X119364095Y-94947819D01*
X119364095Y-94947819D02*
X119602190Y-94947819D01*
X119602190Y-94947819D02*
X119697428Y-94995438D01*
X119697428Y-94995438D02*
X119745047Y-95043057D01*
X119745047Y-95043057D02*
X119792666Y-95138295D01*
X119792666Y-95138295D02*
X119792666Y-95233533D01*
X119792666Y-95233533D02*
X119745047Y-95376390D01*
X119745047Y-95376390D02*
X119173619Y-95947819D01*
X119173619Y-95947819D02*
X119792666Y-95947819D01*
X158416819Y-95329333D02*
X159131104Y-95329333D01*
X159131104Y-95329333D02*
X159273961Y-95376952D01*
X159273961Y-95376952D02*
X159369200Y-95472190D01*
X159369200Y-95472190D02*
X159416819Y-95615047D01*
X159416819Y-95615047D02*
X159416819Y-95710285D01*
X158416819Y-94948380D02*
X158416819Y-94329333D01*
X158416819Y-94329333D02*
X158797771Y-94662666D01*
X158797771Y-94662666D02*
X158797771Y-94519809D01*
X158797771Y-94519809D02*
X158845390Y-94424571D01*
X158845390Y-94424571D02*
X158893009Y-94376952D01*
X158893009Y-94376952D02*
X158988247Y-94329333D01*
X158988247Y-94329333D02*
X159226342Y-94329333D01*
X159226342Y-94329333D02*
X159321580Y-94376952D01*
X159321580Y-94376952D02*
X159369200Y-94424571D01*
X159369200Y-94424571D02*
X159416819Y-94519809D01*
X159416819Y-94519809D02*
X159416819Y-94805523D01*
X159416819Y-94805523D02*
X159369200Y-94900761D01*
X159369200Y-94900761D02*
X159321580Y-94948380D01*
X135061819Y-93207904D02*
X135871342Y-93207904D01*
X135871342Y-93207904D02*
X135966580Y-93160285D01*
X135966580Y-93160285D02*
X136014200Y-93112666D01*
X136014200Y-93112666D02*
X136061819Y-93017428D01*
X136061819Y-93017428D02*
X136061819Y-92826952D01*
X136061819Y-92826952D02*
X136014200Y-92731714D01*
X136014200Y-92731714D02*
X135966580Y-92684095D01*
X135966580Y-92684095D02*
X135871342Y-92636476D01*
X135871342Y-92636476D02*
X135061819Y-92636476D01*
X135061819Y-92255523D02*
X135061819Y-91636476D01*
X135061819Y-91636476D02*
X135442771Y-91969809D01*
X135442771Y-91969809D02*
X135442771Y-91826952D01*
X135442771Y-91826952D02*
X135490390Y-91731714D01*
X135490390Y-91731714D02*
X135538009Y-91684095D01*
X135538009Y-91684095D02*
X135633247Y-91636476D01*
X135633247Y-91636476D02*
X135871342Y-91636476D01*
X135871342Y-91636476D02*
X135966580Y-91684095D01*
X135966580Y-91684095D02*
X136014200Y-91731714D01*
X136014200Y-91731714D02*
X136061819Y-91826952D01*
X136061819Y-91826952D02*
X136061819Y-92112666D01*
X136061819Y-92112666D02*
X136014200Y-92207904D01*
X136014200Y-92207904D02*
X135966580Y-92255523D01*
X139700095Y-99530819D02*
X139700095Y-100340342D01*
X139700095Y-100340342D02*
X139747714Y-100435580D01*
X139747714Y-100435580D02*
X139795333Y-100483200D01*
X139795333Y-100483200D02*
X139890571Y-100530819D01*
X139890571Y-100530819D02*
X140081047Y-100530819D01*
X140081047Y-100530819D02*
X140176285Y-100483200D01*
X140176285Y-100483200D02*
X140223904Y-100435580D01*
X140223904Y-100435580D02*
X140271523Y-100340342D01*
X140271523Y-100340342D02*
X140271523Y-99530819D01*
X141271523Y-100530819D02*
X140700095Y-100530819D01*
X140985809Y-100530819D02*
X140985809Y-99530819D01*
X140985809Y-99530819D02*
X140890571Y-99673676D01*
X140890571Y-99673676D02*
X140795333Y-99768914D01*
X140795333Y-99768914D02*
X140700095Y-99816533D01*
X136652000Y-96863819D02*
X136652000Y-97101914D01*
X136413905Y-97006676D02*
X136652000Y-97101914D01*
X136652000Y-97101914D02*
X136890095Y-97006676D01*
X136509143Y-97292390D02*
X136652000Y-97101914D01*
X136652000Y-97101914D02*
X136794857Y-97292390D01*
X136652000Y-96863819D02*
X136652000Y-97101914D01*
X136413905Y-97006676D02*
X136652000Y-97101914D01*
X136652000Y-97101914D02*
X136890095Y-97006676D01*
X136509143Y-97292390D02*
X136652000Y-97101914D01*
X136652000Y-97101914D02*
X136794857Y-97292390D01*
D11*
%TO.C,U5*%
X126212600Y-97663000D02*
X126212600Y-97967181D01*
X126212600Y-99644819D02*
X126212600Y-100507181D01*
X126212600Y-102184819D02*
X126212600Y-102489000D01*
X126212600Y-102489000D02*
X132867400Y-102489000D01*
X132867400Y-97663000D02*
X126212600Y-97663000D01*
X132867400Y-97967181D02*
X132867400Y-97663000D01*
X132867400Y-100507181D02*
X132867400Y-99644819D01*
X132867400Y-102489000D02*
X132867400Y-102184819D01*
D12*
%TO.C,U4*%
X125431000Y-89806000D02*
X125431000Y-91456000D01*
X125431000Y-93456000D02*
X125431000Y-95106000D01*
X125431000Y-95106000D02*
X133171000Y-95106000D01*
X133171000Y-89806000D02*
X125431000Y-89806000D01*
X133171000Y-95106000D02*
X133171000Y-89806000D01*
X125431000Y-91456000D02*
G75*
G02*
X125431000Y-93456000I0J-1000000D01*
G01*
%TO.C,J1*%
X113776000Y-87911000D02*
X113776000Y-89161000D01*
X114066000Y-88201000D02*
X114066000Y-94171000D01*
X114066000Y-94171000D02*
X124186000Y-94171000D01*
X114076000Y-88211000D02*
X114076000Y-88961000D01*
X114076000Y-88961000D02*
X115876000Y-88961000D01*
X114076000Y-90461000D02*
X114826000Y-90461000D01*
X114826000Y-90461000D02*
X114826000Y-93411000D01*
X114826000Y-93411000D02*
X119126000Y-93411000D01*
X115026000Y-87911000D02*
X113776000Y-87911000D01*
X115876000Y-88211000D02*
X114076000Y-88211000D01*
X115876000Y-88961000D02*
X115876000Y-88211000D01*
X117376000Y-88211000D02*
X117376000Y-88961000D01*
X117376000Y-88961000D02*
X120876000Y-88961000D01*
X120876000Y-88211000D02*
X117376000Y-88211000D01*
X120876000Y-88961000D02*
X120876000Y-88211000D01*
X122376000Y-88211000D02*
X122376000Y-88961000D01*
X122376000Y-88961000D02*
X124176000Y-88961000D01*
X123426000Y-90461000D02*
X123426000Y-93411000D01*
X123426000Y-93411000D02*
X119126000Y-93411000D01*
X124176000Y-88211000D02*
X122376000Y-88211000D01*
X124176000Y-88961000D02*
X124176000Y-88211000D01*
X124176000Y-90461000D02*
X123426000Y-90461000D01*
X124186000Y-88201000D02*
X114066000Y-88201000D01*
X124186000Y-94171000D02*
X124186000Y-88201000D01*
%TO.C,J2*%
X113776000Y-96293000D02*
X113776000Y-97543000D01*
X114066000Y-96583000D02*
X114066000Y-102553000D01*
X114066000Y-102553000D02*
X124186000Y-102553000D01*
X114076000Y-96593000D02*
X114076000Y-97343000D01*
X114076000Y-97343000D02*
X115876000Y-97343000D01*
X114076000Y-98843000D02*
X114826000Y-98843000D01*
X114826000Y-98843000D02*
X114826000Y-101793000D01*
X114826000Y-101793000D02*
X119126000Y-101793000D01*
X115026000Y-96293000D02*
X113776000Y-96293000D01*
X115876000Y-96593000D02*
X114076000Y-96593000D01*
X115876000Y-97343000D02*
X115876000Y-96593000D01*
X117376000Y-96593000D02*
X117376000Y-97343000D01*
X117376000Y-97343000D02*
X120876000Y-97343000D01*
X120876000Y-96593000D02*
X117376000Y-96593000D01*
X120876000Y-97343000D02*
X120876000Y-96593000D01*
X122376000Y-96593000D02*
X122376000Y-97343000D01*
X122376000Y-97343000D02*
X124176000Y-97343000D01*
X123426000Y-98843000D02*
X123426000Y-101793000D01*
X123426000Y-101793000D02*
X119126000Y-101793000D01*
X124176000Y-96593000D02*
X122376000Y-96593000D01*
X124176000Y-97343000D02*
X124176000Y-96593000D01*
X124176000Y-98843000D02*
X123426000Y-98843000D01*
X124186000Y-96583000D02*
X114066000Y-96583000D01*
X124186000Y-102553000D02*
X124186000Y-96583000D01*
%TO.C,J3*%
X148652000Y-92656000D02*
X148652000Y-97336000D01*
X152222000Y-90936000D02*
X156472000Y-90936000D01*
X152222000Y-99056000D02*
X156472000Y-99056000D01*
X154872000Y-91956000D02*
X154872000Y-93236000D01*
X154872000Y-93236000D02*
X157762000Y-93236000D01*
X154872000Y-98036000D02*
X154872000Y-96756000D01*
X156472000Y-90936000D02*
X156472000Y-91956000D01*
X156472000Y-91956000D02*
X154872000Y-91956000D01*
X156472000Y-98036000D02*
X154872000Y-98036000D01*
X156472000Y-99056000D02*
X156472000Y-98036000D01*
%TO.C,U3*%
X136607000Y-89796000D02*
X136607000Y-91446000D01*
X136607000Y-93446000D02*
X136607000Y-95096000D01*
X136607000Y-95096000D02*
X144347000Y-95096000D01*
X144347000Y-89796000D02*
X136607000Y-89796000D01*
X144347000Y-95096000D02*
X144347000Y-89796000D01*
X136607000Y-91446000D02*
G75*
G02*
X136607000Y-93446000I0J-1000000D01*
G01*
D11*
%TO.C,U1*%
X137134600Y-97663000D02*
X137134600Y-97967181D01*
X137134600Y-99644819D02*
X137134600Y-100507181D01*
X137134600Y-102184819D02*
X137134600Y-102489000D01*
X137134600Y-102489000D02*
X143789400Y-102489000D01*
X143789400Y-97663000D02*
X137134600Y-97663000D01*
X143789400Y-97967181D02*
X143789400Y-97663000D01*
X143789400Y-100507181D02*
X143789400Y-99644819D01*
X143789400Y-102489000D02*
X143789400Y-102184819D01*
%TD*%
M02*
